<svg width="520" height="134" viewBox="0 0 520 134" fill="none" xmlns="http://www.w3.org/2000/svg">
<rect y="24.394" width="520" height="109.205" rx="28.4444" fill="url(#paint0_linear_721_27961)"/>
<path d="M42.3224 63.6576H38.5677L37.4002 76.4614H31.3415L32.509 63.6576H28.5553L29.2478 58.8704H43.1002L42.3224 63.6576ZM49.1638 70.2295C49.0708 71.2492 49.4794 71.7591 50.3896 71.7591C51.3188 71.7591 51.8308 71.2398 51.9255 70.2011L52.9587 58.8704H59.0458L57.979 70.5694C57.7896 72.6467 56.9942 74.1952 55.5927 75.215C54.1913 76.2348 52.2675 76.7447 49.8213 76.7447C44.853 76.7447 42.5548 74.7051 42.9267 70.626L43.9987 58.8704H50.1995L49.1638 70.2295ZM72.8964 70.966H71.6733L71.1722 76.4614H65.1989L66.8029 58.8704H73.6864C76.0189 58.8704 77.673 59.3425 78.6488 60.2867C79.6247 61.2309 80.0136 62.7889 79.8155 64.9607C79.6175 67.1324 78.9643 68.6809 77.8559 69.6063C76.7493 70.5127 75.0961 70.966 72.8964 70.966ZM73.5554 66.8586C73.7536 66.5564 73.8854 66.0465 73.9509 65.3289C74.0163 64.6113 73.968 64.1014 73.8059 63.7993C73.6628 63.4971 73.3447 63.346 72.8517 63.346H72.2543L71.8927 67.3118H72.6323C73.0684 67.3118 73.3761 67.1607 73.5554 66.8586ZM95.197 64.5358C95.0936 65.6688 94.8214 66.5753 94.3801 67.2551C93.9595 67.9161 93.3373 68.5015 92.5133 69.0114L94.4793 76.4614H88.1931L86.9823 70.3994H86.5272L85.9744 76.4614H80.1433L81.7473 58.8704H89.2851C91.4848 58.8704 93.064 59.333 94.0225 60.2584C94.9828 61.1648 95.3743 62.5906 95.197 64.5358ZM87.4396 66.9435C87.8758 66.9435 88.1904 66.8208 88.3834 66.5753C88.5972 66.3109 88.7333 65.8577 88.7919 65.2156C88.8504 64.5735 88.7961 64.1297 88.6288 63.8842C88.4616 63.6387 88.1788 63.516 87.7806 63.516H87.0411L86.7285 66.9435H87.4396ZM102.344 76.4614H96.3418L97.9458 58.8704H103.948L102.344 76.4614ZM124.011 76.4614H118.635L119.399 68.0766H119.257L116.814 76.4614H111.836L110.951 68.0766H110.809L110.044 76.4614H104.725L107.012 58.8704H114.578L115.189 66.8302H115.445L117.48 58.8704H124.96L124.011 76.4614ZM137.491 76.4614H126.227L127.831 58.8704H139.493L138.668 63.5443H133.492L133.298 65.6688H137.821L137.449 69.7479H132.926L132.706 72.1557H138.281L137.491 76.4614ZM154.391 64.5358C154.288 65.6688 154.016 66.5753 153.575 67.2551C153.154 67.9161 152.532 68.5015 151.708 69.0114L153.674 76.4614H147.388L146.177 70.3994H145.722L145.169 76.4614H139.338L140.942 58.8704H148.48C150.679 58.8704 152.258 59.333 153.217 60.2584C154.177 61.1648 154.569 62.5906 154.391 64.5358ZM146.634 66.9435C147.07 66.9435 147.385 66.8208 147.578 66.5753C147.792 66.3109 147.928 65.8577 147.986 65.2156C148.045 64.5735 147.991 64.1297 147.823 63.8842C147.656 63.6387 147.373 63.516 146.975 63.516H146.236L145.923 66.9435H146.634ZM172.046 76.4614H160.782L162.386 58.8704H174.048L173.224 63.5443H168.047L167.853 65.6688H172.376L172.004 69.7479H167.481L167.262 72.1557H172.837L172.046 76.4614ZM188.884 76.4614H183.081L180.13 69.5213H179.931L179.298 76.4614H173.893L175.497 58.8704H181.499L184.202 66.0371H184.373L185.026 58.8704H190.488L188.884 76.4614ZM207.68 58.8704L202.663 76.4614H193.93L191.922 58.8704H198.492L198.874 69.6629H199.215L201.422 58.8704H207.68ZM213.705 76.4614H207.704L209.308 58.8704H215.309L213.705 76.4614ZM217.667 54.2248L213.592 57.7373H209.838L211.893 54.2248H217.667ZM216.358 67.5667C216.645 64.413 217.479 62.128 218.86 60.7116C220.26 59.2953 222.401 58.5871 225.283 58.5871C228.184 58.5871 230.188 59.2858 231.293 60.6833C232.417 62.0808 232.835 64.3564 232.548 67.5101C232.262 70.6449 231.405 72.9677 229.978 74.4785C228.57 75.9893 226.434 76.7447 223.571 76.7447C220.726 76.7447 218.737 75.9987 217.602 74.5068C216.487 73.0149 216.072 70.7016 216.358 67.5667ZM226.365 64.1958C226.163 63.7048 225.654 63.4593 224.839 63.4593C224.023 63.4593 223.48 63.6954 223.21 64.1675C222.939 64.6396 222.733 65.6499 222.592 67.1985L222.479 68.4449C222.334 70.0312 222.363 71.0604 222.567 71.5325C222.77 72.0046 223.289 72.2407 224.124 72.2407C224.958 72.2407 225.5 72.0141 225.75 71.5608C226 71.1076 226.196 70.0973 226.339 68.5299L226.458 67.2268C226.599 65.6783 226.568 64.6679 226.365 64.1958ZM250.13 76.4614H238.866L240.47 58.8704H252.132L251.307 63.5443H246.13L245.937 65.6688H250.459L250.087 69.7479H245.565L245.345 72.1557H250.92L250.13 76.4614ZM252.213 64.5074C252.384 62.6379 253.085 61.1837 254.318 60.1451C255.55 59.1064 257.172 58.5871 259.182 58.5871C261.211 58.5871 263.279 58.7759 265.388 59.1536L264.279 64.1392C261.952 63.6671 260.418 63.431 259.679 63.431C258.939 63.431 258.549 63.6576 258.507 64.1109C258.492 64.2808 258.537 64.4036 258.644 64.4791C258.753 64.5358 258.834 64.583 258.887 64.6207C258.941 64.6585 259.041 64.7057 259.187 64.7624C259.353 64.819 259.48 64.8757 259.57 64.9323C259.68 64.9701 260.009 65.1117 260.555 65.3572C261.123 65.5839 261.542 65.7727 261.812 65.9238C262.104 66.056 262.491 66.2826 262.973 66.6036C264.365 67.5667 264.975 68.9831 264.805 70.8527C264.634 72.7222 263.942 74.1764 262.729 75.215C261.517 76.2348 259.858 76.7447 257.753 76.7447C255.668 76.7447 253.643 76.4897 251.679 75.9798L252.514 71.1926C254.996 71.8347 256.683 72.1557 257.575 72.1557C258.162 72.1557 258.475 71.948 258.513 71.5325C258.53 71.3437 258.468 71.1926 258.327 71.0793C258.205 70.966 258.007 70.8432 257.735 70.711C257.481 70.5788 257.099 70.4089 256.587 70.2011C256.076 69.9745 255.648 69.7857 255.301 69.6346C254.957 69.4646 254.553 69.2097 254.091 68.8698C252.669 67.8311 252.043 66.377 252.213 64.5074Z" fill="white"/>
<path d="M279.332 72.1274C279.674 72.1274 280.134 72.0707 280.713 71.9574L280.868 70.2578H279.446L279.802 66.3487H286.515L285.593 76.4614H281.298L280.954 75.5549H280.84C279.782 76.3481 278.579 76.7447 277.233 76.7447C272.796 76.7447 270.849 73.7609 271.393 67.7934C271.665 64.8096 272.47 62.534 273.808 60.9666C275.166 59.3803 277.277 58.5871 280.14 58.5871C282.264 58.5871 284.248 58.8798 286.09 59.4652L284.666 64.7907C282.596 64.2053 281.096 63.9126 280.167 63.9126C279.256 63.9126 278.622 64.2147 278.264 64.819C277.924 65.4233 277.688 66.4525 277.555 67.9067C277.423 69.3608 277.458 70.4278 277.662 71.1076C277.884 71.7874 278.441 72.1274 279.332 72.1274ZM303.03 64.5358C302.927 65.6688 302.655 66.5753 302.213 67.2551C301.793 67.9161 301.171 68.5015 300.347 69.0114L302.313 76.4614H296.026L294.816 70.3994H294.361L293.808 76.4614H287.977L289.581 58.8704H297.118C299.318 58.8704 300.897 59.333 301.856 60.2584C302.816 61.1648 303.208 62.5906 303.03 64.5358ZM295.273 66.9435C295.709 66.9435 296.024 66.8208 296.217 66.5753C296.431 66.3109 296.567 65.8577 296.625 65.2156C296.684 64.5735 296.629 64.1297 296.462 63.8842C296.295 63.6387 296.012 63.516 295.614 63.516H294.874L294.562 66.9435H295.273ZM318.881 76.4614H312.908L312.587 73.742H309.429L308.584 76.4614H302.867L308.14 58.8704H316.816L318.881 76.4614ZM312.493 70.0878L311.95 64.1958H311.836L310.189 70.0878H312.493ZM333.545 63.6576H329.79L328.622 76.4614H322.564L323.731 63.6576H319.777L320.47 58.8704H334.322L333.545 63.6576ZM339.732 76.4614H333.731L335.335 58.8704H341.336L339.732 76.4614ZM342.408 64.5074C342.578 62.6379 343.28 61.1837 344.512 60.1451C345.745 59.1064 347.366 58.5871 349.376 58.5871C351.405 58.5871 353.474 58.7759 355.582 59.1536L354.473 64.1392C352.146 63.6671 350.613 63.431 349.873 63.431C349.133 63.431 348.743 63.6576 348.702 64.1109C348.686 64.2808 348.732 64.4036 348.839 64.4791C348.947 64.5358 349.028 64.583 349.082 64.6207C349.135 64.6585 349.235 64.7057 349.382 64.7624C349.547 64.819 349.675 64.8757 349.765 64.9323C349.875 64.9701 350.203 65.1117 350.75 65.3572C351.317 65.5839 351.736 65.7727 352.007 65.9238C352.298 66.056 352.685 66.2826 353.168 66.6036C354.559 67.5667 355.169 68.9831 354.999 70.8527C354.828 72.7222 354.136 74.1764 352.923 75.215C351.711 76.2348 350.053 76.7447 347.948 76.7447C345.862 76.7447 343.837 76.4897 341.874 75.9798L342.708 71.1926C345.191 71.8347 346.878 72.1557 347.769 72.1557C348.357 72.1557 348.67 71.948 348.708 71.5325C348.725 71.3437 348.663 71.1926 348.521 71.0793C348.399 70.966 348.202 70.8432 347.929 70.711C347.676 70.5788 347.293 70.4089 346.781 70.2011C346.271 69.9745 345.842 69.7857 345.496 69.6346C345.151 69.4646 344.748 69.2097 344.286 68.8698C342.863 67.8311 342.237 66.377 342.408 64.5074Z" fill="#F4C12A"/>
<path d="M37.3957 89.3215V99.4326H36.0485L30.9582 91.634V99.4326H29.6179V89.3215H30.9582L36.0693 97.141V89.3215H37.3957ZM39.3693 95.759V95.5993C39.3693 95.0576 39.448 94.5553 39.6054 94.0923C39.7629 93.6247 39.9897 93.2197 40.286 92.8771C40.5823 92.5298 40.9411 92.2613 41.3624 92.0715C41.7837 91.8771 42.2559 91.7798 42.7791 91.7798C43.3068 91.7798 43.7814 91.8771 44.2027 92.0715C44.6286 92.2613 44.9897 92.5298 45.286 92.8771C45.5869 93.2197 45.8161 93.6247 45.9735 94.0923C46.1309 94.5553 46.2096 95.0576 46.2096 95.5993V95.759C46.2096 96.3007 46.1309 96.803 45.9735 97.266C45.8161 97.7289 45.5869 98.134 45.286 98.4812C44.9897 98.8238 44.6309 99.0923 44.2096 99.2868C43.7929 99.4766 43.3207 99.5715 42.7929 99.5715C42.2652 99.5715 41.7906 99.4766 41.3693 99.2868C40.948 99.0923 40.5869 98.8238 40.286 98.4812C39.9897 98.134 39.7629 97.7289 39.6054 97.266C39.448 96.803 39.3693 96.3007 39.3693 95.759ZM40.6541 95.5993V95.759C40.6541 96.134 40.698 96.4882 40.786 96.8215C40.874 97.1502 41.0059 97.4419 41.1818 97.6965C41.3624 97.9511 41.5869 98.1525 41.8554 98.3007C42.124 98.4442 42.4365 98.516 42.7929 98.516C43.1448 98.516 43.4527 98.4442 43.7166 98.3007C43.9851 98.1525 44.2073 97.9511 44.3832 97.6965C44.5592 97.4419 44.6911 97.1502 44.7791 96.8215C44.8717 96.4882 44.9179 96.134 44.9179 95.759V95.5993C44.9179 95.2289 44.8717 94.8794 44.7791 94.5507C44.6911 94.2173 44.5568 93.9234 44.3763 93.6687C44.2004 93.4095 43.9781 93.2058 43.7096 93.0576C43.4457 92.9095 43.1355 92.8354 42.7791 92.8354C42.4272 92.8354 42.117 92.9095 41.8485 93.0576C41.5846 93.2058 41.3624 93.4095 41.1818 93.6687C41.0059 93.9234 40.874 94.2173 40.786 94.5507C40.698 94.8794 40.6541 95.2289 40.6541 95.5993ZM54.761 91.9187V92.9048H50.6985V91.9187H54.761ZM52.0735 90.0923H53.3582V97.5715C53.3582 97.8261 53.3976 98.0183 53.4763 98.1479C53.555 98.2775 53.6568 98.3632 53.7818 98.4048C53.9068 98.4465 54.0411 98.4673 54.1846 98.4673C54.2911 98.4673 54.4022 98.4581 54.5179 98.4396C54.6383 98.4164 54.7286 98.3979 54.7888 98.384L54.7957 99.4326C54.6939 99.465 54.5596 99.4951 54.3929 99.5229C54.2309 99.5553 54.0342 99.5715 53.8027 99.5715C53.4879 99.5715 53.1985 99.509 52.9346 99.384C52.6707 99.259 52.4601 99.0507 52.3027 98.759C52.1499 98.4627 52.0735 98.0646 52.0735 97.5646V90.0923ZM59.5193 99.5715C58.9962 99.5715 58.5217 99.4835 58.0957 99.3076C57.6744 99.1271 57.311 98.8747 57.0054 98.5507C56.7045 98.2266 56.473 97.8423 56.311 97.3979C56.149 96.9535 56.0679 96.4673 56.0679 95.9396V95.6479C56.0679 95.0368 56.1582 94.4928 56.3388 94.016C56.5193 93.5345 56.7647 93.1271 57.0749 92.7937C57.3851 92.4604 57.7369 92.2081 58.1304 92.0368C58.524 91.8655 58.9314 91.7798 59.3527 91.7798C59.8897 91.7798 60.3527 91.8724 60.7416 92.0576C61.1351 92.2428 61.4568 92.5021 61.7068 92.8354C61.9568 93.1641 62.142 93.553 62.2624 94.0021C62.3828 94.4465 62.4429 94.9326 62.4429 95.4604V96.0368H56.8318V94.9882H61.1582V94.891C61.1397 94.5576 61.0703 94.2335 60.9499 93.9187C60.8342 93.6039 60.649 93.3447 60.3943 93.141C60.1397 92.9372 59.7925 92.8354 59.3527 92.8354C59.061 92.8354 58.7925 92.8979 58.5471 93.0229C58.3017 93.1433 58.0911 93.3238 57.9152 93.5646C57.7392 93.8053 57.6027 94.0993 57.5054 94.4465C57.4082 94.7937 57.3596 95.1942 57.3596 95.6479V95.9396C57.3596 96.296 57.4082 96.6317 57.5054 96.9465C57.6073 97.2567 57.7531 97.5298 57.9429 97.766C58.1374 98.0021 58.3712 98.1872 58.6443 98.3215C58.9221 98.4558 59.2369 98.5229 59.5888 98.5229C60.0425 98.5229 60.4267 98.4303 60.7416 98.2451C61.0564 98.0599 61.3318 97.8122 61.5679 97.5021L62.3457 98.1201C62.1837 98.3655 61.9777 98.5993 61.7277 98.8215C61.4777 99.0437 61.1698 99.2243 60.8041 99.3632C60.4429 99.5021 60.0147 99.5715 59.5193 99.5715ZM70.7443 98.516C71.0499 98.516 71.3323 98.4535 71.5916 98.3285C71.8508 98.2035 72.0638 98.0322 72.2304 97.8146C72.3971 97.5923 72.492 97.34 72.5152 97.0576H73.7374C73.7142 97.5021 73.5638 97.9164 73.286 98.3007C73.0129 98.6803 72.6541 98.9882 72.2096 99.2243C71.7652 99.4558 71.2767 99.5715 70.7443 99.5715C70.1795 99.5715 69.6865 99.472 69.2652 99.2729C68.8485 99.0738 68.5013 98.8007 68.2235 98.4535C67.9504 98.1062 67.7443 97.7081 67.6054 97.259C67.4712 96.8053 67.4041 96.3261 67.4041 95.8215V95.5298C67.4041 95.0252 67.4712 94.5484 67.6054 94.0993C67.7443 93.6456 67.9504 93.2451 68.2235 92.8979C68.5013 92.5507 68.8485 92.2775 69.2652 92.0785C69.6865 91.8794 70.1795 91.7798 70.7443 91.7798C71.3323 91.7798 71.8462 91.9002 72.286 92.141C72.7258 92.3771 73.0707 92.7011 73.3207 93.1132C73.5754 93.5206 73.7142 93.9835 73.7374 94.5021H72.5152C72.492 94.1919 72.4041 93.9118 72.2513 93.6618C72.1031 93.4118 71.8994 93.2127 71.6402 93.0646C71.3855 92.9118 71.0869 92.8354 70.7443 92.8354C70.3508 92.8354 70.0198 92.9141 69.7513 93.0715C69.4874 93.2243 69.2767 93.4326 69.1193 93.6965C68.9666 93.9558 68.8554 94.2451 68.786 94.5646C68.7212 94.8794 68.6888 95.2011 68.6888 95.5298V95.8215C68.6888 96.1502 68.7212 96.4743 68.786 96.7937C68.8508 97.1132 68.9596 97.4025 69.1124 97.6618C69.2698 97.921 69.4804 98.1294 69.7443 98.2868C70.0129 98.4396 70.3462 98.516 70.7443 98.516ZM74.9749 95.759V95.5993C74.9749 95.0576 75.0536 94.5553 75.211 94.0923C75.3684 93.6247 75.5953 93.2197 75.8916 92.8771C76.1879 92.5298 76.5467 92.2613 76.9679 92.0715C77.3892 91.8771 77.8615 91.7798 78.3846 91.7798C78.9124 91.7798 79.3869 91.8771 79.8082 92.0715C80.2342 92.2613 80.5953 92.5298 80.8916 92.8771C81.1925 93.2197 81.4217 93.6247 81.5791 94.0923C81.7365 94.5553 81.8152 95.0576 81.8152 95.5993V95.759C81.8152 96.3007 81.7365 96.803 81.5791 97.266C81.4217 97.7289 81.1925 98.134 80.8916 98.4812C80.5953 98.8238 80.2365 99.0923 79.8152 99.2868C79.3985 99.4766 78.9263 99.5715 78.3985 99.5715C77.8707 99.5715 77.3962 99.4766 76.9749 99.2868C76.5536 99.0923 76.1925 98.8238 75.8916 98.4812C75.5953 98.134 75.3684 97.7289 75.211 97.266C75.0536 96.803 74.9749 96.3007 74.9749 95.759ZM76.2596 95.5993V95.759C76.2596 96.134 76.3036 96.4882 76.3916 96.8215C76.4795 97.1502 76.6115 97.4419 76.7874 97.6965C76.9679 97.9511 77.1925 98.1525 77.461 98.3007C77.7295 98.4442 78.042 98.516 78.3985 98.516C78.7504 98.516 79.0582 98.4442 79.3221 98.3007C79.5906 98.1525 79.8129 97.9511 79.9888 97.6965C80.1647 97.4419 80.2967 97.1502 80.3846 96.8215C80.4772 96.4882 80.5235 96.134 80.5235 95.759V95.5993C80.5235 95.2289 80.4772 94.8794 80.3846 94.5507C80.2967 94.2173 80.1624 93.9234 79.9818 93.6687C79.8059 93.4095 79.5837 93.2058 79.3152 93.0576C79.0513 92.9095 78.7411 92.8354 78.3846 92.8354C78.0328 92.8354 77.7226 92.9095 77.4541 93.0576C77.1902 93.2058 76.9679 93.4095 76.7874 93.6687C76.6115 93.9234 76.4795 94.2173 76.3916 94.5507C76.3036 94.8794 76.2596 95.2289 76.2596 95.5993ZM83.5527 88.766H84.8443V97.9743L84.7332 99.4326H83.5527V88.766ZM89.9207 95.6132V95.759C89.9207 96.3053 89.8559 96.8122 89.7263 97.2798C89.5967 97.7428 89.4068 98.1456 89.1568 98.4882C88.9068 98.8308 88.6013 99.097 88.2402 99.2868C87.8791 99.4766 87.4647 99.5715 86.9971 99.5715C86.5203 99.5715 86.1013 99.4905 85.7402 99.3285C85.3837 99.1618 85.0828 98.9234 84.8374 98.6132C84.592 98.303 84.3953 97.928 84.2471 97.4882C84.1036 97.0484 84.0041 96.553 83.9485 96.0021V95.3632C84.0041 94.8076 84.1036 94.3099 84.2471 93.8701C84.3953 93.4303 84.592 93.0553 84.8374 92.7451C85.0828 92.4303 85.3837 92.1919 85.7402 92.0298C86.0967 91.8632 86.511 91.7798 86.9832 91.7798C87.4554 91.7798 87.8744 91.8724 88.2402 92.0576C88.6059 92.2382 88.9115 92.4974 89.1568 92.8354C89.4068 93.1734 89.5967 93.5785 89.7263 94.0507C89.8559 94.5183 89.9207 95.0391 89.9207 95.6132ZM88.6291 95.759V95.6132C88.6291 95.2382 88.5943 94.8863 88.5249 94.5576C88.4554 94.2243 88.3443 93.9326 88.1916 93.6826C88.0388 93.428 87.8374 93.2289 87.5874 93.0854C87.3374 92.9372 87.0295 92.8632 86.6638 92.8632C86.3397 92.8632 86.0573 92.9187 85.8166 93.0298C85.5804 93.141 85.3791 93.2914 85.2124 93.4812C85.0457 93.6664 84.9092 93.8794 84.8027 94.1201C84.7008 94.3562 84.6244 94.6016 84.5735 94.8562V96.5298C84.6476 96.8539 84.7679 97.1664 84.9346 97.4673C85.1059 97.7636 85.3328 98.0067 85.6152 98.1965C85.9022 98.3863 86.2564 98.4812 86.6777 98.4812C87.0249 98.4812 87.3212 98.4118 87.5666 98.2729C87.8166 98.1294 88.0179 97.9326 88.1707 97.6826C88.3281 97.4326 88.4439 97.1433 88.5179 96.8146C88.592 96.4859 88.6291 96.134 88.6291 95.759ZM92.9638 93.0993V99.4326H91.6791V91.9187H92.9291L92.9638 93.0993ZM95.311 91.8771L95.3041 93.0715C95.1976 93.0484 95.0957 93.0345 94.9985 93.0298C94.9059 93.0206 94.7994 93.016 94.6791 93.016C94.3828 93.016 94.1212 93.0622 93.8943 93.1548C93.6675 93.2474 93.4754 93.3771 93.3179 93.5437C93.1605 93.7104 93.0355 93.9095 92.9429 94.141C92.855 94.3678 92.7971 94.6178 92.7693 94.891L92.4082 95.0993C92.4082 94.6456 92.4522 94.2197 92.5402 93.8215C92.6328 93.4234 92.774 93.0715 92.9638 92.766C93.1536 92.4558 93.3943 92.215 93.686 92.0437C93.9823 91.8678 94.3342 91.7798 94.7416 91.7798C94.8342 91.7798 94.9406 91.7914 95.061 91.8146C95.1814 91.8331 95.2647 91.8539 95.311 91.8771ZM100.785 98.1479V94.2798C100.785 93.9835 100.724 93.7266 100.604 93.509C100.488 93.2868 100.312 93.1155 100.076 92.9951C99.8402 92.8747 99.5485 92.8146 99.2013 92.8146C98.8772 92.8146 98.5925 92.8701 98.3471 92.9812C98.1064 93.0923 97.9166 93.2382 97.7777 93.4187C97.6434 93.5993 97.5763 93.7937 97.5763 94.0021H96.2916C96.2916 93.7335 96.361 93.4673 96.4999 93.2035C96.6388 92.9396 96.8379 92.7011 97.0971 92.4882C97.361 92.2706 97.6758 92.0993 98.0416 91.9743C98.4119 91.8447 98.824 91.7798 99.2777 91.7798C99.824 91.7798 100.305 91.8724 100.722 92.0576C101.143 92.2428 101.472 92.5229 101.708 92.8979C101.949 93.2683 102.069 93.7335 102.069 94.2937V97.7937C102.069 98.0437 102.09 98.3099 102.132 98.5923C102.178 98.8747 102.245 99.1178 102.333 99.3215V99.4326H100.993C100.928 99.2845 100.877 99.0877 100.84 98.8423C100.803 98.5923 100.785 98.3609 100.785 98.1479ZM101.007 94.8771L101.021 95.7798H99.7221C99.3564 95.7798 99.03 95.8099 98.7429 95.8701C98.4559 95.9257 98.2152 96.0113 98.0207 96.1271C97.8263 96.2428 97.6781 96.3886 97.5763 96.5646C97.4744 96.7359 97.4235 96.9372 97.4235 97.1687C97.4235 97.4048 97.4767 97.6201 97.5832 97.8146C97.6897 98.009 97.8494 98.1641 98.0624 98.2798C98.28 98.391 98.5462 98.4465 98.861 98.4465C99.2545 98.4465 99.6017 98.3632 99.9027 98.1965C100.204 98.0298 100.442 97.8261 100.618 97.5854C100.799 97.3447 100.896 97.1109 100.91 96.884L101.458 97.5021C101.426 97.6965 101.338 97.9118 101.194 98.1479C101.051 98.384 100.859 98.6109 100.618 98.8285C100.382 99.0414 100.099 99.2197 99.7707 99.3632C99.4467 99.5021 99.0809 99.5715 98.6735 99.5715C98.1642 99.5715 97.7175 99.472 97.3332 99.2729C96.9536 99.0738 96.6573 98.8076 96.4443 98.4743C96.236 98.1363 96.1318 97.759 96.1318 97.3423C96.1318 96.9396 96.2105 96.5854 96.3679 96.2798C96.5254 95.9697 96.7522 95.7127 97.0485 95.509C97.3448 95.3007 97.7013 95.1433 98.1179 95.0368C98.5346 94.9303 98.9999 94.8771 99.5138 94.8771H101.007ZM105.508 93.0993V99.4326H104.224V91.9187H105.474L105.508 93.0993ZM107.855 91.8771L107.849 93.0715C107.742 93.0484 107.64 93.0345 107.543 93.0298C107.45 93.0206 107.344 93.016 107.224 93.016C106.927 93.016 106.666 93.0622 106.439 93.1548C106.212 93.2474 106.02 93.3771 105.862 93.5437C105.705 93.7104 105.58 93.9095 105.487 94.141C105.399 94.3678 105.342 94.6178 105.314 94.891L104.953 95.0993C104.953 94.6456 104.997 94.2197 105.085 93.8215C105.177 93.4234 105.318 93.0715 105.508 92.766C105.698 92.4558 105.939 92.215 106.23 92.0437C106.527 91.8678 106.879 91.7798 107.286 91.7798C107.379 91.7798 107.485 91.7914 107.605 91.8146C107.726 91.8331 107.809 91.8539 107.855 91.8771ZM112.155 99.5715C111.632 99.5715 111.158 99.4835 110.732 99.3076C110.311 99.1271 109.947 98.8747 109.642 98.5507C109.341 98.2266 109.109 97.8423 108.947 97.3979C108.785 96.9535 108.704 96.4673 108.704 95.9396V95.6479C108.704 95.0368 108.794 94.4928 108.975 94.016C109.155 93.5345 109.401 93.1271 109.711 92.7937C110.021 92.4604 110.373 92.2081 110.767 92.0368C111.16 91.8655 111.567 91.7798 111.989 91.7798C112.526 91.7798 112.989 91.8724 113.378 92.0576C113.771 92.2428 114.093 92.5021 114.343 92.8354C114.593 93.1641 114.778 93.553 114.899 94.0021C115.019 94.4465 115.079 94.9326 115.079 95.4604V96.0368H109.468V94.9882H113.794V94.891C113.776 94.5576 113.706 94.2335 113.586 93.9187C113.47 93.6039 113.285 93.3447 113.03 93.141C112.776 92.9372 112.429 92.8354 111.989 92.8354C111.697 92.8354 111.429 92.8979 111.183 93.0229C110.938 93.1433 110.727 93.3238 110.551 93.5646C110.375 93.8053 110.239 94.0993 110.142 94.4465C110.044 94.7937 109.996 95.1942 109.996 95.6479V95.9396C109.996 96.296 110.044 96.6317 110.142 96.9465C110.243 97.2567 110.389 97.5298 110.579 97.766C110.774 98.0021 111.007 98.1872 111.28 98.3215C111.558 98.4558 111.873 98.5229 112.225 98.5229C112.679 98.5229 113.063 98.4303 113.378 98.2451C113.692 98.0599 113.968 97.8122 114.204 97.5021L114.982 98.1201C114.82 98.3655 114.614 98.5993 114.364 98.8215C114.114 99.0437 113.806 99.2243 113.44 99.3632C113.079 99.5021 112.651 99.5715 112.155 99.5715ZM117.99 93.4118V99.4326H116.699V91.9187H117.921L117.99 93.4118ZM117.726 95.391L117.129 95.3701C117.134 94.8562 117.201 94.3817 117.33 93.9465C117.46 93.5067 117.652 93.1247 117.907 92.8007C118.161 92.4766 118.479 92.2266 118.858 92.0507C119.238 91.8701 119.678 91.7798 120.178 91.7798C120.53 91.7798 120.854 91.8308 121.15 91.9326C121.446 92.0298 121.703 92.1849 121.921 92.3979C122.138 92.6109 122.307 92.884 122.428 93.2173C122.548 93.5507 122.608 93.9535 122.608 94.4257V99.4326H121.324V94.4882C121.324 94.0947 121.256 93.7798 121.122 93.5437C120.992 93.3076 120.807 93.1363 120.567 93.0298C120.326 92.9187 120.043 92.8632 119.719 92.8632C119.34 92.8632 119.023 92.9303 118.768 93.0646C118.513 93.1988 118.31 93.384 118.157 93.6201C118.004 93.8562 117.893 94.1271 117.824 94.4326C117.759 94.7335 117.726 95.053 117.726 95.391ZM122.594 94.6826L121.733 94.9465C121.738 94.5345 121.805 94.1386 121.935 93.759C122.069 93.3794 122.261 93.0414 122.511 92.7451C122.766 92.4488 123.078 92.215 123.449 92.0437C123.819 91.8678 124.242 91.7798 124.719 91.7798C125.122 91.7798 125.479 91.8331 125.789 91.9396C126.104 92.046 126.367 92.2104 126.58 92.4326C126.798 92.6502 126.962 92.9303 127.074 93.2729C127.185 93.6155 127.24 94.0229 127.24 94.4951V99.4326H125.949V94.4812C125.949 94.0599 125.881 93.7335 125.747 93.5021C125.617 93.266 125.432 93.1016 125.192 93.009C124.955 92.9118 124.673 92.8632 124.344 92.8632C124.062 92.8632 123.812 92.9118 123.594 93.009C123.377 93.1062 123.194 93.2405 123.046 93.4118C122.898 93.5785 122.784 93.7706 122.705 93.9882C122.631 94.2058 122.594 94.4372 122.594 94.6826ZM128.978 95.759V95.5993C128.978 95.0576 129.056 94.5553 129.214 94.0923C129.371 93.6247 129.598 93.2197 129.894 92.8771C130.191 92.5298 130.549 92.2613 130.971 92.0715C131.392 91.8771 131.864 91.7798 132.387 91.7798C132.915 91.7798 133.39 91.8771 133.811 92.0715C134.237 92.2613 134.598 92.5298 134.894 92.8771C135.195 93.2197 135.424 93.6247 135.582 94.0923C135.739 94.5553 135.818 95.0576 135.818 95.5993V95.759C135.818 96.3007 135.739 96.803 135.582 97.266C135.424 97.7289 135.195 98.134 134.894 98.4812C134.598 98.8238 134.239 99.0923 133.818 99.2868C133.401 99.4766 132.929 99.5715 132.401 99.5715C131.874 99.5715 131.399 99.4766 130.978 99.2868C130.556 99.0923 130.195 98.8238 129.894 98.4812C129.598 98.134 129.371 97.7289 129.214 97.266C129.056 96.803 128.978 96.3007 128.978 95.759ZM130.262 95.5993V95.759C130.262 96.134 130.306 96.4882 130.394 96.8215C130.482 97.1502 130.614 97.4419 130.79 97.6965C130.971 97.9511 131.195 98.1525 131.464 98.3007C131.732 98.4442 132.045 98.516 132.401 98.516C132.753 98.516 133.061 98.4442 133.325 98.3007C133.593 98.1525 133.816 97.9511 133.992 97.6965C134.167 97.4419 134.299 97.1502 134.387 96.8215C134.48 96.4882 134.526 96.134 134.526 95.759V95.5993C134.526 95.2289 134.48 94.8794 134.387 94.5507C134.299 94.2173 134.165 93.9234 133.985 93.6687C133.809 93.4095 133.586 93.2058 133.318 93.0576C133.054 92.9095 132.744 92.8354 132.387 92.8354C132.036 92.8354 131.725 92.9095 131.457 93.0576C131.193 93.2058 130.971 93.4095 130.79 93.6687C130.614 93.9234 130.482 94.2173 130.394 94.5507C130.306 94.8794 130.262 95.2289 130.262 95.5993ZM141.937 97.4396C141.937 97.2544 141.896 97.0831 141.812 96.9257C141.734 96.7636 141.569 96.6178 141.319 96.4882C141.074 96.3539 140.704 96.2382 140.208 96.141C139.792 96.053 139.414 95.9488 139.076 95.8285C138.743 95.7081 138.458 95.5622 138.222 95.391C137.991 95.2197 137.812 95.0183 137.687 94.7868C137.562 94.5553 137.5 94.2845 137.5 93.9743C137.5 93.678 137.565 93.3979 137.694 93.134C137.829 92.8701 138.016 92.6363 138.257 92.4326C138.502 92.2289 138.796 92.0692 139.139 91.9535C139.481 91.8377 139.863 91.7798 140.285 91.7798C140.886 91.7798 141.4 91.8863 141.826 92.0993C142.252 92.3122 142.579 92.597 142.805 92.9535C143.032 93.3053 143.146 93.6965 143.146 94.1271H141.861C141.861 93.9187 141.799 93.7173 141.674 93.5229C141.553 93.3238 141.375 93.1595 141.139 93.0298C140.907 92.9002 140.623 92.8354 140.285 92.8354C139.928 92.8354 139.639 92.891 139.417 93.0021C139.199 93.1085 139.039 93.2451 138.937 93.4118C138.84 93.5785 138.792 93.7544 138.792 93.9396C138.792 94.0785 138.815 94.2035 138.861 94.3146C138.912 94.421 139 94.5206 139.125 94.6132C139.25 94.7011 139.426 94.7845 139.653 94.8632C139.88 94.9419 140.169 95.0206 140.521 95.0993C141.136 95.2382 141.643 95.4048 142.042 95.5993C142.44 95.7937 142.736 96.0322 142.93 96.3146C143.125 96.597 143.222 96.9396 143.222 97.3423C143.222 97.671 143.153 97.972 143.014 98.2451C142.88 98.5183 142.683 98.7544 142.424 98.9535C142.169 99.1479 141.863 99.3007 141.507 99.4118C141.155 99.5183 140.759 99.5715 140.319 99.5715C139.657 99.5715 139.097 99.4535 138.639 99.2173C138.18 98.9812 137.833 98.6757 137.597 98.3007C137.361 97.9257 137.243 97.5298 137.243 97.1132H138.535C138.553 97.465 138.655 97.7451 138.84 97.9535C139.025 98.1572 139.252 98.303 139.521 98.391C139.789 98.4743 140.055 98.516 140.319 98.516C140.671 98.516 140.965 98.4697 141.201 98.3771C141.442 98.2845 141.625 98.1572 141.75 97.9951C141.875 97.8331 141.937 97.6479 141.937 97.4396ZM151.711 98.516C152.017 98.516 152.299 98.4535 152.558 98.3285C152.817 98.2035 153.03 98.0322 153.197 97.8146C153.364 97.5923 153.459 97.34 153.482 97.0576H154.704C154.681 97.5021 154.53 97.9164 154.253 98.3007C153.98 98.6803 153.621 98.9882 153.176 99.2243C152.732 99.4558 152.243 99.5715 151.711 99.5715C151.146 99.5715 150.653 99.472 150.232 99.2729C149.815 99.0738 149.468 98.8007 149.19 98.4535C148.917 98.1062 148.711 97.7081 148.572 97.259C148.438 96.8053 148.371 96.3261 148.371 95.8215V95.5298C148.371 95.0252 148.438 94.5484 148.572 94.0993C148.711 93.6456 148.917 93.2451 149.19 92.8979C149.468 92.5507 149.815 92.2775 150.232 92.0785C150.653 91.8794 151.146 91.7798 151.711 91.7798C152.299 91.7798 152.813 91.9002 153.253 92.141C153.692 92.3771 154.037 92.7011 154.287 93.1132C154.542 93.5206 154.681 93.9835 154.704 94.5021H153.482C153.459 94.1919 153.371 93.9118 153.218 93.6618C153.07 93.4118 152.866 93.2127 152.607 93.0646C152.352 92.9118 152.054 92.8354 151.711 92.8354C151.317 92.8354 150.986 92.9141 150.718 93.0715C150.454 93.2243 150.243 93.4326 150.086 93.6965C149.933 93.9558 149.822 94.2451 149.753 94.5646C149.688 94.8794 149.655 95.2011 149.655 95.5298V95.8215C149.655 96.1502 149.688 96.4743 149.753 96.7937C149.817 97.1132 149.926 97.4025 150.079 97.6618C150.236 97.921 150.447 98.1294 150.711 98.2868C150.98 98.4396 151.313 98.516 151.711 98.516ZM155.942 95.759V95.5993C155.942 95.0576 156.02 94.5553 156.178 94.0923C156.335 93.6247 156.562 93.2197 156.858 92.8771C157.155 92.5298 157.513 92.2613 157.935 92.0715C158.356 91.8771 158.828 91.7798 159.351 91.7798C159.879 91.7798 160.354 91.8771 160.775 92.0715C161.201 92.2613 161.562 92.5298 161.858 92.8771C162.159 93.2197 162.388 93.6247 162.546 94.0923C162.703 94.5553 162.782 95.0576 162.782 95.5993V95.759C162.782 96.3007 162.703 96.803 162.546 97.266C162.388 97.7289 162.159 98.134 161.858 98.4812C161.562 98.8238 161.203 99.0923 160.782 99.2868C160.365 99.4766 159.893 99.5715 159.365 99.5715C158.837 99.5715 158.363 99.4766 157.942 99.2868C157.52 99.0923 157.159 98.8238 156.858 98.4812C156.562 98.134 156.335 97.7289 156.178 97.266C156.02 96.803 155.942 96.3007 155.942 95.759ZM157.226 95.5993V95.759C157.226 96.134 157.27 96.4882 157.358 96.8215C157.446 97.1502 157.578 97.4419 157.754 97.6965C157.935 97.9511 158.159 98.1525 158.428 98.3007C158.696 98.4442 159.009 98.516 159.365 98.516C159.717 98.516 160.025 98.4442 160.289 98.3007C160.557 98.1525 160.78 97.9511 160.955 97.6965C161.131 97.4419 161.263 97.1502 161.351 96.8215C161.444 96.4882 161.49 96.134 161.49 95.759V95.5993C161.49 95.2289 161.444 94.8794 161.351 94.5507C161.263 94.2173 161.129 93.9234 160.949 93.6687C160.773 93.4095 160.55 93.2058 160.282 93.0576C160.018 92.9095 159.708 92.8354 159.351 92.8354C158.999 92.8354 158.689 92.9095 158.421 93.0576C158.157 93.2058 157.935 93.4095 157.754 93.6687C157.578 93.9234 157.446 94.2173 157.358 94.5507C157.27 94.8794 157.226 95.2289 157.226 95.5993ZM165.804 93.4118V99.4326H164.512V91.9187H165.735L165.804 93.4118ZM165.54 95.391L164.943 95.3701C164.948 94.8562 165.015 94.3817 165.144 93.9465C165.274 93.5067 165.466 93.1247 165.721 92.8007C165.975 92.4766 166.292 92.2266 166.672 92.0507C167.052 91.8701 167.492 91.7798 167.992 91.7798C168.343 91.7798 168.667 91.8308 168.964 91.9326C169.26 92.0298 169.517 92.1849 169.735 92.3979C169.952 92.6109 170.121 92.884 170.242 93.2173C170.362 93.5507 170.422 93.9535 170.422 94.4257V99.4326H169.137V94.4882C169.137 94.0947 169.07 93.7798 168.936 93.5437C168.806 93.3076 168.621 93.1363 168.38 93.0298C168.14 92.9187 167.857 92.8632 167.533 92.8632C167.154 92.8632 166.836 92.9303 166.582 93.0646C166.327 93.1988 166.124 93.384 165.971 93.6201C165.818 93.8562 165.707 94.1271 165.637 94.4326C165.573 94.7335 165.54 95.053 165.54 95.391ZM170.408 94.6826L169.547 94.9465C169.552 94.5345 169.619 94.1386 169.749 93.759C169.883 93.3794 170.075 93.0414 170.325 92.7451C170.58 92.4488 170.892 92.215 171.262 92.0437C171.633 91.8678 172.056 91.7798 172.533 91.7798C172.936 91.7798 173.292 91.8331 173.603 91.9396C173.917 92.046 174.181 92.2104 174.394 92.4326C174.612 92.6502 174.776 92.9303 174.887 93.2729C174.999 93.6155 175.054 94.0229 175.054 94.4951V99.4326H173.762V94.4812C173.762 94.0599 173.695 93.7335 173.561 93.5021C173.431 93.266 173.246 93.1016 173.005 93.009C172.769 92.9118 172.487 92.8632 172.158 92.8632C171.876 92.8632 171.626 92.9118 171.408 93.009C171.191 93.1062 171.008 93.2405 170.86 93.4118C170.711 93.5785 170.598 93.7706 170.519 93.9882C170.445 94.2058 170.408 94.4372 170.408 94.6826ZM178.528 91.9187V99.4326H177.236V91.9187H178.528ZM177.139 89.9257C177.139 89.7173 177.201 89.5414 177.326 89.3979C177.456 89.2544 177.646 89.1826 177.896 89.1826C178.141 89.1826 178.329 89.2544 178.458 89.3979C178.592 89.5414 178.66 89.7173 178.66 89.9257C178.66 90.1247 178.592 90.296 178.458 90.4396C178.329 90.5785 178.141 90.6479 177.896 90.6479C177.646 90.6479 177.456 90.5785 177.326 90.4396C177.201 90.296 177.139 90.1247 177.139 89.9257ZM185.099 97.4396C185.099 97.2544 185.057 97.0831 184.974 96.9257C184.895 96.7636 184.73 96.6178 184.48 96.4882C184.235 96.3539 183.865 96.2382 183.369 96.141C182.953 96.053 182.575 95.9488 182.237 95.8285C181.904 95.7081 181.619 95.5622 181.383 95.391C181.152 95.2197 180.974 95.0183 180.849 94.7868C180.724 94.5553 180.661 94.2845 180.661 93.9743C180.661 93.678 180.726 93.3979 180.855 93.134C180.99 92.8701 181.177 92.6363 181.418 92.4326C181.663 92.2289 181.957 92.0692 182.3 91.9535C182.642 91.8377 183.024 91.7798 183.446 91.7798C184.048 91.7798 184.561 91.8863 184.987 92.0993C185.413 92.3122 185.74 92.597 185.967 92.9535C186.193 93.3053 186.307 93.6965 186.307 94.1271H185.022C185.022 93.9187 184.96 93.7173 184.835 93.5229C184.714 93.3238 184.536 93.1595 184.3 93.0298C184.068 92.9002 183.784 92.8354 183.446 92.8354C183.089 92.8354 182.8 92.891 182.578 93.0021C182.36 93.1085 182.2 93.2451 182.099 93.4118C182.001 93.5785 181.953 93.7544 181.953 93.9396C181.953 94.0785 181.976 94.2035 182.022 94.3146C182.073 94.421 182.161 94.5206 182.286 94.6132C182.411 94.7011 182.587 94.7845 182.814 94.8632C183.041 94.9419 183.33 95.0206 183.682 95.0993C184.298 95.2382 184.805 95.4048 185.203 95.5993C185.601 95.7937 185.897 96.0322 186.092 96.3146C186.286 96.597 186.383 96.9396 186.383 97.3423C186.383 97.671 186.314 97.972 186.175 98.2451C186.041 98.5183 185.844 98.7544 185.585 98.9535C185.33 99.1479 185.024 99.3007 184.668 99.4118C184.316 99.5183 183.92 99.5715 183.48 99.5715C182.818 99.5715 182.258 99.4535 181.8 99.2173C181.342 98.9812 180.994 98.6757 180.758 98.3007C180.522 97.9257 180.404 97.5298 180.404 97.1132H181.696C181.714 97.465 181.816 97.7451 182.001 97.9535C182.186 98.1572 182.413 98.303 182.682 98.391C182.95 98.4743 183.217 98.516 183.48 98.516C183.832 98.516 184.126 98.4697 184.362 98.3771C184.603 98.2845 184.786 98.1572 184.911 97.9951C185.036 97.8331 185.099 97.6479 185.099 97.4396ZM189.6 91.9187V99.4326H188.308V91.9187H189.6ZM188.211 89.9257C188.211 89.7173 188.274 89.5414 188.399 89.3979C188.528 89.2544 188.718 89.1826 188.968 89.1826C189.213 89.1826 189.401 89.2544 189.53 89.3979C189.665 89.5414 189.732 89.7173 189.732 89.9257C189.732 90.1247 189.665 90.296 189.53 90.4396C189.401 90.5785 189.213 90.6479 188.968 90.6479C188.718 90.6479 188.528 90.5785 188.399 90.4396C188.274 90.296 188.211 90.1247 188.211 89.9257ZM191.455 95.759V95.5993C191.455 95.0576 191.534 94.5553 191.692 94.0923C191.849 93.6247 192.076 93.2197 192.372 92.8771C192.668 92.5298 193.027 92.2613 193.449 92.0715C193.87 91.8771 194.342 91.7798 194.865 91.7798C195.393 91.7798 195.867 91.8771 196.289 92.0715C196.715 92.2613 197.076 92.5298 197.372 92.8771C197.673 93.2197 197.902 93.6247 198.06 94.0923C198.217 94.5553 198.296 95.0576 198.296 95.5993V95.759C198.296 96.3007 198.217 96.803 198.06 97.266C197.902 97.7289 197.673 98.134 197.372 98.4812C197.076 98.8238 196.717 99.0923 196.296 99.2868C195.879 99.4766 195.407 99.5715 194.879 99.5715C194.351 99.5715 193.877 99.4766 193.455 99.2868C193.034 99.0923 192.673 98.8238 192.372 98.4812C192.076 98.134 191.849 97.7289 191.692 97.266C191.534 96.803 191.455 96.3007 191.455 95.759ZM192.74 95.5993V95.759C192.74 96.134 192.784 96.4882 192.872 96.8215C192.96 97.1502 193.092 97.4419 193.268 97.6965C193.449 97.9511 193.673 98.1525 193.942 98.3007C194.21 98.4442 194.523 98.516 194.879 98.516C195.231 98.516 195.539 98.4442 195.803 98.3007C196.071 98.1525 196.293 97.9511 196.469 97.6965C196.645 97.4419 196.777 97.1502 196.865 96.8215C196.958 96.4882 197.004 96.134 197.004 95.759V95.5993C197.004 95.2289 196.958 94.8794 196.865 94.5507C196.777 94.2173 196.643 93.9234 196.462 93.6687C196.286 93.4095 196.064 93.2058 195.796 93.0576C195.532 92.9095 195.222 92.8354 194.865 92.8354C194.513 92.8354 194.203 92.9095 193.935 93.0576C193.671 93.2058 193.449 93.4095 193.268 93.6687C193.092 93.9234 192.96 94.2173 192.872 94.5507C192.784 94.8794 192.74 95.2289 192.74 95.5993ZM194.101 90.8076L195.449 88.766H196.997L195.136 90.8076H194.101ZM201.325 93.5229V99.4326H200.04V91.9187H201.255L201.325 93.5229ZM201.019 95.391L200.485 95.3701C200.489 94.8562 200.566 94.3817 200.714 93.9465C200.862 93.5067 201.07 93.1247 201.339 92.8007C201.607 92.4766 201.927 92.2266 202.297 92.0507C202.672 91.8701 203.086 91.7798 203.54 91.7798C203.911 91.7798 204.244 91.8308 204.54 91.9326C204.836 92.0298 205.089 92.1872 205.297 92.4048C205.51 92.6224 205.672 92.9048 205.783 93.2521C205.894 93.5947 205.95 94.0136 205.95 94.509V99.4326H204.658V94.4951C204.658 94.1016 204.6 93.7868 204.485 93.5507C204.369 93.3099 204.2 93.1363 203.978 93.0298C203.755 92.9187 203.482 92.8632 203.158 92.8632C202.839 92.8632 202.547 92.9303 202.283 93.0646C202.024 93.1988 201.799 93.384 201.61 93.6201C201.424 93.8562 201.279 94.1271 201.172 94.4326C201.07 94.7335 201.019 95.053 201.019 95.391ZM214.814 99.5715C214.291 99.5715 213.816 99.4835 213.39 99.3076C212.969 99.1271 212.605 98.8747 212.3 98.5507C211.999 98.2266 211.767 97.8423 211.605 97.3979C211.443 96.9535 211.362 96.4673 211.362 95.9396V95.6479C211.362 95.0368 211.453 94.4928 211.633 94.016C211.814 93.5345 212.059 93.1271 212.369 92.7937C212.68 92.4604 213.031 92.2081 213.425 92.0368C213.818 91.8655 214.226 91.7798 214.647 91.7798C215.184 91.7798 215.647 91.8724 216.036 92.0576C216.43 92.2428 216.751 92.5021 217.001 92.8354C217.251 93.1641 217.436 93.553 217.557 94.0021C217.677 94.4465 217.737 94.9326 217.737 95.4604V96.0368H212.126V94.9882H216.453V94.891C216.434 94.5576 216.365 94.2335 216.244 93.9187C216.129 93.6039 215.943 93.3447 215.689 93.141C215.434 92.9372 215.087 92.8354 214.647 92.8354C214.355 92.8354 214.087 92.8979 213.842 93.0229C213.596 93.1433 213.386 93.3238 213.21 93.5646C213.034 93.8053 212.897 94.0993 212.8 94.4465C212.703 94.7937 212.654 95.1942 212.654 95.6479V95.9396C212.654 96.296 212.703 96.6317 212.8 96.9465C212.902 97.2567 213.048 97.5298 213.237 97.766C213.432 98.0021 213.666 98.1872 213.939 98.3215C214.217 98.4558 214.531 98.5229 214.883 98.5229C215.337 98.5229 215.721 98.4303 216.036 98.2451C216.351 98.0599 216.626 97.8122 216.862 97.5021L217.64 98.1201C217.478 98.3655 217.272 98.5993 217.022 98.8215C216.772 99.0437 216.464 99.2243 216.099 99.3632C215.737 99.5021 215.309 99.5715 214.814 99.5715ZM220.655 93.5229V99.4326H219.371V91.9187H220.586L220.655 93.5229ZM220.35 95.391L219.815 95.3701C219.82 94.8562 219.896 94.3817 220.044 93.9465C220.192 93.5067 220.401 93.1247 220.669 92.8007C220.938 92.4766 221.257 92.2266 221.628 92.0507C222.003 91.8701 222.417 91.7798 222.871 91.7798C223.241 91.7798 223.574 91.8308 223.871 91.9326C224.167 92.0298 224.419 92.1872 224.628 92.4048C224.841 92.6224 225.003 92.9048 225.114 93.2521C225.225 93.5947 225.28 94.0136 225.28 94.509V99.4326H223.989V94.4951C223.989 94.1016 223.931 93.7868 223.815 93.5507C223.699 93.3099 223.53 93.1363 223.308 93.0298C223.086 92.9187 222.813 92.8632 222.489 92.8632C222.169 92.8632 221.878 92.9303 221.614 93.0646C221.355 93.1988 221.13 93.384 220.94 93.6201C220.755 93.8562 220.609 94.1271 220.503 94.4326C220.401 94.7335 220.35 95.053 220.35 95.391ZM234.505 91.9187V93.3354H230.13V91.9187H234.505ZM231.214 90.0646H233.214V97.1687C233.214 97.3863 233.242 97.553 233.297 97.6687C233.357 97.7845 233.445 97.8655 233.561 97.9118C233.677 97.9535 233.823 97.9743 233.999 97.9743C234.124 97.9743 234.235 97.9697 234.332 97.9604C234.434 97.9465 234.519 97.9326 234.589 97.9187L234.596 99.391C234.424 99.4465 234.239 99.4905 234.04 99.5229C233.841 99.5553 233.621 99.5715 233.38 99.5715C232.941 99.5715 232.556 99.4997 232.228 99.3562C231.904 99.2081 231.654 98.972 231.478 98.6479C231.302 98.3238 231.214 97.8979 231.214 97.3701V90.0646ZM240.222 97.634V91.9187H242.222V99.4326H240.34L240.222 97.634ZM240.444 96.0923L241.035 96.0785C241.035 96.5785 240.977 97.0437 240.861 97.4743C240.745 97.9002 240.572 98.2706 240.34 98.5854C240.109 98.8956 239.817 99.1386 239.465 99.3146C239.113 99.4859 238.699 99.5715 238.222 99.5715C237.856 99.5715 237.518 99.5206 237.208 99.4187C236.903 99.3122 236.639 99.1479 236.417 98.9257C236.199 98.6988 236.028 98.4095 235.903 98.0576C235.782 97.7011 235.722 97.2729 235.722 96.7729V91.9187H237.722V96.7868C237.722 97.009 237.748 97.1965 237.799 97.3493C237.854 97.5021 237.93 97.6271 238.028 97.7243C238.125 97.8215 238.238 97.891 238.368 97.9326C238.502 97.9743 238.65 97.9951 238.812 97.9951C239.224 97.9951 239.549 97.9118 239.785 97.7451C240.025 97.5785 240.194 97.3516 240.292 97.0646C240.393 96.7729 240.444 96.4488 240.444 96.0923ZM249.558 93.3632V102.322H247.558V91.9187H249.412L249.558 93.3632ZM254.315 95.5923V95.7382C254.315 96.2845 254.25 96.7914 254.121 97.259C253.996 97.7266 253.811 98.134 253.565 98.4812C253.32 98.8238 253.014 99.0923 252.649 99.2868C252.287 99.4766 251.871 99.5715 251.399 99.5715C250.94 99.5715 250.542 99.4789 250.204 99.2937C249.866 99.1085 249.581 98.8493 249.35 98.516C249.123 98.178 248.94 97.7868 248.801 97.3423C248.662 96.8979 248.556 96.421 248.482 95.9118V95.5298C248.556 94.9835 248.662 94.4835 248.801 94.0298C248.94 93.5715 249.123 93.1757 249.35 92.8423C249.581 92.5044 249.864 92.2428 250.197 92.0576C250.535 91.8724 250.931 91.7798 251.385 91.7798C251.861 91.7798 252.28 91.8701 252.642 92.0507C253.007 92.2312 253.313 92.4905 253.558 92.8285C253.808 93.1664 253.996 93.5692 254.121 94.0368C254.25 94.5044 254.315 95.0229 254.315 95.5923ZM252.308 95.7382V95.5923C252.308 95.2729 252.28 94.9789 252.225 94.7104C252.174 94.4372 252.091 94.1988 251.975 93.9951C251.864 93.7914 251.716 93.634 251.53 93.5229C251.35 93.4072 251.13 93.3493 250.871 93.3493C250.598 93.3493 250.364 93.3933 250.169 93.4812C249.98 93.5692 249.824 93.6965 249.704 93.8632C249.584 94.0298 249.493 94.2289 249.433 94.4604C249.373 94.6919 249.336 94.9535 249.322 95.2451V96.2104C249.345 96.553 249.41 96.8609 249.517 97.134C249.623 97.4025 249.787 97.6155 250.01 97.7729C250.232 97.9303 250.524 98.009 250.885 98.009C251.149 98.009 251.371 97.9511 251.551 97.8354C251.732 97.715 251.878 97.5507 251.989 97.3423C252.105 97.134 252.186 96.8933 252.232 96.6201C252.283 96.347 252.308 96.053 252.308 95.7382ZM257.692 93.5576V99.4326H255.692V91.9187H257.574L257.692 93.5576ZM259.955 91.8701L259.921 93.7243C259.824 93.7104 259.705 93.6988 259.567 93.6896C259.432 93.6757 259.31 93.6687 259.199 93.6687C258.916 93.6687 258.671 93.7058 258.462 93.7798C258.259 93.8493 258.087 93.9535 257.949 94.0923C257.814 94.2312 257.712 94.4002 257.643 94.5993C257.578 94.7984 257.541 95.0252 257.532 95.2798L257.129 95.1548C257.129 94.6687 257.178 94.222 257.275 93.8146C257.372 93.4025 257.513 93.0437 257.699 92.7382C257.888 92.4326 258.12 92.1965 258.393 92.0298C258.666 91.8632 258.979 91.7798 259.33 91.7798C259.442 91.7798 259.555 91.7891 259.671 91.8076C259.786 91.8215 259.881 91.8423 259.955 91.8701ZM263.144 91.9187V99.4326H261.137V91.9187H263.144ZM261.012 89.9604C261.012 89.6687 261.114 89.428 261.318 89.2382C261.522 89.0484 261.795 88.9535 262.137 88.9535C262.475 88.9535 262.746 89.0484 262.95 89.2382C263.158 89.428 263.262 89.6687 263.262 89.9604C263.262 90.2521 263.158 90.4928 262.95 90.6826C262.746 90.8724 262.475 90.9673 262.137 90.9673C261.795 90.9673 261.522 90.8724 261.318 90.6826C261.114 90.4928 261.012 90.2521 261.012 89.9604ZM266.93 93.4743V99.4326H264.924V91.9187H266.805L266.93 93.4743ZM266.653 95.4118H266.097C266.097 94.8886 266.16 94.4072 266.285 93.9673C266.414 93.5229 266.602 93.1386 266.847 92.8146C267.097 92.4859 267.405 92.2312 267.771 92.0507C268.136 91.8701 268.56 91.7798 269.042 91.7798C269.375 91.7798 269.68 91.8308 269.958 91.9326C270.236 92.0298 270.474 92.1849 270.674 92.3979C270.877 92.6062 271.035 92.8794 271.146 93.2173C271.257 93.5507 271.312 93.9511 271.312 94.4187V99.4326H269.312V94.641C269.312 94.2984 269.266 94.0345 269.174 93.8493C269.081 93.6641 268.949 93.5345 268.778 93.4604C268.611 93.3863 268.41 93.3493 268.174 93.3493C267.914 93.3493 267.687 93.4025 267.493 93.509C267.303 93.6155 267.146 93.7636 267.021 93.9535C266.896 94.1386 266.803 94.3562 266.743 94.6062C266.683 94.8562 266.653 95.1247 266.653 95.4118ZM271.125 95.1826L270.41 95.2729C270.41 94.7822 270.47 94.3261 270.59 93.9048C270.715 93.4835 270.898 93.1132 271.139 92.7937C271.384 92.4743 271.687 92.2266 272.049 92.0507C272.41 91.8701 272.826 91.7798 273.299 91.7798C273.66 91.7798 273.988 91.8331 274.285 91.9396C274.581 92.0414 274.833 92.2058 275.042 92.4326C275.255 92.6548 275.417 92.9465 275.528 93.3076C275.643 93.6687 275.701 94.1109 275.701 94.634V99.4326H273.694V94.634C273.694 94.2868 273.648 94.0229 273.555 93.8423C273.467 93.6572 273.338 93.5298 273.167 93.4604C273 93.3863 272.801 93.3493 272.569 93.3493C272.329 93.3493 272.118 93.3979 271.937 93.4951C271.757 93.5877 271.606 93.7173 271.486 93.884C271.366 94.0507 271.275 94.2451 271.215 94.4673C271.155 94.6849 271.125 94.9234 271.125 95.1826ZM280.842 99.5715C280.258 99.5715 279.735 99.4789 279.272 99.2937C278.809 99.1039 278.416 98.8423 278.092 98.509C277.772 98.1757 277.527 97.7891 277.355 97.3493C277.184 96.9048 277.099 96.4326 277.099 95.9326V95.6548C277.099 95.0854 277.18 94.5646 277.342 94.0923C277.504 93.6201 277.735 93.2104 278.036 92.8632C278.342 92.516 278.712 92.2497 279.147 92.0646C279.582 91.8747 280.073 91.7798 280.619 91.7798C281.152 91.7798 281.624 91.8678 282.036 92.0437C282.448 92.2197 282.793 92.4697 283.071 92.7937C283.353 93.1178 283.566 93.5067 283.71 93.9604C283.853 94.4095 283.925 94.9095 283.925 95.4604V96.2937H277.953V94.9604H281.96V94.8076C281.96 94.5298 281.909 94.2822 281.807 94.0646C281.71 93.8423 281.561 93.6664 281.362 93.5368C281.163 93.4072 280.909 93.3423 280.599 93.3423C280.335 93.3423 280.108 93.4002 279.918 93.516C279.728 93.6317 279.573 93.7937 279.453 94.0021C279.337 94.2104 279.249 94.4558 279.189 94.7382C279.133 95.016 279.105 95.3215 279.105 95.6548V95.9326C279.105 96.2335 279.147 96.5113 279.23 96.766C279.318 97.0206 279.441 97.2405 279.599 97.4257C279.761 97.6109 279.955 97.7544 280.182 97.8562C280.413 97.9581 280.675 98.009 280.967 98.009C281.328 98.009 281.663 97.9396 281.974 97.8007C282.288 97.6572 282.559 97.4419 282.786 97.1548L283.758 98.2104C283.601 98.4372 283.386 98.6548 283.112 98.8632C282.844 99.0715 282.52 99.2428 282.14 99.3771C281.761 99.5067 281.328 99.5715 280.842 99.5715ZM287.197 93.5576V99.4326H285.197V91.9187H287.079L287.197 93.5576ZM289.461 91.8701L289.426 93.7243C289.329 93.7104 289.211 93.6988 289.072 93.6896C288.938 93.6757 288.815 93.6687 288.704 93.6687C288.422 93.6687 288.176 93.7058 287.968 93.7798C287.764 93.8493 287.593 93.9535 287.454 94.0923C287.32 94.2312 287.218 94.4002 287.149 94.5993C287.084 94.7984 287.047 95.0252 287.037 95.2798L286.635 95.1548C286.635 94.6687 286.683 94.222 286.78 93.8146C286.878 93.4025 287.019 93.0437 287.204 92.7382C287.394 92.4326 287.625 92.1965 287.899 92.0298C288.172 91.8632 288.484 91.7798 288.836 91.7798C288.947 91.7798 289.061 91.7891 289.176 91.8076C289.292 91.8215 289.387 91.8423 289.461 91.8701ZM297.672 99.5715C297.089 99.5715 296.566 99.4789 296.103 99.2937C295.64 99.1039 295.246 98.8423 294.922 98.509C294.603 98.1757 294.357 97.7891 294.186 97.3493C294.015 96.9048 293.929 96.4326 293.929 95.9326V95.6548C293.929 95.0854 294.01 94.5646 294.172 94.0923C294.334 93.6201 294.566 93.2104 294.867 92.8632C295.172 92.516 295.542 92.2497 295.978 92.0646C296.413 91.8747 296.904 91.7798 297.45 91.7798C297.982 91.7798 298.455 91.8678 298.867 92.0437C299.279 92.2197 299.624 92.4697 299.901 92.7937C300.184 93.1178 300.397 93.5067 300.54 93.9604C300.684 94.4095 300.755 94.9095 300.755 95.4604V96.2937H294.783V94.9604H298.79V94.8076C298.79 94.5298 298.739 94.2822 298.637 94.0646C298.54 93.8423 298.392 93.6664 298.193 93.5368C297.994 93.4072 297.739 93.3423 297.429 93.3423C297.165 93.3423 296.938 93.4002 296.749 93.516C296.559 93.6317 296.404 93.7937 296.283 94.0021C296.167 94.2104 296.08 94.4558 296.019 94.7382C295.964 95.016 295.936 95.3215 295.936 95.6548V95.9326C295.936 96.2335 295.978 96.5113 296.061 96.766C296.149 97.0206 296.272 97.2405 296.429 97.4257C296.591 97.6109 296.786 97.7544 297.012 97.8562C297.244 97.9581 297.505 98.009 297.797 98.009C298.158 98.009 298.494 97.9396 298.804 97.8007C299.119 97.6572 299.39 97.4419 299.617 97.1548L300.589 98.2104C300.431 98.4372 300.216 98.6548 299.943 98.8632C299.674 99.0715 299.35 99.2428 298.971 99.3771C298.591 99.5067 298.158 99.5715 297.672 99.5715ZM303.986 93.5229V99.4326H301.986V91.9187H303.861L303.986 93.5229ZM303.694 95.4118H303.153C303.153 94.8562 303.224 94.3562 303.368 93.9118C303.511 93.4627 303.713 93.0808 303.972 92.766C304.231 92.4465 304.539 92.2035 304.896 92.0368C305.257 91.8655 305.66 91.7798 306.104 91.7798C306.456 91.7798 306.778 91.8308 307.069 91.9326C307.361 92.0345 307.611 92.1965 307.819 92.4187C308.032 92.641 308.194 92.9349 308.305 93.3007C308.421 93.6664 308.479 94.1132 308.479 94.641V99.4326H306.465V94.634C306.465 94.3007 306.419 94.0414 306.326 93.8562C306.234 93.671 306.097 93.5414 305.917 93.4673C305.741 93.3886 305.523 93.3493 305.264 93.3493C304.995 93.3493 304.761 93.4025 304.562 93.509C304.368 93.6155 304.206 93.7636 304.076 93.9535C303.951 94.1386 303.856 94.3562 303.792 94.6062C303.727 94.8562 303.694 95.1247 303.694 95.4118ZM312.689 97.9743L314.355 91.9187H316.446L313.911 99.4326H312.647L312.689 97.9743ZM311.543 91.9187L313.217 97.9812L313.251 99.4326H311.98L309.446 91.9187H311.543ZM319.635 91.9187V99.4326H317.628V91.9187H319.635ZM317.69 91.009L319.051 88.8701H321.225L319.315 91.009H317.69ZM321.178 95.7521V95.6062C321.178 95.0553 321.256 94.5484 321.414 94.0854C321.571 93.6178 321.8 93.2127 322.101 92.8701C322.402 92.5275 322.773 92.2613 323.212 92.0715C323.652 91.8771 324.157 91.7798 324.726 91.7798C325.296 91.7798 325.803 91.8771 326.247 92.0715C326.692 92.2613 327.064 92.5275 327.365 92.8701C327.671 93.2127 327.902 93.6178 328.06 94.0854C328.217 94.5484 328.296 95.0553 328.296 95.6062V95.7521C328.296 96.2984 328.217 96.8053 328.06 97.2729C327.902 97.7359 327.671 98.141 327.365 98.4882C327.064 98.8308 326.694 99.097 326.254 99.2868C325.814 99.4766 325.31 99.5715 324.74 99.5715C324.171 99.5715 323.664 99.4766 323.219 99.2868C322.78 99.097 322.407 98.8308 322.101 98.4882C321.8 98.141 321.571 97.7359 321.414 97.2729C321.256 96.8053 321.178 96.2984 321.178 95.7521ZM323.178 95.6062V95.7521C323.178 96.0669 323.205 96.3609 323.261 96.634C323.317 96.9072 323.405 97.1479 323.525 97.3562C323.65 97.5599 323.812 97.7197 324.011 97.8354C324.21 97.9511 324.453 98.009 324.74 98.009C325.018 98.009 325.256 97.9511 325.455 97.8354C325.655 97.7197 325.814 97.5599 325.935 97.3562C326.055 97.1479 326.143 96.9072 326.198 96.634C326.259 96.3609 326.289 96.0669 326.289 95.7521V95.6062C326.289 95.3007 326.259 95.0136 326.198 94.7451C326.143 94.472 326.053 94.2312 325.928 94.0229C325.807 93.8099 325.648 93.6433 325.448 93.5229C325.249 93.4025 325.009 93.3423 324.726 93.3423C324.444 93.3423 324.203 93.4025 324.004 93.5229C323.81 93.6433 323.65 93.8099 323.525 94.0229C323.405 94.2312 323.317 94.472 323.261 94.7451C323.205 95.0136 323.178 95.3007 323.178 95.6062ZM329.755 98.4673C329.755 98.171 329.857 97.9234 330.061 97.7243C330.269 97.5252 330.545 97.4257 330.887 97.4257C331.23 97.4257 331.503 97.5252 331.707 97.7243C331.915 97.9234 332.019 98.171 332.019 98.4673C332.019 98.7636 331.915 99.0113 331.707 99.2104C331.503 99.4095 331.23 99.509 330.887 99.509C330.545 99.509 330.269 99.4095 330.061 99.2104C329.857 99.0113 329.755 98.7636 329.755 98.4673Z" fill="white"/>
<path fill-rule="evenodd" clip-rule="evenodd" d="M13.6162 127.481L13.007 120.796L1.03223 124.613L13.6162 127.481Z" fill="#F4C12A"/>
<path fill-rule="evenodd" clip-rule="evenodd" d="M321.282 30.0838C321.302 30.8345 321.595 31.4519 321.844 31.8445C322.477 32.8414 323.332 33.2324 323.554 33.179C324.266 32.7173 324.748 32.141 324.747 31.7265C324.747 31.336 324.3 30.8264 323.521 30.3285C322.919 29.9435 322.106 29.8728 321.282 30.0838ZM317.135 37.7679C316.696 37.7679 316.29 37.4755 316.147 37.0142C315.222 34.0335 316.003 31.1432 318.236 29.2833C318.613 28.9695 319.011 28.7036 319.419 28.4859C319.571 27.9758 319.806 27.458 320.142 26.9423C321.407 24.3674 324.352 23.2699 326.881 24.4402C327.406 24.6833 327.644 25.3276 327.413 25.8799C327.181 26.4323 326.567 26.6815 326.044 26.4389C324.578 25.7599 322.882 26.3478 322.079 27.7734C322.977 27.7622 323.853 27.9854 324.6 28.462C326.076 29.4049 326.825 30.5029 326.825 31.7255C326.826 32.9568 326.036 34.1413 324.602 35.0603C323.532 35.7453 321.971 35.2576 320.714 33.8488C320.101 33.1607 319.569 32.229 319.332 31.1671C318.55 31.8964 317.269 33.5885 318.122 36.3373C318.3 36.9105 318.003 37.5269 317.457 37.714C317.35 37.7506 317.241 37.7679 317.135 37.7679Z" fill="#F4C12A"/>
<path fill-rule="evenodd" clip-rule="evenodd" d="M107.369 18.7127C106.47 18.8692 105.696 19.2739 105.258 19.8737C104.687 20.6542 104.453 21.3087 104.616 21.6658C104.789 22.0467 105.502 22.3689 106.435 22.4864C106.64 22.4373 107.327 21.719 107.539 20.5342C107.622 20.0763 107.655 19.3985 107.369 18.7127ZM99.2037 16.3487C99.2494 16.1861 99.3356 16.0311 99.4627 15.8978C101.492 13.776 104.87 13.5435 107.189 15.3528C107.742 15.6846 108.194 16.0615 108.559 16.4667C109.06 16.4915 109.569 16.5665 110.079 16.6941C113.08 17.4458 115.076 19.7541 115.418 22.8683C115.483 23.4671 115.034 24.0009 114.415 24.0643C113.795 24.1276 113.241 23.6945 113.175 23.0978C112.856 20.1933 110.833 19.1944 109.752 18.8657C109.958 19.9339 109.818 21.0068 109.496 21.8922C108.834 23.7087 107.486 24.8139 106.141 24.6437C105.097 24.511 103.242 24.0622 102.549 22.5396C102.04 21.4196 102.331 20.1011 103.414 18.6205C103.958 17.8759 104.728 17.307 105.629 16.9398C104.241 15.9662 102.302 16.138 101.121 17.3724C100.699 17.8141 99.9853 17.8419 99.5273 17.4347C99.2074 17.15 99.0965 16.7281 99.2037 16.3487Z" fill="#12DEC4"/>
<path fill-rule="evenodd" clip-rule="evenodd" d="M513.713 93.47C513.334 92.6713 512.749 92.056 512.06 91.8044C511.162 91.4772 510.472 91.4305 510.168 91.6764C509.845 91.9376 509.714 92.6891 509.837 93.5904C509.936 93.7688 510.803 94.2215 511.998 94.1077C512.461 94.064 513.124 93.9166 513.713 93.47ZM513.93 85.2261C514.099 85.2261 514.27 85.2662 514.431 85.35C516.99 86.6858 518.068 89.7776 516.909 92.4187C516.728 93.0224 516.479 93.5432 516.179 93.9898C516.282 94.4643 516.339 94.9597 516.344 95.4689C516.378 98.4677 514.655 100.938 511.737 102.076C511.176 102.294 510.548 102.016 510.33 101.454C510.113 100.892 510.39 100.26 510.949 100.042C513.671 98.9809 514.124 96.8301 514.167 95.7346C513.189 96.2076 512.119 96.3596 511.183 96.2915C509.263 96.1507 507.857 95.1833 507.681 93.8826C507.545 92.8735 507.51 91.0235 508.804 89.9768C509.755 89.2075 511.101 89.1318 512.803 89.7537C513.658 90.0657 514.401 90.6343 514.983 91.3797C515.572 89.8279 514.916 88.0628 513.427 87.2854C512.895 87.0075 512.688 86.3485 512.964 85.814C513.158 85.4405 513.537 85.2261 513.93 85.2261Z" fill="#F4C12A"/>
<path fill-rule="evenodd" clip-rule="evenodd" d="M8.79696 65.6703C9.59409 65.3509 10.2193 64.8136 10.5077 64.1401C10.8855 63.2569 10.9729 62.5689 10.7471 62.2562C10.513 61.9319 9.80058 61.774 8.9315 61.8554C8.74286 61.9176 8.26515 62.6384 8.24921 63.7435C8.24344 64.1665 8.3107 64.9554 8.79696 65.6703ZM16.6852 65.8651C16.8209 66.1715 16.8112 66.5369 16.6277 66.8469C15.1864 69.2783 12.1283 70.1481 9.63539 68.8493C9.06166 68.6358 8.57061 68.3619 8.15428 68.0437C7.69126 68.1157 7.21059 68.1417 6.72018 68.1176C3.81299 67.9741 1.51366 66.1432 0.577277 63.224C0.396856 62.6641 0.701076 62.0629 1.25682 61.8826C1.81235 61.7018 2.41022 62.0148 2.58974 62.5702C3.46122 65.277 5.49658 65.8551 6.56261 65.9677C6.16121 65 6.06756 63.9652 6.17641 63.0724C6.40628 61.1949 7.4335 59.8523 8.73245 59.7312C10.4294 59.5738 11.7524 60.026 12.4583 61.0058C13.1644 61.9834 13.1624 63.3259 12.4504 64.9886C12.0999 65.808 11.5062 66.5018 10.7511 67.0271C12.2221 67.7013 13.972 67.1656 14.8107 65.7502C15.1105 65.245 15.7591 65.0807 16.2614 65.3838C16.4557 65.5013 16.5995 65.6713 16.6852 65.8651Z" fill="#DE4A65"/>
<path fill-rule="evenodd" clip-rule="evenodd" d="M264.572 123.496L261.841 116.998L273.576 113.683L264.572 123.496Z" fill="#10CBB4"/>
<path fill-rule="evenodd" clip-rule="evenodd" d="M323.727 122.594L329.46 124.6L330.938 112.795L323.727 122.594Z" fill="#F4C12A"/>
<path fill-rule="evenodd" clip-rule="evenodd" d="M373.126 10.6342L378.778 4.70982L388.092 17.6318L373.126 10.6342Z" fill="#742384"/>
<path fill-rule="evenodd" clip-rule="evenodd" d="M232.662 9.74512L234.167 16.2872L245.67 10.8316L232.662 9.74512Z" fill="#742384"/>
<path fill-rule="evenodd" clip-rule="evenodd" d="M29.7453 12.4087L25.7861 17.7316L36.8148 23.5018L29.7453 12.4087Z" fill="#742384"/>
<path fill-rule="evenodd" clip-rule="evenodd" d="M503.74 15.5841C503.774 14.7205 503.541 13.9262 503.046 13.3865C502.398 12.6791 501.809 12.3184 501.433 12.3988C501.043 12.4821 500.61 13.0734 500.331 13.9064C500.311 14.1053 500.771 14.8385 501.768 15.3033C502.149 15.4809 502.893 15.7404 503.74 15.5841ZM507.125 8.4043C507.458 8.4043 507.786 8.56205 507.993 8.85722C509.614 11.1739 509.161 14.3424 506.968 16.1075C506.54 16.5485 506.092 16.8888 505.634 17.1423C505.511 17.5977 505.339 18.0507 505.118 18.4922C503.805 21.109 501.208 22.4792 498.176 22.1518C497.595 22.0898 497.172 21.5649 497.235 20.9801C497.296 20.3952 497.824 19.9725 498.401 20.0335C501.213 20.3342 502.566 18.6966 503.102 17.7615C502.06 17.7367 501.082 17.4013 500.315 16.9375C498.704 15.9612 497.903 14.4689 498.321 13.2243C498.868 11.5986 499.817 10.5652 500.993 10.3147C502.168 10.0632 503.386 10.6119 504.607 11.9444C505.208 12.6007 505.597 13.4296 505.767 14.3385C506.977 13.2595 507.202 11.4309 506.258 10.0826C505.921 9.60085 506.036 8.93709 506.515 8.59827C506.701 8.4673 506.914 8.4043 507.125 8.4043Z" fill="#DE4A65"/>
<ellipse cx="426.683" cy="113.313" rx="59.8788" ry="6.58009" fill="black" fill-opacity="0.2"/>
<path fill-rule="evenodd" clip-rule="evenodd" d="M386.849 83.5093H414.444C415.871 83.5093 417.027 84.6659 417.027 86.0926V88.2063C417.027 89.633 415.871 90.7897 414.444 90.7897H386.849C385.422 90.7897 384.266 89.633 384.266 88.2063V86.0926C384.266 84.6659 385.422 83.5093 386.849 83.5093Z" fill="#D4A42A"/>
<path fill-rule="evenodd" clip-rule="evenodd" d="M445.093 54.3877H472.688C474.115 54.3877 475.271 55.5443 475.271 56.9711V59.0847C475.271 60.5115 474.115 61.6681 472.688 61.6681H445.093C443.666 61.6681 442.51 60.5115 442.51 59.0847V56.9711C442.51 55.5443 443.666 54.3877 445.093 54.3877Z" fill="#D4A42A"/>
<path fill-rule="evenodd" clip-rule="evenodd" d="M441.453 83.5093H469.047C470.474 83.5093 471.631 84.6659 471.631 86.0926V88.2063C471.631 89.633 470.474 90.7897 469.047 90.7897H441.453C440.026 90.7897 438.869 89.633 438.869 88.2063V86.0926C438.869 84.6659 440.026 83.5093 441.453 83.5093Z" fill="#D4A42A"/>
<path fill-rule="evenodd" clip-rule="evenodd" d="M390.49 76.2285H418.085C419.511 76.2285 420.668 77.3851 420.668 78.8119V80.9255C420.668 82.3523 419.511 83.5089 418.085 83.5089H390.49C389.063 83.5089 387.906 82.3523 387.906 80.9255V78.8119C387.906 77.3851 389.063 76.2285 390.49 76.2285Z" fill="#FFCD4A"/>
<path fill-rule="evenodd" clip-rule="evenodd" d="M437.811 76.2285H465.406C466.833 76.2285 467.989 77.3851 467.989 78.8119V80.9255C467.989 82.3523 466.833 83.5089 465.406 83.5089H437.811C436.384 83.5089 435.228 82.3523 435.228 80.9255V78.8119C435.228 77.3851 436.384 76.2285 437.811 76.2285Z" fill="#FFCD4A"/>
<path fill-rule="evenodd" clip-rule="evenodd" d="M394.126 90.7896H421.721C423.148 90.7896 424.305 91.9462 424.305 93.3729V95.4866C424.305 96.9133 423.148 98.0699 421.721 98.0699H394.126C392.7 98.0699 391.543 96.9133 391.543 95.4866V93.3729C391.543 91.9462 392.7 90.7896 394.126 90.7896Z" fill="#FFCD4A"/>
<path fill-rule="evenodd" clip-rule="evenodd" d="M452.371 61.668H479.966C481.393 61.668 482.55 62.8246 482.55 64.2513V66.365C482.55 67.7917 481.393 68.9483 479.966 68.9483H452.371C450.945 68.9483 449.788 67.7917 449.788 66.365V64.2513C449.788 62.8246 450.945 61.668 452.371 61.668Z" fill="#FFCD4A"/>
<path fill-rule="evenodd" clip-rule="evenodd" d="M441.453 90.7896H469.047C470.474 90.7896 471.631 91.9462 471.631 93.3729V95.4866C471.631 96.9133 470.474 98.0699 469.047 98.0699H441.453C440.026 98.0699 438.869 96.9133 438.869 95.4866V93.3729C438.869 91.9462 440.026 90.7896 441.453 90.7896Z" fill="#FFCD4A"/>
<path fill-rule="evenodd" clip-rule="evenodd" d="M386.849 98.0698H414.444C415.871 98.0698 417.027 99.2264 417.027 100.653V102.767C417.027 104.194 415.871 105.35 414.444 105.35H386.849C385.422 105.35 384.266 104.194 384.266 102.767V100.653C384.266 99.2264 385.422 98.0698 386.849 98.0698Z" fill="#D4A42A"/>
<path fill-rule="evenodd" clip-rule="evenodd" d="M445.093 68.9482H472.688C474.115 68.9482 475.271 70.1049 475.271 71.5316V73.6453C475.271 75.072 474.115 76.2286 472.688 76.2286H445.093C443.666 76.2286 442.51 75.072 442.51 73.6453V71.5316C442.51 70.1049 443.666 68.9482 445.093 68.9482Z" fill="#D4A42A"/>
<path fill-rule="evenodd" clip-rule="evenodd" d="M448.73 98.0698H476.325C477.752 98.0698 478.908 99.2264 478.908 100.653V102.767C478.908 104.194 477.752 105.35 476.325 105.35H448.73C447.303 105.35 446.146 104.194 446.146 102.767V100.653C446.146 99.2264 447.303 98.0698 448.73 98.0698Z" fill="#D4A42A"/>
<path fill-rule="evenodd" clip-rule="evenodd" d="M390.49 105.35H418.085C419.511 105.35 420.668 106.507 420.668 107.933V110.047C420.668 111.474 419.511 112.63 418.085 112.63H390.49C389.063 112.63 387.906 111.474 387.906 110.047V107.933C387.906 106.507 389.063 105.35 390.49 105.35Z" fill="#FFCD4A"/>
<path fill-rule="evenodd" clip-rule="evenodd" d="M441.453 105.35H469.047C470.474 105.35 471.631 106.507 471.631 107.933V110.047C471.631 111.474 470.474 112.63 469.047 112.63H441.453C440.026 112.63 438.869 111.474 438.869 110.047V107.933C438.869 106.507 440.026 105.35 441.453 105.35Z" fill="#FFCD4A"/>
<path d="M407.698 44.1939C409.843 44.2021 411.588 42.4699 411.596 40.325C411.605 38.1801 409.872 36.4346 407.728 36.4264C405.583 36.4183 403.837 38.1504 403.829 40.2954C403.821 42.4403 405.553 44.1858 407.698 44.1939Z" fill="#00D1C7"/>
<path d="M398.349 51.7576C400.034 51.764 401.404 50.4039 401.411 48.7197C401.417 47.0355 400.057 45.665 398.373 45.6586C396.689 45.6522 395.318 47.0123 395.312 48.6965C395.305 50.3807 396.665 51.7512 398.349 51.7576Z" fill="#00D1C7"/>
<path d="M392.824 60.6692C394.508 60.6757 395.879 59.3156 395.885 57.6314C395.892 55.9472 394.532 54.5766 392.847 54.5702C391.163 54.5638 389.793 55.9239 389.786 57.6081C389.78 59.2923 391.14 60.6628 392.824 60.6692Z" fill="#00D1C7"/>
<path d="M425.368 16.8742C427.68 16.4192 430.892 16.417 434.529 16.7207C438.289 17.0346 442.385 17.662 446.187 18.3638C449.354 18.9483 452.304 19.584 454.668 20.1241L428.349 26.7065C428.284 26.713 428.187 26.7223 428.062 26.7336C427.809 26.7564 427.441 26.7873 426.987 26.8181C426.079 26.8798 424.836 26.9414 423.488 26.9421C422.135 26.9427 420.703 26.8821 419.412 26.7062C418.148 26.534 417.138 26.2637 416.471 25.9142C416.502 25.772 416.591 25.5181 416.813 25.1366C417.395 24.1388 418.523 22.8735 419.867 21.575C421.186 20.2998 422.623 19.0773 423.737 18.1685C424.293 17.7153 424.765 17.3423 425.097 17.084C425.202 17.0021 425.293 16.932 425.368 16.8742Z" fill="#01C4BC" stroke="#01C4BC" stroke-width="2.77887"/>
<path fill-rule="evenodd" clip-rule="evenodd" d="M460.637 20.8093C460.637 20.8093 422.241 14.8748 415.522 17.777L416.803 27.2796L460.637 20.8093Z" fill="#039C98"/>
<path d="M413.865 26.9432C437.15 21.2432 451.639 20.7224 459.229 21.1333L459.941 21.1759C459.995 21.1794 460.022 21.1892 460.03 21.1927C460.035 21.1949 460.038 21.1964 460.038 21.197C460.037 21.1953 460.047 21.2049 460.05 21.2323C460.054 21.2595 460.047 21.2793 460.042 21.2882C460.04 21.2919 460.036 21.2991 460.025 21.3082C460.019 21.3127 460.009 21.3198 459.995 21.328L459.933 21.356C436.887 29.6925 426.048 37.107 422.455 39.9068C422.409 39.9431 422.352 39.9575 422.296 39.9491C422.267 39.9447 422.246 39.9363 422.231 39.9268L422.201 39.8975L413.73 27.0859L413.729 27.084L413.725 27.077L413.725 27.0761C413.724 27.0748 413.724 27.0638 413.732 27.0454C413.747 27.0085 413.787 26.9633 413.866 26.9439L413.865 26.9432Z" fill="#01C4BC" stroke="#01C4BC" stroke-width="2.77887"/>
<defs>
<linearGradient id="paint0_linear_721_27961" x1="-7.57422e-06" y1="83.5049" x2="520" y2="83.5049" gradientUnits="userSpaceOnUse">
<stop stop-color="#5C0BB8"/>
<stop offset="1" stop-color="#B123CE"/>
</linearGradient>
</defs>
</svg>
