<svg width="24" height="25" viewBox="0 0 24 25" fill="none" xmlns="http://www.w3.org/2000/svg">
<path fill-rule="evenodd" clip-rule="evenodd" d="M10.2419 2.30957H13.7577L14.8504 2.32145C15.3144 2.33066 15.6461 2.34493 16.1228 2.36639C17.1878 2.41539 17.9138 2.58439 18.5508 2.83139C19.2078 3.08639 19.7658 3.42939 20.3208 3.98439C20.8778 4.54139 21.2198 5.09839 21.4758 5.75639C21.6981 6.32879 21.8572 6.9749 21.9218 7.87406L21.9613 8.67996C21.9845 9.25998 21.9948 9.75895 21.9983 10.9818L21.9953 14.2845L21.9875 15.0042C21.9785 15.5521 21.9636 15.902 21.9398 16.4294C21.8918 17.4944 21.7228 18.2204 21.4758 18.8564C21.2198 19.5144 20.8778 20.0724 20.3208 20.6284C19.7658 21.1844 19.2078 21.5264 18.5508 21.7814C17.9775 22.0037 17.3321 22.1628 16.4324 22.2281L15.6266 22.2679C15.0468 22.2911 14.5475 22.3014 13.3245 22.3049L10.0217 22.3019L9.30203 22.2941C8.75414 22.2851 8.4042 22.2701 7.87681 22.2464C6.81281 22.1974 6.08581 22.0284 5.44881 21.7814C4.79181 21.5264 4.23381 21.1844 3.67881 20.6284C3.12181 20.0724 2.77981 19.5144 2.52481 18.8564C2.27781 18.2204 2.10881 17.4944 2.06081 16.4294L2.01791 15.2888L2.00184 13.7947C2.00086 13.5223 2.00028 13.2119 2 12.8532L2.00301 10.5487L2.01176 9.63694C2.02087 9.073 2.03616 8.72021 2.06081 8.18339C2.10881 7.11939 2.27781 6.39239 2.52481 5.75639C2.77981 5.09839 3.12181 4.54139 3.67881 3.98439C4.23381 3.42939 4.79181 3.08639 5.44881 2.83139C6.08581 2.58439 6.81281 2.41539 7.87681 2.36639L9.01741 2.32428L9.82188 2.31238C9.9505 2.31127 10.0897 2.31034 10.2419 2.30957ZM11.9998 7.30937C9.23837 7.30937 6.99981 9.54793 6.99981 12.3094C6.99981 15.0708 9.23837 17.3094 11.9998 17.3094C14.7612 17.3094 16.9998 15.0708 16.9998 12.3094C16.9998 9.54793 14.7612 7.30937 11.9998 7.30937ZM11.9999 9.30957C13.657 9.30957 14.9999 10.6532 14.9999 12.3091C14.9999 13.9659 13.657 15.3096 11.9999 15.3096C10.3428 15.3096 8.99991 13.9659 8.99991 12.3091C8.99991 10.6532 10.3428 9.30957 11.9999 9.30957ZM17 6.30957C16.4483 6.30957 16 6.75707 16 7.30957C16 7.86207 16.4483 8.30957 17 8.30957C17.5525 8.30957 18 7.86207 18 7.30957C18 6.75707 17.5525 6.30957 17 6.30957Z" fill="#742384"/>
</svg>
