<svg width="40" height="41" viewBox="0 0 40 41" fill="none" xmlns="http://www.w3.org/2000/svg">
<path d="M17.1299 5.30957C17.0461 5.65857 17 6.02278 17 6.39746V11.3096H14.9756C13.2879 11.3096 11.9248 9.96957 11.9248 8.30957H10.4004C9.55656 8.30957 8.875 8.97957 8.875 9.80957V30.8096C8.875 31.6396 9.55656 32.3096 10.4004 32.3096H22.6006C23.4442 32.3094 24.125 31.6394 24.125 30.8096L24.1904 21.3096H27.2402L27.1748 30.8096C27.1748 33.2994 25.1319 35.3094 22.6006 35.3096H10.4004C7.86889 35.3096 5.8252 33.2996 5.8252 30.8096V9.80957C5.8252 7.32957 7.86889 5.30957 10.4004 5.30957H17.1299ZM16.5254 27.4404C17.3674 27.4406 18.0498 28.1121 18.0498 28.9404C18.0498 29.7687 17.3674 30.4402 16.5254 30.4404C15.6832 30.4404 15 29.7689 15 28.9404C15 28.112 15.6832 27.4404 16.5254 27.4404Z" fill="#742384"/>
<path d="M30.43 3.30957H23.57C21.0461 3.30957 19 5.35563 19 7.87957V14.7396C19 17.2635 21.0461 19.3096 23.57 19.3096H30.43C32.9539 19.3096 35 17.2635 35 14.7396V7.87957C35 5.35563 32.9539 3.30957 30.43 3.30957Z" fill="#742384"/>
<path d="M27 5.30957C29.93 5.30957 32.31 7.63957 32.4 10.5496V11.1696C32.77 11.4996 33 11.9796 33 12.5096V13.7096C33 14.4896 32.5 14.9596 31.8 15.2096V16.1096C31.8 16.7696 31.26 17.3096 30.6 17.3096H27C26.67 17.3096 26.4 17.0396 26.4 16.7096C26.4 16.3796 26.67 16.1096 27 16.1096H30.6V15.3096C29.94 15.3096 29.4 14.9696 29.4 14.3096V11.9096C29.4 11.2496 29.94 10.7096 30.6 10.7096H31.2C31.2 8.38957 29.32 6.50957 27 6.50957C24.68 6.50957 22.88 8.45957 22.8 10.7096H23.4C24.06 10.7096 24.6 11.2496 24.6 11.9096V14.1096C24.6 14.7696 24.06 15.3096 23.4 15.3096H22.8C21.81 15.3096 21 14.4996 21 13.5096V12.5096C21 11.9796 21.23 11.4996 21.6 11.1696V10.7096C21.6 7.72957 24.02 5.30957 27 5.30957Z" fill="white"/>
</svg>
