<svg width="20" height="21" viewBox="0 0 20 21" fill="none" xmlns="http://www.w3.org/2000/svg">
<path fill-rule="evenodd" clip-rule="evenodd" d="M11.758 0.30957L12.851 0.32157L13.482 0.33957L14.123 0.36657C15.188 0.41557 15.914 0.58457 16.551 0.83157C17.208 1.08657 17.766 1.42957 18.321 1.98457C18.878 2.54157 19.22 3.09857 19.476 3.75657C19.698 4.32857 19.857 4.97457 19.922 5.87357L19.962 6.67957C19.985 7.25957 19.995 7.75857 19.999 8.98157L19.996 12.2846L19.988 13.0046L19.974 13.5906L19.94 14.4296C19.892 15.4946 19.723 16.2206 19.476 16.8566C19.22 17.5146 18.878 18.0726 18.321 18.6286C17.766 19.1846 17.208 19.5266 16.551 19.7816C15.978 20.0036 15.332 20.1626 14.433 20.2286L13.627 20.2676C13.047 20.2916 12.548 20.3016 11.325 20.3046L8.022 20.3016L7.302 20.2946L6.716 20.2806L5.877 20.2466C4.813 20.1976 4.086 20.0286 3.449 19.7816C2.792 19.5266 2.234 19.1846 1.679 18.6286C1.122 18.0726 0.78 17.5146 0.525 16.8566C0.278 16.2206 0.109 15.4946 0.061 14.4296L0.018 13.2886L0.002 11.7946L0 10.8536L0.003 8.54857L0.012 7.63657L0.026 7.03657L0.061 6.18357C0.109 5.11957 0.278 4.39257 0.525 3.75657C0.78 3.09857 1.122 2.54157 1.679 1.98457C2.234 1.42957 2.792 1.08657 3.449 0.83157C4.086 0.58457 4.813 0.41557 5.877 0.36657L7.018 0.32457L8.242 0.30957H11.758ZM13.5266 6.64548C13.3128 6.504 13.1179 6.33738 12.9429 6.14874C12.5079 5.65201 12.3455 5.14584 12.2868 4.79268H12.2889C12.2386 4.49925 12.2585 4.30957 12.2627 4.30957H10.281V11.9723C10.281 12.075 10.281 12.1777 10.2768 12.2772C10.2768 12.2908 10.2758 12.3013 10.2747 12.315C10.2747 12.3212 10.2747 12.3265 10.2737 12.3317V12.3359C10.2307 12.8955 9.91319 13.3954 9.42694 13.6721C9.17752 13.8146 8.89457 13.889 8.60743 13.889C7.68418 13.889 6.93593 13.1355 6.93593 12.206C6.93593 11.2764 7.68418 10.5229 8.60743 10.5229C8.78244 10.5229 8.95536 10.5502 9.12198 10.6047L9.12408 8.5863C8.10441 8.45531 7.07636 8.75607 6.28829 9.41734C5.94666 9.71286 5.65952 10.0671 5.43944 10.4632C5.35665 10.6078 5.04017 11.1873 5.00244 12.1274C4.97834 12.6618 5.13868 13.2141 5.21518 13.4426V13.4478C5.26339 13.583 5.44887 14.042 5.75278 14.4297C5.99801 14.7399 6.28724 15.0124 6.61106 15.2388V15.2346L6.61526 15.2388C7.57519 15.8906 8.63887 15.8487 8.63887 15.8487C8.82331 15.8403 9.43951 15.8487 10.1396 15.5165C10.9171 15.1476 11.3594 14.5995 11.3594 14.5995C11.6413 14.2725 11.8666 13.8984 12.0227 13.496C12.2019 13.0244 12.2627 12.4596 12.2627 12.2332V8.16817C12.2868 8.18179 12.6065 8.39348 12.6065 8.39348C12.6065 8.39348 13.0676 8.689 13.7875 8.88183C14.3042 9.01911 15 9.04741 15 9.04741V7.08038C14.7558 7.10658 14.2612 7.03008 13.754 6.77752C13.6764 6.73665 13.5999 6.69264 13.5266 6.64548Z" fill="#742384"/>
</svg>
