<svg width="520" height="392" viewBox="0 0 520 392" fill="none" xmlns="http://www.w3.org/2000/svg">
<g clip-path="url(#clip0_721_25002)">
<rect width="520" height="392" rx="12" fill="#52006B"/>
<g opacity="0.4">
<path fill-rule="evenodd" clip-rule="evenodd" d="M438.035 175.613C438.648 177.081 439.795 178.249 441.23 178.875C443.062 179.672 445.679 180.814 447.767 181.723C449.043 182.279 449.041 184.122 447.767 184.678L441.23 187.527C439.792 188.152 438.648 189.321 438.035 190.788C437.254 192.658 436.136 195.33 435.245 197.461C434.7 198.763 432.895 198.763 432.35 197.461C431.459 195.33 430.341 192.658 429.56 190.788C428.947 189.321 427.8 188.152 426.365 187.527C424.533 186.729 421.916 185.588 419.828 184.678C418.552 184.122 418.552 182.279 419.828 181.723C421.916 180.814 424.533 179.672 426.365 178.875C427.802 178.249 428.947 177.079 429.56 175.613C430.341 173.744 431.459 171.072 432.35 168.941C432.895 167.638 434.7 167.638 435.245 168.941C436.136 171.072 437.254 173.744 438.035 175.613Z" fill="#3F0D4A"/>
<path fill-rule="evenodd" clip-rule="evenodd" d="M81.3866 272.941C82.1574 274.787 83.6001 276.257 85.4061 277.044C87.7105 278.047 91.0032 279.483 93.6297 280.627C95.2347 281.327 95.232 283.646 93.6297 284.345L85.4061 287.929C83.5973 288.716 82.1574 290.185 81.3866 292.032C80.4037 294.384 78.9969 297.745 77.8763 300.427C77.1908 302.065 74.9195 302.065 74.234 300.427C73.1135 297.745 71.7066 294.384 70.7238 292.032C69.9529 290.185 68.5102 288.716 66.7042 287.929C64.3998 286.925 61.1071 285.489 58.4807 284.345C56.8756 283.646 56.8756 281.327 58.4807 280.627C61.1071 279.483 64.3998 278.047 66.7042 277.044C68.513 276.257 69.9529 274.784 70.7238 272.941C71.7066 270.589 73.1135 267.227 74.234 264.546C74.9195 262.908 77.1908 262.908 77.8763 264.546C78.9969 267.227 80.4037 270.589 81.3866 272.941Z" fill="#3F0D4A"/>
<path fill-rule="evenodd" clip-rule="evenodd" d="M194.334 62.033C194.591 62.6443 195.07 63.131 195.671 63.3915C196.438 63.7237 197.533 64.1992 198.406 64.5779C198.94 64.8096 198.939 65.5773 198.406 65.809L195.671 66.9954C195.07 67.2559 194.591 67.7426 194.334 68.3539C194.007 69.1328 193.539 70.2457 193.167 71.1334C192.939 71.6759 192.183 71.6759 191.955 71.1334C191.583 70.2457 191.115 69.1328 190.788 68.3539C190.531 67.7426 190.052 67.2559 189.451 66.9954C188.685 66.6632 187.589 66.1877 186.716 65.809C186.182 65.5773 186.182 64.8096 186.716 64.5779C187.589 64.1992 188.685 63.7237 189.451 63.3915C190.053 63.131 190.531 62.6434 190.788 62.033C191.115 61.2541 191.583 60.1413 191.955 59.2535C192.183 58.7111 192.939 58.7111 193.167 59.2535C193.539 60.1413 194.007 61.2541 194.334 62.033Z" fill="#3F0D4A"/>
<path fill-rule="evenodd" clip-rule="evenodd" d="M307.001 324.01C307.257 324.621 307.737 325.108 308.338 325.368C309.104 325.7 310.199 326.176 311.073 326.554C311.607 326.786 311.606 327.554 311.073 327.786L308.338 328.972C307.736 329.232 307.257 329.719 307.001 330.331C306.674 331.109 306.206 332.222 305.833 333.11C305.605 333.652 304.85 333.652 304.622 333.11C304.249 332.222 303.781 331.109 303.454 330.331C303.198 329.719 302.718 329.232 302.117 328.972C301.351 328.64 300.256 328.164 299.382 327.786C298.848 327.554 298.848 326.786 299.382 326.554C300.256 326.176 301.351 325.7 302.117 325.368C302.719 325.108 303.198 324.62 303.454 324.01C303.781 323.231 304.249 322.118 304.622 321.23C304.85 320.688 305.605 320.688 305.833 321.23C306.206 322.118 306.674 323.231 307.001 324.01Z" fill="#3F0D4A"/>
<path d="M42.1922 480.56L249.484 198.908C250.109 198.077 251.396 198.676 251.169 199.701L189.108 481.352C189.014 481.797 188.616 482.106 188.181 482.106H42.9495C42.1733 482.106 41.7189 481.197 42.1922 480.54V480.56Z" fill="#3F0D4A"/>
<path d="M260.182 -101.878V172.565C260.182 173.454 261.28 173.879 261.848 173.202L494.869 -101.878H370.843L290.493 102.388C290.228 103.065 289.225 102.717 289.414 102.021L315.522 7.72511C315.711 7.06799 314.84 6.68145 314.481 7.26126L298.028 34.9374C297.706 35.4786 296.873 35.1694 296.987 34.5316L320.236 -101.878H260.182Z" fill="#3F0D4A"/>
<path d="M-0.5 11.436L245.395 181.455C246.304 182.093 245.604 183.542 244.562 183.175L131.119 143.497C130.513 143.284 130.077 144.115 130.589 144.502L143.236 154.32C143.709 154.687 143.368 155.48 142.781 155.344L-0.5 124.943V11.436Z" fill="#3F0D4A"/>
<path d="M272.752 207.18L418.287 421.457H519.5V336.322L442.312 290.826C441.877 290.575 441.346 290.981 441.479 291.484L449.241 319.74C449.374 320.261 448.825 320.667 448.389 320.377L274.04 205.788C273.169 205.208 272.166 206.29 272.752 207.16V207.18Z" fill="#3F0D4A"/>
</g>
<g style="mix-blend-mode:screen" opacity="0.7" filter="url(#filter0_f_721_25002)">
<ellipse cx="222.349" cy="209.902" rx="237.849" ry="157.004" transform="rotate(21.0304 222.349 209.902)" fill="#9E26C8"/>
</g>
<path d="M26.9062 45.1106C26.6761 44.9942 26.4132 44.9323 26.1187 44.9272C25.9127 44.9209 25.7029 44.9462 25.488 44.9968C25.2731 45.0486 25.0747 45.1295 24.8927 45.2382C24.7094 45.3469 24.5603 45.4872 24.4414 45.6579C24.3226 45.8285 24.2581 46.0307 24.2443 46.2658L25.3465 46.2582C25.3692 46.1495 25.4109 46.0547 25.4716 45.9751C25.5322 45.8955 25.6081 45.8335 25.7003 45.7918C25.7926 45.7488 25.8975 45.7286 26.0151 45.7311C26.1453 45.7374 26.2464 45.7691 26.3184 45.8272C26.3905 45.8853 26.4372 45.9637 26.4612 46.0635C26.484 46.1634 26.4904 46.2696 26.4764 46.3847L26.4334 46.6601L25.8988 46.6564C25.6649 46.6564 25.4286 46.6791 25.1897 46.7246C24.9521 46.7701 24.7322 46.846 24.5299 46.9534C24.3277 47.0596 24.1633 47.205 24.0357 47.3895C23.908 47.5728 23.8385 47.8028 23.8284 48.0783C23.8183 48.3223 23.8689 48.5372 23.9826 48.7204C24.0951 48.9037 24.2493 49.0491 24.4427 49.154C24.6361 49.2589 24.8497 49.3145 25.081 49.3196C25.2478 49.3221 25.4046 49.2994 25.55 49.2513C25.6953 49.2033 25.8293 49.1351 25.9519 49.044C26.0214 48.9922 26.0858 48.9353 26.1465 48.8734C26.1554 48.9973 26.1769 49.1173 26.2122 49.2349L27.2904 49.2311L27.298 49.1616C27.2386 49.0137 27.2146 48.8557 27.2285 48.6914C27.2424 48.5258 27.2601 48.3678 27.2841 48.2161L27.5774 46.4035C27.609 46.0939 27.5622 45.8297 27.4383 45.6123C27.3144 45.3949 27.1375 45.2268 26.9062 45.1106ZM26.0858 48.1807C25.9923 48.2806 25.8811 48.3564 25.7534 48.4095C25.6258 48.4626 25.4956 48.4879 25.3629 48.4854C25.2694 48.4828 25.1897 48.4601 25.1227 48.4184C25.057 48.3766 25.0077 48.3197 24.9761 48.2478C24.9445 48.1757 24.9357 48.0948 24.9483 48.0038C24.9647 47.8761 25.0026 47.7674 25.0633 47.6789C25.1253 47.5905 25.2024 47.5184 25.2959 47.4616C25.3894 47.4059 25.4918 47.3642 25.6018 47.3364C25.7117 47.3086 25.8242 47.2934 25.9355 47.2909L26.3323 47.2934L26.2262 47.9735C26.1895 48.048 26.144 48.1175 26.0846 48.1795L26.0858 48.1807Z" fill="white"/>
<path d="M27.9917 49.2333H29.0889L30.1316 43.2319H29.0294L27.9917 49.2333Z" fill="white"/>
<path d="M34.6129 48.3046C34.4373 48.3918 34.2451 48.4323 34.0366 48.4272C33.8735 48.4221 33.7357 48.3855 33.6284 48.3185C33.5209 48.2515 33.4349 48.163 33.3742 48.053C33.3136 47.9431 33.2718 47.8204 33.2517 47.6839C33.2403 47.6119 33.2353 47.5399 33.234 47.4666H35.834L35.8959 46.9976C35.9237 46.7284 35.9148 46.4718 35.8681 46.2253C35.8213 45.9789 35.7341 45.7602 35.6064 45.5668C35.4788 45.3747 35.3107 45.2205 35.1021 45.1067C34.8936 44.9929 34.642 44.9323 34.3475 44.9272C34.0315 44.9184 33.7459 44.9727 33.4893 45.089C33.2327 45.2053 33.0115 45.3646 32.8232 45.5694C32.6361 45.7741 32.4856 46.0092 32.3744 46.2746C32.262 46.5413 32.1912 46.8206 32.1596 47.1152L32.1444 47.2757C32.1242 47.5563 32.1495 47.8204 32.2228 48.0657C32.2961 48.3096 32.4098 48.5258 32.5653 48.7103C32.7195 48.8961 32.9129 49.0402 33.1455 49.1464C33.3781 49.2513 33.6384 49.3069 33.9266 49.312H33.9279C34.1327 49.3145 34.3399 49.2892 34.5485 49.2361C34.7571 49.1831 34.9517 49.0996 35.1325 48.9859C35.3132 48.8721 35.4623 48.7267 35.5799 48.5498L35.0869 47.9557C34.9454 48.1023 34.7887 48.2187 34.6117 48.3058L34.6129 48.3046ZM33.526 46.2367C33.6031 46.104 33.7042 45.9978 33.8267 45.9156C33.9494 45.8348 34.101 45.7968 34.2793 45.8019C34.436 45.807 34.5611 45.8474 34.6547 45.9232C34.7482 45.9978 34.8127 46.099 34.8455 46.2215C34.8784 46.3454 34.886 46.4781 34.8645 46.6222L34.8455 46.7195L33.3351 46.717C33.3389 46.7006 33.3427 46.6841 33.3465 46.6677C33.3869 46.5135 33.4476 46.3694 33.526 46.2367Z" fill="white"/>
<path d="M39.0554 45.0052L38.1568 46.283L37.6878 45.0052V45.0039H36.5629L37.3832 47.0212L35.7969 49.2319H37.0229L37.9697 47.8807L38.4968 49.2319H39.6141L38.7584 47.1223L40.2776 45.0052H39.0554Z" fill="white"/>
<path d="M42.292 43.9624H41.1937L41.0179 45.0052H40.4213L40.2798 45.8015H40.884L40.5023 48.0716C40.4795 48.3131 40.5023 48.5267 40.5705 48.7099C40.6401 48.8932 40.7537 49.0373 40.9143 49.1409C41.0749 49.2459 41.2796 49.3002 41.5299 49.3053C41.6399 49.3053 41.7473 49.2977 41.8522 49.2837C41.9583 49.2699 42.062 49.2471 42.1669 49.2155L42.2453 48.3762C42.1884 48.3851 42.1328 48.3914 42.0772 48.3977C42.0215 48.404 41.9684 48.4066 41.9129 48.404C41.813 48.399 41.741 48.38 41.6941 48.3459C41.6474 48.3118 41.6183 48.2638 41.607 48.1993C41.5956 48.1348 41.5956 48.0577 41.6057 47.9667L41.9773 45.8028H42.6763L42.8179 45.0065H42.1151L42.2946 43.9637L42.292 43.9624Z" fill="white"/>
<path d="M46.3501 45.5668C46.2225 45.3747 46.0543 45.2205 45.8458 45.1067C45.6372 44.9929 45.3857 44.9323 45.0912 44.9272C44.7752 44.9184 44.4895 44.9727 44.2329 45.089C43.9763 45.2053 43.7551 45.3646 43.5668 45.5694C43.3797 45.7741 43.2294 46.0092 43.1181 46.2746C43.0056 46.5413 42.9348 46.8206 42.9032 47.1152L42.8881 47.2757C42.8678 47.5563 42.8931 47.8204 42.9665 48.0657C43.0398 48.3096 43.1535 48.5258 43.309 48.7103C43.4632 48.8961 43.6566 49.0402 43.8892 49.1464C44.1217 49.2513 44.3821 49.3069 44.6703 49.312H44.6715C44.8763 49.3145 45.0836 49.2892 45.2921 49.2361C45.5007 49.1831 45.6953 49.0996 45.8761 48.9859C46.0569 48.8721 46.206 48.7267 46.3236 48.5498L45.8306 47.9557C45.6891 48.1023 45.5323 48.2187 45.3554 48.3058C45.1797 48.393 44.9875 48.4335 44.779 48.4284C44.616 48.4234 44.4782 48.3867 44.3707 48.3198C44.2633 48.2528 44.1773 48.1643 44.1167 48.0543C44.056 47.9444 44.0143 47.8217 43.994 47.6852C43.9827 47.6132 43.9776 47.5411 43.9763 47.4678H46.5763L46.6383 46.9989C46.6661 46.7297 46.6573 46.4731 46.6105 46.2266C46.5638 45.9801 46.4765 45.7614 46.3489 45.5681L46.3501 45.5668ZM45.6069 46.6235L45.5879 46.7208L44.0775 46.7183C44.0813 46.7018 44.0851 46.6854 44.0888 46.669C44.1293 46.5148 44.1899 46.3707 44.2683 46.2379C44.3454 46.1053 44.4465 45.999 44.5692 45.9169C44.6918 45.836 44.8422 45.7981 45.0217 45.8031C45.1784 45.8082 45.3035 45.8487 45.3971 45.9245C45.4906 45.999 45.5551 46.1002 45.5879 46.2228C45.6208 46.3467 45.6284 46.4794 45.6069 46.6235Z" fill="white"/>
<path d="M49.907 44.97C49.8413 44.9548 49.7781 44.9422 49.7174 44.9308C49.6567 44.9194 49.5935 44.9156 49.5278 44.9156C49.2775 44.9131 49.0651 44.9725 48.8933 45.0938C48.7808 45.1735 48.6822 45.2696 48.5949 45.3795L48.6355 45.0066H47.604L46.8696 49.2334H47.9668L48.4407 46.4969C48.5002 46.3882 48.5722 46.2946 48.6582 46.2188C48.7479 46.1392 48.8541 46.0785 48.9767 46.0368C49.0993 45.9951 49.2358 45.9761 49.3875 45.9787C49.4532 45.9811 49.5176 45.9863 49.5809 45.9938C49.6441 46.0027 49.7073 46.0115 49.7705 46.0216L49.907 44.9712V44.97Z" fill="white"/>
<path d="M49.7598 49.2321H50.8568L51.5912 45.0054H50.4941L49.7598 49.2321Z" fill="white"/>
<path d="M51.2276 43.3346C51.0557 43.3371 50.9091 43.3927 50.7877 43.4989C50.6664 43.6063 50.6095 43.7478 50.6146 43.9249C50.6171 44.0968 50.679 44.232 50.8004 44.3318C50.9217 44.4304 51.0646 44.4785 51.2289 44.4759C51.3982 44.4722 51.5436 44.4178 51.6662 44.3116C51.7888 44.2055 51.8469 44.0626 51.8419 43.8856C51.8419 43.7175 51.7812 43.5823 51.6586 43.4812C51.536 43.38 51.3932 43.332 51.2289 43.3346H51.2276Z" fill="white"/>
<path d="M55.4884 45.583C55.3468 45.3846 55.1648 45.2278 54.9436 45.1103C54.7212 44.994 54.4582 44.9321 54.1537 44.927C53.8326 44.9194 53.5444 44.9725 53.2878 45.0863C53.0312 45.2001 52.8088 45.3567 52.6204 45.559C52.4321 45.7612 52.2804 45.9938 52.1666 46.258C52.0529 46.5221 51.9809 46.8053 51.9493 47.1049L51.9379 47.187V47.1844C51.9139 47.4663 51.9303 47.733 51.9884 47.9859C52.0466 48.2386 52.1439 48.4636 52.2855 48.6595C52.4258 48.8567 52.6078 49.0122 52.8316 49.1285C53.0552 49.2447 53.3169 49.3054 53.6165 49.3105C53.9325 49.3194 54.2181 49.2663 54.4759 49.155C54.7338 49.0425 54.9563 48.8883 55.1459 48.6886C55.3355 48.4889 55.4872 48.2576 55.6034 47.9972C55.7198 47.7356 55.7943 47.4563 55.8284 47.1591L55.836 47.0732C55.8626 46.7901 55.8461 46.5196 55.788 46.2643C55.7298 46.009 55.6287 45.7815 55.4872 45.5843L55.4884 45.583ZM54.7351 47.072L54.7275 47.1541C54.7123 47.3008 54.6807 47.4487 54.634 47.6016C54.5872 47.7545 54.524 47.8948 54.4431 48.0237C54.3622 48.1527 54.2598 48.2563 54.1347 48.3321C54.0109 48.4092 53.8604 48.4447 53.686 48.4396C53.523 48.4345 53.3927 48.3903 53.2992 48.3081C53.2057 48.226 53.1387 48.1211 53.0982 47.9934C53.0578 47.8658 53.0351 47.7305 53.0299 47.5889C53.0249 47.4474 53.0287 47.3134 53.0413 47.1883L53.0489 47.1023C53.0653 46.9557 53.0945 46.8066 53.1412 46.6524C53.1867 46.4981 53.2499 46.3565 53.3308 46.2264C53.4117 46.0962 53.5141 45.9913 53.6392 45.9116C53.7643 45.832 53.9135 45.7954 54.0879 45.8004C54.251 45.8068 54.3811 45.851 54.4747 45.9357C54.5682 46.0204 54.6352 46.1278 54.677 46.2567C54.7187 46.3856 54.7427 46.5234 54.7452 46.6675C54.749 46.8116 54.7452 46.9468 54.7351 47.072Z" fill="white"/>
<path d="M59.1578 44.97C59.092 44.9548 59.0289 44.9422 58.9682 44.9308C58.9075 44.9194 58.8443 44.9156 58.7786 44.9156C58.5283 44.9131 58.3159 44.9725 58.1428 45.0938C58.0303 45.1735 57.9317 45.2696 57.8445 45.3795L57.885 45.0066H56.8535L56.1191 49.2334H57.2163L57.6903 46.4969C57.7497 46.3882 57.8217 46.2946 57.9077 46.2188C57.9974 46.1392 58.1036 46.0785 58.2263 46.0368C58.3488 45.9951 58.4853 45.9761 58.637 45.9787C58.7015 45.9811 58.7672 45.9863 58.8304 45.9938C58.8936 46.0014 58.9568 46.0115 59.02 46.0216L59.1565 44.9712L59.1578 44.97Z" fill="white"/>
<path d="M34.4492 39.027C34.4062 39.2001 34.3771 39.324 34.3619 39.3745C34.0863 40.641 34.1521 41.1403 35.1367 41.024C36.201 40.8938 36.3312 40.344 36.6775 39.027C36.699 38.9321 36.7281 38.8235 36.7648 38.6933C40.3469 38.2079 43.8645 37.9045 48.7055 37.5064C48.9015 37.49 49.0721 37.4723 49.2199 37.4507C49.2844 37.4444 49.3476 37.4394 49.4146 37.4331C50.8442 37.3004 50.8303 37.0501 50.9617 36.1628C51.1134 35.1528 49.991 35.1541 49.6535 35.1642H49.4929C47.3202 35.2211 45.7896 35.2325 43.4398 35.4878C41.4338 35.6559 39.4014 35.8783 37.4523 36.1236C37.8795 34.5967 38.2992 33.0989 38.2992 33.0989C38.2992 33.0989 38.7327 34.0329 39.9562 33.9381C41.693 33.8004 43.8064 32.1143 44.834 29.0162C45.9197 25.7236 45.8249 21.9898 43.6041 21.67C41.8092 21.416 40.9548 23.0022 40.8322 23.3195C40.8322 23.3195 41.2165 21.8786 40.0713 22.1326C38.9792 22.3715 38.7833 22.8556 38.5078 23.7316C38.4572 23.8832 37.5383 27.3073 36.5764 30.911C36.5625 30.9324 36.5473 30.9615 36.541 30.9905C36.3021 31.8084 35.8319 32.0763 35.4919 32.0978C34.3922 32.1698 36.7584 24.9121 36.9391 24.3534C37.178 23.6305 37.3158 23.0793 36.5119 22.776C35.9697 22.5737 35.2302 22.6458 35.0142 23.2247C34.9194 23.4712 34.8548 23.6443 34.8548 23.6443C34.8548 23.6443 34.2393 22.7254 32.8717 22.848C31.504 22.9707 29.775 24.6353 28.6374 27.5589C27.4947 30.4762 27.0018 34.6662 29.7079 35.0846C31.0832 35.2944 32.2409 34.5133 32.8414 33.2177C32.8414 33.2177 32.7327 34.086 33.6453 34.5133C34.0004 34.6789 34.8827 34.6144 35.722 34.1442C35.5045 34.9696 35.2948 35.7431 35.114 36.4383C29.2668 37.2485 24.6559 38.1535 24.6559 38.1535C24.6559 38.1535 27.8625 27.3049 28.5856 24.9247C29.1935 22.9277 28.0496 23.3612 27.2104 23.6077C26.3129 23.8681 25.8857 24.6214 25.4369 25.9966C23.4753 31.9967 21.9269 33.8636 20.8057 33.4579C19.7781 33.0888 23.0127 26.7209 22.2391 25.8816C21.5667 25.151 20.1839 25.194 19.9159 25.6212C19.6556 26.0485 20.0461 26.4466 19.8729 27.0546C19.7074 27.6625 18.4105 30.9552 18.274 31.6933C18.1363 32.4315 17.0151 36.5205 19.9893 36.3397C21.7474 36.2386 22.9494 34.9064 23.0796 34.5373C22.5298 36.1223 21.7474 38.692 21.7474 38.692C21.7474 38.692 18.1501 39.5894 15.2847 42.5927C13.0045 44.974 11.398 50.1045 14.7993 50.9222C20.0815 52.1963 22.5867 44.1258 23.8671 41.0872C28.152 40.1317 31.4219 39.5022 34.4479 39.0244L34.4492 39.027ZM39.7249 28.2364V28.2288C40.448 25.8626 41.1141 24.921 41.7372 24.653C43.2274 24.0159 43.5105 25.8828 42.3591 28.7268C41.0269 32.0119 39.4709 31.9398 38.8781 31.2889C38.8781 31.2889 38.9577 30.7251 39.7249 28.2351V28.2364ZM33.0663 29.6546C32.4293 31.1953 31.8289 32.2811 31.0035 32.2887C29.8242 32.2963 29.8521 30.5229 30.6926 28.287C31.4016 26.4124 32.6897 25.2256 33.3848 25.0954C34.0801 24.9652 34.8902 25.2547 33.0663 29.6546ZM17.4474 47.6081C14.6388 50.1196 15.3479 46.6828 16.3907 45.199C18.3739 42.3841 20.8273 41.6674 20.8273 41.6674C19.5822 45.3076 18.0263 47.0949 17.4474 47.6081Z" fill="white"/>
<path d="M48.409 33.1936C50.1318 33.1215 51.622 31.8766 52.1656 30.95C52.4259 30.5014 52.5347 29.7998 52.4841 29.4877C52.3539 28.6117 51.818 28.4815 50.9066 29.6318C50.6816 29.8845 48.888 31.4847 48.0046 30.5368C47.3675 29.8491 47.9034 28.503 47.9325 28.503C49.0827 28.4158 51.0949 27.9532 52.6939 26.1078H52.6876C53.7518 24.8779 54.236 22.2589 52.4563 21.2958C50.2999 20.1304 47.4914 21.9114 46.3272 25.7462C45.292 29.154 44.9091 33.3529 48.4115 33.1924L48.409 33.1936ZM50.109 23.1198V23.1273C51.0785 22.2223 51.9974 23.3081 50.8839 24.8577C49.7551 26.4288 48.4305 26.3846 48.4242 26.4352C48.5619 25.8196 49.0536 24.112 50.1103 23.1198H50.109Z" fill="white"/>
<g filter="url(#filter1_d_721_25002)">
<path d="M132.659 91.607L131.522 109.333H123.522L125.739 91.607H132.659ZM129.774 84.1977C131.214 84.1977 132.203 84.4633 132.742 84.9944C133.282 85.499 133.503 86.2957 133.404 87.3845C133.304 88.4733 132.937 89.2833 132.302 89.8144C131.696 90.319 130.66 90.5713 129.193 90.5713C127.726 90.5713 126.736 90.319 126.222 89.8144C125.711 89.2833 125.504 88.4733 125.604 87.3845C125.703 86.2957 126.056 85.499 126.662 84.9944C127.297 84.4633 128.334 84.1977 129.774 84.1977ZM155.905 85.8708H150.625L148.983 103.876H140.463L142.105 85.8708H136.545L137.519 79.1387H156.999L155.905 85.8708ZM165.526 95.1124C165.395 96.5465 165.969 97.2635 167.249 97.2635C168.556 97.2635 169.276 96.5332 169.409 95.0726L170.862 79.1387H179.422L177.922 95.5904C177.656 98.5116 176.537 100.689 174.566 102.123C172.596 103.557 169.89 104.274 166.45 104.274C159.464 104.274 156.232 101.406 156.755 95.6701L158.262 79.1387H166.982L165.526 95.1124ZM203.915 103.876H188.075L190.331 79.1387H206.731L205.571 85.7114H198.291L198.019 88.699H204.379L203.856 94.4352H197.496L197.187 97.8212H205.027L203.915 103.876ZM227.592 103.876H219.432L215.282 94.1165H215.002L214.112 103.876H206.512L208.768 79.1387H217.208L221.009 89.2169H221.249L222.168 79.1387H229.848L227.592 103.876ZM254.025 79.1387L246.969 103.876H234.689L231.865 79.1387H241.105L241.641 94.3157H242.121L245.225 79.1387H254.025ZM262.498 103.876H254.058L256.314 79.1387H264.754L262.498 103.876ZM268.069 72.6058L262.339 77.5453H257.059L259.949 72.6058H268.069ZM266.228 91.3679C266.632 86.933 267.805 83.7197 269.747 81.7279C271.715 79.7362 274.726 78.7403 278.779 78.7403C282.859 78.7403 285.676 79.7229 287.231 81.6881C288.811 83.6533 289.4 86.8533 288.995 91.2883C288.593 95.6967 287.389 98.9631 285.382 101.088C283.401 103.212 280.398 104.274 276.371 104.274C272.371 104.274 269.573 103.225 267.978 101.127C266.409 99.0295 265.826 95.7763 266.228 91.3679ZM280.3 86.6276C280.016 85.9371 279.301 85.5919 278.155 85.5919C277.008 85.5919 276.244 85.9239 275.864 86.5878C275.483 87.2517 275.194 88.6725 274.995 90.8501L274.835 92.6028C274.632 94.8336 274.673 96.2809 274.959 96.9448C275.246 97.6087 275.975 97.9407 277.149 97.9407C278.322 97.9407 279.084 97.622 279.436 96.9846C279.787 96.3473 280.063 94.9265 280.264 92.7223L280.432 90.8899C280.63 88.7123 280.586 87.2915 280.3 86.6276ZM312.8 103.876H297.88L300.135 79.1387H308.695L307.024 97.4627H313.944L312.8 103.876ZM329.323 103.876H314.403L316.659 79.1387H325.219L323.548 97.4627H330.468L329.323 103.876ZM346.766 103.876H330.926L333.182 79.1387H349.582L348.423 85.7114H341.143L340.87 88.699H347.23L346.707 94.4352H340.347L340.039 97.8212H347.879L346.766 103.876ZM360.88 97.7813C361.36 97.7813 362.007 97.7017 362.822 97.5423L363.039 95.1522H361.039L361.541 89.6551H370.981L369.684 103.876H363.644L363.16 102.601H363C361.512 103.717 359.821 104.274 357.928 104.274C351.688 104.274 348.95 100.078 349.715 91.6866C350.098 87.4907 351.23 84.2906 353.111 82.0865C355.021 79.8557 357.989 78.7403 362.016 78.7403C365.003 78.7403 367.792 79.152 370.383 79.9752L368.38 87.4641C365.469 86.6409 363.36 86.2293 362.053 86.2293C360.773 86.2293 359.881 86.6542 359.377 87.504C358.899 88.3538 358.567 89.8011 358.381 91.846C358.194 93.8908 358.244 95.3913 358.53 96.3473C358.843 97.3033 359.626 97.7813 360.88 97.7813ZM373.376 91.3679C373.781 86.933 374.954 83.7197 376.895 81.7279C378.864 79.7362 381.874 78.7403 385.928 78.7403C390.008 78.7403 392.825 79.7229 394.379 81.6881C395.96 83.6533 396.548 86.8533 396.144 91.2883C395.742 95.6967 394.537 98.9631 392.53 101.088C390.55 103.212 387.546 104.274 383.52 104.274C379.52 104.274 376.722 103.225 375.126 101.127C373.558 99.0295 372.974 95.7763 373.376 91.3679ZM387.449 86.6276C387.165 85.9371 386.45 85.5919 385.303 85.5919C384.156 85.5919 383.393 85.9239 383.012 86.5878C382.632 87.2517 382.342 88.6725 382.144 90.8501L381.984 92.6028C381.78 94.8336 381.822 96.2809 382.108 96.9448C382.394 97.6087 383.124 97.9407 384.297 97.9407C385.47 97.9407 386.233 97.622 386.584 96.9846C386.936 96.3473 387.212 94.9265 387.413 92.7223L387.58 90.8899C387.779 88.7123 387.735 87.2915 387.449 86.6276ZM393.847 72.6058L388.117 77.5453H382.837L385.727 72.6058H393.847Z" fill="white"/>
</g>
<g filter="url(#filter2_d_721_25002)">
<path d="M163.292 140.723H154.892L154.441 136.899H150.001L148.812 140.723H140.772L148.188 115.986H160.388L163.292 140.723ZM154.309 131.76L153.545 123.475H153.385L151.069 131.76H154.309ZM172.861 123.913C173.101 121.284 174.087 119.239 175.82 117.778C177.554 116.318 179.833 115.588 182.66 115.588C185.513 115.588 188.423 115.853 191.387 116.384L189.828 123.395C186.555 122.731 184.399 122.399 183.359 122.399C182.319 122.399 181.77 122.718 181.712 123.355C181.69 123.594 181.754 123.767 181.905 123.873C182.057 123.953 182.171 124.019 182.246 124.072C182.322 124.125 182.462 124.192 182.668 124.271C182.901 124.351 183.08 124.431 183.206 124.51C183.362 124.564 183.823 124.763 184.592 125.108C185.39 125.427 185.979 125.692 186.359 125.905C186.769 126.091 187.313 126.409 187.992 126.861C189.949 128.215 190.807 130.207 190.567 132.836C190.328 135.465 189.354 137.51 187.648 138.97C185.944 140.405 183.612 141.122 180.652 141.122C177.718 141.122 174.871 140.763 172.11 140.046L173.284 133.314C176.775 134.217 179.147 134.668 180.4 134.668C181.227 134.668 181.667 134.376 181.72 133.792C181.744 133.526 181.657 133.314 181.458 133.155C181.286 132.995 181.009 132.823 180.626 132.637C180.269 132.451 179.731 132.212 179.011 131.92C178.293 131.601 177.691 131.336 177.204 131.123C176.719 130.884 176.151 130.526 175.502 130.048C173.501 128.587 172.621 126.542 172.861 123.913ZM201.463 131.96C201.332 133.394 201.907 134.111 203.187 134.111C204.494 134.111 205.214 133.38 205.347 131.92L206.8 115.986H215.36L213.86 132.438C213.593 135.359 212.475 137.536 210.504 138.97C208.533 140.405 205.828 141.122 202.388 141.122C195.401 141.122 192.169 138.253 192.692 132.517L194.2 115.986H202.92L201.463 131.96ZM246.669 127.817C245.885 136.421 241.546 140.723 233.653 140.723H224.013L226.268 115.986H236.108C240.348 115.986 243.255 117.008 244.828 119.053C246.404 121.071 247.018 123.993 246.669 127.817ZM234.099 134.509C235.459 134.509 236.382 134.044 236.866 133.115C237.351 132.185 237.691 130.645 237.888 128.494C238.086 126.316 238 124.776 237.629 123.873C237.287 122.944 236.423 122.479 235.036 122.479H234.196L233.099 134.509H234.099ZM263.798 140.723H247.958L250.213 115.986H266.613L265.454 122.559H258.174L257.902 125.546H264.262L263.739 131.282H257.379L257.07 134.668H264.91L263.798 140.723ZM266.728 123.913C266.968 121.284 267.954 119.239 269.688 117.778C271.421 116.318 273.701 115.588 276.527 115.588C279.381 115.588 282.29 115.853 285.255 116.384L283.695 123.395C280.423 122.731 278.266 122.399 277.226 122.399C276.186 122.399 275.637 122.718 275.579 123.355C275.557 123.594 275.621 123.767 275.772 123.873C275.925 123.953 276.038 124.019 276.114 124.072C276.189 124.125 276.329 124.192 276.535 124.271C276.768 124.351 276.948 124.431 277.074 124.51C277.229 124.564 277.691 124.763 278.459 125.108C279.257 125.427 279.846 125.692 280.227 125.905C280.636 126.091 281.181 126.409 281.859 126.861C283.816 128.215 284.674 130.207 284.435 132.836C284.195 135.465 283.222 137.51 281.515 138.97C279.811 140.405 277.479 141.122 274.519 141.122C271.586 141.122 268.738 140.763 265.977 140.046L267.151 133.314C270.642 134.217 273.014 134.668 274.267 134.668C275.094 134.668 275.534 134.376 275.587 133.792C275.612 133.526 275.524 133.314 275.325 133.155C275.153 132.995 274.876 132.823 274.493 132.637C274.136 132.451 273.598 132.212 272.878 131.92C272.16 131.601 271.558 131.336 271.071 131.123C270.586 130.884 270.019 130.526 269.369 130.048C267.369 128.587 266.488 126.542 266.728 123.913ZM304.733 122.718H299.453L297.811 140.723H289.291L290.933 122.718H285.373L286.347 115.986H305.827L304.733 122.718ZM313.435 140.723H304.995L307.25 115.986H315.69L313.435 140.723ZM337.944 140.723H329.784L325.634 130.964H325.354L324.464 140.723H316.864L319.12 115.986H327.56L331.361 126.064H331.601L332.52 115.986H340.2L337.944 140.723ZM341.501 128.215C341.906 123.78 343.079 120.567 345.02 118.575C346.989 116.583 350 115.588 354.053 115.588C358.133 115.588 360.95 116.57 362.504 118.535C364.085 120.5 364.673 123.701 364.269 128.135C363.867 132.544 362.662 135.81 360.655 137.935C358.675 140.059 355.671 141.122 351.645 141.122C347.645 141.122 344.847 140.073 343.252 137.975C341.683 135.877 341.1 132.623 341.501 128.215ZM355.574 123.475C355.29 122.784 354.575 122.439 353.428 122.439C352.282 122.439 351.518 122.771 351.137 123.435C350.757 124.099 350.467 125.52 350.269 127.697L350.109 129.45C349.905 131.681 349.947 133.128 350.233 133.792C350.519 134.456 351.249 134.788 352.422 134.788C353.596 134.788 354.358 134.469 354.709 133.832C355.061 133.194 355.337 131.774 355.538 129.569L355.705 127.737C355.904 125.559 355.86 124.139 355.574 123.475ZM368.335 133.712L369.472 115.986H377.472L375.255 133.712H368.335ZM371.22 141.122C369.78 141.122 368.789 140.869 368.249 140.365C367.71 139.834 367.491 139.024 367.59 137.935C367.69 136.846 368.042 136.049 368.648 135.545C369.283 135.014 370.334 134.748 371.801 134.748C373.267 134.748 374.257 135.014 374.768 135.545C375.282 136.049 375.49 136.846 375.39 137.935C375.291 139.024 374.924 139.834 374.289 140.365C373.683 140.869 372.66 141.122 371.22 141.122Z" fill="#F4C12A"/>
</g>
<path d="M333.835 186.208C335.505 194.92 331.518 222.282 337.056 232.014C341.789 240.321 351.243 249.858 352.647 260.947L279.896 253.274C281.348 246.922 288.958 237.631 290.187 223.579L333.839 186.212L333.835 186.208Z" fill="#2C2044"/>
<path d="M318.628 247.736L320.643 216.446L292.095 214.609L290.08 245.899C287.942 245.887 285.827 245.891 283.764 245.927C286.117 254.817 293.9 261.446 303.374 262.057C312.848 262.668 321.421 257.086 324.892 248.573C322.849 248.271 320.751 247.994 318.632 247.732L318.628 247.736Z" fill="#FCDABA"/>
<path d="M291.096 230.161L290.45 240.178C295.353 240.916 303.296 241.424 309.933 238.631C315.221 236.409 317.006 233.207 317.605 231.874L291.1 230.161H291.096Z" fill="#DCAC82"/>
<path d="M268.812 427.019C282.752 427.019 294.052 415.718 294.052 401.779C294.052 387.84 282.752 376.54 268.812 376.54C254.873 376.54 243.573 387.84 243.573 401.779C243.573 415.718 254.873 427.019 268.812 427.019Z" fill="#2C2044"/>
<path d="M327.011 427.019C340.951 427.019 352.251 415.718 352.251 401.779C352.251 387.84 340.951 376.54 327.011 376.54C313.072 376.54 301.772 387.84 301.772 401.779C301.772 415.718 313.072 427.019 327.011 427.019Z" fill="#2C2044"/>
<path d="M294.047 401.929L243.572 401.779C242.219 371.493 251.753 352.026 257.196 344.738H338.627C344.07 352.026 353.603 371.493 352.251 401.779L301.775 401.929H294.051H294.047Z" fill="#2C2044"/>
<path d="M248.42 360.484C252.983 345.341 257.549 330.199 262.111 315.056C259.525 313.159 252.443 307.431 249.579 297.275C245.076 281.291 254.958 268.266 256.105 266.81C255.938 261.173 255.768 255.531 255.601 249.894C258.6 249.406 261.635 248.93 264.702 248.474C271.172 247.51 277.528 246.669 283.76 245.927C286.109 254.801 293.869 261.423 303.315 262.054C303.335 262.054 303.354 262.054 303.374 262.054C303.394 262.054 303.414 262.054 303.434 262.057C312.884 262.641 321.425 257.071 324.896 248.569C330.982 250.1 337.179 251.755 343.471 253.536C346.454 254.381 349.402 255.242 352.314 256.111C351.425 261.681 350.533 267.251 349.644 272.821C351.171 278.291 352.699 283.758 354.226 289.229C348.807 299.254 343.392 309.279 337.972 319.305C338.448 325.541 339.417 332.761 341.261 340.656C343.332 349.515 346.018 357.156 348.672 363.44C336.989 367.621 316.657 373.148 291.298 371.105C273.013 369.633 258.346 364.721 248.424 360.476L248.42 360.484Z" fill="#DE4A65"/>
<path d="M300.451 338.014C296.881 337.816 294.699 335.832 295.69 330.477L313.741 333.452L346.867 362.214L347.462 364L337.941 366.777C329.874 366.115 316.439 365.15 312.154 364.991C307.869 364.833 307.46 360.958 307.592 359.834C307.46 359.239 307.631 357.335 309.377 354.478C307.155 353.526 307.261 351.437 307.592 350.511C307.989 349.85 309.218 348.091 310.964 346.345C308.584 345.949 307.592 344.163 307.989 341.982C308.306 340.236 309.179 339.006 309.575 338.609C307.724 338.477 303.308 338.173 300.451 338.014Z" fill="#973043"/>
<path d="M343.931 364.087C334.747 364.087 327.277 356.672 327.222 347.476C327.166 338.248 334.601 330.722 343.832 330.667C350.894 330.623 357.944 329.889 364.843 328.477C358.471 312.136 349.577 297.005 338.361 283.449C332.478 276.339 333.474 265.802 340.587 259.923C347.696 254.04 358.233 255.035 364.113 262.149C378.72 279.807 390.058 299.683 397.81 321.229C400.647 329.107 400.008 337.863 396.061 345.242C392.129 352.589 385.242 357.953 377.161 359.953C366.346 362.631 355.198 364.023 344.031 364.09C343.999 364.09 343.963 364.09 343.927 364.09L343.931 364.087Z" fill="#FCDABA"/>
<path d="M254.527 283.278C263.756 283.278 271.237 275.797 271.237 266.568C271.237 257.34 263.756 249.858 254.527 249.858C245.298 249.858 237.817 257.34 237.817 266.568C237.817 275.797 245.298 283.278 254.527 283.278Z" fill="#DE4A65"/>
<path d="M351.243 289.506C360.472 289.506 367.953 282.025 367.953 272.796C367.953 263.568 360.472 256.086 351.243 256.086C342.015 256.086 334.533 263.568 334.533 272.796C334.533 282.025 342.015 289.506 351.243 289.506Z" fill="#DE4A65"/>
<path d="M331.292 205.861L327.42 205.068L324.512 219.271L328.384 220.064C331.236 220.647 334.021 218.81 334.604 215.958L335.398 212.086C335.981 209.233 334.144 206.448 331.292 205.861Z" fill="#FCDABA"/>
<path d="M331.494 211.062C331.426 210.892 331.236 210.808 331.069 210.876L327.602 212.225C327.499 212.264 327.419 212.356 327.399 212.467C327.376 212.578 327.411 212.689 327.491 212.768L330.153 215.371C330.204 215.422 330.272 215.454 330.339 215.462C330.438 215.474 330.541 215.442 330.617 215.367C330.744 215.236 330.744 215.03 330.613 214.903L328.316 212.657L331.307 211.495C331.478 211.427 331.561 211.237 331.494 211.066V211.062Z" fill="#DCAC82"/>
<path d="M287.017 196.796C284.165 196.213 281.38 198.05 280.793 200.903L279.999 204.775C279.416 207.627 281.253 210.412 284.105 210.999L287.977 211.793L290.885 197.59L287.013 196.796H287.017Z" fill="#DCAC82"/>
<path d="M314.197 171.073L310.968 170.411C300.272 168.221 289.822 175.116 287.633 185.815L281.682 214.871C279.857 223.786 285.605 232.494 294.52 234.319L300.974 235.64C311.67 237.83 322.12 230.935 324.31 220.235L329.598 194.408C331.788 183.713 324.893 173.263 314.193 171.073H314.197Z" fill="#FCDABA"/>
<path d="M310.789 204.473C309.932 204.299 309.047 205.08 308.813 206.223C308.579 207.365 309.087 208.432 309.944 208.607C310.801 208.782 311.686 208 311.92 206.857C312.154 205.715 311.646 204.648 310.789 204.473Z" fill="#2C2044"/>
<path d="M291.869 200.561C291.012 200.387 290.128 201.168 289.893 202.311C289.659 203.454 290.167 204.521 291.024 204.695C291.881 204.87 292.766 204.088 293 202.946C293.234 201.803 292.726 200.736 291.869 200.561Z" fill="#2C2044"/>
<path d="M316.423 199.982C315.697 199.335 314.467 198.506 312.733 198.205C311.198 197.939 309.912 198.209 309.099 198.482C308.928 198.542 308.833 198.728 308.893 198.899C308.952 199.074 309.139 199.165 309.309 199.105C310.051 198.859 311.218 198.613 312.622 198.851C314.201 199.125 315.324 199.883 315.982 200.47C316.034 200.514 316.093 200.541 316.157 200.549C316.26 200.561 316.371 200.526 316.446 200.442C316.565 200.307 316.553 200.097 316.419 199.978L316.423 199.982Z" fill="#2C2044"/>
<path d="M295.282 195.634C294.794 195.087 293.957 194.372 292.758 194.075C291.39 193.738 290.212 194.087 289.458 194.44C289.295 194.515 289.224 194.714 289.299 194.876C289.374 195.043 289.573 195.114 289.735 195.035C290.39 194.729 291.422 194.42 292.596 194.714C293.635 194.971 294.361 195.594 294.786 196.07C294.841 196.13 294.913 196.17 294.988 196.177C295.079 196.189 295.175 196.162 295.25 196.098C295.385 195.975 295.397 195.769 295.278 195.634H295.282Z" fill="#2C2044"/>
<path d="M313.987 211.067C312.741 210.813 311.619 211.166 311.48 211.86C311.337 212.55 312.234 213.32 313.475 213.574C314.721 213.828 315.844 213.475 315.983 212.78C316.125 212.09 315.229 211.321 313.987 211.067Z" fill="#FBCCA1"/>
<path d="M285.982 205.334C284.736 205.08 283.613 205.433 283.474 206.128C283.332 206.818 284.228 207.588 285.47 207.842C286.712 208.095 287.838 207.742 287.977 207.048C288.12 206.358 287.223 205.588 285.982 205.334Z" fill="#FBCCA1"/>
<path d="M326.638 217.807C325.547 217.585 324.48 218.287 324.254 219.382C324.032 220.473 324.734 221.54 325.825 221.766C326.916 221.989 327.983 221.286 328.209 220.191C328.435 219.096 327.729 218.033 326.634 217.807H326.638Z" fill="#10CBB4"/>
<path d="M318.715 171.997L310.944 170.406C300.621 168.292 290.37 174.624 287.827 184.847C287.612 185.704 287.438 186.577 287.295 187.454C293.956 186.267 298.558 183.542 300.97 181.86C305.409 188.981 312.677 194.495 321.77 197.15C321.762 199.209 321.603 201.394 321.409 203.838L331.934 205.992L334.116 195.333C336.306 184.637 329.411 174.187 318.711 171.997H318.715Z" fill="#2C2044"/>
<path d="M297.495 217.042C298.356 217.216 299.224 217.335 300.093 217.387C303.342 217.585 304.552 218.712 303.886 220.64C303.184 222.679 301.406 224.968 296.09 223.885C290.774 222.79 290.044 219.989 290.199 217.835C290.346 215.8 291.905 215.24 294.968 216.335C295.789 216.629 296.634 216.863 297.495 217.042Z" fill="#6B222F"/>
<path d="M291.33 221.54C292.194 222.532 293.67 223.385 296.094 223.889C298.522 224.381 300.212 224.174 301.394 223.603C300.545 222.171 298.867 221.001 296.777 220.572C294.686 220.144 292.674 220.56 291.33 221.544V221.54Z" fill="#DE4A65"/>
<path d="M292.313 215.787L292.615 216.978C292.726 217.418 293.055 217.759 293.476 217.906C295.249 218.505 297.427 219.14 299.958 219.655C301.398 219.949 302.747 220.167 303.985 220.326C304.417 218.584 303.164 217.569 300.101 217.386C299.232 217.331 298.36 217.22 297.503 217.041C296.638 216.863 295.793 216.625 294.975 216.335C293.908 215.954 293.024 215.776 292.317 215.783L292.313 215.787Z" fill="white"/>
<path d="M239.221 354.351C260.017 356.489 278.607 341.362 280.742 320.566C282.88 299.77 267.753 281.179 246.957 279.045C226.161 276.906 207.57 292.033 205.436 312.83C203.298 333.626 218.425 352.216 239.221 354.351Z" fill="#FCDABA"/>
<path d="M250.031 266.254L269.26 289.348L216.917 344.04L178.276 344.893L176.586 267.869L250.035 266.258L250.031 266.254Z" fill="#FCDABA"/>
<path d="M280.932 315.861C280.908 309.708 280.404 300.297 277.766 289.237C274.283 274.653 269.677 268.286 265.904 256.686C263.532 249.398 261.203 239.174 261.155 225.864C261.139 220.27 256.625 215.748 251.035 215.827C245.866 215.903 241.569 219.913 241.228 225.071C240.589 234.81 240.891 244.788 242.251 254.904C239.07 258.165 232.5 265.85 230.421 277.502C226.613 298.885 241.291 314.798 243.089 316.682L280.94 315.853L280.928 315.861H280.932Z" fill="#FCDABA"/>
<path d="M270.145 343.167C265.023 344.512 250.951 347.515 243.259 340.005C240.629 337.438 239.438 334.324 238.435 310.846C237.344 285.345 238.399 280.707 239.859 276.652C243.188 267.456 248.686 261.141 252.388 257.534C250.364 255.884 247.555 252.73 244.505 249.076C244.505 249.076 241.315 244.383 241.021 240.582V240.527C241.16 243.407 241.375 246.402 241.664 249.477C241.843 251.326 242.037 253.131 242.255 254.9C237.848 257.808 205.495 279.759 205.221 312.342C205.178 317.852 205.074 329.551 213.318 340.025C222.824 352.097 236.519 354.017 238.423 354.251C256.335 356.441 268.602 344.682 270.145 343.151V343.171V343.167Z" fill="#DCAC82"/>
<mask id="mask0_721_25002" style="mask-type:luminance" maskUnits="userSpaceOnUse" x="156" y="181" width="89" height="184">
<path d="M242.398 181.099L156.496 182.253L158.945 364.491L244.847 363.337L242.398 181.099Z" fill="white"/>
</mask>
<g mask="url(#mask0_721_25002)">
<path d="M244.759 356.679L242.557 192.896C242.505 189.218 239.478 186.275 235.789 186.326L163.24 187.302C159.555 187.35 156.603 190.373 156.654 194.051L158.856 357.833C158.904 361.511 161.935 364.455 165.62 364.403L238.169 363.427C241.855 363.38 244.806 360.357 244.755 356.679H244.759Z" fill="#403556"/>
<path d="M244.691 351.546L242.489 187.763C242.438 184.085 239.411 181.141 235.721 181.193L163.173 182.169C159.487 182.217 156.536 185.24 156.587 188.917L158.789 352.7C158.837 356.378 161.867 359.322 165.553 359.27L238.102 358.294C241.787 358.242 244.739 355.223 244.687 351.546H244.691Z" fill="#2C2044"/>
<path d="M240.423 344.274L238.419 195.146C238.395 193.321 236.892 191.861 235.063 191.885L164.109 192.837C162.28 192.861 160.816 194.36 160.84 196.185L162.844 345.313C162.867 347.138 164.371 348.598 166.2 348.574L237.154 347.622C238.983 347.598 240.446 346.099 240.423 344.274Z" fill="#742384"/>
<path d="M190.888 189.072L208.19 188.838C209.193 188.826 209.999 188.001 209.983 186.997V186.775C209.967 185.771 209.142 184.97 208.138 184.986L190.837 185.22C189.833 185.232 189.028 186.057 189.044 187.06V187.283C189.06 188.286 189.885 189.088 190.888 189.072Z" fill="#544A69"/>
</g>
<path d="M169.695 257.201V257.193C171.456 251.905 168.592 246.192 163.3 244.435L153.818 241.285C148.53 239.527 142.817 242.391 141.059 247.68V247.688C139.298 252.976 142.162 258.689 147.455 260.446L156.936 263.596C162.225 265.354 167.937 262.489 169.695 257.201Z" fill="#FCDABA"/>
<path d="M170.655 282.822V282.814C171.544 277.311 167.803 272.13 162.3 271.241L150.51 269.337C145.007 268.448 139.826 272.19 138.937 277.692V277.7C138.049 283.203 141.79 288.384 147.292 289.272L159.083 291.177C164.585 292.065 169.767 288.324 170.655 282.822Z" fill="#FCDABA"/>
<path d="M169.505 308.446V308.438C169.897 302.876 165.708 298.052 160.146 297.659L148.597 296.846C143.035 296.453 138.211 300.646 137.822 306.204V306.212C137.43 311.774 141.619 316.599 147.181 316.987L158.73 317.801C164.292 318.193 169.116 314 169.505 308.442V308.446Z" fill="#FCDABA"/>
<path d="M171.996 335.828V335.82C172.389 330.258 168.2 325.433 162.638 325.041L152.624 324.338C147.062 323.946 142.238 328.139 141.849 333.697V333.705C141.456 339.263 145.646 344.091 151.208 344.48L161.221 345.182C166.783 345.575 171.607 341.386 171.996 335.824V335.828Z" fill="#FCDABA"/>
<path d="M353.651 310.826C358.46 309.204 365.319 306.272 372.42 300.88C378.696 296.116 383.017 291.05 385.818 287.201C382.017 281.778 377.443 275.986 371.952 270.134C369.512 267.536 367.084 265.132 364.704 262.91C355.726 269.504 346.748 276.097 337.771 282.687C343.063 292.065 348.359 301.444 353.651 310.822V310.826Z" fill="#DE4A65"/>
<path d="M351.239 289.511C360.468 289.511 367.949 282.029 367.949 272.801C367.949 263.572 360.468 256.091 351.239 256.091C342.011 256.091 334.529 263.572 334.529 272.801C334.529 282.029 342.011 289.511 351.239 289.511Z" fill="#DE4A65"/>
<path d="M364.843 328.476C366.207 328.27 367.794 328.123 369.56 328.127C371.793 328.127 373.753 328.373 375.368 328.679C374.043 327.27 372.944 326.251 369.56 324.723C367.144 323.633 364.363 323.541 362.736 323.335C363.645 325.525 363.934 326.287 364.843 328.476Z" fill="#DCAC82"/>
<path d="M347.859 300.523L339.33 285.845C342.573 298.955 342.152 304.605 340.52 314.012L347.859 300.523Z" fill="#973043"/>
<path d="M343.61 364.221C352.992 364.221 360.597 356.616 360.597 347.234C360.597 337.852 352.992 330.246 343.61 330.246C334.228 330.246 326.622 337.852 326.622 347.234C326.622 356.616 334.228 364.221 343.61 364.221Z" fill="#FCDABA"/>
<path d="M316.737 362.176L342.292 364.169L344.935 330.289L319.38 328.296L316.737 362.176Z" fill="#FCDABA"/>
<path d="M329.776 329.112L300.493 326.827C298.153 326.644 296.11 328.394 295.927 330.73C295.745 333.067 297.494 335.114 299.831 335.297L329.113 337.582L329.772 329.112H329.776Z" fill="#FCDABA"/>
<path d="M329.117 337.581L312.439 336.28C310.099 336.098 308.055 337.847 307.873 340.184C307.69 342.525 309.44 344.568 311.777 344.75L328.455 346.051L329.113 337.581H329.117Z" fill="#FCDABA"/>
<path d="M328.455 346.052L311.777 344.75C309.436 344.568 307.393 346.317 307.21 348.654C307.028 350.995 308.777 353.038 311.114 353.22L327.792 354.522L328.451 346.052H328.455Z" fill="#FCDABA"/>
<path d="M327.796 354.521L311.118 353.22C308.777 353.038 306.734 354.787 306.552 357.124C306.369 359.465 308.119 361.508 310.455 361.69L327.134 362.991L327.792 354.521H327.796Z" fill="#FCDABA"/>
<path d="M320.231 331.857L326.788 322.907C328.625 320.399 332.188 319.939 334.6 321.899L344.935 330.29L341.13 336.514L319.965 335.268L320.231 331.857Z" fill="#FCDABA"/>
<path d="M198.34 246.066C199.35 244.986 201.064 244.986 202.074 246.066L205.598 249.837C206.38 250.674 207.485 251.131 208.63 251.093L213.788 250.919C215.266 250.869 216.479 252.08 216.429 253.559L216.254 258.717C216.215 259.862 216.674 260.967 217.511 261.749L221.281 265.273C222.362 266.283 222.362 267.998 221.281 269.008L217.511 272.531C216.674 273.313 216.215 274.419 216.254 275.563L216.429 280.722C216.479 282.2 215.266 283.412 213.788 283.362L208.63 283.188C207.485 283.149 206.38 283.608 205.598 284.444L202.074 288.215C201.064 289.296 199.35 289.295 198.34 288.215L194.815 284.444C194.033 283.608 192.928 283.149 191.783 283.188L186.625 283.362C185.147 283.412 183.935 282.2 183.985 280.722L184.159 275.563C184.198 274.419 183.74 273.313 182.903 272.531L179.133 269.008C178.052 267.998 178.052 266.283 179.133 265.273L182.903 261.749C183.74 260.967 184.198 259.861 184.159 258.717L183.985 253.559C183.936 252.08 185.147 250.869 186.625 250.919L191.783 251.093C192.928 251.131 194.033 250.674 194.815 249.837L198.34 246.066Z" fill="#10CBB4" stroke="#10CBB4" stroke-width="1.41192"/>
<path fill-rule="evenodd" clip-rule="evenodd" d="M189.739 265.144C190.841 264.041 192.629 264.041 193.732 265.144L199.38 270.792C200.483 271.894 200.483 273.682 199.38 274.785C198.277 275.888 196.489 275.888 195.386 274.785L189.739 269.137C188.636 268.035 188.636 266.247 189.739 265.144Z" fill="white"/>
<path fill-rule="evenodd" clip-rule="evenodd" d="M210.675 259.496C209.573 258.393 207.785 258.393 206.682 259.496L195.387 270.791C194.284 271.894 194.284 273.682 195.387 274.785C196.489 275.888 198.277 275.888 199.38 274.785L210.675 263.49C211.778 262.387 211.778 260.599 210.675 259.496Z" fill="white"/>
<path d="M136.596 191.48C139.625 192.182 143.445 193.956 147.522 196.282C151.659 198.642 156.002 201.532 159.96 204.342C163.915 207.152 167.476 209.875 170.049 211.896C170.658 212.374 171.212 212.813 171.702 213.204L134.546 206.062C134.528 206.056 134.506 206.049 134.481 206.04C134.401 206.012 134.283 205.97 134.131 205.916C133.826 205.806 133.386 205.645 132.848 205.438C131.772 205.024 130.308 204.43 128.754 203.709C127.197 202.987 125.564 202.143 124.144 201.232C122.799 200.369 121.701 199.48 121.026 198.618L120.896 198.445L120.823 198.331C120.764 198.225 120.742 198.138 120.736 198.069C120.727 197.976 120.743 197.862 120.813 197.715C120.965 197.395 121.338 196.992 121.995 196.535C123.292 195.632 125.342 194.758 127.563 193.988C129.766 193.225 132.069 192.588 133.825 192.141C134.702 191.918 135.441 191.743 135.96 191.623C136.219 191.564 136.423 191.518 136.562 191.487C136.574 191.485 136.585 191.482 136.596 191.48Z" fill="#10CBB4" stroke="#10CBB4" stroke-width="1.61622"/>
<path fill-rule="evenodd" clip-rule="evenodd" d="M174.523 215.494C174.523 215.494 134.092 188.518 124.939 188.268L121.382 199.723L174.523 215.494Z" fill="#008C7B"/>
<path d="M118.407 196.883C148.854 202.895 165.775 210.239 173.988 214.728C174.988 215.276 174.622 216.781 173.356 216.67C142.897 213.985 126.791 216.68 121.348 217.938C120.669 218.094 120.027 217.637 119.935 217.024L117.079 198.024L117.079 198.023C116.981 197.372 117.593 196.723 118.407 196.883Z" fill="#10CBB4" stroke="#10CBB4" stroke-width="1.61622"/>
<g clip-path="url(#clip1_721_25002)">
<path fill-rule="evenodd" clip-rule="evenodd" d="M366.697 211.246C366.098 212.616 364.975 213.708 363.571 214.292C361.778 215.037 359.217 216.103 357.175 216.952C355.926 217.471 355.928 219.193 357.175 219.712L363.571 222.372C364.978 222.956 366.098 224.047 366.697 225.418C367.462 227.164 368.556 229.66 369.427 231.65C369.96 232.866 371.727 232.866 372.26 231.65C373.132 229.66 374.226 227.164 374.99 225.418C375.59 224.047 376.712 222.956 378.117 222.372C379.909 221.627 382.47 220.561 384.513 219.712C385.761 219.193 385.761 217.471 384.513 216.952C382.47 216.103 379.909 215.037 378.117 214.292C376.71 213.708 375.59 212.614 374.99 211.246C374.226 209.499 373.132 207.004 372.26 205.014C371.727 203.797 369.96 203.797 369.427 205.014C368.556 207.004 367.462 209.499 366.697 211.246Z" fill="#BD77C7"/>
<path fill-rule="evenodd" clip-rule="evenodd" d="M400.57 238.97C400.346 239.482 399.926 239.89 399.401 240.108C398.731 240.387 397.774 240.785 397.011 241.102C396.544 241.297 396.545 241.94 397.011 242.134L399.401 243.128C399.927 243.347 400.346 243.754 400.57 244.267C400.855 244.919 401.264 245.852 401.59 246.596C401.789 247.05 402.45 247.05 402.649 246.596C402.975 245.852 403.384 244.919 403.669 244.267C403.893 243.754 404.313 243.347 404.838 243.128C405.508 242.85 406.465 242.451 407.228 242.134C407.695 241.94 407.695 241.297 407.228 241.102C406.465 240.785 405.508 240.387 404.838 240.108C404.312 239.89 403.893 239.481 403.669 238.97C403.384 238.317 402.975 237.385 402.649 236.641C402.45 236.186 401.789 236.186 401.59 236.641C401.264 237.385 400.855 238.317 400.57 238.97Z" fill="#BD77C7"/>
</g>
<g clip-path="url(#clip2_721_25002)">
<path fill-rule="evenodd" clip-rule="evenodd" d="M97.2314 335.606C97.4794 336.182 97.9434 336.64 98.5243 336.885C99.2655 337.198 100.325 337.646 101.169 338.003C101.686 338.221 101.685 338.944 101.169 339.162L98.5243 340.279C97.9425 340.525 97.4794 340.983 97.2314 341.559C96.9153 342.292 96.4628 343.34 96.1024 344.176C95.8819 344.687 95.1513 344.687 94.9308 344.176C94.5704 343.34 94.1179 342.292 93.8018 341.559C93.5538 340.983 93.0898 340.525 92.5089 340.279C91.7677 339.967 90.7086 339.519 89.8638 339.162C89.3475 338.944 89.3475 338.221 89.8638 338.003C90.7086 337.646 91.7677 337.198 92.5089 336.885C93.0907 336.64 93.5538 336.181 93.8018 335.606C94.1179 334.873 94.5704 333.825 94.9308 332.989C95.1513 332.478 95.8819 332.478 96.1024 332.989C96.4628 333.825 96.9153 334.873 97.2314 335.606Z" fill="#BD77C7"/>
</g>
</g>
<defs>
<filter id="filter0_f_721_25002" x="-206.75" y="-159.718" width="858.198" height="739.239" filterUnits="userSpaceOnUse" color-interpolation-filters="sRGB">
<feFlood flood-opacity="0" result="BackgroundImageFix"/>
<feBlend mode="normal" in="SourceGraphic" in2="BackgroundImageFix" result="shape"/>
<feGaussianBlur stdDeviation="100" result="effect1_foregroundBlur_721_25002"/>
</filter>
<filter id="filter1_d_721_25002" x="62.8326" y="72.606" width="394.335" height="48.6971" filterUnits="userSpaceOnUse" color-interpolation-filters="sRGB">
<feFlood flood-opacity="0" result="BackgroundImageFix"/>
<feColorMatrix in="SourceAlpha" type="matrix" values="0 0 0 0 0 0 0 0 0 0 0 0 0 0 0 0 0 0 127 0" result="hardAlpha"/>
<feOffset dy="5.22792"/>
<feGaussianBlur stdDeviation="2.61396"/>
<feComposite in2="hardAlpha" operator="out"/>
<feColorMatrix type="matrix" values="0 0 0 0 0 0 0 0 0 0 0 0 0 0 0 0 0 0 0.4 0"/>
<feBlend mode="normal" in2="BackgroundImageFix" result="effect1_dropShadow_721_25002"/>
<feBlend mode="normal" in="SourceGraphic" in2="effect1_dropShadow_721_25002" result="shape"/>
</filter>
<filter id="filter2_d_721_25002" x="-3.59613" y="110.847" width="527.192" height="50.4921" filterUnits="userSpaceOnUse" color-interpolation-filters="sRGB">
<feFlood flood-opacity="0" result="BackgroundImageFix"/>
<feColorMatrix in="SourceAlpha" type="matrix" values="0 0 0 0 0 0 0 0 0 0 0 0 0 0 0 0 0 0 127 0" result="hardAlpha"/>
<feOffset dy="3.59613"/>
<feGaussianBlur stdDeviation="1.79807"/>
<feComposite in2="hardAlpha" operator="out"/>
<feColorMatrix type="matrix" values="0 0 0 0 0 0 0 0 0 0 0 0 0 0 0 0 0 0 0.4 0"/>
<feBlend mode="normal" in2="BackgroundImageFix" result="effect1_dropShadow_721_25002"/>
<feBlend mode="normal" in="SourceGraphic" in2="effect1_dropShadow_721_25002" result="shape"/>
</filter>
<clipPath id="clip0_721_25002">
<rect width="520" height="392" rx="12" fill="white"/>
</clipPath>
<clipPath id="clip1_721_25002">
<rect width="51.3389" height="42.8348" fill="white" transform="matrix(-1 0 0 1 407.578 204.102)"/>
</clipPath>
<clipPath id="clip2_721_25002">
<rect width="12.0797" height="11.9539" fill="white" transform="translate(89.4766 332.605)"/>
</clipPath>
</defs>
</svg>
