<svg width="520" height="392" viewBox="0 0 520 392" fill="none" xmlns="http://www.w3.org/2000/svg">
<g clip-path="url(#clip0_867_5213)">
<rect width="520" height="392" rx="12" fill="#52006B"/>
<g clip-path="url(#clip1_867_5213)">
<rect width="520" height="520" transform="translate(0 -64)" fill="#52006B"/>
<g opacity="0.4">
<path fill-rule="evenodd" clip-rule="evenodd" d="M107.349 -18.6001C108.082 -16.8894 109.452 -15.5276 111.168 -14.7986C113.357 -13.869 116.486 -12.5385 118.981 -11.4787C120.506 -10.8304 120.503 -8.68228 118.981 -8.03393L111.168 -4.71411C109.45 -3.98504 108.082 -2.62327 107.349 -0.912579C106.416 1.26679 105.079 4.38092 104.014 6.86493C103.363 8.38294 101.205 8.38294 100.554 6.86493C99.4893 4.38092 98.1527 1.26679 97.2189 -0.912579C96.4865 -2.62327 95.1159 -3.98504 93.4 -4.71411C91.2107 -5.64366 88.0824 -6.97419 85.5871 -8.03393C84.0621 -8.68228 84.0621 -10.8304 85.5871 -11.4787C88.0824 -12.5385 91.2107 -13.869 93.4 -14.7986C95.1185 -15.5276 96.4865 -16.892 97.2189 -18.6001C98.1527 -20.7795 99.4893 -23.8936 100.554 -26.3776C101.205 -27.8956 103.363 -27.8956 104.014 -26.3776C105.079 -23.8936 106.416 -20.7795 107.349 -18.6001Z" fill="#3F0D4A"/>
<path fill-rule="evenodd" clip-rule="evenodd" d="M450.844 203.571C451.498 205.106 452.723 206.328 454.255 206.982C456.211 207.816 459.005 209.01 461.234 209.96C462.596 210.542 462.593 212.47 461.234 213.051L454.255 216.03C452.72 216.684 451.498 217.906 450.844 219.441C450.01 221.396 448.816 224.19 447.865 226.419C447.284 227.781 445.356 227.781 444.775 226.419C443.824 224.19 442.63 221.396 441.796 219.441C441.142 217.906 439.917 216.684 438.385 216.03C436.429 215.196 433.635 214.002 431.406 213.051C430.044 212.47 430.044 210.542 431.406 209.96C433.635 209.01 436.429 207.816 438.385 206.982C439.92 206.328 441.142 205.103 441.796 203.571C442.63 201.615 443.824 198.821 444.775 196.593C445.356 195.231 447.284 195.231 447.865 196.593C448.816 198.821 450.01 201.615 450.844 203.571Z" fill="#3F0D4A"/>
<path fill-rule="evenodd" clip-rule="evenodd" d="M70.088 305.357C70.911 307.288 72.4511 308.825 74.3792 309.648C76.8393 310.697 80.3546 312.199 83.1586 313.396C84.8722 314.127 84.8692 316.552 83.1586 317.284L74.3792 321.031C72.4482 321.854 70.911 323.391 70.088 325.322C69.0387 327.783 67.5367 331.298 66.3405 334.102C65.6086 335.815 63.1838 335.815 62.4519 334.102C61.2557 331.298 59.7537 327.783 58.7044 325.322C57.8815 323.391 56.3413 321.854 54.4132 321.031C51.9531 319.982 48.4378 318.48 45.6338 317.284C43.9202 316.552 43.9202 314.127 45.6338 313.396C48.4378 312.199 51.9531 310.697 54.4132 309.648C56.3443 308.825 57.8815 307.285 58.7044 305.357C59.7537 302.897 61.2557 299.382 62.4519 296.578C63.1838 294.864 65.6086 294.864 66.3405 296.578C67.5367 299.382 69.0387 302.897 70.088 305.357Z" fill="#3F0D4A"/>
<path fill-rule="evenodd" clip-rule="evenodd" d="M190.67 84.7885C190.944 85.4279 191.456 85.9368 192.097 86.2093C192.916 86.5567 194.085 87.054 195.017 87.4501C195.587 87.6924 195.586 88.4952 195.017 88.7375L192.097 89.9783C191.455 90.2507 190.944 90.7597 190.67 91.399C190.321 92.2135 189.822 93.3774 189.424 94.3058C189.18 94.8731 188.374 94.8731 188.13 94.3058C187.733 93.3774 187.233 92.2135 186.884 91.399C186.61 90.7597 186.098 90.2507 185.457 89.9783C184.639 89.6309 183.469 89.1336 182.537 88.7375C181.967 88.4952 181.967 87.6924 182.537 87.4501C183.469 87.054 184.639 86.5567 185.457 86.2093C186.099 85.9368 186.61 85.4269 186.884 84.7885C187.233 83.974 187.733 82.8102 188.13 81.8818C188.374 81.3145 189.18 81.3145 189.424 81.8818C189.822 82.8102 190.321 83.974 190.67 84.7885Z" fill="#3F0D4A"/>
<path fill-rule="evenodd" clip-rule="evenodd" d="M310.952 358.765C311.226 359.405 311.738 359.914 312.38 360.186C313.198 360.533 314.367 361.031 315.3 361.427C315.87 361.669 315.869 362.472 315.3 362.714L312.38 363.955C311.737 364.227 311.226 364.736 310.952 365.376C310.603 366.19 310.104 367.354 309.706 368.282C309.463 368.85 308.656 368.85 308.413 368.282C308.015 367.354 307.515 366.19 307.166 365.376C306.893 364.736 306.38 364.227 305.739 363.955C304.921 363.608 303.752 363.11 302.819 362.714C302.249 362.472 302.249 361.669 302.819 361.427C303.752 361.031 304.921 360.533 305.739 360.186C306.381 359.914 306.893 359.404 307.166 358.765C307.515 357.951 308.015 356.787 308.413 355.858C308.656 355.291 309.463 355.291 309.706 355.858C310.104 356.787 310.603 357.951 310.952 358.765Z" fill="#3F0D4A"/>
<path d="M28.2448 522.486L249.548 227.934C250.215 227.065 251.59 227.691 251.347 228.763L185.091 523.315C184.99 523.78 184.566 524.103 184.101 524.103H29.0533C28.2246 524.103 27.7395 523.153 28.2448 522.466V522.486Z" fill="#3F0D4A"/>
<path d="M260.968 -86.6296V200.384C260.968 201.313 262.14 201.758 262.746 201.051L511.518 -86.6296H379.108L293.328 126.993C293.045 127.701 291.973 127.337 292.175 126.609L320.048 27.9937C320.25 27.3065 319.32 26.9023 318.936 27.5087L301.372 56.4525C301.028 57.0185 300.139 56.6951 300.26 56.0281L325.081 -86.6296H260.968Z" fill="#3F0D4A"/>
<path d="M-17.333 31.8743L245.183 209.681C246.153 210.348 245.405 211.864 244.294 211.48L123.182 169.984C122.535 169.762 122.071 170.631 122.616 171.035L136.118 181.303C136.623 181.687 136.259 182.516 135.633 182.374L-17.333 150.581V31.8743Z" fill="#3F0D4A"/>
<path d="M274.389 236.584L429.76 460.677H537.815V371.642L455.41 324.062C454.945 323.8 454.379 324.224 454.52 324.75L462.807 354.3C462.949 354.846 462.363 355.27 461.898 354.967L275.764 235.129C274.834 234.522 273.763 235.654 274.389 236.564V236.584Z" fill="#3F0D4A"/>
</g>
</g>
<g style="mix-blend-mode:screen" opacity="0.7" filter="url(#filter0_f_867_5213)">
<ellipse cx="244.702" cy="298.915" rx="222.028" ry="146.56" transform="rotate(21.0304 244.702 298.915)" fill="#9E26C8"/>
</g>
<g filter="url(#filter1_d_867_5213)">
<path d="M104.596 85.1056C104.45 86.699 104.068 87.9737 103.447 88.9298C102.856 89.8592 101.981 90.6825 100.822 91.3995L103.587 101.876H94.7465L93.0438 93.3514H92.4038L91.6265 101.876H83.4265L85.6822 77.1387H96.2822C99.3755 77.1387 101.596 77.7893 102.944 79.0906C104.295 80.3653 104.845 82.3703 104.596 85.1056ZM93.687 88.4916C94.3003 88.4916 94.7427 88.319 95.0142 87.9737C95.3148 87.6019 95.5062 86.9646 95.5885 86.0617C95.6709 85.1587 95.5944 84.5347 95.3593 84.1894C95.1241 83.8442 94.7265 83.6716 94.1665 83.6716H93.1265L92.687 88.4916H93.687ZM121.806 101.876H105.966L108.221 77.1387H124.621L123.462 83.7114H116.182L115.909 86.699H122.269L121.746 92.4352H115.386L115.078 95.8212H122.918L121.806 101.876ZM124.736 85.0658C124.976 82.4367 125.962 80.3919 127.695 78.9312C129.428 77.4706 131.708 76.7403 134.535 76.7403C137.388 76.7403 140.297 77.0059 143.262 77.537L141.703 84.5479C138.43 83.884 136.274 83.5521 135.234 83.5521C134.194 83.5521 133.645 83.8708 133.587 84.5081C133.565 84.7471 133.629 84.9197 133.78 85.026C133.932 85.1056 134.046 85.172 134.121 85.2251C134.197 85.2782 134.337 85.3446 134.543 85.4243C134.776 85.504 134.955 85.5836 135.081 85.6633C135.237 85.7164 135.698 85.9156 136.467 86.2608C137.265 86.5795 137.854 86.8451 138.234 87.0575C138.644 87.2434 139.188 87.5621 139.867 88.0136C141.824 89.3679 142.682 91.3597 142.442 93.9888C142.203 96.6179 141.229 98.6627 139.523 100.123C137.819 101.557 135.487 102.274 132.527 102.274C129.593 102.274 126.746 101.916 123.985 101.199L125.159 94.4668C128.65 95.3697 131.022 95.8212 132.275 95.8212C133.102 95.8212 133.542 95.5291 133.595 94.9448C133.619 94.6792 133.532 94.4668 133.333 94.3075C133.161 94.1481 132.883 93.9755 132.5 93.7896C132.144 93.6037 131.606 93.3647 130.886 93.0726C130.168 92.7539 129.566 92.4883 129.078 92.2759C128.594 92.0369 128.026 91.6784 127.377 91.2003C125.376 89.7397 124.496 87.6949 124.736 85.0658ZM162.741 83.8708H157.461L155.819 101.876H147.299L148.941 83.8708H143.381L144.355 77.1387H163.835L162.741 83.8708ZM183.682 101.876H175.282L174.831 98.0519H170.391L169.202 101.876H161.162L168.578 77.1387H180.778L183.682 101.876ZM174.7 92.9132L173.935 84.6276H173.775L171.46 92.9132H174.7ZM206.323 94.6261C205.882 99.4594 202.648 101.876 196.622 101.876H185.302L187.557 77.1387H198.717C201.704 77.1387 203.855 77.6698 205.172 78.7321C206.515 79.7943 207.086 81.4276 206.885 83.6317C206.684 85.8359 205.596 87.5355 203.62 88.7306L203.606 88.8899C205.676 89.8725 206.582 91.7846 206.323 94.6261ZM195.432 96.9365C196.152 96.9365 196.645 96.7905 196.912 96.4984C197.181 96.1797 197.36 95.5291 197.45 94.5465C197.539 93.5639 197.469 92.8734 197.239 92.4751C197.037 92.0502 196.59 91.8377 195.897 91.8377H194.737L194.272 96.9365H195.432ZM196.336 87.4559C196.816 87.4559 197.178 87.2965 197.42 86.9779C197.689 86.6592 197.859 86.1148 197.929 85.3446C198.002 84.5479 197.934 83.977 197.725 83.6317C197.543 83.2865 197.199 83.1139 196.692 83.1139H195.532L195.136 87.4559H196.336ZM222.761 101.876H207.841L210.096 77.1387H218.656L216.985 95.4627H223.905L222.761 101.876ZM240.204 101.876H224.364L226.62 77.1387H243.02L241.86 83.7114H234.58L234.308 86.699H240.668L240.145 92.4352H233.785L233.476 95.8212H241.316L240.204 101.876ZM251.742 89.8061C251.558 91.8244 251.65 93.2983 252.019 94.2278C252.39 95.1307 253.109 95.5822 254.175 95.5822C255.242 95.5822 257.042 95.29 259.575 94.7058L260.278 101.04C257.589 101.863 255.032 102.274 252.605 102.274C248.899 102.274 246.288 101.225 244.772 99.1275C243.286 97.0029 242.733 93.856 243.113 89.6866C243.496 85.4907 244.667 82.2906 246.628 80.0865C248.592 77.8557 251.56 76.7403 255.533 76.7403C257.853 76.7403 260.132 77.1918 262.37 78.0947L260.403 85.1853C257.834 84.4152 256.055 84.0301 255.069 84.0301C254.109 84.0301 253.36 84.4948 252.822 85.4243C252.286 86.3272 251.926 87.7878 251.742 89.8061ZM277.235 101.876H261.395L263.651 77.1387H280.051L278.892 83.7114H271.612L271.339 86.699H277.699L277.176 92.4352H270.816L270.507 95.8212H278.347L277.235 101.876ZM306.452 83.8708H301.172L299.53 101.876H291.01L292.652 83.8708H287.092L288.066 77.1387H307.546L306.452 83.8708ZM316.073 93.1124C315.942 94.5465 316.516 95.2635 317.796 95.2635C319.103 95.2635 319.823 94.5332 319.956 93.0726L321.409 77.1387H329.969L328.469 93.5904C328.203 96.5116 327.084 98.6893 325.113 100.123C323.142 101.557 320.437 102.274 316.997 102.274C310.01 102.274 306.779 99.4063 307.302 93.6701L308.809 77.1387H317.529L316.073 93.1124ZM347.562 89.8061C347.378 91.8244 347.471 93.2983 347.839 94.2278C348.21 95.1307 348.929 95.5822 349.996 95.5822C351.062 95.5822 352.862 95.29 355.396 94.7058L356.098 101.04C353.41 101.863 350.852 102.274 348.426 102.274C344.719 102.274 342.108 101.225 340.592 99.1275C339.106 97.0029 338.553 93.856 338.933 89.6866C339.316 85.4907 340.488 82.2906 342.449 80.0865C344.412 77.8557 347.38 76.7403 351.354 76.7403C353.674 76.7403 355.953 77.1918 358.19 78.0947L356.224 85.1853C353.654 84.4152 351.876 84.0301 350.889 84.0301C349.929 84.0301 349.18 84.4948 348.642 85.4243C348.106 86.3272 347.746 87.7878 347.562 89.8061ZM372.136 101.876H357.216L359.471 77.1387H368.031L366.36 95.4627H373.28L372.136 101.876ZM394.659 101.876H386.259L385.808 98.0519H381.368L380.179 101.876H372.139L379.555 77.1387H391.755L394.659 101.876ZM385.676 92.9132L384.912 84.6276H384.752L382.436 92.9132H385.676ZM419.494 77.1387L412.438 101.876H400.158L397.334 77.1387H406.574L407.11 92.3157H407.59L410.694 77.1387H419.494ZM435.087 101.876H419.247L421.502 77.1387H437.902L436.743 83.7114H429.463L429.191 86.699H435.551L435.028 92.4352H428.668L428.359 95.8212H436.199L435.087 101.876Z" fill="#F4C12A"/>
</g>
<g filter="url(#filter2_d_867_5213)">
<path d="M140.263 138.723H124.423L126.678 113.986H143.078L141.919 120.559H134.639L134.367 123.546H140.727L140.203 129.282H133.843L133.535 132.668H141.375L140.263 138.723ZM163.94 138.723H155.78L151.63 128.964H151.35L150.46 138.723H142.86L145.116 113.986H153.556L157.357 124.064H157.597L158.516 113.986H166.196L163.94 138.723ZM185.599 130.995H183.879L183.174 138.723H174.774L177.03 113.986H186.71C189.99 113.986 192.316 114.65 193.688 115.978C195.06 117.305 195.607 119.496 195.329 122.55C195.05 125.604 194.132 127.782 192.573 129.083C191.017 130.358 188.692 130.995 185.599 130.995ZM186.526 125.219C186.804 124.794 186.99 124.077 187.082 123.068C187.174 122.059 187.106 121.342 186.878 120.917C186.677 120.492 186.229 120.28 185.536 120.28H184.696L184.187 125.857H185.227C185.841 125.857 186.273 125.644 186.526 125.219ZM196.13 126.215C196.535 121.78 197.708 118.567 199.649 116.575C201.618 114.583 204.628 113.588 208.682 113.588C212.762 113.588 215.579 114.57 217.133 116.535C218.714 118.5 219.302 121.701 218.898 126.135C218.496 130.544 217.291 133.81 215.284 135.935C213.304 138.059 210.3 139.122 206.273 139.122C202.273 139.122 199.476 138.073 197.88 135.975C196.312 133.877 195.728 130.623 196.13 126.215ZM210.203 121.475C209.919 120.784 209.204 120.439 208.057 120.439C206.91 120.439 206.147 120.771 205.766 121.435C205.386 122.099 205.096 123.52 204.898 125.697L204.738 127.45C204.534 129.681 204.576 131.128 204.862 131.792C205.148 132.456 205.878 132.788 207.051 132.788C208.224 132.788 208.987 132.469 209.338 131.832C209.69 131.194 209.966 129.774 210.167 127.569L210.334 125.737C210.532 123.559 210.489 122.139 210.203 121.475ZM229.105 126.653C228.921 128.672 229.014 130.145 229.382 131.075C229.753 131.978 230.472 132.429 231.539 132.429C232.605 132.429 234.405 132.137 236.939 131.553L237.641 137.887C234.953 138.71 232.395 139.122 229.968 139.122C226.262 139.122 223.651 138.073 222.135 135.975C220.649 133.85 220.096 130.703 220.476 126.534C220.859 122.338 222.031 119.138 223.992 116.934C225.955 114.703 228.923 113.588 232.897 113.588C235.217 113.588 237.496 114.039 239.733 114.942L237.767 122.032C235.197 121.262 233.419 120.877 232.432 120.877C231.472 120.877 230.723 121.342 230.185 122.271C229.649 123.174 229.289 124.635 229.105 126.653ZM239.099 126.215C239.503 121.78 240.676 118.567 242.618 116.575C244.586 114.583 247.597 113.588 251.651 113.588C255.731 113.588 258.548 114.57 260.102 116.535C261.683 118.5 262.271 121.701 261.866 126.135C261.464 130.544 260.26 133.81 258.253 135.935C256.272 138.059 253.269 139.122 249.242 139.122C245.242 139.122 242.445 138.073 240.849 135.975C239.28 133.877 238.697 130.623 239.099 126.215ZM253.171 121.475C252.888 120.784 252.172 120.439 251.026 120.439C249.879 120.439 249.115 120.771 248.735 121.435C248.354 122.099 248.065 123.52 247.866 125.697L247.706 127.45C247.503 129.681 247.544 131.128 247.831 131.792C248.117 132.456 248.846 132.788 250.02 132.788C251.193 132.788 251.955 132.469 252.307 131.832C252.658 131.194 252.935 129.774 253.136 127.569L253.303 125.737C253.501 123.559 253.457 122.139 253.171 121.475ZM263.466 121.913C263.706 119.284 264.693 117.239 266.426 115.778C268.159 114.318 270.439 113.588 273.266 113.588C276.119 113.588 279.028 113.853 281.993 114.384L280.434 121.395C277.161 120.731 275.004 120.399 273.964 120.399C272.924 120.399 272.375 120.718 272.317 121.355C272.295 121.594 272.36 121.767 272.51 121.873C272.663 121.953 272.777 122.019 272.852 122.072C272.927 122.125 273.068 122.192 273.274 122.271C273.506 122.351 273.686 122.431 273.812 122.51C273.967 122.564 274.429 122.763 275.197 123.108C275.995 123.427 276.584 123.692 276.965 123.905C277.374 124.091 277.919 124.409 278.598 124.861C280.554 126.215 281.412 128.207 281.173 130.836C280.933 133.465 279.96 135.51 278.253 136.97C276.549 138.405 274.217 139.122 271.257 139.122C268.324 139.122 265.477 138.763 262.715 138.046L263.889 131.314C267.38 132.217 269.752 132.668 271.006 132.668C271.832 132.668 272.272 132.376 272.326 131.792C272.35 131.526 272.262 131.314 272.064 131.155C271.892 130.995 271.614 130.823 271.231 130.637C270.875 130.451 270.336 130.212 269.616 129.92C268.899 129.601 268.296 129.336 267.809 129.123C267.324 128.884 266.757 128.526 266.107 128.048C264.107 126.587 263.227 124.542 263.466 121.913ZM300.911 130.995H299.191L298.487 138.723H290.087L292.342 113.986H302.022C305.302 113.986 307.628 114.65 309.001 115.978C310.373 117.305 310.92 119.496 310.641 122.55C310.363 125.604 309.444 127.782 307.886 129.083C306.329 130.358 304.005 130.995 300.911 130.995ZM301.838 125.219C302.117 124.794 302.302 124.077 302.394 123.068C302.486 122.059 302.418 121.342 302.19 120.917C301.989 120.492 301.542 120.28 300.848 120.28H300.008L299.5 125.857H300.54C301.153 125.857 301.586 125.644 301.838 125.219ZM332.022 138.723H323.622L323.171 134.899H318.731L317.542 138.723H309.502L316.918 113.986H329.118L332.022 138.723ZM323.04 129.76L322.275 121.475H322.115L319.8 129.76H323.04ZM333.974 121.913C334.214 119.284 335.2 117.239 336.934 115.778C338.667 114.318 340.947 113.588 343.773 113.588C346.627 113.588 349.536 113.853 352.501 114.384L350.941 121.395C347.669 120.731 345.512 120.399 344.472 120.399C343.432 120.399 342.883 120.718 342.825 121.355C342.803 121.594 342.868 121.767 343.018 121.873C343.171 121.953 343.284 122.019 343.36 122.072C343.435 122.125 343.575 122.192 343.781 122.271C344.014 122.351 344.194 122.431 344.32 122.51C344.475 122.564 344.937 122.763 345.705 123.108C346.503 123.427 347.092 123.692 347.473 123.905C347.882 124.091 348.427 124.409 349.105 124.861C351.062 126.215 351.92 128.207 351.681 130.836C351.441 133.465 350.468 135.51 348.761 136.97C347.057 138.405 344.725 139.122 341.765 139.122C338.832 139.122 335.984 138.763 333.223 138.046L334.397 131.314C337.888 132.217 340.26 132.668 341.513 132.668C342.34 132.668 342.78 132.376 342.833 131.792C342.858 131.526 342.77 131.314 342.572 131.155C342.399 130.995 342.122 130.823 341.739 130.637C341.382 130.451 340.844 130.212 340.124 129.92C339.406 129.601 338.804 129.336 338.317 129.123C337.832 128.884 337.265 128.526 336.615 128.048C334.615 126.587 333.734 124.542 333.974 121.913ZM353.318 126.215C353.722 121.78 354.895 118.567 356.837 116.575C358.805 114.583 361.816 113.588 365.869 113.588C369.949 113.588 372.766 114.57 374.32 116.535C375.901 118.5 376.489 121.701 376.085 126.135C375.683 130.544 374.479 133.81 372.472 135.935C370.491 138.059 367.488 139.122 363.461 139.122C359.461 139.122 356.663 138.073 355.068 135.975C353.499 133.877 352.916 130.623 353.318 126.215ZM367.39 121.475C367.106 120.784 366.391 120.439 365.245 120.439C364.098 120.439 363.334 120.771 362.954 121.435C362.573 122.099 362.284 123.52 362.085 125.697L361.925 127.45C361.722 129.681 361.763 131.128 362.049 131.792C362.335 132.456 363.065 132.788 364.239 132.788C365.412 132.788 366.174 132.469 366.526 131.832C366.877 131.194 367.153 129.774 367.354 127.569L367.521 125.737C367.72 123.559 367.676 122.139 367.39 121.475ZM377.685 121.913C377.925 119.284 378.911 117.239 380.644 115.778C382.378 114.318 384.658 113.588 387.484 113.588C390.338 113.588 393.247 113.853 396.212 114.384L394.652 121.395C391.38 120.731 389.223 120.399 388.183 120.399C387.143 120.399 386.594 120.718 386.536 121.355C386.514 121.594 386.578 121.767 386.729 121.873C386.881 121.953 386.995 122.019 387.071 122.072C387.146 122.125 387.286 122.192 387.492 122.271C387.725 122.351 387.905 122.431 388.031 122.51C388.186 122.564 388.648 122.763 389.416 123.108C390.214 123.427 390.803 123.692 391.184 123.905C391.593 124.091 392.138 124.409 392.816 124.861C394.773 126.215 395.631 128.207 395.391 130.836C395.152 133.465 394.179 135.51 392.472 136.97C390.768 138.405 388.436 139.122 385.476 139.122C382.543 139.122 379.695 138.763 376.934 138.046L378.108 131.314C381.599 132.217 383.971 132.668 385.224 132.668C386.051 132.668 386.491 132.376 386.544 131.792C386.569 131.526 386.481 131.314 386.282 131.155C386.11 130.995 385.833 130.823 385.45 130.637C385.093 130.451 384.555 130.212 383.835 129.92C383.117 129.601 382.515 129.336 382.028 129.123C381.543 128.884 380.976 128.526 380.326 128.048C378.326 126.587 377.445 124.542 377.685 121.913Z" fill="white"/>
</g>
<path d="M278.545 270.311L237.006 304.527L201.286 333.948C194.807 339.284 185.214 338.355 179.866 331.876L151.398 297.308C149.898 295.475 148.905 293.403 148.385 291.251L148.364 291.27C143.926 276.23 146.701 259.948 155.982 247.32C158.424 243.995 160.469 240.972 161.45 238.967L173.396 214.454C175.569 209.998 181.067 208.256 185.443 210.75C189.429 213.024 190.792 218.152 188.778 222.287L178.912 242.494C177.672 245.058 178.793 248.142 181.406 249.294C183.139 250.064 185.162 249.786 186.623 248.582L188.356 247.149L233.779 209.736C237.605 206.591 243.323 207.282 246.266 211.368C248.949 215.093 248.057 220.319 244.515 223.244L207.493 253.734C207.243 253.945 207.114 254.245 207.114 254.544C207.114 254.774 207.194 255.006 207.356 255.195C207.716 255.635 208.367 255.696 208.807 255.336L251.345 220.298C255.172 217.153 260.899 217.844 263.833 221.93C266.525 225.655 265.626 230.881 262.081 233.806L219.773 268.654C219.522 268.856 219.403 269.156 219.403 269.446C219.403 269.675 219.473 269.917 219.632 270.106C220.002 270.546 220.653 270.616 221.093 270.247L261.048 237.341C264.875 234.197 270.602 234.887 273.536 238.973C276.228 242.699 275.339 247.925 271.785 250.84L232.058 283.565C231.618 283.926 231.557 284.586 231.918 285.026C232.278 285.466 232.938 285.527 233.378 285.167L267.344 257.188C270.889 254.263 276.185 254.395 279.33 257.738C282.774 261.414 282.365 267.16 278.539 270.305L278.545 270.311Z" fill="#FBCCA1"/>
<path d="M275.955 263.129C273.437 260.253 268.99 260.097 266.038 262.527L233.161 289.604C232.161 290.426 230.688 290.505 229.689 289.68C228.347 288.568 228.402 286.584 229.677 285.533L269.403 252.811C272.355 250.382 273.055 245.984 270.714 242.961C268.291 239.835 263.783 239.346 260.751 241.843L220.967 274.61C219.821 275.555 218.085 275.542 217.082 274.448C216.013 273.281 216.15 271.469 217.361 270.475L257.992 237.011C260.944 234.581 261.644 230.187 259.303 227.164C256.879 224.038 252.371 223.549 249.34 226.046L208.492 259.69C207.437 260.558 205.854 260.592 204.886 259.629C203.773 258.523 203.88 256.729 205.06 255.757L242.042 225.297C244.994 222.867 245.694 218.473 243.353 215.45C240.929 212.324 236.422 211.835 233.39 214.332L184.807 248.799C180.877 250.33 178.01 246.601 179.492 243.566L188.783 222.29C190.357 219.06 189.241 215.032 186.063 213.36C182.772 211.63 178.728 212.972 177.109 216.291L156.602 258.447C151.883 267.086 150.056 277.009 151.379 286.765L152 291.327L152.012 291.318C152.116 295.643 153.595 299.964 156.556 303.558L179.877 331.873C185.22 338.361 194.81 339.287 201.298 333.945L230.337 310.028L275.142 273.122C278.174 270.625 278.559 266.105 275.955 263.129Z" fill="#FCDABA"/>
<path d="M172.73 313.316C172.714 313.298 172.702 313.282 172.687 313.264C172.189 312.601 172.323 311.66 172.983 311.161C175.523 309.251 183.909 302.079 185.131 289.921C186.048 280.802 182.494 273.782 180.293 270.411C179.841 269.717 180.037 268.785 180.73 268.333C181.427 267.881 182.35 268.076 182.809 268.77C185.226 272.474 189.129 280.188 188.12 290.224C186.775 303.594 177.577 311.467 174.789 313.563C174.145 314.049 173.237 313.936 172.73 313.319V313.316Z" fill="#DCAC82"/>
<path d="M200.586 256.105C200.078 255.491 200.14 254.58 200.736 254.04C201.35 253.483 202.3 253.529 202.856 254.143C208.269 260.112 213.654 266.346 218.864 272.676L219.039 272.887C224.173 279.127 229.188 285.524 233.949 291.892C234.444 292.556 234.31 293.497 233.644 293.995C232.981 294.49 232.061 294.377 231.541 293.689C226.81 287.357 221.823 281.001 216.719 274.794L216.548 274.586C211.365 268.293 206.013 262.098 200.635 256.164C200.619 256.145 200.601 256.127 200.586 256.109V256.105Z" fill="#DCAC82"/>
<path d="M278.551 270.311L237.012 304.527L188.365 247.149L233.788 209.736C237.614 206.591 243.332 207.282 246.275 211.368C248.959 215.093 248.066 220.319 244.524 223.244L207.503 253.734C207.252 253.945 207.124 254.245 207.124 254.544C207.124 254.774 207.203 255.006 207.365 255.195C207.726 255.635 208.377 255.696 208.817 255.336L251.355 220.298C255.181 217.153 260.908 217.844 263.842 221.93C266.534 225.655 265.636 230.881 262.091 233.806L219.782 268.654C219.531 268.856 219.412 269.156 219.412 269.446C219.412 269.675 219.483 269.917 219.641 270.106C220.011 270.546 220.662 270.616 221.102 270.247L261.058 237.341C264.884 234.197 270.611 234.887 273.545 238.973C276.238 242.699 275.348 247.925 271.794 250.84L232.068 283.565C231.627 283.926 231.566 284.586 231.927 285.026C232.288 285.466 232.948 285.527 233.388 285.167L267.353 257.188C270.898 254.263 276.195 254.395 279.339 257.738C282.784 261.414 282.374 267.16 278.548 270.305L278.551 270.311Z" fill="#DCAC82"/>
<path d="M191.471 187.028L180.35 303.812C180.003 307.448 182.67 310.676 186.306 311.022L237.576 315.905C241.212 316.251 244.44 313.584 244.786 309.948L255.908 193.165C256.254 189.529 253.587 186.301 249.951 185.954L198.682 181.072C195.046 180.726 191.817 183.392 191.471 187.028Z" fill="#2C2044"/>
<path d="M191.712 184.54L180.591 301.324C180.245 304.96 182.911 308.188 186.547 308.534L237.817 313.417C241.453 313.763 244.681 311.096 245.028 307.46L256.149 190.677C256.495 187.041 253.829 183.812 250.193 183.466L198.923 178.584C195.287 178.237 192.059 180.904 191.712 184.54Z" fill="#544A69"/>
<path d="M185.363 299.146L195.644 191.191C195.935 188.137 198.651 185.89 201.708 186.181L246.032 190.402C249.087 190.693 251.333 193.409 251.042 196.467L240.761 304.421C240.47 307.476 237.754 309.722 234.697 309.431L190.373 305.21C187.318 304.919 185.072 302.203 185.363 299.146Z" fill="#742384"/>
<path fill-rule="evenodd" clip-rule="evenodd" d="M228.271 184.073L220.334 183.318C219.803 183.266 219.332 183.657 219.28 184.189C219.228 184.721 219.619 185.192 220.151 185.243L228.088 185.998C228.619 186.05 229.09 185.659 229.142 185.127C229.194 184.596 228.803 184.125 228.271 184.073Z" fill="#2C2044"/>
<path fill-rule="evenodd" clip-rule="evenodd" d="M216.891 182.992C216.359 182.94 215.889 183.331 215.837 183.863C215.785 184.394 216.176 184.865 216.708 184.917C217.239 184.969 217.71 184.578 217.762 184.046C217.814 183.514 217.423 183.044 216.891 182.992Z" fill="#2C2044"/>
<g clip-path="url(#clip2_867_5213)">
<path fill-rule="evenodd" clip-rule="evenodd" d="M179.939 174.829C180.284 175.638 180.93 176.283 181.738 176.628C182.769 177.067 184.243 177.697 185.419 178.199C186.137 178.505 186.136 179.522 185.419 179.829L181.738 181.4C180.929 181.745 180.284 182.389 179.939 183.199C179.499 184.23 178.87 185.704 178.368 186.879C178.061 187.598 177.045 187.598 176.738 186.879C176.236 185.704 175.607 184.23 175.167 183.199C174.822 182.389 174.176 181.745 173.368 181.4C172.336 180.96 170.863 180.33 169.687 179.829C168.969 179.522 168.969 178.505 169.687 178.199C170.863 177.697 172.336 177.067 173.368 176.628C174.177 176.283 174.822 175.637 175.167 174.829C175.607 173.797 176.236 172.324 176.738 171.148C177.045 170.43 178.061 170.43 178.368 171.148C178.87 172.324 179.499 173.797 179.939 174.829Z" fill="#CE92D6"/>
</g>
<g clip-path="url(#clip3_867_5213)">
<path fill-rule="evenodd" clip-rule="evenodd" d="M372.218 234.568C372.349 234.877 372.596 235.123 372.905 235.255C373.298 235.423 373.861 235.663 374.31 235.855C374.584 235.972 374.584 236.36 374.31 236.477L372.905 237.077C372.596 237.209 372.349 237.455 372.218 237.764C372.05 238.158 371.809 238.72 371.618 239.169C371.501 239.443 371.113 239.443 370.995 239.169C370.804 238.72 370.564 238.158 370.396 237.764C370.264 237.455 370.017 237.209 369.709 237.077C369.315 236.909 368.752 236.669 368.303 236.477C368.029 236.36 368.029 235.972 368.303 235.855C368.752 235.663 369.315 235.423 369.709 235.255C370.018 235.123 370.264 234.877 370.396 234.568C370.564 234.174 370.804 233.612 370.995 233.163C371.113 232.888 371.501 232.888 371.618 233.163C371.809 233.612 372.05 234.174 372.218 234.568Z" fill="#E3B2EB"/>
</g>
<g clip-path="url(#clip4_867_5213)">
<path fill-rule="evenodd" clip-rule="evenodd" d="M306.641 347.038C306.924 347.7 307.452 348.228 308.113 348.51C308.957 348.87 310.163 349.385 311.125 349.795C311.712 350.046 311.711 350.878 311.125 351.129L308.113 352.414C307.451 352.697 306.924 353.224 306.641 353.886C306.281 354.73 305.766 355.936 305.356 356.898C305.105 357.485 304.273 357.485 304.022 356.898C303.612 355.936 303.097 354.73 302.737 353.886C302.454 353.224 301.926 352.697 301.265 352.414C300.421 352.055 299.215 351.539 298.253 351.129C297.666 350.878 297.666 350.046 298.253 349.795C299.215 349.385 300.421 348.87 301.265 348.51C301.927 348.228 302.454 347.699 302.737 347.038C303.097 346.194 303.612 344.989 304.022 344.027C304.273 343.439 305.105 343.439 305.356 344.027C305.766 344.989 306.281 346.194 306.641 347.038Z" fill="#CE92D6"/>
</g>
<g clip-path="url(#clip5_867_5213)">
<path fill-rule="evenodd" clip-rule="evenodd" d="M225.957 340.769C226.151 341.225 226.515 341.588 226.971 341.783C227.552 342.031 228.383 342.386 229.046 342.668C229.45 342.841 229.45 343.414 229.046 343.587L226.971 344.472C226.515 344.667 226.151 345.03 225.957 345.486C225.709 346.068 225.354 346.898 225.072 347.561C224.899 347.966 224.326 347.966 224.153 347.561C223.87 346.898 223.515 346.068 223.267 345.486C223.073 345.03 222.709 344.667 222.253 344.472C221.672 344.225 220.841 343.87 220.179 343.587C219.774 343.414 219.774 342.841 220.179 342.668C220.841 342.386 221.672 342.031 222.253 341.783C222.709 341.588 223.073 341.224 223.267 340.769C223.515 340.187 223.87 339.357 224.153 338.694C224.326 338.289 224.899 338.289 225.072 338.694C225.354 339.357 225.709 340.187 225.957 340.769Z" fill="#CE92D6"/>
</g>
<g clip-path="url(#clip6_867_5213)">
<path fill-rule="evenodd" clip-rule="evenodd" d="M147.05 248.092C147.213 248.475 147.519 248.78 147.901 248.943C148.388 249.151 149.085 249.448 149.641 249.685C149.98 249.83 149.98 250.311 149.641 250.456L147.901 251.199C147.518 251.362 147.213 251.666 147.05 252.049C146.842 252.537 146.545 253.233 146.308 253.789C146.163 254.128 145.682 254.128 145.537 253.789C145.3 253.233 145.002 252.537 144.794 252.049C144.631 251.666 144.326 251.362 143.944 251.199C143.456 250.991 142.76 250.693 142.204 250.456C141.864 250.311 141.864 249.83 142.204 249.685C142.76 249.448 143.456 249.151 143.944 248.943C144.327 248.78 144.631 248.474 144.794 248.092C145.002 247.605 145.3 246.908 145.537 246.352C145.682 246.013 146.163 246.013 146.308 246.352C146.545 246.908 146.842 247.605 147.05 248.092Z" fill="#CE92D6"/>
</g>
<g clip-path="url(#clip7_867_5213)">
<path fill-rule="evenodd" clip-rule="evenodd" d="M345.907 175.658C346.303 176.743 347.045 177.607 347.973 178.07C349.157 178.66 350.85 179.504 352.199 180.177C353.024 180.588 353.023 181.951 352.199 182.363L347.973 184.469C347.043 184.932 346.303 185.796 345.907 186.882C345.402 188.264 344.679 190.241 344.103 191.817C343.751 192.78 342.584 192.78 342.231 191.817C341.655 190.241 340.932 188.264 340.427 186.882C340.031 185.796 339.29 184.932 338.362 184.469C337.177 183.879 335.485 183.035 334.135 182.363C333.31 181.951 333.31 180.588 334.135 180.177C335.485 179.504 337.177 178.66 338.362 178.07C339.291 177.607 340.031 176.742 340.427 175.658C340.932 174.275 341.655 172.299 342.231 170.722C342.584 169.759 343.751 169.759 344.103 170.722C344.679 172.299 345.402 174.275 345.907 175.658Z" fill="#CE92D6"/>
<path fill-rule="evenodd" clip-rule="evenodd" d="M323.525 197.614C323.673 198.019 323.951 198.342 324.297 198.515C324.74 198.736 325.373 199.051 325.877 199.303C326.185 199.456 326.185 199.966 325.877 200.12L324.297 200.907C323.95 201.08 323.673 201.403 323.525 201.808C323.337 202.325 323.066 203.064 322.851 203.653C322.719 204.013 322.283 204.013 322.152 203.653C321.936 203.064 321.666 202.325 321.477 201.808C321.329 201.403 321.052 201.08 320.705 200.907C320.263 200.686 319.63 200.371 319.126 200.12C318.817 199.966 318.817 199.456 319.126 199.303C319.63 199.051 320.263 198.736 320.705 198.515C321.053 198.342 321.329 198.019 321.477 197.614C321.666 197.097 321.936 196.358 322.152 195.769C322.283 195.409 322.719 195.409 322.851 195.769C323.066 196.358 323.337 197.097 323.525 197.614Z" fill="#CE92D6"/>
</g>
<path d="M213.008 240.363L213.865 228.5C214.087 225.411 216.771 223.09 219.861 223.312C222.951 223.535 225.272 226.219 225.049 229.309L224.192 241.172L229.364 241.546L230.19 230.112C230.621 224.169 226.149 219.001 220.205 218.57C214.261 218.139 209.094 222.611 208.663 228.555L207.836 239.989L213.008 240.363Z" fill="#CACCDD"/>
<path d="M212.498 229.014L212.094 234.403C209.743 234.265 208.234 234.431 208.234 234.431L207.838 239.991L211.686 240.268L213.007 240.365L213.863 228.505C214.008 226.506 215.182 224.83 216.832 223.954C214.497 224.491 212.68 226.498 212.5 229.015L212.498 229.014Z" fill="#9DA1BA"/>
<path d="M220.206 218.572C218.348 218.438 216.567 218.782 214.981 219.499C216.198 219.136 217.5 218.983 218.84 219.081C224.784 219.512 229.253 224.677 228.825 230.621L228.388 236.123C226.442 235.644 224.567 235.737 224.567 235.737L224.19 241.17L228.039 241.448L229.359 241.544L230.185 230.111C230.622 224.17 226.149 219.002 220.206 218.572Z" fill="#9DA1BA"/>
<path d="M202.078 237.063L236.867 239.975C237.561 240.034 238.081 240.645 238.022 241.342L236.068 264.686C235.485 271.642 229.365 276.817 222.409 276.234L210.305 275.221C203.349 274.639 198.174 268.518 198.757 261.562L200.711 238.218C200.769 237.524 201.381 237.004 202.078 237.063Z" fill="#AA6E26"/>
<path d="M235.261 238.574L237.584 240.269L236.92 243.344L234.383 239.609L235.261 238.574Z" fill="#AA6E26"/>
<path d="M199.739 235.368L234.528 238.281C235.222 238.339 235.742 238.951 235.684 239.648L233.729 262.992C233.147 269.948 227.026 275.122 220.07 274.54L207.967 273.527C201.011 272.941 195.836 266.821 196.418 259.865L198.373 236.521C198.431 235.827 199.042 235.31 199.739 235.368Z" fill="#E5A342"/>
<path d="M202.086 240.672C202.136 240.086 202.651 239.65 203.237 239.699L232.525 242.151L232.527 242.124C232.576 241.537 232.14 241.022 231.554 240.973L202.231 238.517C201.644 238.468 201.129 238.904 201.08 239.491L199.432 259.167C199.162 262.397 200.364 265.408 202.474 267.546C201.001 265.542 200.218 263.02 200.442 260.348L202.089 240.672L202.086 240.672Z" fill="#AA6E26"/>
<path d="M219.364 271.533C225.23 272.024 230.386 267.665 230.877 261.799L232.522 242.151L203.235 239.699C202.648 239.649 202.133 240.085 202.084 240.672L200.436 260.348C200.213 263.019 200.998 265.542 202.468 267.545C204.194 269.291 206.522 270.458 209.161 270.679L219.364 271.533Z" fill="#F7B759"/>
<path d="M219.329 252.069C219.476 250.079 218.352 248.375 216.818 248.26C215.285 248.146 213.923 249.669 213.774 251.657C213.658 253.204 214.314 254.582 215.334 255.169C214.655 257.894 213.979 260.617 213.299 263.34L217.922 263.68C217.653 260.908 217.384 258.137 217.117 255.362C218.285 254.992 219.208 253.683 219.329 252.063L219.329 252.069Z" fill="#AA6E26"/>
<path d="M217.976 251.969C218.123 249.979 216.998 248.275 215.465 248.161C213.932 248.046 212.57 249.57 212.423 251.557C212.308 253.105 212.964 254.483 213.984 255.069C213.305 257.795 212.628 260.518 211.949 263.241L216.572 263.58C216.303 260.809 216.033 258.037 215.767 255.263C216.935 254.893 217.857 253.583 217.979 251.964L217.976 251.969Z" fill="#E5A342"/>
<path d="M218.683 252.02C218.831 250.029 217.706 248.325 216.173 248.211C214.639 248.097 213.278 249.62 213.128 251.607C213.012 253.155 213.669 254.533 214.689 255.119C214.012 257.845 213.333 260.568 212.654 263.291L217.277 263.633C217.007 260.862 216.738 258.09 216.472 255.316C217.639 254.946 218.562 253.636 218.684 252.017L218.683 252.02Z" fill="#994D1A"/>
<path d="M239.14 273.008L239.403 271.254C239.449 270.943 239.611 270.66 239.856 270.463L241.235 269.347C241.498 269.136 241.383 268.712 241.049 268.662L239.294 268.4C238.984 268.353 238.701 268.191 238.504 267.947L237.388 266.567C237.177 266.304 236.753 266.42 236.703 266.753L236.441 268.508C236.394 268.818 236.232 269.102 235.988 269.299L234.608 270.414C234.345 270.626 234.46 271.05 234.794 271.099L236.549 271.362C236.859 271.408 237.143 271.57 237.34 271.815L238.455 273.194C238.666 273.457 239.091 273.342 239.14 273.008Z" fill="#F4C12A"/>
<path d="M313.923 227.774L364.982 263.543C374.601 270.282 375.81 284.856 367.688 296.095L344.747 327.841C343.673 329.326 342.471 330.698 341.174 331.935C337.004 335.904 331.816 338.497 326.478 339.186L313.741 340.819C308.002 341.559 302.418 340.742 297.533 338.446L278.555 329.534C274.796 327.773 272.69 323.751 273.121 319.161L274.644 302.889L232.003 273.017C228.035 270.238 227.531 264.228 230.885 259.587L231.059 259.347C234.409 254.71 240.345 253.205 244.312 255.984L273.7 276.572C269.732 273.792 269.236 267.781 272.586 263.145L272.76 262.904C276.11 258.268 282.041 256.759 286.009 259.539L286.114 259.612C284.102 258.203 282.966 255.972 282.765 253.509C282.56 251.042 283.285 248.34 284.984 245.989C288.382 241.286 294.398 239.76 298.423 242.579L301.611 244.812C297.586 241.993 297.082 235.891 300.48 231.188C303.879 226.486 309.899 224.954 313.923 227.774Z" fill="#FBCCA1"/>
<path d="M287.836 311.799L276.186 302.282L275.109 313.802L287.836 311.799Z" fill="#DCAC82"/>
<path d="M26.9062 45.1106C26.6761 44.9942 26.4132 44.9323 26.1187 44.9272C25.9127 44.9209 25.7029 44.9462 25.488 44.9968C25.2731 45.0486 25.0747 45.1295 24.8927 45.2382C24.7094 45.3469 24.5603 45.4872 24.4414 45.6579C24.3226 45.8285 24.2581 46.0307 24.2443 46.2658L25.3465 46.2582C25.3692 46.1495 25.4109 46.0547 25.4716 45.9751C25.5322 45.8955 25.6081 45.8335 25.7003 45.7918C25.7926 45.7488 25.8975 45.7286 26.0151 45.7311C26.1453 45.7374 26.2464 45.7691 26.3184 45.8272C26.3905 45.8853 26.4372 45.9637 26.4612 46.0635C26.484 46.1634 26.4904 46.2696 26.4764 46.3847L26.4334 46.6601L25.8988 46.6564C25.6649 46.6564 25.4286 46.6791 25.1897 46.7246C24.9521 46.7701 24.7322 46.846 24.5299 46.9534C24.3277 47.0596 24.1633 47.205 24.0357 47.3895C23.908 47.5728 23.8385 47.8028 23.8284 48.0783C23.8183 48.3223 23.8689 48.5372 23.9826 48.7204C24.0951 48.9037 24.2493 49.0491 24.4427 49.154C24.6361 49.2589 24.8497 49.3145 25.081 49.3196C25.2478 49.3221 25.4046 49.2994 25.55 49.2513C25.6953 49.2033 25.8293 49.1351 25.9519 49.044C26.0214 48.9922 26.0858 48.9353 26.1465 48.8734C26.1554 48.9973 26.1769 49.1173 26.2122 49.2349L27.2904 49.2311L27.298 49.1616C27.2386 49.0137 27.2146 48.8557 27.2285 48.6914C27.2424 48.5258 27.2601 48.3678 27.2841 48.2161L27.5774 46.4035C27.609 46.0939 27.5622 45.8297 27.4383 45.6123C27.3144 45.3949 27.1375 45.2268 26.9062 45.1106ZM26.0858 48.1807C25.9923 48.2806 25.8811 48.3564 25.7534 48.4095C25.6258 48.4626 25.4956 48.4879 25.3629 48.4854C25.2694 48.4828 25.1897 48.4601 25.1227 48.4184C25.057 48.3766 25.0077 48.3197 24.9761 48.2478C24.9445 48.1757 24.9357 48.0948 24.9483 48.0038C24.9647 47.8761 25.0026 47.7674 25.0633 47.6789C25.1253 47.5905 25.2024 47.5184 25.2959 47.4616C25.3894 47.4059 25.4918 47.3642 25.6018 47.3364C25.7117 47.3086 25.8242 47.2934 25.9355 47.2909L26.3323 47.2934L26.2262 47.9735C26.1895 48.048 26.144 48.1175 26.0846 48.1795L26.0858 48.1807Z" fill="white"/>
<path d="M27.9912 49.2335H29.0884L30.1312 43.2322H29.029L27.9912 49.2335Z" fill="white"/>
<path d="M34.612 48.3046C34.4363 48.3918 34.2442 48.4323 34.0356 48.4272C33.8725 48.4221 33.7347 48.3855 33.6274 48.3185C33.5199 48.2515 33.4339 48.163 33.3733 48.053C33.3126 47.9431 33.2709 47.8204 33.2507 47.6839C33.2393 47.6119 33.2343 47.5399 33.233 47.4666H35.833L35.8949 46.9976C35.9227 46.7284 35.9138 46.4718 35.8671 46.2253C35.8203 45.9789 35.7331 45.7602 35.6054 45.5668C35.4778 45.3747 35.3097 45.2205 35.1011 45.1067C34.8926 44.9929 34.641 44.9323 34.3466 44.9272C34.0306 44.9184 33.7449 44.9727 33.4883 45.089C33.2317 45.2053 33.0105 45.3646 32.8222 45.5694C32.6351 45.7741 32.4847 46.0092 32.3735 46.2746C32.261 46.5413 32.1902 46.8206 32.1586 47.1152L32.1434 47.2757C32.1232 47.5563 32.1485 47.8204 32.2218 48.0657C32.2951 48.3096 32.4088 48.5258 32.5643 48.7103C32.7185 48.8961 32.912 49.0402 33.1445 49.1464C33.3771 49.2513 33.6375 49.3069 33.9256 49.312H33.9269C34.1317 49.3145 34.339 49.2892 34.5475 49.2361C34.7561 49.1831 34.9507 49.0996 35.1315 48.9859C35.3122 48.8721 35.4613 48.7267 35.5789 48.5498L35.0859 47.9557C34.9444 48.1023 34.7877 48.2187 34.6107 48.3058L34.612 48.3046ZM33.525 46.2367C33.6021 46.104 33.7032 45.9978 33.8258 45.9156C33.9484 45.8348 34.1001 45.7968 34.2783 45.8019C34.435 45.807 34.5602 45.8474 34.6537 45.9232C34.7472 45.9978 34.8117 46.099 34.8445 46.2215C34.8774 46.3454 34.885 46.4781 34.8635 46.6222L34.8445 46.7195L33.3341 46.717C33.3379 46.7006 33.3417 46.6841 33.3455 46.6677C33.3859 46.5135 33.4466 46.3694 33.525 46.2367Z" fill="white"/>
<path d="M39.0554 45.0056L38.1568 46.2834L37.6878 45.0056V45.0043H36.5629L37.3832 47.0216L35.7969 49.2323H37.0229L37.9697 47.8811L38.4968 49.2323H39.6141L38.7584 47.1227L40.2776 45.0056H39.0554Z" fill="white"/>
<path d="M42.2916 43.9628H41.1932L41.0175 45.0056H40.4208L40.2793 45.8018H40.8835L40.5018 48.072C40.479 48.3134 40.5018 48.527 40.57 48.7103C40.6396 48.8936 40.7533 49.0377 40.9138 49.1413C41.0744 49.2462 41.2791 49.3006 41.5294 49.3056C41.6394 49.3056 41.7468 49.298 41.8517 49.2841C41.9579 49.2702 42.0615 49.2475 42.1664 49.2159L42.2448 48.3766C42.1879 48.3854 42.1323 48.3917 42.0767 48.3981C42.021 48.4044 41.9679 48.4069 41.9124 48.4044C41.8125 48.3993 41.7405 48.3804 41.6937 48.3463C41.6469 48.3122 41.6178 48.2641 41.6065 48.1997C41.5951 48.1351 41.5951 48.058 41.6052 47.9671L41.9768 45.8031H42.6758L42.8174 45.0068H42.1146L42.2941 43.964L42.2916 43.9628Z" fill="white"/>
<path d="M46.3496 45.5668C46.222 45.3747 46.0538 45.2205 45.8453 45.1067C45.6367 44.9929 45.3852 44.9323 45.0907 44.9272C44.7747 44.9184 44.489 44.9727 44.2325 45.089C43.9759 45.2053 43.7546 45.3646 43.5663 45.5694C43.3792 45.7741 43.2289 46.0092 43.1176 46.2746C43.0051 46.5413 42.9343 46.8206 42.9027 47.1152L42.8876 47.2757C42.8673 47.5563 42.8926 47.8204 42.966 48.0657C43.0393 48.3096 43.153 48.5258 43.3085 48.7103C43.4627 48.8961 43.6561 49.0402 43.8887 49.1464C44.1212 49.2513 44.3816 49.3069 44.6698 49.312H44.671C44.8758 49.3145 45.0831 49.2892 45.2917 49.2361C45.5002 49.1831 45.6948 49.0996 45.8756 48.9859C46.0564 48.8721 46.2056 48.7267 46.3231 48.5498L45.8301 47.9557C45.6886 48.1023 45.5318 48.2187 45.3549 48.3058C45.1792 48.393 44.987 48.4335 44.7785 48.4284C44.6155 48.4234 44.4777 48.3867 44.3702 48.3198C44.2628 48.2528 44.1768 48.1643 44.1162 48.0543C44.0555 47.9444 44.0138 47.8217 43.9935 47.6852C43.9822 47.6132 43.9771 47.5411 43.9759 47.4678H46.5758L46.6378 46.9989C46.6656 46.7297 46.6568 46.4731 46.61 46.2266C46.5633 45.9801 46.476 45.7614 46.3484 45.5681L46.3496 45.5668ZM45.6064 46.6235L45.5874 46.7208L44.077 46.7183C44.0808 46.7018 44.0846 46.6854 44.0883 46.669C44.1288 46.5148 44.1895 46.3707 44.2678 46.2379C44.3449 46.1053 44.4461 45.999 44.5687 45.9169C44.6913 45.836 44.8417 45.7981 45.0212 45.8031C45.1779 45.8082 45.303 45.8487 45.3966 45.9245C45.4901 45.999 45.5546 46.1002 45.5874 46.2228C45.6203 46.3467 45.6279 46.4794 45.6064 46.6235Z" fill="white"/>
<path d="M49.9065 44.9702C49.8408 44.9551 49.7776 44.9424 49.7169 44.9311C49.6562 44.9197 49.5931 44.9158 49.5273 44.9158C49.2771 44.9134 49.0647 44.9728 48.8928 45.0941C48.7803 45.1737 48.6817 45.2698 48.5945 45.3797L48.635 45.0069H47.6035L46.8691 49.2336H47.9663L48.4403 46.4971C48.4997 46.3884 48.5717 46.2949 48.6577 46.219C48.7474 46.1394 48.8536 46.0787 48.9762 46.037C49.0988 45.9953 49.2353 45.9763 49.387 45.9789C49.4527 45.9814 49.5172 45.9865 49.5804 45.994C49.6436 46.0029 49.7068 46.0117 49.77 46.0219L49.9065 44.9715V44.9702Z" fill="white"/>
<path d="M49.7598 49.2324H50.8568L51.5912 45.0056H50.4941L49.7598 49.2324Z" fill="white"/>
<path d="M51.2276 43.3346C51.0557 43.3371 50.9091 43.3927 50.7877 43.4989C50.6664 43.6063 50.6095 43.7478 50.6146 43.9249C50.6171 44.0968 50.679 44.232 50.8004 44.3318C50.9217 44.4304 51.0646 44.4785 51.2289 44.4759C51.3982 44.4722 51.5436 44.4178 51.6662 44.3116C51.7888 44.2055 51.8469 44.0626 51.8419 43.8856C51.8419 43.7175 51.7812 43.5823 51.6586 43.4812C51.536 43.38 51.3932 43.332 51.2289 43.3346H51.2276Z" fill="white"/>
<path d="M55.4879 45.5832C55.3463 45.3848 55.1644 45.2281 54.9432 45.1106C54.7207 44.9942 54.4577 44.9323 54.1532 44.9272C53.8321 44.9197 53.5439 44.9728 53.2873 45.0865C53.0307 45.2003 52.8083 45.357 52.6199 45.5592C52.4316 45.7614 52.2799 45.994 52.1662 46.2582C52.0524 46.5223 51.9804 46.8055 51.9488 47.1051L51.9374 47.1873V47.1847C51.9134 47.4666 51.9298 47.7333 51.9879 47.9861C52.0461 48.2389 52.1434 48.4638 52.285 48.6597C52.4253 48.8569 52.6073 49.0124 52.8311 49.1287C53.0548 49.245 53.3164 49.3057 53.616 49.3107C53.932 49.3196 54.2176 49.2665 54.4754 49.1552C54.7333 49.0428 54.9558 48.8886 55.1454 48.6889C55.335 48.4891 55.4867 48.2578 55.6029 47.9975C55.7193 47.7358 55.7938 47.4565 55.8279 47.1594L55.8355 47.0735C55.8621 46.7903 55.8456 46.5199 55.7875 46.2646C55.7294 46.0092 55.6282 45.7817 55.4867 45.5845L55.4879 45.5832ZM54.7346 47.0722L54.727 47.1544C54.7119 47.301 54.6802 47.4489 54.6335 47.6018C54.5867 47.7547 54.5235 47.8951 54.4426 48.024C54.3617 48.1529 54.2594 48.2566 54.1342 48.3324C54.0104 48.4095 53.8599 48.4449 53.6855 48.4398C53.5225 48.4348 53.3922 48.3906 53.2987 48.3084C53.2052 48.2262 53.1382 48.1213 53.0977 47.9936C53.0573 47.866 53.0346 47.7307 53.0295 47.5892C53.0244 47.4476 53.0283 47.3137 53.0408 47.1885L53.0484 47.1026C53.0648 46.956 53.094 46.8068 53.1407 46.6526C53.1862 46.4983 53.2494 46.3568 53.3303 46.2266C53.4112 46.0964 53.5136 45.9915 53.6387 45.9119C53.7639 45.8322 53.913 45.7956 54.0875 45.8007C54.2505 45.807 54.3806 45.8512 54.4742 45.9359C54.5678 46.0206 54.6348 46.128 54.6765 46.2569C54.7182 46.3858 54.7422 46.5236 54.7447 46.6677C54.7485 46.8118 54.7447 46.9471 54.7346 47.0722Z" fill="white"/>
<path d="M59.1578 44.9702C59.092 44.9551 59.0289 44.9424 58.9682 44.9311C58.9075 44.9197 58.8443 44.9158 58.7786 44.9158C58.5283 44.9134 58.3159 44.9728 58.1428 45.0941C58.0303 45.1737 57.9317 45.2698 57.8445 45.3797L57.885 45.0069H56.8535L56.1191 49.2336H57.2163L57.6903 46.4971C57.7497 46.3884 57.8217 46.2949 57.9077 46.219C57.9974 46.1394 58.1036 46.0787 58.2263 46.037C58.3488 45.9953 58.4853 45.9763 58.637 45.9789C58.7015 45.9814 58.7672 45.9865 58.8304 45.994C58.8936 46.0016 58.9568 46.0117 59.02 46.0219L59.1565 44.9715L59.1578 44.9702Z" fill="white"/>
<path d="M34.4487 39.0271C34.4057 39.2002 34.3766 39.3241 34.3614 39.3747C34.0858 40.6411 34.1516 41.1404 35.1362 41.0241C36.2005 40.894 36.3307 40.3441 36.677 39.0271C36.6985 38.9322 36.7276 38.8236 36.7643 38.6934C40.3464 38.208 43.864 37.9047 48.7051 37.5065C48.901 37.4901 49.0716 37.4724 49.2194 37.4509C49.2839 37.4445 49.3471 37.4395 49.4142 37.4332C50.8437 37.3005 50.8298 37.0502 50.9613 36.1629C51.1129 35.153 49.9905 35.1542 49.6531 35.1643H49.4925C47.3197 35.2212 45.7891 35.2326 43.4393 35.4879C41.4334 35.6561 39.4009 35.8785 37.4518 36.1237C37.879 34.5969 38.2987 33.099 38.2987 33.099C38.2987 33.099 38.7323 34.0331 39.9558 33.9383C41.6925 33.8005 43.8059 32.1144 44.8335 29.0164C45.9193 25.7237 45.8245 21.9899 43.6036 21.6701C41.8088 21.4161 40.9543 23.0023 40.8317 23.3196C40.8317 23.3196 41.216 21.8787 40.0708 22.1327C38.9788 22.3716 38.7829 22.8557 38.5073 23.7317C38.4567 23.8833 37.5378 27.3075 36.5759 30.9111C36.562 30.9325 36.5468 30.9616 36.5405 30.9907C36.3016 31.8085 35.8314 32.0765 35.4914 32.0979C34.3918 32.17 36.7579 24.9122 36.9387 24.3535C37.1776 23.6306 37.3153 23.0794 36.5114 22.7761C35.9692 22.5739 35.2297 22.6459 35.0137 23.2248C34.9189 23.4713 34.8543 23.6444 34.8543 23.6444C34.8543 23.6444 34.2388 22.7256 32.8712 22.8481C31.5035 22.9708 29.7745 24.6354 28.6369 27.559C27.4943 30.4763 27.0013 34.6663 29.7075 35.0847C31.0827 35.2945 32.2404 34.5134 32.8409 33.2178C32.8409 33.2178 32.7322 34.0861 33.6448 34.5134C33.9999 34.679 34.8822 34.6145 35.7215 34.1443C35.504 34.9697 35.2943 35.7432 35.1135 36.4384C29.2663 37.2486 24.6554 38.1536 24.6554 38.1536C24.6554 38.1536 27.8621 27.305 28.5851 24.9248C29.193 22.9278 28.0492 23.3613 27.2099 23.6078C26.3124 23.8682 25.8852 24.6215 25.4364 25.9967C23.4748 31.9968 21.9264 33.8637 20.8052 33.458C19.7777 33.0889 23.0122 26.721 22.2386 25.8817C21.5662 25.1511 20.1834 25.1941 19.9154 25.6213C19.6551 26.0486 20.0456 26.4467 19.8724 27.0547C19.7069 27.6626 18.4101 30.9553 18.2735 31.6934C18.1358 32.4316 17.0146 36.5206 19.9888 36.3399C21.7469 36.2387 22.949 34.9065 23.0791 34.5374C22.5294 36.1224 21.7469 38.6921 21.7469 38.6921C21.7469 38.6921 18.1496 39.5895 15.2842 42.5928C13.004 44.9741 11.3975 50.1046 14.7988 50.9223C20.081 52.1964 22.5862 44.1259 23.8666 41.0873C28.1515 40.1318 31.4214 39.5023 34.4474 39.0245L34.4487 39.0271ZM39.7245 28.2365V28.2289C40.4475 25.8628 41.1136 24.9211 41.7367 24.6531C43.227 24.0161 43.5101 25.8829 42.3586 28.7269C41.0264 32.012 39.4704 31.9399 38.8776 31.289C38.8776 31.289 38.9572 30.7253 39.7245 28.2352V28.2365ZM33.0659 29.6547C32.4288 31.1955 31.8284 32.2812 31.003 32.2888C29.8237 32.2964 29.8516 30.523 30.6921 28.2871C31.4012 26.4125 32.6892 25.2257 33.3843 25.0955C34.0796 24.9654 34.8897 25.2548 33.0659 29.6547ZM17.4469 47.6082C14.6383 50.1197 15.3474 46.6829 16.3902 45.1991C18.3734 42.3842 20.8268 41.6675 20.8268 41.6675C19.5817 45.3077 18.0258 47.095 17.4469 47.6082Z" fill="white"/>
<path d="M48.4085 33.1937C50.1313 33.1217 51.6216 31.8767 52.1651 30.9502C52.4254 30.5015 52.5342 29.7999 52.4836 29.4878C52.3534 28.6118 51.8175 28.4816 50.9061 29.6319C50.6812 29.8846 48.8876 31.4848 48.0041 30.5369C47.367 29.8492 47.903 28.5031 47.932 28.5031C49.0822 28.4159 51.0944 27.9533 52.6934 26.1079H52.6871C53.7513 24.878 54.2355 22.2591 52.4558 21.2959C50.2994 20.1306 47.4909 21.9115 46.3267 25.7464C45.2915 29.1541 44.9086 33.353 48.411 33.1925L48.4085 33.1937ZM50.1086 23.1199V23.1274C51.078 22.2224 51.997 23.3082 50.8834 24.8578C49.7546 26.429 48.43 26.3847 48.4237 26.4353C48.5615 25.8197 49.0531 24.1121 50.1098 23.1199H50.1086Z" fill="white"/>
<path d="M388.19 369.258L386.948 365.914C386.223 366.515 385.332 366.854 384.386 366.891L385.622 370.223C385.704 370.444 385.947 370.555 386.166 370.473L387.942 369.805C388.161 369.723 388.271 369.478 388.19 369.258Z" fill="#F5F5F5"/>
<path d="M383.943 358.5C381.312 358.502 380 358.321 380 362.476C380.002 364.466 380.068 365.458 380.596 365.953L381.787 362.537C381.869 362.301 382.037 362.113 382.261 362.005C382.484 361.896 382.736 361.882 382.97 361.965L384.836 362.624C385.069 362.707 385.257 362.876 385.364 363.101C385.472 363.326 385.485 363.579 385.403 363.814L384.501 366.401C386.419 366.128 387.895 364.474 387.894 362.468C387.891 360.274 386.122 358.498 383.943 358.5Z" fill="#F5F5F5"/>
<path d="M384.655 363.143L382.789 362.484C382.59 362.413 382.372 362.519 382.302 362.719L380.022 369.26C379.952 369.459 380.057 369.679 380.256 369.749L382.122 370.408C382.321 370.479 382.538 370.374 382.608 370.173L384.889 363.632C384.958 363.432 384.854 363.213 384.655 363.143Z" fill="#F5F5F5"/>
<path d="M393.62 368.25V360.614H396.19C396.787 360.614 397.274 360.722 397.653 360.938C398.034 361.152 398.317 361.441 398.5 361.807C398.683 362.172 398.775 362.58 398.775 363.03C398.775 363.48 398.683 363.889 398.5 364.257C398.319 364.624 398.039 364.918 397.661 365.137C397.282 365.353 396.797 365.461 396.205 365.461H394.363V364.641H396.175C396.584 364.641 396.912 364.57 397.159 364.428C397.407 364.286 397.586 364.095 397.698 363.854C397.812 363.61 397.869 363.336 397.869 363.03C397.869 362.724 397.812 362.451 397.698 362.21C397.586 361.968 397.406 361.779 397.156 361.643C396.906 361.504 396.574 361.434 396.16 361.434H394.541V368.25H393.62ZM402.396 368.369C401.881 368.369 401.429 368.246 401.04 368C400.654 367.754 400.352 367.41 400.134 366.967C399.919 366.525 399.811 366.008 399.811 365.416C399.811 364.82 399.919 364.299 400.134 363.854C400.352 363.409 400.654 363.063 401.04 362.817C401.429 362.571 401.881 362.448 402.396 362.448C402.911 362.448 403.361 362.571 403.747 362.817C404.136 363.063 404.438 363.409 404.654 363.854C404.871 364.299 404.98 364.82 404.98 365.416C404.98 366.008 404.871 366.525 404.654 366.967C404.438 367.41 404.136 367.754 403.747 368C403.361 368.246 402.911 368.369 402.396 368.369ZM402.396 367.579C402.787 367.579 403.109 367.478 403.361 367.277C403.614 367.075 403.801 366.811 403.922 366.483C404.043 366.155 404.104 365.799 404.104 365.416C404.104 365.033 404.043 364.677 403.922 364.346C403.801 364.015 403.614 363.748 403.361 363.544C403.109 363.341 402.787 363.239 402.396 363.239C402.004 363.239 401.683 363.341 401.43 363.544C401.177 363.748 400.991 364.015 400.869 364.346C400.748 364.677 400.687 365.033 400.687 365.416C400.687 365.799 400.748 366.155 400.869 366.483C400.991 366.811 401.177 367.075 401.43 367.277C401.683 367.478 402.004 367.579 402.396 367.579ZM407.417 368.25L405.679 362.523H406.6L407.832 366.908H407.892L409.11 362.523H410.046L411.249 366.893H411.308L412.541 362.523H413.463L411.724 368.25H410.863L409.615 363.85H409.526L408.278 368.25H407.417ZM416.819 368.369C416.269 368.369 415.795 368.248 415.396 368.004C415 367.758 414.695 367.415 414.479 366.975C414.266 366.532 414.16 366.018 414.16 365.431C414.16 364.844 414.266 364.327 414.479 363.88C414.695 363.43 414.994 363.08 415.378 362.828C415.764 362.575 416.215 362.448 416.73 362.448C417.027 362.448 417.32 362.498 417.61 362.597C417.899 362.697 418.163 362.858 418.401 363.082C418.638 363.303 418.828 363.597 418.969 363.962C419.11 364.327 419.181 364.777 419.181 365.312V365.685H414.784V364.924H418.289C418.289 364.601 418.225 364.312 418.096 364.059C417.97 363.805 417.789 363.605 417.554 363.459C417.321 363.312 417.047 363.239 416.73 363.239C416.381 363.239 416.078 363.326 415.824 363.5C415.571 363.671 415.377 363.895 415.24 364.171C415.104 364.447 415.036 364.743 415.036 365.058V365.565C415.036 365.998 415.11 366.364 415.259 366.665C415.41 366.964 415.619 367.191 415.887 367.348C416.154 367.502 416.465 367.579 416.819 367.579C417.049 367.579 417.257 367.546 417.443 367.482C417.631 367.415 417.793 367.315 417.929 367.184C418.065 367.049 418.171 366.883 418.245 366.684L419.092 366.923C419.002 367.211 418.853 367.465 418.642 367.683C418.432 367.9 418.172 368.068 417.862 368.19C417.553 368.31 417.205 368.369 416.819 368.369ZM420.514 368.25V362.523H421.361V363.388H421.42C421.524 363.104 421.712 362.874 421.985 362.698C422.257 362.521 422.564 362.433 422.906 362.433C422.97 362.433 423.05 362.434 423.147 362.437C423.243 362.439 423.317 362.443 423.366 362.448V363.343C423.336 363.336 423.268 363.324 423.162 363.309C423.058 363.292 422.948 363.283 422.831 363.283C422.554 363.283 422.306 363.342 422.088 363.459C421.873 363.573 421.702 363.732 421.576 363.936C421.452 364.137 421.39 364.367 421.39 364.626V368.25H420.514ZM426.623 368.369C426.073 368.369 425.599 368.248 425.201 368.004C424.804 367.758 424.499 367.415 424.283 366.975C424.07 366.532 423.964 366.018 423.964 365.431C423.964 364.844 424.07 364.327 424.283 363.88C424.499 363.43 424.798 363.08 425.182 362.828C425.568 362.575 426.019 362.448 426.534 362.448C426.831 362.448 427.124 362.498 427.414 362.597C427.704 362.697 427.967 362.858 428.205 363.082C428.443 363.303 428.632 363.597 428.773 363.962C428.914 364.327 428.985 364.777 428.985 365.312V365.685H424.588V364.924H428.094C428.094 364.601 428.029 364.312 427.901 364.059C427.774 363.805 427.594 363.605 427.358 363.459C427.126 363.312 426.851 363.239 426.534 363.239C426.185 363.239 425.883 363.326 425.628 363.5C425.375 363.671 425.181 363.895 425.045 364.171C424.908 364.447 424.84 364.743 424.84 365.058V365.565C424.84 365.998 424.915 366.364 425.063 366.665C425.214 366.964 425.423 367.191 425.691 367.348C425.958 367.502 426.269 367.579 426.623 367.579C426.853 367.579 427.061 367.546 427.247 367.482C427.435 367.415 427.597 367.315 427.733 367.184C427.87 367.049 427.975 366.883 428.049 366.684L428.896 366.923C428.807 367.211 428.657 367.465 428.446 367.683C428.236 367.9 427.976 368.068 427.667 368.19C427.357 368.31 427.009 368.369 426.623 368.369ZM432.472 368.369C431.997 368.369 431.577 368.249 431.213 368.008C430.849 367.764 430.564 367.421 430.359 366.979C430.154 366.534 430.051 366.008 430.051 365.401C430.051 364.8 430.154 364.278 430.359 363.835C430.564 363.393 430.85 363.051 431.217 362.81C431.583 362.569 432.007 362.448 432.487 362.448C432.858 362.448 433.152 362.51 433.367 362.635C433.585 362.756 433.751 362.896 433.865 363.052C433.981 363.206 434.071 363.333 434.136 363.433H434.21V360.614H435.087V368.25H434.24V367.37H434.136C434.071 367.474 433.98 367.606 433.861 367.765C433.742 367.922 433.573 368.062 433.352 368.187C433.132 368.308 432.838 368.369 432.472 368.369ZM432.591 367.579C432.942 367.579 433.24 367.487 433.482 367.303C433.725 367.116 433.909 366.859 434.036 366.531C434.162 366.2 434.225 365.819 434.225 365.386C434.225 364.959 434.163 364.585 434.039 364.264C433.915 363.941 433.732 363.69 433.49 363.511C433.247 363.329 432.947 363.239 432.591 363.239C432.22 363.239 431.91 363.334 431.662 363.526C431.417 363.715 431.233 363.972 431.109 364.298C430.988 364.621 430.927 364.984 430.927 365.386C430.927 365.794 430.989 366.164 431.113 366.498C431.239 366.828 431.425 367.092 431.67 367.288C431.918 367.482 432.225 367.579 432.591 367.579ZM439.874 368.25V360.614H440.75V363.433H440.824C440.889 363.333 440.978 363.206 441.092 363.052C441.208 362.896 441.374 362.756 441.589 362.635C441.807 362.51 442.102 362.448 442.473 362.448C442.953 362.448 443.377 362.569 443.743 362.81C444.11 363.051 444.396 363.393 444.601 363.835C444.807 364.278 444.909 364.8 444.909 365.401C444.909 366.008 444.807 366.534 444.601 366.979C444.396 367.421 444.111 367.764 443.747 368.008C443.383 368.249 442.963 368.369 442.488 368.369C442.122 368.369 441.828 368.308 441.608 368.187C441.387 368.062 441.218 367.922 441.099 367.765C440.98 367.606 440.889 367.474 440.824 367.37H440.72V368.25H439.874ZM440.735 365.386C440.735 365.819 440.798 366.2 440.924 366.531C441.051 366.859 441.235 367.116 441.478 367.303C441.72 367.487 442.018 367.579 442.369 367.579C442.736 367.579 443.041 367.482 443.286 367.288C443.534 367.092 443.72 366.828 443.843 366.498C443.97 366.164 444.033 365.794 444.033 365.386C444.033 364.984 443.971 364.621 443.847 364.298C443.726 363.972 443.541 363.715 443.294 363.526C443.049 363.334 442.74 363.239 442.369 363.239C442.013 363.239 441.713 363.329 441.47 363.511C441.228 363.69 441.045 363.941 440.921 364.264C440.797 364.585 440.735 364.959 440.735 365.386ZM446.61 370.398C446.462 370.398 446.329 370.385 446.213 370.36C446.096 370.338 446.016 370.316 445.971 370.293L446.194 369.518C446.407 369.572 446.595 369.592 446.759 369.577C446.922 369.562 447.067 369.489 447.193 369.357C447.322 369.228 447.44 369.018 447.546 368.727L447.709 368.28L445.6 362.523H446.551L448.125 367.087H448.185L449.759 362.523H450.71L448.289 369.085C448.18 369.381 448.045 369.626 447.884 369.82C447.723 370.016 447.536 370.162 447.323 370.256C447.113 370.351 446.875 370.398 446.61 370.398ZM456.62 364.432C456.62 364.024 456.72 363.653 456.918 363.317C457.116 362.981 457.382 362.714 457.716 362.515C458.05 362.316 458.421 362.217 458.826 362.217C459.178 362.217 459.502 362.293 459.8 362.444C460.099 362.596 460.346 362.804 460.542 363.067C460.738 363.328 460.859 363.624 460.906 363.955H460.007C459.958 363.699 459.82 363.49 459.596 363.328C459.37 363.164 459.114 363.082 458.826 363.082C458.579 363.082 458.353 363.143 458.151 363.265C457.948 363.387 457.786 363.549 457.664 363.753C457.543 363.957 457.482 364.183 457.482 364.432C457.482 364.68 457.543 364.907 457.664 365.11C457.786 365.314 457.948 365.477 458.151 365.599C458.353 365.721 458.579 365.782 458.826 365.782C459.114 365.782 459.357 365.701 459.554 365.539C459.755 365.375 459.881 365.165 459.933 364.909H460.832C460.785 365.24 460.67 365.537 460.487 365.8C460.303 366.061 460.068 366.268 459.781 366.419C459.496 366.571 459.178 366.647 458.826 366.647C458.421 366.647 458.05 366.547 457.716 366.348C457.382 366.149 457.116 365.882 456.918 365.547C456.72 365.211 456.62 364.84 456.62 364.432ZM458.79 368.369C458.25 368.369 457.742 368.267 457.266 368.064C456.794 367.86 456.377 367.578 456.015 367.217C455.656 366.854 455.374 366.435 455.168 365.961C454.966 365.486 454.865 364.976 454.868 364.432C454.87 363.887 454.973 363.378 455.176 362.903C455.381 362.428 455.663 362.011 456.023 361.65C456.381 361.287 456.797 361.004 457.27 360.8C457.743 360.596 458.25 360.494 458.79 360.494C459.332 360.494 459.839 360.596 460.312 360.8C460.787 361.004 461.203 361.287 461.559 361.65C461.919 362.011 462.2 362.428 462.403 362.903C462.606 363.378 462.708 363.887 462.711 364.432C462.714 364.976 462.613 365.486 462.41 365.961C462.207 366.435 461.926 366.854 461.567 367.217C461.208 367.578 460.791 367.86 460.316 368.064C459.841 368.267 459.332 368.369 458.79 368.369ZM458.79 367.504C459.212 367.504 459.61 367.425 459.982 367.266C460.353 367.107 460.679 366.887 460.958 366.606C461.238 366.325 461.457 365.999 461.615 365.629C461.774 365.256 461.852 364.858 461.849 364.436C461.847 364.01 461.766 363.612 461.608 363.239C461.45 362.866 461.231 362.539 460.951 362.258C460.671 361.977 460.346 361.757 459.978 361.598C459.609 361.439 459.212 361.359 458.79 361.359C458.368 361.359 457.974 361.439 457.605 361.598C457.236 361.757 456.912 361.978 456.632 362.262C456.352 362.543 456.132 362.869 455.97 363.242C455.812 363.613 455.731 364.01 455.729 364.436C455.727 364.856 455.805 365.252 455.963 365.625C456.121 365.995 456.341 366.321 456.62 366.602C456.903 366.883 457.228 367.104 457.597 367.266C457.969 367.425 458.366 367.504 458.79 367.504ZM464.497 368.25V360.614H467.066C467.661 360.614 468.148 360.716 468.53 360.919C468.911 361.121 469.193 361.398 469.376 361.751C469.56 362.104 469.651 362.505 469.651 362.955C469.651 363.405 469.56 363.804 469.376 364.152C469.193 364.5 468.912 364.774 468.533 364.972C468.155 365.169 467.671 365.267 467.081 365.267H465.002V364.432H467.051C467.458 364.432 467.784 364.372 468.032 364.253C468.282 364.134 468.462 363.964 468.574 363.746C468.688 363.525 468.745 363.261 468.745 362.955C468.745 362.65 468.688 362.382 468.574 362.154C468.46 361.925 468.279 361.748 468.028 361.624C467.778 361.497 467.448 361.434 467.036 361.434H465.418V368.25H464.497ZM468.076 364.82L469.948 368.25H468.878L467.036 364.82H468.076ZM473.397 368.369C472.848 368.369 472.374 368.248 471.975 368.004C471.579 367.758 471.273 367.415 471.057 366.975C470.844 366.532 470.738 366.018 470.738 365.431C470.738 364.844 470.844 364.327 471.057 363.88C471.273 363.43 471.573 363.08 471.956 362.828C472.342 362.575 472.793 362.448 473.308 362.448C473.605 362.448 473.899 362.498 474.188 362.597C474.478 362.697 474.742 362.858 474.979 363.082C475.217 363.303 475.406 363.597 475.548 363.962C475.689 364.327 475.759 364.777 475.759 365.312V365.685H471.362V364.924H474.868C474.868 364.601 474.804 364.312 474.675 364.059C474.549 363.805 474.368 363.605 474.133 363.459C473.9 363.312 473.625 363.239 473.308 363.239C472.959 363.239 472.657 363.326 472.402 363.5C472.149 363.671 471.955 363.895 471.819 364.171C471.683 364.447 471.615 364.743 471.615 365.058V365.565C471.615 365.998 471.689 366.364 471.837 366.665C471.989 366.964 472.198 367.191 472.465 367.348C472.733 367.502 473.043 367.579 473.397 367.579C473.628 367.579 473.835 367.546 474.021 367.482C474.21 367.415 474.372 367.315 474.508 367.184C474.644 367.049 474.749 366.883 474.824 366.684L475.67 366.923C475.581 367.211 475.431 367.465 475.22 367.683C475.01 367.9 474.75 368.068 474.44 368.19C474.131 368.31 473.783 368.369 473.397 368.369ZM477.092 368.25V362.523H477.939V363.418H478.013C478.132 363.112 478.324 362.874 478.589 362.705C478.854 362.534 479.172 362.448 479.543 362.448C479.92 362.448 480.233 362.534 480.483 362.705C480.735 362.874 480.933 363.112 481.074 363.418H481.133C481.279 363.122 481.498 362.887 481.79 362.713C482.082 362.536 482.432 362.448 482.841 362.448C483.351 362.448 483.768 362.608 484.093 362.929C484.417 363.247 484.579 363.743 484.579 364.417V368.25H483.703V364.417C483.703 363.994 483.587 363.692 483.357 363.511C483.127 363.329 482.856 363.239 482.544 363.239C482.143 363.239 481.833 363.36 481.612 363.604C481.392 363.845 481.281 364.151 481.281 364.521V368.25H480.39V364.327C480.39 364.002 480.285 363.74 480.074 363.541C479.864 363.339 479.593 363.239 479.262 363.239C479.034 363.239 478.821 363.3 478.622 363.421C478.427 363.543 478.268 363.712 478.147 363.928C478.028 364.142 477.968 364.39 477.968 364.67V368.25H477.092ZM486.182 368.25V362.523H487.058V368.25H486.182ZM486.628 361.568C486.457 361.568 486.309 361.51 486.185 361.393C486.064 361.276 486.003 361.136 486.003 360.972C486.003 360.808 486.064 360.667 486.185 360.55C486.309 360.433 486.457 360.375 486.628 360.375C486.798 360.375 486.944 360.433 487.065 360.55C487.189 360.667 487.251 360.808 487.251 360.972C487.251 361.136 487.189 361.276 487.065 361.393C486.944 361.51 486.798 361.568 486.628 361.568ZM491.144 362.523V363.268H488.188V362.523H491.144ZM489.049 361.151H489.926V366.609C489.926 366.858 489.962 367.044 490.034 367.169C490.108 367.29 490.202 367.372 490.316 367.415C490.433 367.455 490.555 367.474 490.684 367.474C490.78 367.474 490.859 367.469 490.921 367.459C490.983 367.447 491.033 367.437 491.07 367.43L491.248 368.22C491.189 368.243 491.106 368.265 491 368.287C490.893 368.312 490.758 368.325 490.595 368.325C490.347 368.325 490.104 368.271 489.867 368.164C489.631 368.057 489.436 367.894 489.28 367.676C489.126 367.457 489.049 367.181 489.049 366.848V361.151ZM494.793 368.369C494.243 368.369 493.77 368.248 493.371 368.004C492.975 367.758 492.668 367.415 492.453 366.975C492.24 366.532 492.134 366.018 492.134 365.431C492.134 364.844 492.24 364.327 492.453 363.88C492.668 363.43 492.968 363.08 493.352 362.828C493.738 362.575 494.189 362.448 494.704 362.448C495.001 362.448 495.294 362.498 495.584 362.597C495.874 362.697 496.137 362.858 496.375 363.082C496.613 363.303 496.802 363.597 496.943 363.962C497.084 364.327 497.155 364.777 497.155 365.312V365.685H492.758V364.924H496.264C496.264 364.601 496.199 364.312 496.07 364.059C495.944 363.805 495.763 363.605 495.528 363.459C495.296 363.312 495.021 363.239 494.704 363.239C494.354 363.239 494.053 363.326 493.798 363.5C493.545 363.671 493.35 363.895 493.215 364.171C493.079 364.447 493.011 364.743 493.011 365.058V365.565C493.011 365.998 493.085 366.364 493.233 366.665C493.384 366.964 493.593 367.191 493.861 367.348C494.128 367.502 494.439 367.579 494.793 367.579C495.023 367.579 495.231 367.546 495.417 367.482C495.605 367.415 495.767 367.315 495.904 367.184C496.04 367.049 496.145 366.883 496.219 366.684L497.066 366.923C496.976 367.211 496.827 367.465 496.616 367.683C496.406 367.9 496.146 368.068 495.836 368.19C495.527 368.31 495.179 368.369 494.793 368.369ZM500.879 368.369C500.33 368.369 499.856 368.248 499.457 368.004C499.061 367.758 498.756 367.415 498.54 366.975C498.327 366.532 498.221 366.018 498.221 365.431C498.221 364.844 498.327 364.327 498.54 363.88C498.756 363.43 499.055 363.08 499.438 362.828C499.825 362.575 500.276 362.448 500.79 362.448C501.088 362.448 501.381 362.498 501.67 362.597C501.96 362.697 502.224 362.858 502.461 363.082C502.7 363.303 502.889 363.597 503.03 363.962C503.171 364.327 503.241 364.777 503.241 365.312V365.685H498.845V364.924H502.35C502.35 364.601 502.286 364.312 502.157 364.059C502.031 363.805 501.85 363.605 501.615 363.459C501.382 363.312 501.107 363.239 500.79 363.239C500.442 363.239 500.139 363.326 499.884 363.5C499.632 363.671 499.438 363.895 499.302 364.171C499.165 364.447 499.097 364.743 499.097 365.058V365.565C499.097 365.998 499.172 366.364 499.32 366.665C499.471 366.964 499.68 367.191 499.948 367.348C500.215 367.502 500.525 367.579 500.879 367.579C501.11 367.579 501.318 367.546 501.504 367.482C501.692 367.415 501.854 367.315 501.99 367.184C502.126 367.049 502.231 366.883 502.306 366.684L503.152 366.923C503.064 367.211 502.913 367.465 502.703 367.683C502.493 367.9 502.233 368.068 501.923 368.19C501.614 368.31 501.266 368.369 500.879 368.369Z" fill="#F5F5F5"/>
</g>
<defs>
<filter id="filter0_f_867_5213" x="-142.491" y="-32.7548" width="774.385" height="663.339" filterUnits="userSpaceOnUse" color-interpolation-filters="sRGB">
<feFlood flood-opacity="0" result="BackgroundImageFix"/>
<feBlend mode="normal" in="SourceGraphic" in2="BackgroundImageFix" result="shape"/>
<feGaussianBlur stdDeviation="86.6667" result="effect1_foregroundBlur_867_5213"/>
</filter>
<filter id="filter1_d_867_5213" x="33.0935" y="72" width="453.813" height="45.1933" filterUnits="userSpaceOnUse" color-interpolation-filters="sRGB">
<feFlood flood-opacity="0" result="BackgroundImageFix"/>
<feColorMatrix in="SourceAlpha" type="matrix" values="0 0 0 0 0 0 0 0 0 0 0 0 0 0 0 0 0 0 127 0" result="hardAlpha"/>
<feOffset dy="4.17308"/>
<feGaussianBlur stdDeviation="2.08654"/>
<feComposite in2="hardAlpha" operator="out"/>
<feColorMatrix type="matrix" values="0 0 0 0 0 0 0 0 0 0 0 0 0 0 0 0 0 0 0.4 0"/>
<feBlend mode="normal" in2="BackgroundImageFix" result="effect1_dropShadow_867_5213"/>
<feBlend mode="normal" in="SourceGraphic" in2="effect1_dropShadow_867_5213" result="shape"/>
</filter>
<filter id="filter2_d_867_5213" x="33.1066" y="108.847" width="453.787" height="45.1672" filterUnits="userSpaceOnUse" color-interpolation-filters="sRGB">
<feFlood flood-opacity="0" result="BackgroundImageFix"/>
<feColorMatrix in="SourceAlpha" type="matrix" values="0 0 0 0 0 0 0 0 0 0 0 0 0 0 0 0 0 0 127 0" result="hardAlpha"/>
<feOffset dy="4.16"/>
<feGaussianBlur stdDeviation="2.08"/>
<feComposite in2="hardAlpha" operator="out"/>
<feColorMatrix type="matrix" values="0 0 0 0 0 0 0 0 0 0 0 0 0 0 0 0 0 0 0.4 0"/>
<feBlend mode="normal" in2="BackgroundImageFix" result="effect1_dropShadow_867_5213"/>
<feBlend mode="normal" in="SourceGraphic" in2="effect1_dropShadow_867_5213" result="shape"/>
</filter>
<clipPath id="clip0_867_5213">
<rect width="520" height="392" rx="12" fill="white"/>
</clipPath>
<clipPath id="clip1_867_5213">
<rect width="520" height="520" fill="white" transform="translate(0 -64)"/>
</clipPath>
<clipPath id="clip2_867_5213">
<rect width="16.8086" height="16.8086" fill="white" transform="translate(169.148 170.609)"/>
</clipPath>
<clipPath id="clip3_867_5213">
<rect width="6.41783" height="6.41783" fill="white" transform="translate(368.098 232.957)"/>
</clipPath>
<clipPath id="clip4_867_5213">
<rect width="13.7525" height="13.7525" fill="white" transform="translate(297.812 343.586)"/>
</clipPath>
<clipPath id="clip5_867_5213">
<rect width="9.47393" height="9.47393" fill="white" transform="translate(219.875 338.391)"/>
</clipPath>
<clipPath id="clip6_867_5213">
<rect width="7.94588" height="7.94588" fill="white" transform="translate(141.949 246.098)"/>
</clipPath>
<clipPath id="clip7_867_5213">
<rect width="33.9228" height="33.9228" fill="white" transform="translate(318.895 170)"/>
</clipPath>
</defs>
</svg>
