<svg width="300" height="136" viewBox="0 0 300 136" fill="none" xmlns="http://www.w3.org/2000/svg">
<rect y="39.1538" width="300" height="96.2988" rx="15.9179" fill="url(#paint0_linear_721_27537)"/>
<path d="M27.3856 63.4438H24.5841L23.7129 72.9974H19.1922L20.0634 63.4438H17.1132L17.63 59.8718H27.966L27.3856 63.4438ZM32.4904 68.3474C32.421 69.1083 32.7259 69.4888 33.4051 69.4888C34.0984 69.4888 34.4804 69.1013 34.551 68.3263L35.3219 59.8718H39.8639L39.0679 68.6011C38.9266 70.1511 38.3331 71.3065 37.2874 72.0674C36.2417 72.8283 34.8062 73.2088 32.981 73.2088C29.2738 73.2088 27.5591 71.687 27.8366 68.6433L28.6364 59.8718H33.2632L32.4904 68.3474ZM50.1986 68.897H49.2859L48.912 72.9974H44.455L45.6519 59.8718H50.788C52.5284 59.8718 53.7626 60.2241 54.4908 60.9286C55.2189 61.6332 55.5091 62.7956 55.3613 64.4161C55.2135 66.0365 54.7262 67.192 53.8991 67.8824C53.0734 68.5588 51.8399 68.897 50.1986 68.897ZM50.6903 65.8322C50.8382 65.6068 50.9365 65.2263 50.9853 64.6909C51.0342 64.1554 50.9981 63.775 50.8772 63.5495C50.7704 63.3241 50.5331 63.2113 50.1652 63.2113H49.7195L49.4497 66.1704H50.0015C50.3269 66.1704 50.5565 66.0577 50.6903 65.8322ZM66.8382 64.0991C66.7611 64.9445 66.558 65.6209 66.2287 66.1281C65.9149 66.6213 65.4506 67.0581 64.8358 67.4386L66.3027 72.9974H61.6122L60.7088 68.4743H60.3692L59.9568 72.9974H55.6059L56.8027 59.8718H62.4271C64.0684 59.8718 65.2467 60.217 65.9619 60.9075C66.6784 61.5838 66.9705 62.6477 66.8382 64.0991ZM61.05 65.8956C61.3755 65.8956 61.6102 65.804 61.7543 65.6209C61.9137 65.4236 62.0153 65.0854 62.059 64.6063C62.1027 64.1272 62.0621 63.7961 61.9374 63.6129C61.8126 63.4297 61.6016 63.3381 61.3045 63.3381H60.7526L60.5194 65.8956H61.05ZM72.1707 72.9974H67.6924L68.8892 59.8718H73.3675L72.1707 72.9974ZM88.3377 72.9974H84.3263L84.8968 66.7411H84.7907L82.968 72.9974H79.2538L78.5933 66.7411H78.4872L77.9167 72.9974H73.9478L75.654 59.8718H81.2996L81.7556 65.8111H81.9466L83.4644 59.8718H89.0463L88.3377 72.9974ZM98.3958 72.9974H89.9911L91.188 59.8718H99.8898L99.2746 63.3593H95.4119L95.2673 64.9445H98.6419L98.3644 67.9881H94.9898L94.826 69.7847H98.9859L98.3958 72.9974ZM111.006 64.0991C110.929 64.9445 110.726 65.6209 110.397 66.1281C110.083 66.6213 109.619 67.0581 109.004 67.4386L110.471 72.9974H105.78L104.877 68.4743H104.537L104.125 72.9974H99.774L100.971 59.8718H106.595C108.237 59.8718 109.415 60.217 110.13 60.9075C110.847 61.5838 111.139 62.6477 111.006 64.0991ZM105.218 65.8956C105.544 65.8956 105.778 65.804 105.922 65.6209C106.082 65.4236 106.183 65.0854 106.227 64.6063C106.271 64.1272 106.23 63.7961 106.106 63.6129C105.981 63.4297 105.77 63.3381 105.473 63.3381H104.921L104.688 65.8956H105.218ZM23.6194 95.9024H15.2148L16.4116 82.7768H25.1134L24.4983 86.2643H20.6355L20.491 87.8495H23.8656L23.5881 90.8931H20.2134L20.0496 92.6897H24.2095L23.6194 95.9024ZM36.1827 95.9024H31.853L29.651 90.724H29.5024L29.0302 95.9024H24.9977L26.1945 82.7768H30.6728L32.6896 88.1242H32.8169L33.3045 82.7768H37.3795L36.1827 95.9024ZM50.2077 82.7768L46.464 95.9024H39.9483L38.4497 82.7768H43.3524L43.6369 90.8297H43.8915L45.5385 82.7768H50.2077ZM54.7035 95.9024H50.2253L51.4221 82.7768H55.9004L54.7035 95.9024ZM57.6597 79.3104L54.6191 81.9313H51.8176L53.3512 79.3104H57.6597ZM56.6826 89.2656C56.8972 86.9124 57.5196 85.2074 58.5498 84.1506C59.5942 83.0938 61.1917 82.5654 63.3424 82.5654C65.5072 82.5654 67.002 83.0868 67.8266 84.1295C68.6654 85.1722 68.9775 86.8702 68.7629 89.2233C68.5496 91.5624 67.9105 93.2956 66.8456 94.4229C65.7948 95.5501 64.2011 96.1138 62.0646 96.1138C59.9422 96.1138 58.4577 95.5572 57.6112 94.444C56.7789 93.3308 56.4693 91.6047 56.6826 89.2656ZM64.1493 86.7504C63.9988 86.384 63.6193 86.2009 63.0109 86.2009C62.4025 86.2009 61.9973 86.377 61.7954 86.7293C61.5935 87.0815 61.4399 87.8354 61.3345 88.9908L61.2497 89.9208C61.1418 91.1045 61.1637 91.8724 61.3155 92.2247C61.4674 92.577 61.8546 92.7531 62.4771 92.7531C63.0997 92.7531 63.5042 92.584 63.6907 92.2458C63.8772 91.9076 64.0237 91.1538 64.1304 89.9842L64.219 89.012C64.3244 87.8565 64.3012 87.1027 64.1493 86.7504ZM81.8816 95.9024H73.4769L74.6738 82.7768H83.3756L82.7605 86.2643H78.8977L78.7532 87.8495H82.1278L81.8502 90.8931H78.4756L78.3118 92.6897H82.4717L81.8816 95.9024ZM83.4364 86.9829C83.5636 85.5879 84.0871 84.5029 85.0067 83.7279C85.9263 82.9529 87.136 82.5654 88.6358 82.5654C90.1498 82.5654 91.6934 82.7063 93.2666 82.9881L92.4392 86.7081C90.7027 86.3558 89.5585 86.1797 89.0067 86.1797C88.4549 86.1797 88.1635 86.3488 88.1327 86.687C88.1211 86.8138 88.1552 86.9054 88.235 86.9618C88.316 87.004 88.3765 87.0393 88.4164 87.0674C88.4562 87.0956 88.5308 87.1308 88.6402 87.1731C88.7637 87.2154 88.8589 87.2577 88.9258 87.2999C89.0081 87.3281 89.2531 87.4338 89.6609 87.617C90.0841 87.7861 90.3967 87.927 90.5987 88.0397C90.8161 88.1383 91.1048 88.3074 91.465 88.547C92.5032 89.2656 92.9586 90.3224 92.8314 91.7174C92.7042 93.1124 92.1879 94.1974 91.2824 94.9724C90.3782 95.7333 89.1408 96.1138 87.5703 96.1138C86.0138 96.1138 84.5031 95.9235 83.0379 95.5431L83.6608 91.971C85.5131 92.4501 86.7718 92.6897 87.4368 92.6897C87.8754 92.6897 88.1089 92.5347 88.1371 92.2247C88.15 92.0838 88.1036 91.971 87.9982 91.8865C87.9068 91.802 87.7595 91.7104 87.5563 91.6117C87.3672 91.5131 87.0816 91.3863 86.6996 91.2313C86.3188 91.0622 85.9992 90.9213 85.7406 90.8086C85.4833 90.6817 85.1823 90.4915 84.8376 90.2379C83.7763 89.4629 83.3092 88.3779 83.4364 86.9829Z" fill="white"/>
<path d="M103.671 92.6685C103.926 92.6685 104.269 92.6263 104.702 92.5417L104.817 91.2736H103.756L104.022 88.3567H109.031L108.343 95.9024H105.138L104.881 95.226H104.796C104.007 95.8178 103.11 96.1138 102.105 96.1138C98.7941 96.1138 97.3416 93.8874 97.7476 89.4347C97.9506 87.2083 98.5512 85.5104 99.5492 84.3409C100.563 83.1572 102.138 82.5654 104.274 82.5654C105.859 82.5654 107.339 82.7838 108.714 83.2206L107.651 87.1943C106.106 86.7574 104.987 86.539 104.294 86.539C103.615 86.539 103.141 86.7645 102.874 87.2154C102.621 87.6663 102.444 88.4342 102.346 89.5192C102.247 90.6042 102.273 91.4004 102.425 91.9076C102.591 92.4149 103.006 92.6685 103.671 92.6685ZM121.354 87.004C121.277 87.8495 121.073 88.5258 120.744 89.0331C120.43 89.5263 119.966 89.9631 119.351 90.3436L120.818 95.9024H116.128L115.224 91.3792H114.885L114.472 95.9024H110.121L111.318 82.7768H116.943C118.584 82.7768 119.762 83.122 120.477 83.8125C121.194 84.4888 121.486 85.5527 121.354 87.004ZM115.566 88.8006C115.891 88.8006 116.126 88.709 116.27 88.5258C116.429 88.3286 116.531 87.9904 116.575 87.5113C116.618 87.0322 116.578 86.7011 116.453 86.5179C116.328 86.3347 116.117 86.2431 115.82 86.2431H115.268L115.035 88.8006H115.566ZM133.181 95.9024H128.724L128.484 93.8733H126.128L125.498 95.9024H121.232L125.166 82.7768H131.64L133.181 95.9024ZM128.414 91.1467L128.009 86.7504H127.924L126.695 91.1467H128.414ZM144.122 86.3488H141.321L140.449 95.9024H135.929L136.8 86.3488H133.85L134.366 82.7768H144.702L144.122 86.3488ZM148.739 95.9024H144.261L145.458 82.7768H149.936L148.739 95.9024ZM150.735 86.9829C150.863 85.5879 151.386 84.5029 152.306 83.7279C153.225 82.9529 154.435 82.5654 155.935 82.5654C157.449 82.5654 158.992 82.7063 160.566 82.9881L159.738 86.7081C158.002 86.3558 156.857 86.1797 156.306 86.1797C155.754 86.1797 155.462 86.3488 155.432 86.687C155.42 86.8138 155.454 86.9054 155.534 86.9618C155.615 87.004 155.675 87.0393 155.715 87.0674C155.755 87.0956 155.83 87.1308 155.939 87.1731C156.063 87.2154 156.158 87.2577 156.225 87.2999C156.307 87.3281 156.552 87.4338 156.96 87.617C157.383 87.7861 157.696 87.927 157.898 88.0397C158.115 88.1383 158.404 88.3074 158.764 88.547C159.802 89.2656 160.258 90.3224 160.13 91.7174C160.003 93.1124 159.487 94.1974 158.581 94.9724C157.677 95.7333 156.44 96.1138 154.869 96.1138C153.313 96.1138 151.802 95.9235 150.337 95.5431L150.96 91.971C152.812 92.4501 154.071 92.6897 154.736 92.6897C155.174 92.6897 155.408 92.5347 155.436 92.2247C155.449 92.0838 155.403 91.971 155.297 91.8865C155.206 91.802 155.058 91.7104 154.855 91.6117C154.666 91.5131 154.381 91.3863 153.999 91.2313C153.618 91.0622 153.298 90.9213 153.04 90.8086C152.782 90.6817 152.481 90.4915 152.136 90.2379C151.075 89.4629 150.608 88.3779 150.735 86.9829Z" fill="#F4C12A"/>
<path d="M22.6791 107.99V115.535H21.6739L17.8757 109.716V115.535H16.8757V107.99H17.8757L21.6894 113.825V107.99H22.6791ZM24.1517 112.794V112.674C24.1517 112.27 24.2105 111.895 24.3279 111.55C24.4454 111.201 24.6146 110.899 24.8357 110.643C25.0568 110.384 25.3245 110.184 25.6389 110.042C25.9532 109.897 26.3056 109.825 26.6959 109.825C27.0897 109.825 27.4438 109.897 27.7581 110.042C28.0759 110.184 28.3454 110.384 28.5665 110.643C28.791 110.899 28.962 111.201 29.0795 111.55C29.1969 111.895 29.2556 112.27 29.2556 112.674V112.794C29.2556 113.198 29.1969 113.573 29.0795 113.918C28.962 114.263 28.791 114.566 28.5665 114.825C28.3454 115.08 28.0777 115.281 27.7633 115.426C27.4524 115.567 27.1001 115.638 26.7063 115.638C26.3125 115.638 25.9584 115.567 25.644 115.426C25.3297 115.281 25.0602 115.08 24.8357 114.825C24.6146 114.566 24.4454 114.263 24.3279 113.918C24.2105 113.573 24.1517 113.198 24.1517 112.794ZM25.1103 112.674V112.794C25.1103 113.073 25.1431 113.338 25.2088 113.586C25.2744 113.832 25.3729 114.049 25.5041 114.239C25.6389 114.429 25.8064 114.58 26.0068 114.69C26.2071 114.797 26.4403 114.851 26.7063 114.851C26.9688 114.851 27.1985 114.797 27.3954 114.69C27.5958 114.58 27.7616 114.429 27.8929 114.239C28.0241 114.049 28.1226 113.832 28.1882 113.586C28.2573 113.338 28.2918 113.073 28.2918 112.794V112.674C28.2918 112.398 28.2573 112.137 28.1882 111.892C28.1226 111.643 28.0224 111.424 27.8877 111.234C27.7564 111.04 27.5906 110.888 27.3902 110.778C27.1933 110.667 26.9619 110.612 26.6959 110.612C26.4334 110.612 26.2019 110.667 26.0016 110.778C25.8047 110.888 25.6389 111.04 25.5041 111.234C25.3729 111.424 25.2744 111.643 25.2088 111.892C25.1431 112.137 25.1103 112.398 25.1103 112.674ZM35.6363 109.928V110.664H32.605V109.928H35.6363ZM33.631 108.565H34.5896V114.146C34.5896 114.336 34.619 114.479 34.6777 114.576C34.7364 114.673 34.8124 114.737 34.9057 114.768C34.9989 114.799 35.0991 114.814 35.2062 114.814C35.2857 114.814 35.3686 114.808 35.4549 114.794C35.5447 114.776 35.6121 114.763 35.657 114.752L35.6622 115.535C35.5862 115.559 35.486 115.581 35.3617 115.602C35.2408 115.626 35.0939 115.638 34.9212 115.638C34.6863 115.638 34.4704 115.592 34.2735 115.498C34.0766 115.405 33.9194 115.25 33.802 115.032C33.688 114.811 33.631 114.514 33.631 114.141V108.565ZM39.1867 115.638C38.7964 115.638 38.4423 115.573 38.1245 115.441C37.8101 115.307 37.539 115.118 37.311 114.877C37.0864 114.635 36.9137 114.348 36.7928 114.016C36.6719 113.685 36.6115 113.322 36.6115 112.928V112.711C36.6115 112.255 36.6788 111.849 36.8135 111.493C36.9483 111.134 37.1314 110.83 37.3628 110.581C37.5942 110.332 37.8568 110.144 38.1504 110.016C38.444 109.888 38.748 109.825 39.0624 109.825C39.4631 109.825 39.8085 109.894 40.0987 110.032C40.3923 110.17 40.6324 110.363 40.8189 110.612C41.0055 110.857 41.1437 111.148 41.2335 111.483C41.3233 111.814 41.3682 112.177 41.3682 112.571V113.001H37.1814V112.218H40.4096V112.146C40.3958 111.897 40.344 111.655 40.2541 111.42C40.1678 111.186 40.0296 110.992 39.8396 110.84C39.6496 110.688 39.3905 110.612 39.0624 110.612C38.8447 110.612 38.6444 110.659 38.4613 110.752C38.2782 110.842 38.121 110.977 37.9898 111.156C37.8585 111.336 37.7566 111.555 37.6841 111.814C37.6115 112.073 37.5752 112.372 37.5752 112.711V112.928C37.5752 113.194 37.6115 113.445 37.6841 113.68C37.7601 113.911 37.8689 114.115 38.0105 114.291C38.1556 114.467 38.33 114.605 38.5338 114.706C38.7411 114.806 38.976 114.856 39.2385 114.856C39.5771 114.856 39.8638 114.787 40.0987 114.649C40.3336 114.51 40.5391 114.326 40.7153 114.094L41.2957 114.555C41.1747 114.738 41.021 114.913 40.8345 115.079C40.648 115.244 40.4182 115.379 40.1453 115.483C39.8759 115.586 39.5564 115.638 39.1867 115.638ZM47.5623 114.851C47.7903 114.851 48.001 114.804 48.1945 114.711C48.3879 114.618 48.5468 114.49 48.6712 114.327C48.7955 114.162 48.8664 113.973 48.8836 113.763H49.7956C49.7783 114.094 49.666 114.403 49.4588 114.69C49.255 114.973 48.9873 115.203 48.6556 115.379C48.324 115.552 47.9596 115.638 47.5623 115.638C47.1409 115.638 46.773 115.564 46.4586 115.415C46.1477 115.267 45.8886 115.063 45.6814 114.804C45.4776 114.545 45.3238 114.248 45.2202 113.913C45.12 113.574 45.0699 113.217 45.0699 112.84V112.623C45.0699 112.246 45.12 111.89 45.2202 111.555C45.3238 111.217 45.4776 110.918 45.6814 110.659C45.8886 110.4 46.1477 110.196 46.4586 110.047C46.773 109.899 47.1409 109.825 47.5623 109.825C48.001 109.825 48.3845 109.914 48.7126 110.094C49.0408 110.27 49.2982 110.512 49.4847 110.819C49.6747 111.123 49.7783 111.469 49.7956 111.856H48.8836C48.8664 111.624 48.8007 111.415 48.6867 111.229C48.5762 111.042 48.4242 110.894 48.2307 110.783C48.0407 110.669 47.8179 110.612 47.5623 110.612C47.2687 110.612 47.0217 110.671 46.8213 110.788C46.6244 110.902 46.4673 111.058 46.3498 111.255C46.2358 111.448 46.1529 111.664 46.1011 111.902C46.0527 112.137 46.0285 112.377 46.0285 112.623V112.84C46.0285 113.085 46.0527 113.327 46.1011 113.566C46.1495 113.804 46.2306 114.02 46.3446 114.213C46.4621 114.407 46.6193 114.562 46.8162 114.68C47.0165 114.794 47.2652 114.851 47.5623 114.851ZM50.719 112.794V112.674C50.719 112.27 50.7777 111.895 50.8951 111.55C51.0126 111.201 51.1818 110.899 51.4029 110.643C51.624 110.384 51.8917 110.184 52.2061 110.042C52.5204 109.897 52.8728 109.825 53.2631 109.825C53.6569 109.825 54.011 109.897 54.3254 110.042C54.6432 110.184 54.9126 110.384 55.1337 110.643C55.3582 110.899 55.5292 111.201 55.6467 111.55C55.7641 111.895 55.8229 112.27 55.8229 112.674V112.794C55.8229 113.198 55.7641 113.573 55.6467 113.918C55.5292 114.263 55.3582 114.566 55.1337 114.825C54.9126 115.08 54.6449 115.281 54.3305 115.426C54.0196 115.567 53.6673 115.638 53.2735 115.638C52.8797 115.638 52.5256 115.567 52.2113 115.426C51.8969 115.281 51.6275 115.08 51.4029 114.825C51.1818 114.566 51.0126 114.263 50.8951 113.918C50.7777 113.573 50.719 113.198 50.719 112.794ZM51.6776 112.674V112.794C51.6776 113.073 51.7104 113.338 51.776 113.586C51.8416 113.832 51.9401 114.049 52.0714 114.239C52.2061 114.429 52.3736 114.58 52.574 114.69C52.7743 114.797 53.0075 114.851 53.2735 114.851C53.536 114.851 53.7657 114.797 53.9627 114.69C54.163 114.58 54.3288 114.429 54.4601 114.239C54.5914 114.049 54.6898 113.832 54.7554 113.586C54.8245 113.338 54.8591 113.073 54.8591 112.794V112.674C54.8591 112.398 54.8245 112.137 54.7554 111.892C54.6898 111.643 54.5896 111.424 54.4549 111.234C54.3236 111.04 54.1578 110.888 53.9575 110.778C53.7606 110.667 53.5291 110.612 53.2631 110.612C53.0006 110.612 52.7692 110.667 52.5688 110.778C52.3719 110.888 52.2061 111.04 52.0714 111.234C51.9401 111.424 51.8416 111.643 51.776 111.892C51.7104 112.137 51.6776 112.398 51.6776 112.674ZM57.1193 107.576H58.0831V114.447L58.0002 115.535H57.1193V107.576ZM61.8708 112.685V112.794C61.8708 113.201 61.8225 113.579 61.7258 113.928C61.629 114.274 61.4874 114.574 61.3009 114.83C61.1143 115.086 60.8863 115.284 60.6169 115.426C60.3474 115.567 60.0383 115.638 59.6894 115.638C59.3336 115.638 59.021 115.578 58.7515 115.457C58.4855 115.333 58.261 115.155 58.0779 114.923C57.8948 114.692 57.748 114.412 57.6375 114.084C57.5304 113.756 57.4561 113.386 57.4146 112.975V112.498C57.4561 112.084 57.5304 111.712 57.6375 111.384C57.748 111.056 57.8948 110.776 58.0779 110.545C58.261 110.31 58.4855 110.132 58.7515 110.011C59.0175 109.887 59.3267 109.825 59.679 109.825C60.0314 109.825 60.344 109.894 60.6169 110.032C60.8898 110.167 61.1178 110.36 61.3009 110.612C61.4874 110.864 61.629 111.167 61.7258 111.519C61.8225 111.868 61.8708 112.256 61.8708 112.685ZM60.9071 112.794V112.685C60.9071 112.405 60.8812 112.142 60.8293 111.897C60.7775 111.648 60.6946 111.431 60.5806 111.244C60.4666 111.054 60.3164 110.906 60.1298 110.799C59.9433 110.688 59.7136 110.633 59.4407 110.633C59.1989 110.633 58.9881 110.674 58.8085 110.757C58.6323 110.84 58.4821 110.952 58.3577 111.094C58.2333 111.232 58.1314 111.391 58.052 111.571C57.976 111.747 57.919 111.93 57.881 112.12V113.369C57.9363 113.611 58.0261 113.844 58.1504 114.068C58.2783 114.289 58.4475 114.471 58.6582 114.612C58.8724 114.754 59.1367 114.825 59.451 114.825C59.7101 114.825 59.9312 114.773 60.1143 114.669C60.3008 114.562 60.4511 114.415 60.5651 114.229C60.6825 114.042 60.7689 113.826 60.8242 113.581C60.8794 113.336 60.9071 113.073 60.9071 112.794ZM64.1414 110.809V115.535H63.1828V109.928H64.1155L64.1414 110.809ZM65.8928 109.897L65.8876 110.788C65.8082 110.771 65.7322 110.761 65.6597 110.757C65.5906 110.75 65.5111 110.747 65.4213 110.747C65.2002 110.747 65.005 110.781 64.8358 110.85C64.6665 110.92 64.5231 111.016 64.4057 111.141C64.2882 111.265 64.195 111.414 64.1259 111.586C64.0603 111.756 64.0171 111.942 63.9963 112.146L63.7269 112.301C63.7269 111.963 63.7597 111.645 63.8254 111.348C63.8944 111.051 63.9998 110.788 64.1414 110.56C64.2831 110.329 64.4627 110.149 64.6803 110.021C64.9014 109.89 65.1639 109.825 65.4679 109.825C65.537 109.825 65.6165 109.833 65.7063 109.85C65.7961 109.864 65.8583 109.88 65.8928 109.897ZM69.977 114.576V111.69C69.977 111.469 69.9321 111.277 69.8423 111.115C69.7559 110.949 69.6246 110.821 69.4485 110.731C69.2723 110.641 69.0547 110.597 68.7956 110.597C68.5538 110.597 68.3413 110.638 68.1582 110.721C67.9786 110.804 67.837 110.913 67.7333 111.047C67.6332 111.182 67.5831 111.327 67.5831 111.483H66.6245C66.6245 111.282 66.6763 111.084 66.7799 110.887C66.8836 110.69 67.0321 110.512 67.2255 110.353C67.4224 110.191 67.6573 110.063 67.9302 109.97C68.2066 109.873 68.514 109.825 68.8526 109.825C69.2602 109.825 69.6194 109.894 69.9303 110.032C70.2447 110.17 70.49 110.379 70.6661 110.659C70.8458 110.935 70.9356 111.282 70.9356 111.7V114.312C70.9356 114.498 70.9511 114.697 70.9822 114.908C71.0168 115.118 71.0668 115.3 71.1325 115.452V115.535H70.1324C70.0841 115.424 70.0461 115.277 70.0184 115.094C69.9908 114.908 69.977 114.735 69.977 114.576ZM70.1428 112.136L70.1532 112.809H69.1842C68.9113 112.809 68.6678 112.832 68.4536 112.876C68.2394 112.918 68.0598 112.982 67.9147 113.068C67.7696 113.155 67.6591 113.263 67.5831 113.395C67.5071 113.522 67.4691 113.673 67.4691 113.845C67.4691 114.022 67.5088 114.182 67.5883 114.327C67.6677 114.472 67.7869 114.588 67.9458 114.675C68.1081 114.757 68.3068 114.799 68.5417 114.799C68.8353 114.799 69.0944 114.737 69.3189 114.612C69.5435 114.488 69.7214 114.336 69.8526 114.156C69.9873 113.977 70.0599 113.802 70.0702 113.633L70.4796 114.094C70.4554 114.239 70.3898 114.4 70.2827 114.576C70.1756 114.752 70.0323 114.922 69.8526 115.084C69.6764 115.243 69.4657 115.376 69.2205 115.483C68.9787 115.586 68.7058 115.638 68.4018 115.638C68.0218 115.638 67.6884 115.564 67.4017 115.415C67.1185 115.267 66.8974 115.068 66.7385 114.82C66.583 114.567 66.5053 114.286 66.5053 113.975C66.5053 113.674 66.564 113.41 66.6815 113.182C66.7989 112.951 66.9682 112.759 67.1893 112.607C67.4103 112.452 67.6763 112.334 67.9872 112.255C68.2981 112.175 68.6453 112.136 69.0287 112.136H70.1428ZM73.5015 110.809V115.535H72.5429V109.928H73.4756L73.5015 110.809ZM75.2529 109.897L75.2477 110.788C75.1683 110.771 75.0923 110.761 75.0197 110.757C74.9506 110.75 74.8712 110.747 74.7814 110.747C74.5603 110.747 74.3651 110.781 74.1959 110.85C74.0266 110.92 73.8832 111.016 73.7658 111.141C73.6483 111.265 73.5551 111.414 73.486 111.586C73.4203 111.756 73.3772 111.942 73.3564 112.146L73.087 112.301C73.087 111.963 73.1198 111.645 73.1854 111.348C73.2545 111.051 73.3599 110.788 73.5015 110.56C73.6431 110.329 73.8228 110.149 74.0404 110.021C74.2615 109.89 74.524 109.825 74.828 109.825C74.8971 109.825 74.9766 109.833 75.0664 109.85C75.1562 109.864 75.2184 109.88 75.2529 109.897ZM78.4614 115.638C78.071 115.638 77.7169 115.573 77.3991 115.441C77.0848 115.307 76.8136 115.118 76.5856 114.877C76.3611 114.635 76.1884 114.348 76.0675 114.016C75.9466 113.685 75.8861 113.322 75.8861 112.928V112.711C75.8861 112.255 75.9535 111.849 76.0882 111.493C76.2229 111.134 76.406 110.83 76.6374 110.581C76.8689 110.332 77.1314 110.144 77.425 110.016C77.7187 109.888 78.0227 109.825 78.337 109.825C78.7377 109.825 79.0832 109.894 79.3733 110.032C79.667 110.17 79.907 110.363 80.0936 110.612C80.2801 110.857 80.4183 111.148 80.5081 111.483C80.5979 111.814 80.6428 112.177 80.6428 112.571V113.001H76.4561V112.218H79.6842V112.146C79.6704 111.897 79.6186 111.655 79.5288 111.42C79.4424 111.186 79.3042 110.992 79.1143 110.84C78.9243 110.688 78.6652 110.612 78.337 110.612C78.1194 110.612 77.919 110.659 77.7359 110.752C77.5529 110.842 77.3957 110.977 77.2644 111.156C77.1331 111.336 77.0312 111.555 76.9587 111.814C76.8862 112.073 76.8499 112.372 76.8499 112.711V112.928C76.8499 113.194 76.8862 113.445 76.9587 113.68C77.0347 113.911 77.1435 114.115 77.2851 114.291C77.4302 114.467 77.6047 114.605 77.8085 114.706C78.0158 114.806 78.2507 114.856 78.5132 114.856C78.8517 114.856 79.1384 114.787 79.3733 114.649C79.6082 114.51 79.8138 114.326 79.99 114.094L80.5703 114.555C80.4494 114.738 80.2957 114.913 80.1091 115.079C79.9226 115.244 79.6929 115.379 79.42 115.483C79.1505 115.586 78.831 115.638 78.4614 115.638ZM82.815 111.042V115.535H81.8512V109.928H82.7632L82.815 111.042ZM82.6181 112.519L82.1724 112.503C82.1759 112.12 82.226 111.766 82.3227 111.441C82.4194 111.113 82.5628 110.828 82.7528 110.586C82.9428 110.344 83.1794 110.158 83.4627 110.027C83.7459 109.892 84.0741 109.825 84.4472 109.825C84.7097 109.825 84.9515 109.863 85.1726 109.939C85.3937 110.011 85.5854 110.127 85.7478 110.286C85.9101 110.445 86.0362 110.648 86.126 110.897C86.2158 111.146 86.2608 111.446 86.2608 111.799V115.535H85.3022V111.845C85.3022 111.552 85.2521 111.317 85.1519 111.141C85.0552 110.964 84.917 110.837 84.7374 110.757C84.5577 110.674 84.347 110.633 84.1052 110.633C83.8219 110.633 83.5853 110.683 83.3953 110.783C83.2053 110.883 83.0533 111.021 82.9393 111.198C82.8253 111.374 82.7424 111.576 82.6906 111.804C82.6423 112.028 82.6181 112.267 82.6181 112.519ZM86.2504 111.99L85.6079 112.187C85.6113 111.88 85.6614 111.585 85.7581 111.301C85.8583 111.018 86.0017 110.766 86.1882 110.545C86.3782 110.324 86.6114 110.149 86.8877 110.021C87.1641 109.89 87.4802 109.825 87.836 109.825C88.1365 109.825 88.4025 109.864 88.6339 109.944C88.8688 110.023 89.0657 110.146 89.2246 110.312C89.387 110.474 89.5096 110.683 89.5925 110.939C89.6754 111.194 89.7169 111.498 89.7169 111.851V115.535H88.7531V111.84C88.7531 111.526 88.703 111.282 88.6028 111.11C88.5061 110.933 88.3679 110.811 88.1883 110.742C88.0121 110.669 87.8014 110.633 87.5562 110.633C87.3454 110.633 87.1589 110.669 86.9965 110.742C86.8342 110.814 86.6977 110.914 86.5872 111.042C86.4767 111.167 86.392 111.31 86.3333 111.472C86.278 111.635 86.2504 111.807 86.2504 111.99ZM91.0133 112.794V112.674C91.0133 112.27 91.0721 111.895 91.1895 111.55C91.307 111.201 91.4762 110.899 91.6973 110.643C91.9184 110.384 92.1861 110.184 92.5005 110.042C92.8148 109.897 93.1672 109.825 93.5575 109.825C93.9513 109.825 94.3054 109.897 94.6197 110.042C94.9376 110.184 95.207 110.384 95.4281 110.643C95.6526 110.899 95.8236 111.201 95.9411 111.55C96.0585 111.895 96.1172 112.27 96.1172 112.674V112.794C96.1172 113.198 96.0585 113.573 95.9411 113.918C95.8236 114.263 95.6526 114.566 95.4281 114.825C95.207 115.08 94.9393 115.281 94.6249 115.426C94.314 115.567 93.9617 115.638 93.5679 115.638C93.1741 115.638 92.82 115.567 92.5056 115.426C92.1913 115.281 91.9218 115.08 91.6973 114.825C91.4762 114.566 91.307 114.263 91.1895 113.918C91.0721 113.573 91.0133 113.198 91.0133 112.794ZM91.9719 112.674V112.794C91.9719 113.073 92.0048 113.338 92.0704 113.586C92.136 113.832 92.2345 114.049 92.3657 114.239C92.5005 114.429 92.668 114.58 92.8684 114.69C93.0687 114.797 93.3019 114.851 93.5679 114.851C93.8304 114.851 94.0601 114.797 94.257 114.69C94.4574 114.58 94.6232 114.429 94.7545 114.239C94.8857 114.049 94.9842 113.832 95.0498 113.586C95.1189 113.338 95.1535 113.073 95.1535 112.794V112.674C95.1535 112.398 95.1189 112.137 95.0498 111.892C94.9842 111.643 94.884 111.424 94.7493 111.234C94.618 111.04 94.4522 110.888 94.2519 110.778C94.055 110.667 93.8235 110.612 93.5575 110.612C93.295 110.612 93.0635 110.667 92.8632 110.778C92.6663 110.888 92.5005 111.04 92.3657 111.234C92.2345 111.424 92.136 111.643 92.0704 111.892C92.0048 112.137 91.9719 112.398 91.9719 112.674ZM100.683 114.048C100.683 113.909 100.652 113.782 100.59 113.664C100.531 113.543 100.409 113.434 100.222 113.338C100.039 113.237 99.7627 113.151 99.3931 113.079C99.0822 113.013 98.8006 112.935 98.5485 112.845C98.2997 112.756 98.0873 112.647 97.9111 112.519C97.7384 112.391 97.6054 112.241 97.5121 112.068C97.4189 111.895 97.3722 111.693 97.3722 111.462C97.3722 111.241 97.4206 111.032 97.5173 110.835C97.6175 110.638 97.7574 110.464 97.937 110.312C98.1201 110.16 98.3395 110.04 98.5951 109.954C98.8507 109.868 99.1357 109.825 99.4501 109.825C99.8991 109.825 100.283 109.904 100.6 110.063C100.918 110.222 101.162 110.434 101.331 110.7C101.5 110.963 101.585 111.255 101.585 111.576H100.626C100.626 111.42 100.58 111.27 100.486 111.125C100.397 110.977 100.264 110.854 100.087 110.757C99.9147 110.66 99.7022 110.612 99.4501 110.612C99.1841 110.612 98.9682 110.654 98.8024 110.736C98.64 110.816 98.5208 110.918 98.4448 111.042C98.3723 111.167 98.336 111.298 98.336 111.436C98.336 111.54 98.3533 111.633 98.3878 111.716C98.4258 111.795 98.4915 111.87 98.5847 111.939C98.678 112.004 98.8093 112.066 98.9785 112.125C99.1478 112.184 99.3637 112.243 99.6262 112.301C100.086 112.405 100.464 112.529 100.761 112.674C101.058 112.819 101.279 112.997 101.424 113.208C101.569 113.419 101.642 113.674 101.642 113.975C101.642 114.22 101.59 114.445 101.486 114.649C101.386 114.852 101.239 115.029 101.046 115.177C100.856 115.322 100.628 115.436 100.362 115.519C100.099 115.599 99.8041 115.638 99.476 115.638C98.982 115.638 98.564 115.55 98.222 115.374C97.88 115.198 97.6209 114.97 97.4448 114.69C97.2686 114.41 97.1805 114.115 97.1805 113.804H98.1443C98.1581 114.067 98.2341 114.276 98.3723 114.431C98.5105 114.583 98.6797 114.692 98.8801 114.757C99.0804 114.82 99.2791 114.851 99.476 114.851C99.7385 114.851 99.9579 114.816 100.134 114.747C100.314 114.678 100.45 114.583 100.543 114.462C100.637 114.341 100.683 114.203 100.683 114.048ZM107.976 114.851C108.204 114.851 108.415 114.804 108.608 114.711C108.802 114.618 108.96 114.49 109.085 114.327C109.209 114.162 109.28 113.973 109.297 113.763H110.209C110.192 114.094 110.08 114.403 109.872 114.69C109.669 114.973 109.401 115.203 109.069 115.379C108.738 115.552 108.373 115.638 107.976 115.638C107.554 115.638 107.187 115.564 106.872 115.415C106.561 115.267 106.302 115.063 106.095 114.804C105.891 114.545 105.737 114.248 105.634 113.913C105.534 113.574 105.484 113.217 105.484 112.84V112.623C105.484 112.246 105.534 111.89 105.634 111.555C105.737 111.217 105.891 110.918 106.095 110.659C106.302 110.4 106.561 110.196 106.872 110.047C107.187 109.899 107.554 109.825 107.976 109.825C108.415 109.825 108.798 109.914 109.126 110.094C109.454 110.27 109.712 110.512 109.898 110.819C110.088 111.123 110.192 111.469 110.209 111.856H109.297C109.28 111.624 109.214 111.415 109.1 111.229C108.99 111.042 108.838 110.894 108.644 110.783C108.454 110.669 108.232 110.612 107.976 110.612C107.682 110.612 107.435 110.671 107.235 110.788C107.038 110.902 106.881 111.058 106.763 111.255C106.649 111.448 106.566 111.664 106.515 111.902C106.466 112.137 106.442 112.377 106.442 112.623V112.84C106.442 113.085 106.466 113.327 106.515 113.566C106.563 113.804 106.644 114.02 106.758 114.213C106.876 114.407 107.033 114.562 107.23 114.68C107.43 114.794 107.679 114.851 107.976 114.851ZM111.133 112.794V112.674C111.133 112.27 111.191 111.895 111.309 111.55C111.426 111.201 111.595 110.899 111.817 110.643C112.038 110.384 112.305 110.184 112.62 110.042C112.934 109.897 113.286 109.825 113.677 109.825C114.071 109.825 114.425 109.897 114.739 110.042C115.057 110.184 115.326 110.384 115.547 110.643C115.772 110.899 115.943 111.201 116.06 111.55C116.178 111.895 116.236 112.27 116.236 112.674V112.794C116.236 113.198 116.178 113.573 116.06 113.918C115.943 114.263 115.772 114.566 115.547 114.825C115.326 115.08 115.058 115.281 114.744 115.426C114.433 115.567 114.081 115.638 113.687 115.638C113.293 115.638 112.939 115.567 112.625 115.426C112.311 115.281 112.041 115.08 111.817 114.825C111.595 114.566 111.426 114.263 111.309 113.918C111.191 113.573 111.133 113.198 111.133 112.794ZM112.091 112.674V112.794C112.091 113.073 112.124 113.338 112.19 113.586C112.255 113.832 112.354 114.049 112.485 114.239C112.62 114.429 112.787 114.58 112.988 114.69C113.188 114.797 113.421 114.851 113.687 114.851C113.95 114.851 114.179 114.797 114.376 114.69C114.577 114.58 114.742 114.429 114.874 114.239C115.005 114.049 115.103 113.832 115.169 113.586C115.238 113.338 115.273 113.073 115.273 112.794V112.674C115.273 112.398 115.238 112.137 115.169 111.892C115.103 111.643 115.003 111.424 114.868 111.234C114.737 111.04 114.571 110.888 114.371 110.778C114.174 110.667 113.943 110.612 113.677 110.612C113.414 110.612 113.183 110.667 112.982 110.778C112.785 110.888 112.62 111.04 112.485 111.234C112.354 111.424 112.255 111.643 112.19 111.892C112.124 112.137 112.091 112.398 112.091 112.674ZM118.491 111.042V115.535H117.528V109.928H118.44L118.491 111.042ZM118.295 112.519L117.849 112.503C117.852 112.12 117.903 111.766 117.999 111.441C118.096 111.113 118.239 110.828 118.429 110.586C118.619 110.344 118.856 110.158 119.139 110.027C119.422 109.892 119.751 109.825 120.124 109.825C120.386 109.825 120.628 109.863 120.849 109.939C121.07 110.011 121.262 110.127 121.424 110.286C121.587 110.445 121.713 110.648 121.803 110.897C121.892 111.146 121.937 111.446 121.937 111.799V115.535H120.979V111.845C120.979 111.552 120.929 111.317 120.828 111.141C120.732 110.964 120.593 110.837 120.414 110.757C120.234 110.674 120.024 110.633 119.782 110.633C119.498 110.633 119.262 110.683 119.072 110.783C118.882 110.883 118.73 111.021 118.616 111.198C118.502 111.374 118.419 111.576 118.367 111.804C118.319 112.028 118.295 112.267 118.295 112.519ZM121.927 111.99L121.284 112.187C121.288 111.88 121.338 111.585 121.435 111.301C121.535 111.018 121.678 110.766 121.865 110.545C122.055 110.324 122.288 110.149 122.564 110.021C122.841 109.89 123.157 109.825 123.512 109.825C123.813 109.825 124.079 109.864 124.31 109.944C124.545 110.023 124.742 110.146 124.901 110.312C125.064 110.474 125.186 110.683 125.269 110.939C125.352 111.194 125.393 111.498 125.393 111.851V115.535H124.43V111.84C124.43 111.526 124.38 111.282 124.279 111.11C124.183 110.933 124.044 110.811 123.865 110.742C123.689 110.669 123.478 110.633 123.233 110.633C123.022 110.633 122.835 110.669 122.673 110.742C122.511 110.814 122.374 110.914 122.264 111.042C122.153 111.167 122.069 111.31 122.01 111.472C121.955 111.635 121.927 111.807 121.927 111.99ZM127.985 109.928V115.535H127.021V109.928H127.985ZM126.949 108.441C126.949 108.286 126.996 108.154 127.089 108.047C127.186 107.94 127.327 107.887 127.514 107.887C127.697 107.887 127.837 107.94 127.933 108.047C128.034 108.154 128.084 108.286 128.084 108.441C128.084 108.59 128.034 108.717 127.933 108.824C127.837 108.928 127.697 108.98 127.514 108.98C127.327 108.98 127.186 108.928 127.089 108.824C126.996 108.717 126.949 108.59 126.949 108.441ZM132.888 114.048C132.888 113.909 132.857 113.782 132.795 113.664C132.736 113.543 132.613 113.434 132.427 113.338C132.244 113.237 131.968 113.151 131.598 113.079C131.287 113.013 131.005 112.935 130.753 112.845C130.505 112.756 130.292 112.647 130.116 112.519C129.943 112.391 129.81 112.241 129.717 112.068C129.624 111.895 129.577 111.693 129.577 111.462C129.577 111.241 129.625 111.032 129.722 110.835C129.822 110.638 129.962 110.464 130.142 110.312C130.325 110.16 130.544 110.04 130.8 109.954C131.056 109.868 131.341 109.825 131.655 109.825C132.104 109.825 132.487 109.904 132.805 110.063C133.123 110.222 133.367 110.434 133.536 110.7C133.705 110.963 133.79 111.255 133.79 111.576H132.831C132.831 111.42 132.784 111.27 132.691 111.125C132.601 110.977 132.468 110.854 132.292 110.757C132.12 110.66 131.907 110.612 131.655 110.612C131.389 110.612 131.173 110.654 131.007 110.736C130.845 110.816 130.726 110.918 130.65 111.042C130.577 111.167 130.541 111.298 130.541 111.436C130.541 111.54 130.558 111.633 130.593 111.716C130.631 111.795 130.696 111.87 130.79 111.939C130.883 112.004 131.014 112.066 131.183 112.125C131.353 112.184 131.569 112.243 131.831 112.301C132.29 112.405 132.669 112.529 132.966 112.674C133.263 112.819 133.484 112.997 133.629 113.208C133.774 113.419 133.847 113.674 133.847 113.975C133.847 114.22 133.795 114.445 133.691 114.649C133.591 114.852 133.444 115.029 133.251 115.177C133.061 115.322 132.833 115.436 132.567 115.519C132.304 115.599 132.009 115.638 131.681 115.638C131.187 115.638 130.769 115.55 130.427 115.374C130.085 115.198 129.826 114.97 129.65 114.69C129.473 114.41 129.385 114.115 129.385 113.804H130.349C130.363 114.067 130.439 114.276 130.577 114.431C130.715 114.583 130.885 114.692 131.085 114.757C131.285 114.82 131.484 114.851 131.681 114.851C131.943 114.851 132.163 114.816 132.339 114.747C132.518 114.678 132.655 114.583 132.748 114.462C132.841 114.341 132.888 114.203 132.888 114.048ZM136.247 109.928V115.535H135.283V109.928H136.247ZM135.211 108.441C135.211 108.286 135.257 108.154 135.35 108.047C135.447 107.94 135.589 107.887 135.775 107.887C135.958 107.887 136.098 107.94 136.195 108.047C136.295 108.154 136.345 108.286 136.345 108.441C136.345 108.59 136.295 108.717 136.195 108.824C136.098 108.928 135.958 108.98 135.775 108.98C135.589 108.98 135.447 108.928 135.35 108.824C135.257 108.717 135.211 108.59 135.211 108.441ZM137.631 112.794V112.674C137.631 112.27 137.69 111.895 137.808 111.55C137.925 111.201 138.094 110.899 138.315 110.643C138.536 110.384 138.804 110.184 139.118 110.042C139.433 109.897 139.785 109.825 140.176 109.825C140.569 109.825 140.923 109.897 141.238 110.042C141.556 110.184 141.825 110.384 142.046 110.643C142.271 110.899 142.442 111.201 142.559 111.55C142.677 111.895 142.735 112.27 142.735 112.674V112.794C142.735 113.198 142.677 113.573 142.559 113.918C142.442 114.263 142.271 114.566 142.046 114.825C141.825 115.08 141.557 115.281 141.243 115.426C140.932 115.567 140.58 115.638 140.186 115.638C139.792 115.638 139.438 115.567 139.124 115.426C138.809 115.281 138.54 115.08 138.315 114.825C138.094 114.566 137.925 114.263 137.808 113.918C137.69 113.573 137.631 113.198 137.631 112.794ZM138.59 112.674V112.794C138.59 113.073 138.623 113.338 138.688 113.586C138.754 113.832 138.853 114.049 138.984 114.239C139.118 114.429 139.286 114.58 139.486 114.69C139.687 114.797 139.92 114.851 140.186 114.851C140.448 114.851 140.678 114.797 140.875 114.69C141.075 114.58 141.241 114.429 141.373 114.239C141.504 114.049 141.602 113.832 141.668 113.586C141.737 113.338 141.771 113.073 141.771 112.794V112.674C141.771 112.398 141.737 112.137 141.668 111.892C141.602 111.643 141.502 111.424 141.367 111.234C141.236 111.04 141.07 110.888 140.87 110.778C140.673 110.667 140.442 110.612 140.176 110.612C139.913 110.612 139.682 110.667 139.481 110.778C139.284 110.888 139.118 111.04 138.984 111.234C138.853 111.424 138.754 111.643 138.688 111.892C138.623 112.137 138.59 112.398 138.59 112.674ZM139.606 109.099L140.611 107.576H141.766L140.378 109.099H139.606ZM144.995 111.125V115.535H144.037V109.928H144.944L144.995 111.125ZM144.768 112.519L144.369 112.503C144.372 112.12 144.429 111.766 144.54 111.441C144.65 111.113 144.806 110.828 145.006 110.586C145.206 110.344 145.445 110.158 145.721 110.027C146.001 109.892 146.31 109.825 146.648 109.825C146.925 109.825 147.174 109.863 147.395 109.939C147.616 110.011 147.804 110.129 147.959 110.291C148.118 110.453 148.239 110.664 148.322 110.923C148.405 111.179 148.446 111.491 148.446 111.861V115.535H147.483V111.851C147.483 111.557 147.439 111.322 147.353 111.146C147.267 110.966 147.141 110.837 146.975 110.757C146.809 110.674 146.605 110.633 146.363 110.633C146.125 110.633 145.907 110.683 145.711 110.783C145.517 110.883 145.35 111.021 145.208 111.198C145.07 111.374 144.961 111.576 144.882 111.804C144.806 112.028 144.768 112.267 144.768 112.519ZM155.06 115.638C154.67 115.638 154.316 115.573 153.998 115.441C153.684 115.307 153.413 115.118 153.185 114.877C152.96 114.635 152.787 114.348 152.666 114.016C152.545 113.685 152.485 113.322 152.485 112.928V112.711C152.485 112.255 152.552 111.849 152.687 111.493C152.822 111.134 153.005 110.83 153.236 110.581C153.468 110.332 153.73 110.144 154.024 110.016C154.318 109.888 154.622 109.825 154.936 109.825C155.337 109.825 155.682 109.894 155.972 110.032C156.266 110.17 156.506 110.363 156.692 110.612C156.879 110.857 157.017 111.148 157.107 111.483C157.197 111.814 157.242 112.177 157.242 112.571V113.001H153.055V112.218H156.283V112.146C156.269 111.897 156.218 111.655 156.128 111.42C156.041 111.186 155.903 110.992 155.713 110.84C155.523 110.688 155.264 110.612 154.936 110.612C154.718 110.612 154.518 110.659 154.335 110.752C154.152 110.842 153.995 110.977 153.863 111.156C153.732 111.336 153.63 111.555 153.558 111.814C153.485 112.073 153.449 112.372 153.449 112.711V112.928C153.449 113.194 153.485 113.445 153.558 113.68C153.634 113.911 153.742 114.115 153.884 114.291C154.029 114.467 154.204 114.605 154.407 114.706C154.615 114.806 154.85 114.856 155.112 114.856C155.451 114.856 155.737 114.787 155.972 114.649C156.207 114.51 156.413 114.326 156.589 114.094L157.169 114.555C157.048 114.738 156.895 114.913 156.708 115.079C156.522 115.244 156.292 115.379 156.019 115.483C155.749 115.586 155.43 115.638 155.06 115.638ZM159.419 111.125V115.535H158.46V109.928H159.367L159.419 111.125ZM159.191 112.519L158.792 112.503C158.796 112.12 158.853 111.766 158.963 111.441C159.074 111.113 159.229 110.828 159.429 110.586C159.63 110.344 159.868 110.158 160.144 110.027C160.424 109.892 160.733 109.825 161.072 109.825C161.348 109.825 161.597 109.863 161.818 109.939C162.039 110.011 162.228 110.129 162.383 110.291C162.542 110.453 162.663 110.664 162.746 110.923C162.829 111.179 162.87 111.491 162.87 111.861V115.535H161.906V111.851C161.906 111.557 161.863 111.322 161.777 111.146C161.69 110.966 161.564 110.837 161.398 110.757C161.233 110.674 161.029 110.633 160.787 110.633C160.549 110.633 160.331 110.683 160.134 110.783C159.941 110.883 159.773 111.021 159.632 111.198C159.493 111.374 159.385 111.576 159.305 111.804C159.229 112.028 159.191 112.267 159.191 112.519ZM169.505 109.928V110.664H166.473V109.928H169.505ZM167.499 108.565H168.458V114.146C168.458 114.336 168.487 114.479 168.546 114.576C168.605 114.673 168.681 114.737 168.774 114.768C168.867 114.799 168.967 114.814 169.075 114.814C169.154 114.814 169.237 114.808 169.323 114.794C169.413 114.776 169.48 114.763 169.525 114.752L169.53 115.535C169.454 115.559 169.354 115.581 169.23 115.602C169.109 115.626 168.962 115.638 168.79 115.638C168.555 115.638 168.339 115.592 168.142 115.498C167.945 115.405 167.788 115.25 167.67 115.032C167.556 114.811 167.499 114.514 167.499 114.141V108.565ZM174.159 114.239V109.928H175.122V115.535H174.205L174.159 114.239ZM174.34 113.058L174.739 113.047C174.739 113.421 174.699 113.766 174.62 114.084C174.544 114.398 174.42 114.671 174.247 114.903C174.074 115.134 173.848 115.315 173.568 115.447C173.288 115.574 172.948 115.638 172.547 115.638C172.274 115.638 172.024 115.599 171.796 115.519C171.571 115.44 171.378 115.317 171.216 115.151C171.053 114.985 170.927 114.77 170.837 114.504C170.751 114.238 170.708 113.918 170.708 113.545V109.928H171.666V113.555C171.666 113.807 171.694 114.016 171.749 114.182C171.808 114.345 171.886 114.474 171.982 114.571C172.083 114.664 172.193 114.73 172.314 114.768C172.438 114.806 172.566 114.825 172.697 114.825C173.105 114.825 173.428 114.747 173.666 114.592C173.905 114.433 174.076 114.22 174.179 113.954C174.287 113.685 174.34 113.386 174.34 113.058ZM180.374 111.006V117.69H179.41V109.928H180.291L180.374 111.006ZM184.151 112.685V112.794C184.151 113.201 184.103 113.579 184.006 113.928C183.909 114.274 183.768 114.574 183.581 114.83C183.398 115.086 183.172 115.284 182.902 115.426C182.633 115.567 182.324 115.638 181.975 115.638C181.619 115.638 181.305 115.58 181.032 115.462C180.759 115.345 180.527 115.174 180.337 114.949C180.147 114.725 179.995 114.455 179.881 114.141C179.771 113.826 179.695 113.472 179.653 113.079V112.498C179.695 112.084 179.772 111.712 179.886 111.384C180 111.056 180.151 110.776 180.337 110.545C180.527 110.31 180.757 110.132 181.026 110.011C181.296 109.887 181.607 109.825 181.959 109.825C182.311 109.825 182.624 109.894 182.897 110.032C183.17 110.167 183.4 110.36 183.586 110.612C183.773 110.864 183.913 111.167 184.006 111.519C184.103 111.868 184.151 112.256 184.151 112.685ZM183.187 112.794V112.685C183.187 112.405 183.158 112.142 183.099 111.897C183.04 111.648 182.949 111.431 182.824 111.244C182.704 111.054 182.548 110.906 182.358 110.799C182.168 110.688 181.942 110.633 181.679 110.633C181.438 110.633 181.227 110.674 181.047 110.757C180.871 110.84 180.721 110.952 180.596 111.094C180.472 111.232 180.37 111.391 180.291 111.571C180.215 111.747 180.158 111.93 180.12 112.12V113.462C180.189 113.704 180.285 113.932 180.41 114.146C180.534 114.357 180.7 114.528 180.907 114.659C181.115 114.787 181.375 114.851 181.69 114.851C181.949 114.851 182.172 114.797 182.358 114.69C182.548 114.58 182.704 114.429 182.824 114.239C182.949 114.049 183.04 113.832 183.099 113.586C183.158 113.338 183.187 113.073 183.187 112.794ZM186.432 110.809V115.535H185.473V109.928H186.406L186.432 110.809ZM188.183 109.897L188.178 110.788C188.099 110.771 188.023 110.761 187.95 110.757C187.881 110.75 187.802 110.747 187.712 110.747C187.491 110.747 187.296 110.781 187.126 110.85C186.957 110.92 186.814 111.016 186.696 111.141C186.579 111.265 186.485 111.414 186.416 111.586C186.351 111.756 186.308 111.942 186.287 112.146L186.017 112.301C186.017 111.963 186.05 111.645 186.116 111.348C186.185 111.051 186.29 110.788 186.432 110.56C186.574 110.329 186.753 110.149 186.971 110.021C187.192 109.89 187.454 109.825 187.758 109.825C187.827 109.825 187.907 109.833 187.997 109.85C188.087 109.864 188.149 109.88 188.183 109.897ZM190.21 109.928V115.535H189.247V109.928H190.21ZM189.174 108.441C189.174 108.286 189.221 108.154 189.314 108.047C189.411 107.94 189.552 107.887 189.739 107.887C189.922 107.887 190.062 107.94 190.159 108.047C190.259 108.154 190.309 108.286 190.309 108.441C190.309 108.59 190.259 108.717 190.159 108.824C190.062 108.928 189.922 108.98 189.739 108.98C189.552 108.98 189.411 108.928 189.314 108.824C189.221 108.717 189.174 108.59 189.174 108.441ZM192.802 111.042V115.535H191.838V109.928H192.75L192.802 111.042ZM192.605 112.519L192.16 112.503C192.163 112.12 192.213 111.766 192.31 111.441C192.407 111.113 192.55 110.828 192.74 110.586C192.93 110.344 193.167 110.158 193.45 110.027C193.733 109.892 194.061 109.825 194.434 109.825C194.697 109.825 194.939 109.863 195.16 109.939C195.381 110.011 195.573 110.127 195.735 110.286C195.897 110.445 196.023 110.648 196.113 110.897C196.203 111.146 196.248 111.446 196.248 111.799V115.535H195.289V111.845C195.289 111.552 195.239 111.317 195.139 111.141C195.042 110.964 194.904 110.837 194.725 110.757C194.545 110.674 194.334 110.633 194.092 110.633C193.809 110.633 193.573 110.683 193.383 110.783C193.193 110.883 193.041 111.021 192.927 111.198C192.813 111.374 192.73 111.576 192.678 111.804C192.629 112.028 192.605 112.267 192.605 112.519ZM196.238 111.99L195.595 112.187C195.599 111.88 195.649 111.585 195.745 111.301C195.846 111.018 195.989 110.766 196.175 110.545C196.365 110.324 196.599 110.149 196.875 110.021C197.151 109.89 197.467 109.825 197.823 109.825C198.124 109.825 198.39 109.864 198.621 109.944C198.856 110.023 199.053 110.146 199.212 110.312C199.374 110.474 199.497 110.683 199.58 110.939C199.663 111.194 199.704 111.498 199.704 111.851V115.535H198.74V111.84C198.74 111.526 198.69 111.282 198.59 111.11C198.493 110.933 198.355 110.811 198.176 110.742C197.999 110.669 197.789 110.633 197.543 110.633C197.333 110.633 197.146 110.669 196.984 110.742C196.821 110.814 196.685 110.914 196.574 111.042C196.464 111.167 196.379 111.31 196.321 111.472C196.265 111.635 196.238 111.807 196.238 111.99ZM203.581 115.638C203.191 115.638 202.837 115.573 202.519 115.441C202.204 115.307 201.933 115.118 201.705 114.877C201.481 114.635 201.308 114.348 201.187 114.016C201.066 113.685 201.006 113.322 201.006 112.928V112.711C201.006 112.255 201.073 111.849 201.208 111.493C201.343 111.134 201.526 110.83 201.757 110.581C201.989 110.332 202.251 110.144 202.545 110.016C202.838 109.888 203.142 109.825 203.457 109.825C203.857 109.825 204.203 109.894 204.493 110.032C204.787 110.17 205.027 110.363 205.213 110.612C205.4 110.857 205.538 111.148 205.628 111.483C205.718 111.814 205.762 112.177 205.762 112.571V113.001H201.576V112.218H204.804V112.146C204.79 111.897 204.738 111.655 204.648 111.42C204.562 111.186 204.424 110.992 204.234 110.84C204.044 110.688 203.785 110.612 203.457 110.612C203.239 110.612 203.039 110.659 202.856 110.752C202.672 110.842 202.515 110.977 202.384 111.156C202.253 111.336 202.151 111.555 202.078 111.814C202.006 112.073 201.97 112.372 201.97 112.711V112.928C201.97 113.194 202.006 113.445 202.078 113.68C202.154 113.911 202.263 114.115 202.405 114.291C202.55 114.467 202.724 114.605 202.928 114.706C203.135 114.806 203.37 114.856 203.633 114.856C203.971 114.856 204.258 114.787 204.493 114.649C204.728 114.51 204.933 114.326 205.11 114.094L205.69 114.555C205.569 114.738 205.415 114.913 205.229 115.079C205.042 115.244 204.813 115.379 204.54 115.483C204.27 115.586 203.951 115.638 203.581 115.638ZM207.94 110.809V115.535H206.981V109.928H207.914L207.94 110.809ZM209.691 109.897L209.686 110.788C209.607 110.771 209.531 110.761 209.458 110.757C209.389 110.75 209.309 110.747 209.22 110.747C208.999 110.747 208.803 110.781 208.634 110.85C208.465 110.92 208.322 111.016 208.204 111.141C208.087 111.265 207.993 111.414 207.924 111.586C207.859 111.756 207.815 111.942 207.795 112.146L207.525 112.301C207.525 111.963 207.558 111.645 207.624 111.348C207.693 111.051 207.798 110.788 207.94 110.56C208.081 110.329 208.261 110.149 208.479 110.021C208.7 109.89 208.962 109.825 209.266 109.825C209.335 109.825 209.415 109.833 209.505 109.85C209.594 109.864 209.657 109.88 209.691 109.897ZM215.735 115.638C215.345 115.638 214.991 115.573 214.673 115.441C214.358 115.307 214.087 115.118 213.859 114.877C213.635 114.635 213.462 114.348 213.341 114.016C213.22 113.685 213.16 113.322 213.16 112.928V112.711C213.16 112.255 213.227 111.849 213.362 111.493C213.497 111.134 213.68 110.83 213.911 110.581C214.143 110.332 214.405 110.144 214.699 110.016C214.992 109.888 215.296 109.825 215.611 109.825C216.011 109.825 216.357 109.894 216.647 110.032C216.941 110.17 217.181 110.363 217.367 110.612C217.554 110.857 217.692 111.148 217.782 111.483C217.872 111.814 217.916 112.177 217.916 112.571V113.001H213.73V112.218H216.958V112.146C216.944 111.897 216.892 111.655 216.802 111.42C216.716 111.186 216.578 110.992 216.388 110.84C216.198 110.688 215.939 110.612 215.611 110.612C215.393 110.612 215.193 110.659 215.01 110.752C214.827 110.842 214.669 110.977 214.538 111.156C214.407 111.336 214.305 111.555 214.232 111.814C214.16 112.073 214.124 112.372 214.124 112.711V112.928C214.124 113.194 214.16 113.445 214.232 113.68C214.308 113.911 214.417 114.115 214.559 114.291C214.704 114.467 214.878 114.605 215.082 114.706C215.289 114.806 215.524 114.856 215.787 114.856C216.125 114.856 216.412 114.787 216.647 114.649C216.882 114.51 217.087 114.326 217.264 114.094L217.844 114.555C217.723 114.738 217.569 114.913 217.383 115.079C217.196 115.244 216.967 115.379 216.694 115.483C216.424 115.586 216.105 115.638 215.735 115.638ZM220.094 111.125V115.535H219.135V109.928H220.042L220.094 111.125ZM219.866 112.519L219.467 112.503C219.47 112.12 219.527 111.766 219.638 111.441C219.748 111.113 219.904 110.828 220.104 110.586C220.305 110.344 220.543 110.158 220.819 110.027C221.099 109.892 221.408 109.825 221.747 109.825C222.023 109.825 222.272 109.863 222.493 109.939C222.714 110.011 222.902 110.129 223.058 110.291C223.217 110.453 223.338 110.664 223.42 110.923C223.503 111.179 223.545 111.491 223.545 111.861V115.535H222.581V111.851C222.581 111.557 222.538 111.322 222.451 111.146C222.365 110.966 222.239 110.837 222.073 110.757C221.907 110.674 221.704 110.633 221.462 110.633C221.223 110.633 221.006 110.683 220.809 110.783C220.615 110.883 220.448 111.021 220.306 111.198C220.168 111.374 220.059 111.576 219.98 111.804C219.904 112.028 219.866 112.267 219.866 112.519ZM226.805 114.669L228.339 109.928H229.318L227.302 115.535H226.66L226.805 114.669ZM225.525 109.928L227.106 114.695L227.214 115.535H226.572L224.541 109.928H225.525ZM231.376 109.928V115.535H230.418V109.928H231.376ZM230.387 109.109L231.392 107.586H232.547L231.159 109.109H230.387ZM232.818 112.794V112.674C232.818 112.27 232.877 111.895 232.994 111.55C233.111 111.201 233.281 110.899 233.502 110.643C233.723 110.384 233.991 110.184 234.305 110.042C234.619 109.897 234.972 109.825 235.362 109.825C235.756 109.825 236.11 109.897 236.424 110.042C236.742 110.184 237.011 110.384 237.233 110.643C237.457 110.899 237.628 111.201 237.746 111.55C237.863 111.895 237.922 112.27 237.922 112.674V112.794C237.922 113.198 237.863 113.573 237.746 113.918C237.628 114.263 237.457 114.566 237.233 114.825C237.011 115.08 236.744 115.281 236.429 115.426C236.118 115.567 235.766 115.638 235.372 115.638C234.979 115.638 234.624 115.567 234.31 115.426C233.996 115.281 233.726 115.08 233.502 114.825C233.281 114.566 233.111 114.263 232.994 113.918C232.877 113.573 232.818 113.198 232.818 112.794ZM233.776 112.674V112.794C233.776 113.073 233.809 113.338 233.875 113.586C233.94 113.832 234.039 114.049 234.17 114.239C234.305 114.429 234.472 114.58 234.673 114.69C234.873 114.797 235.106 114.851 235.372 114.851C235.635 114.851 235.865 114.797 236.062 114.69C236.262 114.58 236.428 114.429 236.559 114.239C236.69 114.049 236.789 113.832 236.854 113.586C236.923 113.338 236.958 113.073 236.958 112.794V112.674C236.958 112.398 236.923 112.137 236.854 111.892C236.789 111.643 236.688 111.424 236.554 111.234C236.422 111.04 236.257 110.888 236.056 110.778C235.859 110.667 235.628 110.612 235.362 110.612C235.099 110.612 234.868 110.667 234.668 110.778C234.471 110.888 234.305 111.04 234.17 111.234C234.039 111.424 233.94 111.643 233.875 111.892C233.809 112.137 233.776 112.398 233.776 112.674ZM239.239 115.027C239.239 114.865 239.289 114.728 239.389 114.618C239.493 114.504 239.641 114.447 239.835 114.447C240.028 114.447 240.175 114.504 240.275 114.618C240.379 114.728 240.431 114.865 240.431 115.027C240.431 115.186 240.379 115.32 240.275 115.431C240.175 115.542 240.028 115.597 239.835 115.597C239.641 115.597 239.493 115.542 239.389 115.431C239.289 115.32 239.239 115.186 239.239 115.027Z" fill="white"/>
<ellipse cx="226.523" cy="96.1315" rx="50.7183" ry="5.57344" fill="black" fill-opacity="0.2"/>
<path fill-rule="evenodd" clip-rule="evenodd" d="M192.782 70.8877H216.155C217.364 70.8877 218.343 71.8674 218.343 73.0758V74.8661C218.343 76.0746 217.364 77.0543 216.155 77.0543H192.782C191.573 77.0543 190.594 76.0746 190.594 74.8661V73.0758C190.594 71.8674 191.573 70.8877 192.782 70.8877Z" fill="#D4A42A"/>
<path fill-rule="evenodd" clip-rule="evenodd" d="M242.117 46.2212H265.49C266.699 46.2212 267.678 47.2009 267.678 48.4093V50.1996C267.678 51.4081 266.699 52.3878 265.49 52.3878H242.117C240.908 52.3878 239.929 51.4081 239.929 50.1996V48.4093C239.929 47.2009 240.908 46.2212 242.117 46.2212Z" fill="#D4A42A"/>
<path fill-rule="evenodd" clip-rule="evenodd" d="M239.032 70.8877H262.405C263.614 70.8877 264.593 71.8674 264.593 73.0758V74.8661C264.593 76.0746 263.614 77.0543 262.405 77.0543H239.032C237.823 77.0543 236.844 76.0746 236.844 74.8661V73.0758C236.844 71.8674 237.823 70.8877 239.032 70.8877Z" fill="#D4A42A"/>
<path fill-rule="evenodd" clip-rule="evenodd" d="M195.867 64.7207H219.24C220.449 64.7207 221.428 65.7004 221.428 66.9088V68.6991C221.428 69.9076 220.449 70.8873 219.24 70.8873H195.867C194.658 70.8873 193.679 69.9076 193.679 68.6991V66.9088C193.679 65.7004 194.658 64.7207 195.867 64.7207Z" fill="#FFCD4A"/>
<path fill-rule="evenodd" clip-rule="evenodd" d="M235.948 64.7207H259.321C260.53 64.7207 261.509 65.7004 261.509 66.9088V68.6991C261.509 69.9076 260.53 70.8873 259.321 70.8873H235.948C234.739 70.8873 233.76 69.9076 233.76 68.6991V66.9088C233.76 65.7004 234.739 64.7207 235.948 64.7207Z" fill="#FFCD4A"/>
<path fill-rule="evenodd" clip-rule="evenodd" d="M198.948 77.0542H222.321C223.53 77.0542 224.509 78.0339 224.509 79.2423V81.0326C224.509 82.2411 223.53 83.2208 222.321 83.2208H198.948C197.739 83.2208 196.76 82.2411 196.76 81.0326V79.2423C196.76 78.0339 197.739 77.0542 198.948 77.0542Z" fill="#FFCD4A"/>
<path fill-rule="evenodd" clip-rule="evenodd" d="M248.281 52.3882H271.654C272.863 52.3882 273.842 53.3679 273.842 54.5763V56.3666C273.842 57.5751 272.863 58.5548 271.654 58.5548H248.281C247.072 58.5548 246.093 57.5751 246.093 56.3666V54.5763C246.093 53.3679 247.072 52.3882 248.281 52.3882Z" fill="#FFCD4A"/>
<path fill-rule="evenodd" clip-rule="evenodd" d="M239.032 77.0542H262.405C263.614 77.0542 264.593 78.0339 264.593 79.2423V81.0326C264.593 82.2411 263.614 83.2208 262.405 83.2208H239.032C237.823 83.2208 236.844 82.2411 236.844 81.0326V79.2423C236.844 78.0339 237.823 77.0542 239.032 77.0542Z" fill="#FFCD4A"/>
<path fill-rule="evenodd" clip-rule="evenodd" d="M192.782 83.2207H216.155C217.364 83.2207 218.343 84.2004 218.343 85.4089V87.1992C218.343 88.4076 217.364 89.3873 216.155 89.3873H192.782C191.573 89.3873 190.594 88.4076 190.594 87.1992V85.4089C190.594 84.2004 191.573 83.2207 192.782 83.2207Z" fill="#D4A42A"/>
<path fill-rule="evenodd" clip-rule="evenodd" d="M242.117 58.5547H265.49C266.699 58.5547 267.678 59.5344 267.678 60.7428V62.5331C267.678 63.7416 266.699 64.7213 265.49 64.7213H242.117C240.908 64.7213 239.929 63.7416 239.929 62.5331V60.7428C239.929 59.5344 240.908 58.5547 242.117 58.5547Z" fill="#D4A42A"/>
<path fill-rule="evenodd" clip-rule="evenodd" d="M245.198 83.2207H268.571C269.78 83.2207 270.759 84.2004 270.759 85.4089V87.1992C270.759 88.4076 269.78 89.3873 268.571 89.3873H245.198C243.989 89.3873 243.01 88.4076 243.01 87.1992V85.4089C243.01 84.2004 243.989 83.2207 245.198 83.2207Z" fill="#D4A42A"/>
<path fill-rule="evenodd" clip-rule="evenodd" d="M195.867 89.3872H219.24C220.449 89.3872 221.428 90.3669 221.428 91.5754V93.3657C221.428 94.5741 220.449 95.5538 219.24 95.5538H195.867C194.658 95.5538 193.679 94.5741 193.679 93.3657V91.5754C193.679 90.3669 194.658 89.3872 195.867 89.3872Z" fill="#FFCD4A"/>
<path fill-rule="evenodd" clip-rule="evenodd" d="M239.032 89.3872H262.405C263.614 89.3872 264.593 90.3669 264.593 91.5754V93.3657C264.593 94.5741 263.614 95.5538 262.405 95.5538H239.032C237.823 95.5538 236.844 94.5741 236.844 93.3657V91.5754C236.844 90.3669 237.823 89.3872 239.032 89.3872Z" fill="#FFCD4A"/>
<path d="M210.441 37.5864C212.258 37.5933 213.736 36.1261 213.743 34.3093C213.75 32.4925 212.283 31.0141 210.466 31.0072C208.65 31.0002 207.171 32.4674 207.164 34.2842C207.157 36.101 208.624 37.5794 210.441 37.5864Z" fill="#00D1C7"/>
<path d="M202.522 43.9932C203.949 43.9986 205.11 42.8466 205.115 41.4201C205.121 39.9935 203.969 38.8327 202.542 38.8272C201.115 38.8218 199.955 39.9738 199.949 41.4004C199.944 42.8269 201.096 43.9878 202.522 43.9932Z" fill="#00D1C7"/>
<path d="M197.844 51.5415C199.27 51.547 200.431 50.395 200.436 48.9684C200.442 47.5419 199.29 46.381 197.863 46.3756C196.437 46.3701 195.276 47.5222 195.27 48.9487C195.265 50.3752 196.417 51.5361 197.844 51.5415Z" fill="#00D1C7"/>
<path d="M225.411 14.4452C227.369 14.06 230.089 14.0592 233.169 14.3164C236.354 14.5823 239.823 15.114 243.043 15.7084C245.725 16.2034 248.223 16.7409 250.225 17.1983L227.942 22.7732C227.94 22.7734 227.937 22.7745 227.935 22.7747C227.88 22.7802 227.798 22.7884 227.691 22.798C227.477 22.8174 227.165 22.8432 226.781 22.8693C226.012 22.9216 224.959 22.9744 223.817 22.975C222.671 22.9755 221.457 22.924 220.364 22.7749C219.294 22.629 218.438 22.3994 217.873 22.1032C217.9 21.9827 217.975 21.7674 218.163 21.4446C218.656 20.5995 219.612 19.5283 220.75 18.4286C221.867 17.3484 223.085 16.3127 224.028 15.5428C224.499 15.1591 224.898 14.8436 225.179 14.6249C225.269 14.5549 225.347 14.4944 225.411 14.4452Z" fill="#01C4BC" stroke="#01C4BC" stroke-width="2.35374"/>
<path fill-rule="evenodd" clip-rule="evenodd" d="M255.283 17.7795C255.283 17.7795 222.76 12.7529 217.07 15.211L218.154 23.2599L255.283 17.7795Z" fill="#039C98"/>
<path d="M215.667 22.9757C234.753 18.3036 246.862 17.7386 253.45 18.0224L254.694 18.0897C254.74 18.0927 254.763 18.1017 254.769 18.1046C254.774 18.1066 254.776 18.1078 254.776 18.1081C254.778 18.1102 254.783 18.1192 254.786 18.1379C254.789 18.1615 254.783 18.1783 254.779 18.1856C254.777 18.1887 254.773 18.1944 254.764 18.2019L254.687 18.2424C236.387 24.8623 227.174 30.796 223.586 33.466L222.943 33.9556C222.903 33.9862 222.855 33.9983 222.807 33.9912C222.783 33.9876 222.766 33.9796 222.753 33.9715L222.727 33.9473L215.552 23.0959L215.551 23.0942C215.549 23.0916 215.548 23.0899 215.548 23.0889L215.547 23.0879C215.547 23.087 215.547 23.0773 215.553 23.0615C215.567 23.0302 215.6 22.9921 215.667 22.9757Z" fill="#01C4BC" stroke="#01C4BC" stroke-width="2.35374"/>
<path fill-rule="evenodd" clip-rule="evenodd" d="M12.2211 118.852L8.21751 114.675L2.20027 123.684L12.2211 118.852Z" fill="#F4C12A"/>
<path fill-rule="evenodd" clip-rule="evenodd" d="M77.42 33.7296C76.6449 33.8645 75.9779 34.2133 75.6003 34.7303C75.1085 35.4032 74.9066 35.9673 75.047 36.2751C75.1959 36.6034 75.8113 36.8811 76.6154 36.9824C76.792 36.9401 77.3843 36.3209 77.5668 35.2997C77.6378 34.905 77.6664 34.3208 77.42 33.7296ZM70.3818 31.6918C70.4212 31.5517 70.4955 31.4181 70.6051 31.3032C72.3542 29.4742 75.2657 29.2738 77.2652 30.8334C77.742 31.1194 78.1314 31.4443 78.4456 31.7936C78.8776 31.815 79.3168 31.8796 79.756 31.9896C82.3433 32.6376 84.0634 34.6273 84.3582 37.3117C84.4143 37.8277 84.0277 38.2879 83.4938 38.3425C82.9595 38.3971 82.4814 38.0238 82.4248 37.5094C82.1495 35.0058 80.4062 34.1448 79.4744 33.8614C79.6519 34.7823 79.5314 35.707 79.2539 36.4703C78.6829 38.036 77.521 38.9887 76.3614 38.842C75.4617 38.7276 73.8624 38.3408 73.2657 37.0283C72.8269 36.0629 73.0773 34.9264 74.011 33.6501C74.4796 33.0082 75.1434 32.5179 75.9204 32.2014C74.7237 31.3622 73.0524 31.5102 72.0345 32.5742C71.6709 32.955 71.0556 32.979 70.6607 32.6279C70.385 32.3826 70.2895 32.0189 70.3818 31.6918Z" fill="#12DEC4"/>
<path fill-rule="evenodd" clip-rule="evenodd" d="M8.45599 75.5844C9.1431 75.3091 9.68206 74.846 9.93064 74.2654C10.2563 73.5041 10.3316 72.9111 10.137 72.6415C9.93523 72.362 9.3211 72.2259 8.57196 72.2961C8.40935 72.3497 7.99758 72.971 7.98384 73.9236C7.97887 74.2882 8.03684 74.9682 8.45599 75.5844ZM15.2556 75.7523C15.3724 76.0164 15.3641 76.3314 15.2059 76.5987C13.9636 78.6945 11.3276 79.4442 9.1787 78.3247C8.68415 78.1407 8.26088 77.9046 7.90201 77.6303C7.50289 77.6923 7.08857 77.7147 6.66584 77.694C4.1599 77.5702 2.17791 75.9921 1.37077 73.4757C1.21525 72.9932 1.47748 72.4749 1.95652 72.3195C2.43538 72.1636 2.95074 72.4335 3.10547 72.9122C3.85667 75.2454 5.61112 75.7437 6.53002 75.8408C6.18402 75.0066 6.10329 74.1146 6.19713 73.3451C6.39526 71.7267 7.28071 70.5694 8.40038 70.465C9.86308 70.3294 11.0035 70.7191 11.612 71.5637C12.2206 72.4064 12.2189 73.5636 11.6052 74.9968C11.3031 75.7031 10.7913 76.3012 10.1405 76.7539C11.4084 77.3351 12.9168 76.8733 13.6397 75.6533C13.8982 75.2178 14.4572 75.0762 14.8902 75.3375C15.0577 75.4387 15.1816 75.5853 15.2556 75.7523Z" fill="#DE4A65"/>
<path fill-rule="evenodd" clip-rule="evenodd" d="M169.341 55.6667C169.935 56.1446 170.62 56.4026 171.249 56.3394C172.068 56.2567 172.622 56.0341 172.765 55.7293C172.918 55.4053 172.737 54.7732 172.305 54.1194C172.161 54.0182 171.318 53.992 170.433 54.5288C170.09 54.7363 169.631 55.0991 169.341 55.6667ZM172.264 62.1464C172.133 62.2099 171.985 62.2429 171.829 62.238C169.342 62.161 167.346 60.1657 167.255 57.6812C167.169 57.1448 167.167 56.6473 167.232 56.1883C166.974 55.8585 166.744 55.4955 166.549 55.1022C165.399 52.7874 165.809 50.2238 167.647 48.2467C168.001 47.8668 168.593 47.8472 168.972 48.2013C169.352 48.556 169.373 49.1506 169.021 49.5294C167.307 51.3739 167.762 53.2129 168.14 54.0793C168.721 53.3455 169.495 52.8261 170.247 52.528C171.789 51.9174 173.244 52.1407 173.868 53.0843C174.352 53.8166 175.073 55.2391 174.461 56.5368C174.011 57.4907 172.996 58.054 171.442 58.2095C170.66 58.2883 169.871 58.1256 169.139 57.7655C169.265 59.1905 170.435 60.3147 171.882 60.3596C172.4 60.3755 172.808 60.8093 172.794 61.3279C172.783 61.6904 172.569 61.9991 172.264 62.1464Z" fill="#F4C12A"/>
<path fill-rule="evenodd" clip-rule="evenodd" d="M15.4108 33.7476L11.998 38.3358L21.5045 43.3096L15.4108 33.7476Z" fill="#F4C12A"/>
<path fill-rule="evenodd" clip-rule="evenodd" d="M292.755 94.0153C292.772 94.6623 293.025 95.1946 293.24 95.533C293.785 96.3922 294.522 96.7293 294.713 96.6833C295.327 96.2853 295.743 95.7886 295.742 95.4313C295.742 95.0946 295.357 94.6553 294.685 94.2262C294.166 93.8943 293.465 93.8334 292.755 94.0153ZM289.18 100.639C288.802 100.639 288.452 100.387 288.329 99.9892C287.532 97.4198 288.205 94.9284 290.13 93.3253C290.454 93.0548 290.797 92.8255 291.15 92.6379C291.28 92.1982 291.483 91.7519 291.773 91.3074C292.862 89.0878 295.401 88.1418 297.581 89.1505C298.033 89.3601 298.239 89.9155 298.04 90.3916C297.84 90.8677 297.311 91.0825 296.859 90.8734C295.596 90.2881 294.134 90.7949 293.442 92.0237C294.216 92.0141 294.971 92.2065 295.615 92.6173C296.887 93.43 297.533 94.3765 297.533 95.4304C297.534 96.4917 296.853 97.5127 295.617 98.3049C294.695 98.8954 293.349 98.475 292.266 97.2607C291.737 96.6675 291.279 95.8644 291.074 94.9491C290.4 95.5777 289.296 97.0362 290.031 99.4057C290.185 99.8997 289.928 100.431 289.458 100.592C289.365 100.624 289.272 100.639 289.18 100.639Z" fill="#F4C12A"/>
<path fill-rule="evenodd" clip-rule="evenodd" d="M265.149 127.54C265.316 126.797 265.245 126.068 264.91 125.531C264.475 124.833 264.031 124.434 263.694 124.44C263.336 124.446 262.848 124.887 262.453 125.564C262.425 125.737 262.773 126.505 263.646 127.063C263.983 127.279 264.511 127.53 265.149 127.54ZM269.673 122.058C269.788 122.147 269.883 122.265 269.948 122.408C270.976 124.673 270.066 127.345 267.877 128.523C267.433 128.837 266.988 129.058 266.547 129.203C266.365 129.579 266.141 129.946 265.874 130.295C264.305 132.349 261.823 133.111 259.238 132.335C258.741 132.185 258.462 131.662 258.612 131.166C258.763 130.669 259.287 130.387 259.782 130.536C262.194 131.26 263.643 130.04 264.254 129.319C263.339 129.121 262.532 128.656 261.933 128.113C260.704 126.998 260.262 125.594 260.834 124.618C261.277 123.86 262.236 122.585 263.67 122.562C264.725 122.544 265.678 123.207 266.504 124.533C266.919 125.199 267.122 125.98 267.121 126.795C268.345 126.054 268.837 124.507 268.239 123.189C268.024 122.717 268.234 122.16 268.705 121.944C269.035 121.793 269.407 121.849 269.673 122.058Z" fill="#F4C12A"/>
<path fill-rule="evenodd" clip-rule="evenodd" d="M200.355 131.206L198 125.605L208.116 122.748L200.355 131.206Z" fill="#12DEC4"/>
<path fill-rule="evenodd" clip-rule="evenodd" d="M273.561 30.2478C273.824 29.6716 273.828 29.0843 273.781 28.6803C273.661 27.6568 273.135 27.0014 272.937 26.9468C272.155 26.9872 271.528 27.2145 271.367 27.5261C271.222 27.8066 271.372 28.3651 271.778 29.0567C272.114 29.629 272.773 30.0497 273.561 30.2478ZM270.723 25.5678C271.277 25.2574 271.99 25.0739 272.829 25.0341C273.971 24.9804 275.043 26.0461 275.495 27.6882C275.709 28.4617 275.767 29.3777 275.555 30.2706C276.5 30.0587 278.18 29.346 278.643 26.9593C278.743 26.4432 279.239 26.117 279.75 26.2323C280.261 26.3482 280.594 26.8602 280.494 27.3771C279.982 30.0167 278.154 31.8273 275.603 32.2197C275.219 32.2784 274.837 32.3021 274.463 32.2925C274.103 32.6682 273.655 33.0049 273.096 33.2824C269.687 34.9832 267.384 33.2551 266.643 32.103C266.355 31.6547 266.472 31.0636 266.906 30.7818C267.326 30.5067 267.917 30.6342 268.208 31.0751C268.338 31.266 269.479 32.7891 271.977 31.6765C271.213 31.2839 270.581 30.7155 270.165 30.0067C269.377 28.6657 269.218 27.52 269.691 26.6018C269.911 26.1749 270.261 25.827 270.723 25.5678Z" fill="#DE4A65"/>
<path fill-rule="evenodd" clip-rule="evenodd" d="M138.531 32.6253L137.35 25.667L151.079 25.8911L138.531 32.6253Z" fill="#742384"/>
<defs>
<linearGradient id="paint0_linear_721_27537" x1="-4.36974e-06" y1="91.2789" x2="300" y2="91.2789" gradientUnits="userSpaceOnUse">
<stop stop-color="#5C0BB8"/>
<stop offset="1" stop-color="#B123CE"/>
</linearGradient>
</defs>
</svg>
