<svg width="520" height="392" viewBox="0 0 520 392" fill="none" xmlns="http://www.w3.org/2000/svg">
<g clip-path="url(#clip0_867_5213)">
<rect width="520" height="392" rx="12" fill="#52006B"/>
<g clip-path="url(#clip1_867_5213)">
<rect width="520" height="520" transform="translate(0 -64)" fill="#52006B"/>
<g opacity="0.4">
<path fill-rule="evenodd" clip-rule="evenodd" d="M107.349 -18.6001C108.082 -16.8894 109.452 -15.5276 111.168 -14.7986C113.357 -13.869 116.486 -12.5385 118.981 -11.4787C120.506 -10.8304 120.503 -8.68228 118.981 -8.03393L111.168 -4.71411C109.45 -3.98504 108.082 -2.62327 107.349 -0.912579C106.416 1.26679 105.079 4.38092 104.014 6.86493C103.363 8.38294 101.205 8.38294 100.554 6.86493C99.4893 4.38092 98.1527 1.26679 97.2189 -0.912579C96.4865 -2.62327 95.1159 -3.98504 93.4 -4.71411C91.2107 -5.64366 88.0824 -6.97419 85.5871 -8.03393C84.0621 -8.68228 84.0621 -10.8304 85.5871 -11.4787C88.0824 -12.5385 91.2107 -13.869 93.4 -14.7986C95.1185 -15.5276 96.4865 -16.892 97.2189 -18.6001C98.1527 -20.7795 99.4893 -23.8936 100.554 -26.3776C101.205 -27.8956 103.363 -27.8956 104.014 -26.3776C105.079 -23.8936 106.416 -20.7795 107.349 -18.6001Z" fill="#3F0D4A"/>
<path fill-rule="evenodd" clip-rule="evenodd" d="M450.844 203.571C451.498 205.106 452.723 206.328 454.255 206.982C456.211 207.816 459.005 209.01 461.234 209.96C462.596 210.542 462.593 212.47 461.234 213.051L454.255 216.03C452.72 216.684 451.498 217.906 450.844 219.441C450.01 221.396 448.816 224.19 447.865 226.419C447.284 227.781 445.356 227.781 444.775 226.419C443.824 224.19 442.63 221.396 441.796 219.441C441.142 217.906 439.917 216.684 438.385 216.03C436.429 215.196 433.635 214.002 431.406 213.051C430.044 212.47 430.044 210.542 431.406 209.96C433.635 209.01 436.429 207.816 438.385 206.982C439.92 206.328 441.142 205.103 441.796 203.571C442.63 201.615 443.824 198.821 444.775 196.593C445.356 195.231 447.284 195.231 447.865 196.593C448.816 198.821 450.01 201.615 450.844 203.571Z" fill="#3F0D4A"/>
<path fill-rule="evenodd" clip-rule="evenodd" d="M70.088 305.357C70.911 307.288 72.4511 308.825 74.3792 309.648C76.8393 310.697 80.3546 312.199 83.1586 313.396C84.8722 314.127 84.8692 316.552 83.1586 317.284L74.3792 321.031C72.4482 321.854 70.911 323.391 70.088 325.322C69.0387 327.783 67.5367 331.298 66.3405 334.102C65.6086 335.815 63.1838 335.815 62.4519 334.102C61.2557 331.298 59.7537 327.783 58.7044 325.322C57.8815 323.391 56.3413 321.854 54.4132 321.031C51.9531 319.982 48.4378 318.48 45.6338 317.284C43.9202 316.552 43.9202 314.127 45.6338 313.396C48.4378 312.199 51.9531 310.697 54.4132 309.648C56.3443 308.825 57.8815 307.285 58.7044 305.357C59.7537 302.897 61.2557 299.382 62.4519 296.578C63.1838 294.864 65.6086 294.864 66.3405 296.578C67.5367 299.382 69.0387 302.897 70.088 305.357Z" fill="#3F0D4A"/>
<path fill-rule="evenodd" clip-rule="evenodd" d="M190.67 84.7885C190.944 85.4279 191.456 85.9368 192.097 86.2093C192.916 86.5567 194.085 87.054 195.017 87.4501C195.587 87.6924 195.586 88.4952 195.017 88.7375L192.097 89.9783C191.455 90.2507 190.944 90.7597 190.67 91.399C190.321 92.2135 189.822 93.3774 189.424 94.3058C189.18 94.8731 188.374 94.8731 188.13 94.3058C187.733 93.3774 187.233 92.2135 186.884 91.399C186.61 90.7597 186.098 90.2507 185.457 89.9783C184.639 89.6309 183.469 89.1336 182.537 88.7375C181.967 88.4952 181.967 87.6924 182.537 87.4501C183.469 87.054 184.639 86.5567 185.457 86.2093C186.099 85.9368 186.61 85.4269 186.884 84.7885C187.233 83.974 187.733 82.8102 188.13 81.8818C188.374 81.3145 189.18 81.3145 189.424 81.8818C189.822 82.8102 190.321 83.974 190.67 84.7885Z" fill="#3F0D4A"/>
<path fill-rule="evenodd" clip-rule="evenodd" d="M310.952 358.765C311.226 359.405 311.738 359.914 312.38 360.186C313.198 360.533 314.367 361.031 315.3 361.427C315.87 361.669 315.869 362.472 315.3 362.714L312.38 363.955C311.737 364.227 311.226 364.736 310.952 365.376C310.603 366.19 310.104 367.354 309.706 368.282C309.463 368.85 308.656 368.85 308.413 368.282C308.015 367.354 307.515 366.19 307.166 365.376C306.893 364.736 306.38 364.227 305.739 363.955C304.921 363.608 303.752 363.11 302.819 362.714C302.249 362.472 302.249 361.669 302.819 361.427C303.752 361.031 304.921 360.533 305.739 360.186C306.381 359.914 306.893 359.404 307.166 358.765C307.515 357.951 308.015 356.787 308.413 355.858C308.656 355.291 309.463 355.291 309.706 355.858C310.104 356.787 310.603 357.951 310.952 358.765Z" fill="#3F0D4A"/>
<path d="M28.2448 522.486L249.548 227.934C250.215 227.065 251.59 227.691 251.347 228.763L185.091 523.315C184.99 523.78 184.566 524.103 184.101 524.103H29.0533C28.2246 524.103 27.7395 523.153 28.2448 522.466V522.486Z" fill="#3F0D4A"/>
<path d="M260.968 -86.6296V200.384C260.968 201.313 262.14 201.758 262.746 201.051L511.518 -86.6296H379.108L293.328 126.993C293.045 127.701 291.973 127.337 292.175 126.609L320.048 27.9937C320.25 27.3065 319.32 26.9023 318.936 27.5087L301.372 56.4525C301.028 57.0185 300.139 56.6951 300.26 56.0281L325.081 -86.6296H260.968Z" fill="#3F0D4A"/>
<path d="M-17.333 31.8743L245.183 209.681C246.153 210.348 245.405 211.864 244.294 211.48L123.182 169.984C122.535 169.762 122.071 170.631 122.616 171.035L136.118 181.303C136.623 181.687 136.259 182.516 135.633 182.374L-17.333 150.581V31.8743Z" fill="#3F0D4A"/>
<path d="M274.389 236.584L429.76 460.677H537.815V371.642L455.41 324.062C454.945 323.8 454.379 324.224 454.52 324.75L462.807 354.3C462.949 354.846 462.363 355.27 461.898 354.967L275.764 235.129C274.834 234.522 273.763 235.654 274.389 236.564V236.584Z" fill="#3F0D4A"/>
</g>
</g>
<g style="mix-blend-mode:screen" opacity="0.7" filter="url(#filter0_f_867_5213)">
<ellipse cx="244.702" cy="298.915" rx="222.028" ry="146.56" transform="rotate(21.0304 244.702 298.915)" fill="#9E26C8"/>
</g>
<g filter="url(#filter1_d_867_5213)">
<path d="M104.596 85.1056C104.45 86.699 104.068 87.9737 103.447 88.9298C102.856 89.8592 101.981 90.6825 100.822 91.3995L103.587 101.876H94.7465L93.0438 93.3514H92.4038L91.6265 101.876H83.4265L85.6822 77.1387H96.2822C99.3755 77.1387 101.596 77.7893 102.944 79.0906C104.295 80.3653 104.845 82.3703 104.596 85.1056ZM93.687 88.4916C94.3003 88.4916 94.7427 88.319 95.0142 87.9737C95.3148 87.6019 95.5062 86.9646 95.5885 86.0617C95.6709 85.1587 95.5944 84.5347 95.3593 84.1894C95.1241 83.8442 94.7265 83.6716 94.1665 83.6716H93.1265L92.687 88.4916H93.687ZM121.806 101.876H105.966L108.221 77.1387H124.621L123.462 83.7114H116.182L115.909 86.699H122.269L121.746 92.4352H115.386L115.078 95.8212H122.918L121.806 101.876ZM124.736 85.0658C124.976 82.4367 125.962 80.3919 127.695 78.9312C129.428 77.4706 131.708 76.7403 134.535 76.7403C137.388 76.7403 140.297 77.0059 143.262 77.537L141.703 84.5479C138.43 83.884 136.274 83.5521 135.234 83.5521C134.194 83.5521 133.645 83.8708 133.587 84.5081C133.565 84.7471 133.629 84.9197 133.78 85.026C133.932 85.1056 134.046 85.172 134.121 85.2251C134.197 85.2782 134.337 85.3446 134.543 85.4243C134.776 85.504 134.955 85.5836 135.081 85.6633C135.237 85.7164 135.698 85.9156 136.467 86.2608C137.265 86.5795 137.854 86.8451 138.234 87.0575C138.644 87.2434 139.188 87.5621 139.867 88.0136C141.824 89.3679 142.682 91.3597 142.442 93.9888C142.203 96.6179 141.229 98.6627 139.523 100.123C137.819 101.557 135.487 102.274 132.527 102.274C129.593 102.274 126.746 101.916 123.985 101.199L125.159 94.4668C128.65 95.3697 131.022 95.8212 132.275 95.8212C133.102 95.8212 133.542 95.5291 133.595 94.9448C133.619 94.6792 133.532 94.4668 133.333 94.3075C133.161 94.1481 132.883 93.9755 132.5 93.7896C132.144 93.6037 131.606 93.3647 130.886 93.0726C130.168 92.7539 129.566 92.4883 129.078 92.2759C128.594 92.0369 128.026 91.6784 127.377 91.2003C125.376 89.7397 124.496 87.6949 124.736 85.0658ZM162.741 83.8708H157.461L155.819 101.876H147.299L148.941 83.8708H143.381L144.355 77.1387H163.835L162.741 83.8708ZM183.682 101.876H175.282L174.831 98.0519H170.391L169.202 101.876H161.162L168.578 77.1387H180.778L183.682 101.876ZM174.7 92.9132L173.935 84.6276H173.775L171.46 92.9132H174.7ZM206.323 94.6261C205.882 99.4594 202.648 101.876 196.622 101.876H185.302L187.557 77.1387H198.717C201.704 77.1387 203.855 77.6698 205.172 78.7321C206.515 79.7943 207.086 81.4276 206.885 83.6317C206.684 85.8359 205.596 87.5355 203.62 88.7306L203.606 88.8899C205.676 89.8725 206.582 91.7846 206.323 94.6261ZM195.432 96.9365C196.152 96.9365 196.645 96.7905 196.912 96.4984C197.181 96.1797 197.36 95.5291 197.45 94.5465C197.539 93.5639 197.469 92.8734 197.239 92.4751C197.037 92.0502 196.59 91.8377 195.897 91.8377H194.737L194.272 96.9365H195.432ZM196.336 87.4559C196.816 87.4559 197.178 87.2965 197.42 86.9779C197.689 86.6592 197.859 86.1148 197.929 85.3446C198.002 84.5479 197.934 83.977 197.725 83.6317C197.543 83.2865 197.199 83.1139 196.692 83.1139H195.532L195.136 87.4559H196.336ZM222.761 101.876H207.841L210.096 77.1387H218.656L216.985 95.4627H223.905L222.761 101.876ZM240.204 101.876H224.364L226.62 77.1387H243.02L241.86 83.7114H234.58L234.308 86.699H240.668L240.145 92.4352H233.785L233.476 95.8212H241.316L240.204 101.876ZM251.742 89.8061C251.558 91.8244 251.65 93.2983 252.019 94.2278C252.39 95.1307 253.109 95.5822 254.175 95.5822C255.242 95.5822 257.042 95.29 259.575 94.7058L260.278 101.04C257.589 101.863 255.032 102.274 252.605 102.274C248.899 102.274 246.288 101.225 244.772 99.1275C243.286 97.0029 242.733 93.856 243.113 89.6866C243.496 85.4907 244.667 82.2906 246.628 80.0865C248.592 77.8557 251.56 76.7403 255.533 76.7403C257.853 76.7403 260.132 77.1918 262.37 78.0947L260.403 85.1853C257.834 84.4152 256.055 84.0301 255.069 84.0301C254.109 84.0301 253.36 84.4948 252.822 85.4243C252.286 86.3272 251.926 87.7878 251.742 89.8061ZM277.235 101.876H261.395L263.651 77.1387H280.051L278.892 83.7114H271.612L271.339 86.699H277.699L277.176 92.4352H270.816L270.507 95.8212H278.347L277.235 101.876ZM306.452 83.8708H301.172L299.53 101.876H291.01L292.652 83.8708H287.092L288.066 77.1387H307.546L306.452 83.8708ZM316.073 93.1124C315.942 94.5465 316.516 95.2635 317.796 95.2635C319.103 95.2635 319.823 94.5332 319.956 93.0726L321.409 77.1387H329.969L328.469 93.5904C328.203 96.5116 327.084 98.6893 325.113 100.123C323.142 101.557 320.437 102.274 316.997 102.274C310.01 102.274 306.779 99.4063 307.302 93.6701L308.809 77.1387H317.529L316.073 93.1124ZM347.562 89.8061C347.378 91.8244 347.471 93.2983 347.839 94.2278C348.21 95.1307 348.929 95.5822 349.996 95.5822C351.062 95.5822 352.862 95.29 355.396 94.7058L356.098 101.04C353.41 101.863 350.852 102.274 348.426 102.274C344.719 102.274 342.108 101.225 340.592 99.1275C339.106 97.0029 338.553 93.856 338.933 89.6866C339.316 85.4907 340.488 82.2906 342.449 80.0865C344.412 77.8557 347.38 76.7403 351.354 76.7403C353.674 76.7403 355.953 77.1918 358.19 78.0947L356.224 85.1853C353.654 84.4152 351.876 84.0301 350.889 84.0301C349.929 84.0301 349.18 84.4948 348.642 85.4243C348.106 86.3272 347.746 87.7878 347.562 89.8061ZM372.136 101.876H357.216L359.471 77.1387H368.031L366.36 95.4627H373.28L372.136 101.876ZM394.659 101.876H386.259L385.808 98.0519H381.368L380.179 101.876H372.139L379.555 77.1387H391.755L394.659 101.876ZM385.676 92.9132L384.912 84.6276H384.752L382.436 92.9132H385.676ZM419.494 77.1387L412.438 101.876H400.158L397.334 77.1387H406.574L407.11 92.3157H407.59L410.694 77.1387H419.494ZM435.087 101.876H419.247L421.502 77.1387H437.902L436.743 83.7114H429.463L429.191 86.699H435.551L435.028 92.4352H428.668L428.359 95.8212H436.199L435.087 101.876Z" fill="#F4C12A"/>
</g>
<g filter="url(#filter2_d_867_5213)">
<path d="M140.263 138.723H124.423L126.678 113.986H143.078L141.919 120.559H134.639L134.367 123.546H140.727L140.203 129.282H133.843L133.535 132.668H141.375L140.263 138.723ZM163.94 138.723H155.78L151.63 128.964H151.35L150.46 138.723H142.86L145.116 113.986H153.556L157.357 124.064H157.597L158.516 113.986H166.196L163.94 138.723ZM185.599 130.995H183.879L183.174 138.723H174.774L177.03 113.986H186.71C189.99 113.986 192.316 114.65 193.688 115.978C195.06 117.305 195.607 119.496 195.329 122.55C195.05 125.604 194.132 127.782 192.573 129.083C191.017 130.358 188.692 130.995 185.599 130.995ZM186.526 125.219C186.804 124.794 186.99 124.077 187.082 123.068C187.174 122.059 187.106 121.342 186.878 120.917C186.677 120.492 186.229 120.28 185.536 120.28H184.696L184.187 125.857H185.227C185.841 125.857 186.273 125.644 186.526 125.219ZM196.13 126.215C196.535 121.78 197.708 118.567 199.649 116.575C201.618 114.583 204.628 113.588 208.682 113.588C212.762 113.588 215.579 114.57 217.133 116.535C218.714 118.5 219.302 121.701 218.898 126.135C218.496 130.544 217.291 133.81 215.284 135.935C213.304 138.059 210.3 139.122 206.273 139.122C202.273 139.122 199.476 138.073 197.88 135.975C196.312 133.877 195.728 130.623 196.13 126.215ZM210.203 121.475C209.919 120.784 209.204 120.439 208.057 120.439C206.91 120.439 206.147 120.771 205.766 121.435C205.386 122.099 205.096 123.52 204.898 125.697L204.738 127.45C204.534 129.681 204.576 131.128 204.862 131.792C205.148 132.456 205.878 132.788 207.051 132.788C208.224 132.788 208.987 132.469 209.338 131.832C209.69 131.194 209.966 129.774 210.167 127.569L210.334 125.737C210.532 123.559 210.489 122.139 210.203 121.475ZM229.105 126.653C228.921 128.672 229.014 130.145 229.382 131.075C229.753 131.978 230.472 132.429 231.539 132.429C232.605 132.429 234.405 132.137 236.939 131.553L237.641 137.887C234.953 138.71 232.395 139.122 229.968 139.122C226.262 139.122 223.651 138.073 222.135 135.975C220.649 133.85 220.096 130.703 220.476 126.534C220.859 122.338 222.031 119.138 223.992 116.934C225.955 114.703 228.923 113.588 232.897 113.588C235.217 113.588 237.496 114.039 239.733 114.942L237.767 122.032C235.197 121.262 233.419 120.877 232.432 120.877C231.472 120.877 230.723 121.342 230.185 122.271C229.649 123.174 229.289 124.635 229.105 126.653ZM239.099 126.215C239.503 121.78 240.676 118.567 242.618 116.575C244.586 114.583 247.597 113.588 251.651 113.588C255.731 113.588 258.548 114.57 260.102 116.535C261.683 118.5 262.271 121.701 261.866 126.135C261.464 130.544 260.26 133.81 258.253 135.935C256.272 138.059 253.269 139.122 249.242 139.122C245.242 139.122 242.445 138.073 240.849 135.975C239.28 133.877 238.697 130.623 239.099 126.215ZM253.171 121.475C252.888 120.784 252.172 120.439 251.026 120.439C249.879 120.439 249.115 120.771 248.735 121.435C248.354 122.099 248.065 123.52 247.866 125.697L247.706 127.45C247.503 129.681 247.544 131.128 247.831 131.792C248.117 132.456 248.846 132.788 250.02 132.788C251.193 132.788 251.955 132.469 252.307 131.832C252.658 131.194 252.935 129.774 253.136 127.569L253.303 125.737C253.501 123.559 253.457 122.139 253.171 121.475ZM263.466 121.913C263.706 119.284 264.693 117.239 266.426 115.778C268.159 114.318 270.439 113.588 273.266 113.588C276.119 113.588 279.028 113.853 281.993 114.384L280.434 121.395C277.161 120.731 275.004 120.399 273.964 120.399C272.924 120.399 272.375 120.718 272.317 121.355C272.295 121.594 272.36 121.767 272.51 121.873C272.663 121.953 272.777 122.019 272.852 122.072C272.927 122.125 273.068 122.192 273.274 122.271C273.506 122.351 273.686 122.431 273.812 122.51C273.967 122.564 274.429 122.763 275.197 123.108C275.995 123.427 276.584 123.692 276.965 123.905C277.374 124.091 277.919 124.409 278.598 124.861C280.554 126.215 281.412 128.207 281.173 130.836C280.933 133.465 279.96 135.51 278.253 136.97C276.549 138.405 274.217 139.122 271.257 139.122C268.324 139.122 265.477 138.763 262.715 138.046L263.889 131.314C267.38 132.217 269.752 132.668 271.006 132.668C271.832 132.668 272.272 132.376 272.326 131.792C272.35 131.526 272.262 131.314 272.064 131.155C271.892 130.995 271.614 130.823 271.231 130.637C270.875 130.451 270.336 130.212 269.616 129.92C268.899 129.601 268.296 129.336 267.809 129.123C267.324 128.884 266.757 128.526 266.107 128.048C264.107 126.587 263.227 124.542 263.466 121.913ZM300.911 130.995H299.191L298.487 138.723H290.087L292.342 113.986H302.022C305.302 113.986 307.628 114.65 309.001 115.978C310.373 117.305 310.92 119.496 310.641 122.55C310.363 125.604 309.444 127.782 307.886 129.083C306.329 130.358 304.005 130.995 300.911 130.995ZM301.838 125.219C302.117 124.794 302.302 124.077 302.394 123.068C302.486 122.059 302.418 121.342 302.19 120.917C301.989 120.492 301.542 120.28 300.848 120.28H300.008L299.5 125.857H300.54C301.153 125.857 301.586 125.644 301.838 125.219ZM332.022 138.723H323.622L323.171 134.899H318.731L317.542 138.723H309.502L316.918 113.986H329.118L332.022 138.723ZM323.04 129.76L322.275 121.475H322.115L319.8 129.76H323.04ZM333.974 121.913C334.214 119.284 335.2 117.239 336.934 115.778C338.667 114.318 340.947 113.588 343.773 113.588C346.627 113.588 349.536 113.853 352.501 114.384L350.941 121.395C347.669 120.731 345.512 120.399 344.472 120.399C343.432 120.399 342.883 120.718 342.825 121.355C342.803 121.594 342.868 121.767 343.018 121.873C343.171 121.953 343.284 122.019 343.36 122.072C343.435 122.125 343.575 122.192 343.781 122.271C344.014 122.351 344.194 122.431 344.32 122.51C344.475 122.564 344.937 122.763 345.705 123.108C346.503 123.427 347.092 123.692 347.473 123.905C347.882 124.091 348.427 124.409 349.105 124.861C351.062 126.215 351.92 128.207 351.681 130.836C351.441 133.465 350.468 135.51 348.761 136.97C347.057 138.405 344.725 139.122 341.765 139.122C338.832 139.122 335.984 138.763 333.223 138.046L334.397 131.314C337.888 132.217 340.26 132.668 341.513 132.668C342.34 132.668 342.78 132.376 342.833 131.792C342.858 131.526 342.77 131.314 342.572 131.155C342.399 130.995 342.122 130.823 341.739 130.637C341.382 130.451 340.844 130.212 340.124 129.92C339.406 129.601 338.804 129.336 338.317 129.123C337.832 128.884 337.265 128.526 336.615 128.048C334.615 126.587 333.734 124.542 333.974 121.913ZM353.318 126.215C353.722 121.78 354.895 118.567 356.837 116.575C358.805 114.583 361.816 113.588 365.869 113.588C369.949 113.588 372.766 114.57 374.32 116.535C375.901 118.5 376.489 121.701 376.085 126.135C375.683 130.544 374.479 133.81 372.472 135.935C370.491 138.059 367.488 139.122 363.461 139.122C359.461 139.122 356.663 138.073 355.068 135.975C353.499 133.877 352.916 130.623 353.318 126.215ZM367.39 121.475C367.106 120.784 366.391 120.439 365.245 120.439C364.098 120.439 363.334 120.771 362.954 121.435C362.573 122.099 362.284 123.52 362.085 125.697L361.925 127.45C361.722 129.681 361.763 131.128 362.049 131.792C362.335 132.456 363.065 132.788 364.239 132.788C365.412 132.788 366.174 132.469 366.526 131.832C366.877 131.194 367.153 129.774 367.354 127.569L367.521 125.737C367.72 123.559 367.676 122.139 367.39 121.475ZM377.685 121.913C377.925 119.284 378.911 117.239 380.644 115.778C382.378 114.318 384.658 113.588 387.484 113.588C390.338 113.588 393.247 113.853 396.212 114.384L394.652 121.395C391.38 120.731 389.223 120.399 388.183 120.399C387.143 120.399 386.594 120.718 386.536 121.355C386.514 121.594 386.578 121.767 386.729 121.873C386.881 121.953 386.995 122.019 387.071 122.072C387.146 122.125 387.286 122.192 387.492 122.271C387.725 122.351 387.905 122.431 388.031 122.51C388.186 122.564 388.648 122.763 389.416 123.108C390.214 123.427 390.803 123.692 391.184 123.905C391.593 124.091 392.138 124.409 392.816 124.861C394.773 126.215 395.631 128.207 395.391 130.836C395.152 133.465 394.179 135.51 392.472 136.97C390.768 138.405 388.436 139.122 385.476 139.122C382.543 139.122 379.695 138.763 376.934 138.046L378.108 131.314C381.599 132.217 383.971 132.668 385.224 132.668C386.051 132.668 386.491 132.376 386.544 131.792C386.569 131.526 386.481 131.314 386.282 131.155C386.11 130.995 385.833 130.823 385.45 130.637C385.093 130.451 384.555 130.212 383.835 129.92C383.117 129.601 382.515 129.336 382.028 129.123C381.543 128.884 380.976 128.526 380.326 128.048C378.326 126.587 377.445 124.542 377.685 121.913Z" fill="white"/>
</g>
<path d="M278.545 297.311L237.006 331.527L201.286 360.948C194.807 366.284 185.214 365.355 179.866 358.876L151.398 324.308C149.898 322.475 148.905 320.403 148.385 318.251L148.364 318.27C143.926 303.23 146.701 286.948 155.982 274.32C158.424 270.995 160.469 267.972 161.45 265.967L173.396 241.454C175.569 236.998 181.067 235.256 185.443 237.75C189.429 240.024 190.792 245.152 188.778 249.287L178.912 269.494C177.672 272.058 178.793 275.142 181.406 276.294C183.139 277.064 185.162 276.786 186.623 275.582L188.356 274.149L233.779 236.736C237.605 233.591 243.323 234.282 246.266 238.368C248.949 242.093 248.057 247.319 244.515 250.244L207.493 280.734C207.243 280.945 207.114 281.245 207.114 281.544C207.114 281.774 207.194 282.006 207.356 282.195C207.716 282.635 208.367 282.696 208.807 282.336L251.345 247.298C255.172 244.153 260.899 244.844 263.833 248.93C266.525 252.655 265.626 257.881 262.081 260.806L219.773 295.654C219.522 295.856 219.403 296.156 219.403 296.446C219.403 296.675 219.473 296.917 219.632 297.106C220.002 297.546 220.653 297.616 221.093 297.247L261.048 264.341C264.875 261.197 270.602 261.887 273.536 265.973C276.228 269.699 275.339 274.925 271.785 277.84L232.058 310.565C231.618 310.926 231.557 311.586 231.918 312.026C232.278 312.466 232.938 312.527 233.378 312.167L267.344 284.188C270.889 281.263 276.185 281.395 279.33 284.738C282.774 288.414 282.365 294.16 278.539 297.305L278.545 297.311Z" fill="#FBCCA1"/>
<path d="M275.955 290.129C273.437 287.253 268.99 287.097 266.038 289.527L233.161 316.604C232.161 317.426 230.688 317.505 229.689 316.68C228.347 315.568 228.402 313.584 229.677 312.533L269.403 279.811C272.355 277.382 273.055 272.984 270.714 269.961C268.291 266.835 263.783 266.346 260.751 268.843L220.967 301.61C219.821 302.555 218.085 302.542 217.082 301.448C216.013 300.281 216.15 298.469 217.361 297.475L257.992 264.011C260.944 261.581 261.644 257.187 259.303 254.164C256.879 251.038 252.371 250.549 249.34 253.046L208.492 286.69C207.437 287.558 205.854 287.592 204.886 286.629C203.773 285.523 203.88 283.729 205.06 282.757L242.042 252.297C244.994 249.867 245.694 245.473 243.353 242.45C240.929 239.324 236.422 238.835 233.39 241.332L184.807 275.799C180.877 277.33 178.01 273.601 179.492 270.566L188.783 249.29C190.357 246.06 189.241 242.032 186.063 240.36C182.772 238.63 178.728 239.972 177.109 243.291L156.602 285.447C151.883 294.086 150.056 304.009 151.379 313.765L152 318.327L152.012 318.318C152.116 322.643 153.595 326.964 156.556 330.558L179.877 358.873C185.22 365.361 194.81 366.287 201.298 360.945L230.337 337.028L275.142 300.122C278.174 297.625 278.559 293.105 275.955 290.129Z" fill="#FCDABA"/>
<path d="M172.73 340.316C172.714 340.298 172.702 340.282 172.687 340.264C172.189 339.601 172.323 338.66 172.983 338.161C175.523 336.251 183.909 329.079 185.131 316.921C186.048 307.802 182.494 300.782 180.293 297.411C179.841 296.717 180.037 295.785 180.73 295.333C181.427 294.881 182.35 295.076 182.809 295.77C185.226 299.474 189.129 307.188 188.12 317.224C186.775 330.594 177.577 338.467 174.789 340.563C174.145 341.049 173.237 340.936 172.73 340.319V340.316Z" fill="#DCAC82"/>
<path d="M200.586 283.105C200.078 282.491 200.14 281.58 200.736 281.04C201.35 280.483 202.3 280.529 202.856 281.143C208.269 287.112 213.654 293.346 218.864 299.676L219.039 299.887C224.173 306.127 229.188 312.524 233.949 318.892C234.444 319.556 234.31 320.497 233.644 320.995C232.981 321.49 232.061 321.377 231.541 320.689C226.81 314.357 221.823 308.001 216.719 301.794L216.548 301.586C211.365 295.293 206.013 289.098 200.635 283.164C200.619 283.145 200.601 283.127 200.586 283.109V283.105Z" fill="#DCAC82"/>
<path d="M278.551 297.311L237.012 331.527L188.365 274.149L233.788 236.736C237.614 233.591 243.332 234.282 246.275 238.368C248.959 242.093 248.066 247.319 244.524 250.244L207.503 280.734C207.252 280.945 207.124 281.245 207.124 281.544C207.124 281.774 207.203 282.006 207.365 282.195C207.726 282.635 208.377 282.696 208.817 282.336L251.355 247.298C255.181 244.153 260.908 244.844 263.842 248.93C266.534 252.655 265.636 257.881 262.091 260.806L219.782 295.654C219.531 295.856 219.412 296.156 219.412 296.446C219.412 296.675 219.483 296.917 219.641 297.106C220.011 297.546 220.662 297.616 221.102 297.247L261.058 264.341C264.884 261.197 270.611 261.887 273.545 265.973C276.238 269.699 275.348 274.925 271.794 277.84L232.068 310.565C231.627 310.926 231.566 311.586 231.927 312.026C232.288 312.466 232.948 312.527 233.388 312.167L267.353 284.188C270.898 281.263 276.195 281.395 279.339 284.738C282.784 288.414 282.374 294.16 278.548 297.305L278.551 297.311Z" fill="#DCAC82"/>
<path d="M191.471 214.028L180.35 330.812C180.003 334.448 182.67 337.676 186.306 338.022L237.576 342.905C241.212 343.251 244.44 340.584 244.786 336.948L255.908 220.165C256.254 216.529 253.587 213.301 249.951 212.954L198.682 208.072C195.046 207.726 191.817 210.392 191.471 214.028Z" fill="#2C2044"/>
<path d="M191.712 211.54L180.591 328.324C180.245 331.96 182.911 335.188 186.547 335.534L237.817 340.417C241.453 340.763 244.681 338.096 245.028 334.46L256.149 217.677C256.495 214.041 253.829 210.812 250.193 210.466L198.923 205.584C195.287 205.237 192.059 207.904 191.712 211.54Z" fill="#544A69"/>
<path d="M185.363 326.146L195.644 218.191C195.935 215.137 198.651 212.89 201.708 213.181L246.032 217.402C249.087 217.693 251.333 220.409 251.042 223.467L240.761 331.421C240.47 334.476 237.754 336.722 234.697 336.431L190.373 332.21C187.318 331.919 185.072 329.203 185.363 326.146Z" fill="#742384"/>
<path fill-rule="evenodd" clip-rule="evenodd" d="M228.271 211.073L220.334 210.318C219.803 210.266 219.332 210.657 219.28 211.189C219.228 211.721 219.619 212.192 220.151 212.243L228.088 212.998C228.619 213.05 229.09 212.659 229.142 212.127C229.194 211.596 228.803 211.125 228.271 211.073Z" fill="#2C2044"/>
<path fill-rule="evenodd" clip-rule="evenodd" d="M216.891 209.992C216.359 209.94 215.889 210.331 215.837 210.863C215.785 211.394 216.176 211.865 216.708 211.917C217.239 211.969 217.71 211.578 217.762 211.046C217.814 210.514 217.423 210.044 216.891 209.992Z" fill="#2C2044"/>
<g clip-path="url(#clip2_867_5213)">
<path fill-rule="evenodd" clip-rule="evenodd" d="M179.939 201.829C180.284 202.638 180.93 203.283 181.738 203.628C182.769 204.067 184.243 204.697 185.419 205.199C186.137 205.505 186.136 206.522 185.419 206.829L181.738 208.4C180.929 208.745 180.284 209.389 179.939 210.199C179.499 211.23 178.87 212.704 178.368 213.879C178.061 214.598 177.045 214.598 176.738 213.879C176.236 212.704 175.607 211.23 175.167 210.199C174.822 209.389 174.176 208.745 173.368 208.4C172.336 207.96 170.863 207.33 169.687 206.829C168.969 206.522 168.969 205.505 169.687 205.199C170.863 204.697 172.336 204.067 173.368 203.628C174.177 203.283 174.822 202.637 175.167 201.829C175.607 200.797 176.236 199.324 176.738 198.148C177.045 197.43 178.061 197.43 178.368 198.148C178.87 199.324 179.499 200.797 179.939 201.829Z" fill="#CE92D6"/>
</g>
<g clip-path="url(#clip3_867_5213)">
<path fill-rule="evenodd" clip-rule="evenodd" d="M372.218 261.568C372.349 261.877 372.596 262.123 372.905 262.255C373.298 262.423 373.861 262.663 374.31 262.855C374.584 262.972 374.584 263.36 374.31 263.477L372.905 264.077C372.596 264.209 372.349 264.455 372.218 264.764C372.05 265.158 371.809 265.72 371.618 266.169C371.501 266.443 371.113 266.443 370.995 266.169C370.804 265.72 370.564 265.158 370.396 264.764C370.264 264.455 370.017 264.209 369.709 264.077C369.315 263.909 368.752 263.669 368.303 263.477C368.029 263.36 368.029 262.972 368.303 262.855C368.752 262.663 369.315 262.423 369.709 262.255C370.018 262.123 370.264 261.877 370.396 261.568C370.564 261.174 370.804 260.612 370.995 260.163C371.113 259.888 371.501 259.888 371.618 260.163C371.809 260.612 372.05 261.174 372.218 261.568Z" fill="#E3B2EB"/>
</g>
<g clip-path="url(#clip4_867_5213)">
<path fill-rule="evenodd" clip-rule="evenodd" d="M306.641 374.038C306.924 374.7 307.452 375.228 308.113 375.51C308.957 375.87 310.163 376.385 311.125 376.795C311.712 377.046 311.711 377.878 311.125 378.129L308.113 379.414C307.451 379.697 306.924 380.224 306.641 380.886C306.281 381.73 305.766 382.936 305.356 383.898C305.105 384.485 304.273 384.485 304.022 383.898C303.612 382.936 303.097 381.73 302.737 380.886C302.454 380.224 301.926 379.697 301.265 379.414C300.421 379.055 299.215 378.539 298.253 378.129C297.666 377.878 297.666 377.046 298.253 376.795C299.215 376.385 300.421 375.87 301.265 375.51C301.927 375.228 302.454 374.699 302.737 374.038C303.097 373.194 303.612 371.989 304.022 371.027C304.273 370.439 305.105 370.439 305.356 371.027C305.766 371.989 306.281 373.194 306.641 374.038Z" fill="#CE92D6"/>
</g>
<g clip-path="url(#clip5_867_5213)">
<path fill-rule="evenodd" clip-rule="evenodd" d="M225.957 367.769C226.151 368.225 226.515 368.588 226.971 368.783C227.552 369.031 228.383 369.386 229.046 369.668C229.45 369.841 229.45 370.414 229.046 370.587L226.971 371.472C226.515 371.667 226.151 372.03 225.957 372.486C225.709 373.068 225.354 373.898 225.072 374.561C224.899 374.966 224.326 374.966 224.153 374.561C223.87 373.898 223.515 373.068 223.267 372.486C223.073 372.03 222.709 371.667 222.253 371.472C221.672 371.225 220.841 370.87 220.179 370.587C219.774 370.414 219.774 369.841 220.179 369.668C220.841 369.386 221.672 369.031 222.253 368.783C222.709 368.588 223.073 368.224 223.267 367.769C223.515 367.187 223.87 366.357 224.153 365.694C224.326 365.289 224.899 365.289 225.072 365.694C225.354 366.357 225.709 367.187 225.957 367.769Z" fill="#CE92D6"/>
</g>
<g clip-path="url(#clip6_867_5213)">
<path fill-rule="evenodd" clip-rule="evenodd" d="M147.05 275.092C147.213 275.475 147.519 275.78 147.901 275.943C148.388 276.151 149.085 276.448 149.641 276.685C149.98 276.83 149.98 277.311 149.641 277.456L147.901 278.199C147.518 278.362 147.213 278.666 147.05 279.049C146.842 279.537 146.545 280.233 146.308 280.789C146.163 281.128 145.682 281.128 145.537 280.789C145.3 280.233 145.002 279.537 144.794 279.049C144.631 278.666 144.326 278.362 143.944 278.199C143.456 277.991 142.76 277.693 142.204 277.456C141.864 277.311 141.864 276.83 142.204 276.685C142.76 276.448 143.456 276.151 143.944 275.943C144.327 275.78 144.631 275.474 144.794 275.092C145.002 274.605 145.3 273.908 145.537 273.352C145.682 273.013 146.163 273.013 146.308 273.352C146.545 273.908 146.842 274.605 147.05 275.092Z" fill="#CE92D6"/>
</g>
<g clip-path="url(#clip7_867_5213)">
<path fill-rule="evenodd" clip-rule="evenodd" d="M345.907 202.658C346.303 203.743 347.045 204.607 347.973 205.07C349.157 205.66 350.85 206.504 352.199 207.177C353.024 207.588 353.023 208.951 352.199 209.363L347.973 211.469C347.043 211.932 346.303 212.796 345.907 213.882C345.402 215.264 344.679 217.241 344.103 218.817C343.751 219.78 342.584 219.78 342.231 218.817C341.655 217.241 340.932 215.264 340.427 213.882C340.031 212.796 339.29 211.932 338.362 211.469C337.177 210.879 335.485 210.035 334.135 209.363C333.31 208.951 333.31 207.588 334.135 207.177C335.485 206.504 337.177 205.66 338.362 205.07C339.291 204.607 340.031 203.742 340.427 202.658C340.932 201.275 341.655 199.299 342.231 197.722C342.584 196.759 343.751 196.759 344.103 197.722C344.679 199.299 345.402 201.275 345.907 202.658Z" fill="#CE92D6"/>
<path fill-rule="evenodd" clip-rule="evenodd" d="M323.525 224.614C323.673 225.019 323.951 225.342 324.297 225.515C324.74 225.736 325.373 226.051 325.877 226.303C326.185 226.456 326.185 226.966 325.877 227.12L324.297 227.907C323.95 228.08 323.673 228.403 323.525 228.808C323.337 229.325 323.066 230.064 322.851 230.653C322.719 231.013 322.283 231.013 322.152 230.653C321.936 230.064 321.666 229.325 321.477 228.808C321.329 228.403 321.052 228.08 320.705 227.907C320.263 227.686 319.63 227.371 319.126 227.12C318.817 226.966 318.817 226.456 319.126 226.303C319.63 226.051 320.263 225.736 320.705 225.515C321.053 225.342 321.329 225.019 321.477 224.614C321.666 224.097 321.936 223.358 322.152 222.769C322.283 222.409 322.719 222.409 322.851 222.769C323.066 223.358 323.337 224.097 323.525 224.614Z" fill="#CE92D6"/>
</g>
<path d="M213.008 267.363L213.865 255.5C214.087 252.411 216.771 250.09 219.861 250.312C222.951 250.535 225.272 253.219 225.049 256.309L224.192 268.172L229.364 268.546L230.19 257.112C230.621 251.169 226.149 246.001 220.205 245.57C214.261 245.139 209.094 249.611 208.663 255.555L207.836 266.989L213.008 267.363Z" fill="#CACCDD"/>
<path d="M212.498 256.014L212.094 261.403C209.743 261.265 208.234 261.431 208.234 261.431L207.838 266.991L211.686 267.268L213.007 267.365L213.863 255.505C214.008 253.506 215.182 251.83 216.832 250.954C214.497 251.491 212.68 253.498 212.5 256.015L212.498 256.014Z" fill="#9DA1BA"/>
<path d="M220.206 245.572C218.348 245.438 216.567 245.782 214.981 246.499C216.198 246.136 217.5 245.983 218.84 246.081C224.784 246.512 229.253 251.677 228.825 257.621L228.388 263.123C226.442 262.644 224.567 262.737 224.567 262.737L224.19 268.17L228.039 268.448L229.359 268.544L230.185 257.111C230.622 251.17 226.149 246.002 220.206 245.572Z" fill="#9DA1BA"/>
<path d="M202.078 264.063L236.867 266.975C237.561 267.034 238.081 267.645 238.022 268.342L236.068 291.686C235.485 298.642 229.365 303.817 222.409 303.234L210.305 302.221C203.349 301.639 198.174 295.518 198.757 288.562L200.711 265.218C200.769 264.524 201.381 264.004 202.078 264.063Z" fill="#AA6E26"/>
<path d="M235.261 265.574L237.584 267.269L236.92 270.344L234.383 266.609L235.261 265.574Z" fill="#AA6E26"/>
<path d="M199.739 262.368L234.528 265.281C235.222 265.339 235.742 265.951 235.684 266.648L233.729 289.992C233.147 296.948 227.026 302.122 220.07 301.54L207.967 300.527C201.011 299.941 195.836 293.821 196.418 286.865L198.373 263.521C198.431 262.827 199.042 262.31 199.739 262.368Z" fill="#E5A342"/>
<path d="M202.086 267.672C202.136 267.086 202.651 266.65 203.237 266.699L232.525 269.151L232.527 269.124C232.576 268.537 232.14 268.022 231.554 267.973L202.231 265.517C201.644 265.468 201.129 265.904 201.08 266.491L199.432 286.167C199.162 289.397 200.364 292.408 202.474 294.546C201.001 292.542 200.218 290.02 200.442 287.348L202.089 267.672L202.086 267.672Z" fill="#AA6E26"/>
<path d="M219.364 298.533C225.23 299.024 230.386 294.665 230.877 288.799L232.522 269.151L203.235 266.699C202.648 266.649 202.133 267.085 202.084 267.672L200.436 287.348C200.213 290.019 200.998 292.542 202.468 294.545C204.194 296.291 206.522 297.458 209.161 297.679L219.364 298.533Z" fill="#F7B759"/>
<path d="M219.329 279.069C219.476 277.079 218.352 275.375 216.818 275.26C215.285 275.146 213.923 276.669 213.774 278.657C213.658 280.204 214.314 281.582 215.334 282.169C214.655 284.894 213.979 287.617 213.299 290.34L217.922 290.68C217.653 287.908 217.384 285.137 217.117 282.362C218.285 281.992 219.208 280.683 219.329 279.063L219.329 279.069Z" fill="#AA6E26"/>
<path d="M217.976 278.969C218.123 276.979 216.998 275.275 215.465 275.161C213.932 275.046 212.57 276.57 212.423 278.557C212.308 280.105 212.964 281.483 213.984 282.069C213.305 284.795 212.628 287.518 211.949 290.241L216.572 290.58C216.303 287.809 216.033 285.037 215.767 282.263C216.935 281.893 217.857 280.583 217.979 278.964L217.976 278.969Z" fill="#E5A342"/>
<path d="M218.683 279.02C218.831 277.029 217.706 275.325 216.173 275.211C214.639 275.097 213.278 276.62 213.128 278.607C213.012 280.155 213.669 281.533 214.689 282.119C214.012 284.845 213.333 287.568 212.654 290.291L217.277 290.633C217.007 287.862 216.738 285.09 216.472 282.316C217.639 281.946 218.562 280.636 218.684 279.017L218.683 279.02Z" fill="#994D1A"/>
<path d="M239.14 300.008L239.403 298.254C239.449 297.943 239.611 297.66 239.856 297.463L241.235 296.347C241.498 296.136 241.383 295.712 241.049 295.662L239.294 295.4C238.984 295.353 238.701 295.191 238.504 294.947L237.388 293.567C237.177 293.304 236.753 293.42 236.703 293.753L236.441 295.508C236.394 295.818 236.232 296.102 235.988 296.299L234.608 297.414C234.345 297.626 234.46 298.05 234.794 298.099L236.549 298.362C236.859 298.408 237.143 298.57 237.34 298.815L238.455 300.194C238.666 300.457 239.091 300.342 239.14 300.008Z" fill="#F4C12A"/>
<path d="M313.923 254.774L364.982 290.543C374.601 297.282 375.81 311.856 367.688 323.095L344.747 354.841C343.673 356.326 342.471 357.698 341.174 358.935C337.004 362.904 331.816 365.497 326.478 366.186L313.741 367.819C308.002 368.559 302.418 367.742 297.533 365.446L278.555 356.534C274.796 354.773 272.69 350.751 273.121 346.161L274.644 329.889L232.003 300.017C228.035 297.238 227.531 291.228 230.885 286.587L231.059 286.347C234.409 281.71 240.345 280.205 244.312 282.984L273.7 303.572C269.732 300.792 269.236 294.781 272.586 290.145L272.76 289.904C276.11 285.268 282.041 283.759 286.009 286.539L286.114 286.612C284.102 285.203 282.966 282.972 282.765 280.509C282.56 278.042 283.285 275.34 284.984 272.989C288.382 268.286 294.398 266.76 298.423 269.579L301.611 271.812C297.586 268.993 297.082 262.891 300.48 258.188C303.879 253.486 309.899 251.954 313.923 254.774Z" fill="#FBCCA1"/>
<path d="M287.836 338.799L276.186 329.282L275.109 340.802L287.836 338.799Z" fill="#DCAC82"/>
<path d="M26.9062 45.1106C26.6761 44.9942 26.4132 44.9323 26.1187 44.9272C25.9127 44.9209 25.7029 44.9462 25.488 44.9968C25.2731 45.0486 25.0747 45.1295 24.8927 45.2382C24.7094 45.3469 24.5603 45.4872 24.4414 45.6579C24.3226 45.8285 24.2581 46.0307 24.2443 46.2658L25.3465 46.2582C25.3692 46.1495 25.4109 46.0547 25.4716 45.9751C25.5322 45.8955 25.6081 45.8335 25.7003 45.7918C25.7926 45.7488 25.8975 45.7286 26.0151 45.7311C26.1453 45.7374 26.2464 45.7691 26.3184 45.8272C26.3905 45.8853 26.4372 45.9637 26.4612 46.0635C26.484 46.1634 26.4904 46.2696 26.4764 46.3847L26.4334 46.6601L25.8988 46.6564C25.6649 46.6564 25.4286 46.6791 25.1897 46.7246C24.9521 46.7701 24.7322 46.846 24.5299 46.9534C24.3277 47.0596 24.1633 47.205 24.0357 47.3895C23.908 47.5728 23.8385 47.8028 23.8284 48.0783C23.8183 48.3223 23.8689 48.5372 23.9826 48.7204C24.0951 48.9037 24.2493 49.0491 24.4427 49.154C24.6361 49.2589 24.8497 49.3145 25.081 49.3196C25.2478 49.3221 25.4046 49.2994 25.55 49.2513C25.6953 49.2033 25.8293 49.1351 25.9519 49.044C26.0214 48.9922 26.0858 48.9353 26.1465 48.8734C26.1554 48.9973 26.1769 49.1173 26.2122 49.2349L27.2904 49.2311L27.298 49.1616C27.2386 49.0137 27.2146 48.8557 27.2285 48.6914C27.2424 48.5258 27.2601 48.3678 27.2841 48.2161L27.5774 46.4035C27.609 46.0939 27.5622 45.8297 27.4383 45.6123C27.3144 45.3949 27.1375 45.2268 26.9062 45.1106ZM26.0858 48.1807C25.9923 48.2806 25.8811 48.3564 25.7534 48.4095C25.6258 48.4626 25.4956 48.4879 25.3629 48.4854C25.2694 48.4828 25.1897 48.4601 25.1227 48.4184C25.057 48.3766 25.0077 48.3197 24.9761 48.2478C24.9445 48.1757 24.9357 48.0948 24.9483 48.0038C24.9647 47.8761 25.0026 47.7674 25.0633 47.6789C25.1253 47.5905 25.2024 47.5184 25.2959 47.4616C25.3894 47.4059 25.4918 47.3642 25.6018 47.3364C25.7117 47.3086 25.8242 47.2934 25.9355 47.2909L26.3323 47.2934L26.2262 47.9735C26.1895 48.048 26.144 48.1175 26.0846 48.1795L26.0858 48.1807Z" fill="white"/>
<path d="M27.9912 49.2335H29.0884L30.1312 43.2322H29.029L27.9912 49.2335Z" fill="white"/>
<path d="M34.612 48.3046C34.4363 48.3918 34.2442 48.4323 34.0356 48.4272C33.8725 48.4221 33.7347 48.3855 33.6274 48.3185C33.5199 48.2515 33.4339 48.163 33.3733 48.053C33.3126 47.9431 33.2709 47.8204 33.2507 47.6839C33.2393 47.6119 33.2343 47.5399 33.233 47.4666H35.833L35.8949 46.9976C35.9227 46.7284 35.9138 46.4718 35.8671 46.2253C35.8203 45.9789 35.7331 45.7602 35.6054 45.5668C35.4778 45.3747 35.3097 45.2205 35.1011 45.1067C34.8926 44.9929 34.641 44.9323 34.3466 44.9272C34.0306 44.9184 33.7449 44.9727 33.4883 45.089C33.2317 45.2053 33.0105 45.3646 32.8222 45.5694C32.6351 45.7741 32.4847 46.0092 32.3735 46.2746C32.261 46.5413 32.1902 46.8206 32.1586 47.1152L32.1434 47.2757C32.1232 47.5563 32.1485 47.8204 32.2218 48.0657C32.2951 48.3096 32.4088 48.5258 32.5643 48.7103C32.7185 48.8961 32.912 49.0402 33.1445 49.1464C33.3771 49.2513 33.6375 49.3069 33.9256 49.312H33.9269C34.1317 49.3145 34.339 49.2892 34.5475 49.2361C34.7561 49.1831 34.9507 49.0996 35.1315 48.9859C35.3122 48.8721 35.4613 48.7267 35.5789 48.5498L35.0859 47.9557C34.9444 48.1023 34.7877 48.2187 34.6107 48.3058L34.612 48.3046ZM33.525 46.2367C33.6021 46.104 33.7032 45.9978 33.8258 45.9156C33.9484 45.8348 34.1001 45.7968 34.2783 45.8019C34.435 45.807 34.5602 45.8474 34.6537 45.9232C34.7472 45.9978 34.8117 46.099 34.8445 46.2215C34.8774 46.3454 34.885 46.4781 34.8635 46.6222L34.8445 46.7195L33.3341 46.717C33.3379 46.7006 33.3417 46.6841 33.3455 46.6677C33.3859 46.5135 33.4466 46.3694 33.525 46.2367Z" fill="white"/>
<path d="M39.0554 45.0056L38.1568 46.2834L37.6878 45.0056V45.0043H36.5629L37.3832 47.0216L35.7969 49.2323H37.0229L37.9697 47.8811L38.4968 49.2323H39.6141L38.7584 47.1227L40.2776 45.0056H39.0554Z" fill="white"/>
<path d="M42.2916 43.9628H41.1932L41.0175 45.0056H40.4208L40.2793 45.8018H40.8835L40.5018 48.072C40.479 48.3134 40.5018 48.527 40.57 48.7103C40.6396 48.8936 40.7533 49.0377 40.9138 49.1413C41.0744 49.2462 41.2791 49.3006 41.5294 49.3056C41.6394 49.3056 41.7468 49.298 41.8517 49.2841C41.9579 49.2702 42.0615 49.2475 42.1664 49.2159L42.2448 48.3766C42.1879 48.3854 42.1323 48.3917 42.0767 48.3981C42.021 48.4044 41.9679 48.4069 41.9124 48.4044C41.8125 48.3993 41.7405 48.3804 41.6937 48.3463C41.6469 48.3122 41.6178 48.2641 41.6065 48.1997C41.5951 48.1351 41.5951 48.058 41.6052 47.9671L41.9768 45.8031H42.6758L42.8174 45.0068H42.1146L42.2941 43.964L42.2916 43.9628Z" fill="white"/>
<path d="M46.3496 45.5668C46.222 45.3747 46.0538 45.2205 45.8453 45.1067C45.6367 44.9929 45.3852 44.9323 45.0907 44.9272C44.7747 44.9184 44.489 44.9727 44.2325 45.089C43.9759 45.2053 43.7546 45.3646 43.5663 45.5694C43.3792 45.7741 43.2289 46.0092 43.1176 46.2746C43.0051 46.5413 42.9343 46.8206 42.9027 47.1152L42.8876 47.2757C42.8673 47.5563 42.8926 47.8204 42.966 48.0657C43.0393 48.3096 43.153 48.5258 43.3085 48.7103C43.4627 48.8961 43.6561 49.0402 43.8887 49.1464C44.1212 49.2513 44.3816 49.3069 44.6698 49.312H44.671C44.8758 49.3145 45.0831 49.2892 45.2917 49.2361C45.5002 49.1831 45.6948 49.0996 45.8756 48.9859C46.0564 48.8721 46.2056 48.7267 46.3231 48.5498L45.8301 47.9557C45.6886 48.1023 45.5318 48.2187 45.3549 48.3058C45.1792 48.393 44.987 48.4335 44.7785 48.4284C44.6155 48.4234 44.4777 48.3867 44.3702 48.3198C44.2628 48.2528 44.1768 48.1643 44.1162 48.0543C44.0555 47.9444 44.0138 47.8217 43.9935 47.6852C43.9822 47.6132 43.9771 47.5411 43.9759 47.4678H46.5758L46.6378 46.9989C46.6656 46.7297 46.6568 46.4731 46.61 46.2266C46.5633 45.9801 46.476 45.7614 46.3484 45.5681L46.3496 45.5668ZM45.6064 46.6235L45.5874 46.7208L44.077 46.7183C44.0808 46.7018 44.0846 46.6854 44.0883 46.669C44.1288 46.5148 44.1895 46.3707 44.2678 46.2379C44.3449 46.1053 44.4461 45.999 44.5687 45.9169C44.6913 45.836 44.8417 45.7981 45.0212 45.8031C45.1779 45.8082 45.303 45.8487 45.3966 45.9245C45.4901 45.999 45.5546 46.1002 45.5874 46.2228C45.6203 46.3467 45.6279 46.4794 45.6064 46.6235Z" fill="white"/>
<path d="M49.9065 44.9702C49.8408 44.9551 49.7776 44.9424 49.7169 44.9311C49.6562 44.9197 49.5931 44.9158 49.5273 44.9158C49.2771 44.9134 49.0647 44.9728 48.8928 45.0941C48.7803 45.1737 48.6817 45.2698 48.5945 45.3797L48.635 45.0069H47.6035L46.8691 49.2336H47.9663L48.4403 46.4971C48.4997 46.3884 48.5717 46.2949 48.6577 46.219C48.7474 46.1394 48.8536 46.0787 48.9762 46.037C49.0988 45.9953 49.2353 45.9763 49.387 45.9789C49.4527 45.9814 49.5172 45.9865 49.5804 45.994C49.6436 46.0029 49.7068 46.0117 49.77 46.0219L49.9065 44.9715V44.9702Z" fill="white"/>
<path d="M49.7598 49.2324H50.8568L51.5912 45.0056H50.4941L49.7598 49.2324Z" fill="white"/>
<path d="M51.2276 43.3346C51.0557 43.3371 50.9091 43.3927 50.7877 43.4989C50.6664 43.6063 50.6095 43.7478 50.6146 43.9249C50.6171 44.0968 50.679 44.232 50.8004 44.3318C50.9217 44.4304 51.0646 44.4785 51.2289 44.4759C51.3982 44.4722 51.5436 44.4178 51.6662 44.3116C51.7888 44.2055 51.8469 44.0626 51.8419 43.8856C51.8419 43.7175 51.7812 43.5823 51.6586 43.4812C51.536 43.38 51.3932 43.332 51.2289 43.3346H51.2276Z" fill="white"/>
<path d="M55.4879 45.5832C55.3463 45.3848 55.1644 45.2281 54.9432 45.1106C54.7207 44.9942 54.4577 44.9323 54.1532 44.9272C53.8321 44.9197 53.5439 44.9728 53.2873 45.0865C53.0307 45.2003 52.8083 45.357 52.6199 45.5592C52.4316 45.7614 52.2799 45.994 52.1662 46.2582C52.0524 46.5223 51.9804 46.8055 51.9488 47.1051L51.9374 47.1873V47.1847C51.9134 47.4666 51.9298 47.7333 51.9879 47.9861C52.0461 48.2389 52.1434 48.4638 52.285 48.6597C52.4253 48.8569 52.6073 49.0124 52.8311 49.1287C53.0548 49.245 53.3164 49.3057 53.616 49.3107C53.932 49.3196 54.2176 49.2665 54.4754 49.1552C54.7333 49.0428 54.9558 48.8886 55.1454 48.6889C55.335 48.4891 55.4867 48.2578 55.6029 47.9975C55.7193 47.7358 55.7938 47.4565 55.8279 47.1594L55.8355 47.0735C55.8621 46.7903 55.8456 46.5199 55.7875 46.2646C55.7294 46.0092 55.6282 45.7817 55.4867 45.5845L55.4879 45.5832ZM54.7346 47.0722L54.727 47.1544C54.7119 47.301 54.6802 47.4489 54.6335 47.6018C54.5867 47.7547 54.5235 47.8951 54.4426 48.024C54.3617 48.1529 54.2594 48.2566 54.1342 48.3324C54.0104 48.4095 53.8599 48.4449 53.6855 48.4398C53.5225 48.4348 53.3922 48.3906 53.2987 48.3084C53.2052 48.2262 53.1382 48.1213 53.0977 47.9936C53.0573 47.866 53.0346 47.7307 53.0295 47.5892C53.0244 47.4476 53.0283 47.3137 53.0408 47.1885L53.0484 47.1026C53.0648 46.956 53.094 46.8068 53.1407 46.6526C53.1862 46.4983 53.2494 46.3568 53.3303 46.2266C53.4112 46.0964 53.5136 45.9915 53.6387 45.9119C53.7639 45.8322 53.913 45.7956 54.0875 45.8007C54.2505 45.807 54.3806 45.8512 54.4742 45.9359C54.5678 46.0206 54.6348 46.128 54.6765 46.2569C54.7182 46.3858 54.7422 46.5236 54.7447 46.6677C54.7485 46.8118 54.7447 46.9471 54.7346 47.0722Z" fill="white"/>
<path d="M59.1578 44.9702C59.092 44.9551 59.0289 44.9424 58.9682 44.9311C58.9075 44.9197 58.8443 44.9158 58.7786 44.9158C58.5283 44.9134 58.3159 44.9728 58.1428 45.0941C58.0303 45.1737 57.9317 45.2698 57.8445 45.3797L57.885 45.0069H56.8535L56.1191 49.2336H57.2163L57.6903 46.4971C57.7497 46.3884 57.8217 46.2949 57.9077 46.219C57.9974 46.1394 58.1036 46.0787 58.2263 46.037C58.3488 45.9953 58.4853 45.9763 58.637 45.9789C58.7015 45.9814 58.7672 45.9865 58.8304 45.994C58.8936 46.0016 58.9568 46.0117 59.02 46.0219L59.1565 44.9715L59.1578 44.9702Z" fill="white"/>
<path d="M34.4487 39.0271C34.4057 39.2002 34.3766 39.3241 34.3614 39.3747C34.0858 40.6411 34.1516 41.1404 35.1362 41.0241C36.2005 40.894 36.3307 40.3441 36.677 39.0271C36.6985 38.9322 36.7276 38.8236 36.7643 38.6934C40.3464 38.208 43.864 37.9047 48.7051 37.5065C48.901 37.4901 49.0716 37.4724 49.2194 37.4509C49.2839 37.4445 49.3471 37.4395 49.4142 37.4332C50.8437 37.3005 50.8298 37.0502 50.9613 36.1629C51.1129 35.153 49.9905 35.1542 49.6531 35.1643H49.4925C47.3197 35.2212 45.7891 35.2326 43.4393 35.4879C41.4334 35.6561 39.4009 35.8785 37.4518 36.1237C37.879 34.5969 38.2987 33.099 38.2987 33.099C38.2987 33.099 38.7323 34.0331 39.9558 33.9383C41.6925 33.8005 43.8059 32.1144 44.8335 29.0164C45.9193 25.7237 45.8245 21.9899 43.6036 21.6701C41.8088 21.4161 40.9543 23.0023 40.8317 23.3196C40.8317 23.3196 41.216 21.8787 40.0708 22.1327C38.9788 22.3716 38.7829 22.8557 38.5073 23.7317C38.4567 23.8833 37.5378 27.3075 36.5759 30.9111C36.562 30.9325 36.5468 30.9616 36.5405 30.9907C36.3016 31.8085 35.8314 32.0765 35.4914 32.0979C34.3918 32.17 36.7579 24.9122 36.9387 24.3535C37.1776 23.6306 37.3153 23.0794 36.5114 22.7761C35.9692 22.5739 35.2297 22.6459 35.0137 23.2248C34.9189 23.4713 34.8543 23.6444 34.8543 23.6444C34.8543 23.6444 34.2388 22.7256 32.8712 22.8481C31.5035 22.9708 29.7745 24.6354 28.6369 27.559C27.4943 30.4763 27.0013 34.6663 29.7075 35.0847C31.0827 35.2945 32.2404 34.5134 32.8409 33.2178C32.8409 33.2178 32.7322 34.0861 33.6448 34.5134C33.9999 34.679 34.8822 34.6145 35.7215 34.1443C35.504 34.9697 35.2943 35.7432 35.1135 36.4384C29.2663 37.2486 24.6554 38.1536 24.6554 38.1536C24.6554 38.1536 27.8621 27.305 28.5851 24.9248C29.193 22.9278 28.0492 23.3613 27.2099 23.6078C26.3124 23.8682 25.8852 24.6215 25.4364 25.9967C23.4748 31.9968 21.9264 33.8637 20.8052 33.458C19.7777 33.0889 23.0122 26.721 22.2386 25.8817C21.5662 25.1511 20.1834 25.1941 19.9154 25.6213C19.6551 26.0486 20.0456 26.4467 19.8724 27.0547C19.7069 27.6626 18.4101 30.9553 18.2735 31.6934C18.1358 32.4316 17.0146 36.5206 19.9888 36.3399C21.7469 36.2387 22.949 34.9065 23.0791 34.5374C22.5294 36.1224 21.7469 38.6921 21.7469 38.6921C21.7469 38.6921 18.1496 39.5895 15.2842 42.5928C13.004 44.9741 11.3975 50.1046 14.7988 50.9223C20.081 52.1964 22.5862 44.1259 23.8666 41.0873C28.1515 40.1318 31.4214 39.5023 34.4474 39.0245L34.4487 39.0271ZM39.7245 28.2365V28.2289C40.4475 25.8628 41.1136 24.9211 41.7367 24.6531C43.227 24.0161 43.5101 25.8829 42.3586 28.7269C41.0264 32.012 39.4704 31.9399 38.8776 31.289C38.8776 31.289 38.9572 30.7253 39.7245 28.2352V28.2365ZM33.0659 29.6547C32.4288 31.1955 31.8284 32.2812 31.003 32.2888C29.8237 32.2964 29.8516 30.523 30.6921 28.2871C31.4012 26.4125 32.6892 25.2257 33.3843 25.0955C34.0796 24.9654 34.8897 25.2548 33.0659 29.6547ZM17.4469 47.6082C14.6383 50.1197 15.3474 46.6829 16.3902 45.1991C18.3734 42.3842 20.8268 41.6675 20.8268 41.6675C19.5817 45.3077 18.0258 47.095 17.4469 47.6082Z" fill="white"/>
<path d="M48.4085 33.1937C50.1313 33.1217 51.6216 31.8767 52.1651 30.9502C52.4254 30.5015 52.5342 29.7999 52.4836 29.4878C52.3534 28.6118 51.8175 28.4816 50.9061 29.6319C50.6812 29.8846 48.8876 31.4848 48.0041 30.5369C47.367 29.8492 47.903 28.5031 47.932 28.5031C49.0822 28.4159 51.0944 27.9533 52.6934 26.1079H52.6871C53.7513 24.878 54.2355 22.2591 52.4558 21.2959C50.2994 20.1306 47.4909 21.9115 46.3267 25.7464C45.2915 29.1541 44.9086 33.353 48.411 33.1925L48.4085 33.1937ZM50.1086 23.1199V23.1274C51.078 22.2224 51.997 23.3082 50.8834 24.8578C49.7546 26.429 48.43 26.3847 48.4237 26.4353C48.5615 25.8197 49.0531 24.1121 50.1098 23.1199H50.1086Z" fill="white"/>
</g>
<defs>
<filter id="filter0_f_867_5213" x="-142.491" y="-32.7548" width="774.385" height="663.339" filterUnits="userSpaceOnUse" color-interpolation-filters="sRGB">
<feFlood flood-opacity="0" result="BackgroundImageFix"/>
<feBlend mode="normal" in="SourceGraphic" in2="BackgroundImageFix" result="shape"/>
<feGaussianBlur stdDeviation="86.6667" result="effect1_foregroundBlur_867_5213"/>
</filter>
<filter id="filter1_d_867_5213" x="33.0935" y="72" width="453.813" height="45.1933" filterUnits="userSpaceOnUse" color-interpolation-filters="sRGB">
<feFlood flood-opacity="0" result="BackgroundImageFix"/>
<feColorMatrix in="SourceAlpha" type="matrix" values="0 0 0 0 0 0 0 0 0 0 0 0 0 0 0 0 0 0 127 0" result="hardAlpha"/>
<feOffset dy="4.17308"/>
<feGaussianBlur stdDeviation="2.08654"/>
<feComposite in2="hardAlpha" operator="out"/>
<feColorMatrix type="matrix" values="0 0 0 0 0 0 0 0 0 0 0 0 0 0 0 0 0 0 0.4 0"/>
<feBlend mode="normal" in2="BackgroundImageFix" result="effect1_dropShadow_867_5213"/>
<feBlend mode="normal" in="SourceGraphic" in2="effect1_dropShadow_867_5213" result="shape"/>
</filter>
<filter id="filter2_d_867_5213" x="33.1066" y="108.847" width="453.787" height="45.1672" filterUnits="userSpaceOnUse" color-interpolation-filters="sRGB">
<feFlood flood-opacity="0" result="BackgroundImageFix"/>
<feColorMatrix in="SourceAlpha" type="matrix" values="0 0 0 0 0 0 0 0 0 0 0 0 0 0 0 0 0 0 127 0" result="hardAlpha"/>
<feOffset dy="4.16"/>
<feGaussianBlur stdDeviation="2.08"/>
<feComposite in2="hardAlpha" operator="out"/>
<feColorMatrix type="matrix" values="0 0 0 0 0 0 0 0 0 0 0 0 0 0 0 0 0 0 0.4 0"/>
<feBlend mode="normal" in2="BackgroundImageFix" result="effect1_dropShadow_867_5213"/>
<feBlend mode="normal" in="SourceGraphic" in2="effect1_dropShadow_867_5213" result="shape"/>
</filter>
<clipPath id="clip0_867_5213">
<rect width="520" height="392" rx="12" fill="white"/>
</clipPath>
<clipPath id="clip1_867_5213">
<rect width="520" height="520" fill="white" transform="translate(0 -64)"/>
</clipPath>
<clipPath id="clip2_867_5213">
<rect width="16.8086" height="16.8086" fill="white" transform="translate(169.148 197.609)"/>
</clipPath>
<clipPath id="clip3_867_5213">
<rect width="6.41783" height="6.41783" fill="white" transform="translate(368.098 259.957)"/>
</clipPath>
<clipPath id="clip4_867_5213">
<rect width="13.7525" height="13.7525" fill="white" transform="translate(297.812 370.586)"/>
</clipPath>
<clipPath id="clip5_867_5213">
<rect width="9.47393" height="9.47393" fill="white" transform="translate(219.875 365.391)"/>
</clipPath>
<clipPath id="clip6_867_5213">
<rect width="7.94588" height="7.94588" fill="white" transform="translate(141.949 273.098)"/>
</clipPath>
<clipPath id="clip7_867_5213">
<rect width="33.9228" height="33.9228" fill="white" transform="translate(318.895 197)"/>
</clipPath>
</defs>
</svg>
