<svg width="520" height="392" viewBox="0 0 520 392" fill="none" xmlns="http://www.w3.org/2000/svg">
<g clip-path="url(#clip0_721_28580)">
<rect width="520" height="392" rx="12" fill="#52006B"/>
<g clip-path="url(#clip1_721_28580)">
<rect width="520" height="520" transform="translate(0 -64)" fill="#52006B"/>
<g opacity="0.4">
<path fill-rule="evenodd" clip-rule="evenodd" d="M107.349 -18.6003C108.082 -16.8897 109.452 -15.5279 111.168 -14.7988C113.357 -13.8693 116.486 -12.5387 118.981 -11.479C120.506 -10.8306 120.503 -8.68252 118.981 -8.03418L111.168 -4.71435C109.45 -3.98529 108.082 -2.62351 107.349 -0.912823C106.416 1.26655 105.079 4.38067 104.014 6.86469C103.363 8.38269 101.205 8.38269 100.554 6.86469C99.4893 4.38067 98.1527 1.26655 97.2189 -0.912823C96.4865 -2.62351 95.1159 -3.98529 93.4 -4.71435C91.2107 -5.6439 88.0824 -6.97444 85.5871 -8.03418C84.0621 -8.68252 84.0621 -10.8306 85.5871 -11.479C88.0824 -12.5387 91.2107 -13.8693 93.4 -14.7988C95.1185 -15.5279 96.4865 -16.8923 97.2189 -18.6003C98.1527 -20.7797 99.4893 -23.8938 100.554 -26.3779C101.205 -27.8959 103.363 -27.8959 104.014 -26.3779C105.079 -23.8938 106.416 -20.7797 107.349 -18.6003Z" fill="#3F0D4A"/>
<path fill-rule="evenodd" clip-rule="evenodd" d="M450.844 203.571C451.498 205.106 452.723 206.328 454.255 206.982C456.211 207.816 459.005 209.01 461.234 209.96C462.596 210.542 462.593 212.47 461.234 213.051L454.255 216.03C452.72 216.684 451.498 217.906 450.844 219.441C450.01 221.396 448.816 224.19 447.865 226.419C447.284 227.781 445.356 227.781 444.775 226.419C443.824 224.19 442.63 221.396 441.796 219.441C441.142 217.906 439.917 216.684 438.385 216.03C436.429 215.196 433.635 214.002 431.406 213.051C430.044 212.47 430.044 210.542 431.406 209.96C433.635 209.01 436.429 207.816 438.385 206.982C439.92 206.328 441.142 205.103 441.796 203.571C442.63 201.615 443.824 198.821 444.775 196.593C445.356 195.231 447.284 195.231 447.865 196.593C448.816 198.821 450.01 201.615 450.844 203.571Z" fill="#3F0D4A"/>
<path fill-rule="evenodd" clip-rule="evenodd" d="M70.088 305.357C70.911 307.288 72.4511 308.825 74.3792 309.648C76.8393 310.697 80.3546 312.199 83.1586 313.395C84.8722 314.127 84.8692 316.552 83.1586 317.284L74.3792 321.031C72.4482 321.854 70.911 323.391 70.088 325.322C69.0387 327.782 67.5367 331.297 66.3405 334.101C65.6086 335.815 63.1838 335.815 62.4519 334.101C61.2557 331.297 59.7537 327.782 58.7044 325.322C57.8815 323.391 56.3413 321.854 54.4132 321.031C51.9531 319.982 48.4378 318.48 45.6338 317.284C43.9202 316.552 43.9202 314.127 45.6338 313.395C48.4378 312.199 51.9531 310.697 54.4132 309.648C56.3443 308.825 57.8815 307.285 58.7044 305.357C59.7537 302.897 61.2557 299.382 62.4519 296.578C63.1838 294.864 65.6086 294.864 66.3405 296.578C67.5367 299.382 69.0387 302.897 70.088 305.357Z" fill="#3F0D4A"/>
<path fill-rule="evenodd" clip-rule="evenodd" d="M190.67 84.7885C190.944 85.4279 191.456 85.9368 192.097 86.2093C192.916 86.5567 194.085 87.054 195.017 87.4501C195.587 87.6924 195.586 88.4952 195.017 88.7375L192.097 89.9783C191.455 90.2507 190.944 90.7597 190.67 91.399C190.321 92.2135 189.822 93.3774 189.424 94.3058C189.18 94.8731 188.374 94.8731 188.13 94.3058C187.733 93.3774 187.233 92.2135 186.884 91.399C186.61 90.7597 186.098 90.2507 185.457 89.9783C184.639 89.6309 183.469 89.1336 182.537 88.7375C181.967 88.4952 181.967 87.6924 182.537 87.4501C183.469 87.054 184.639 86.5567 185.457 86.2093C186.099 85.9368 186.61 85.4269 186.884 84.7885C187.233 83.974 187.733 82.8102 188.13 81.8818C188.374 81.3145 189.18 81.3145 189.424 81.8818C189.822 82.8102 190.321 83.974 190.67 84.7885Z" fill="#3F0D4A"/>
<path fill-rule="evenodd" clip-rule="evenodd" d="M310.952 358.765C311.226 359.404 311.738 359.913 312.38 360.185C313.198 360.533 314.367 361.03 315.3 361.426C315.87 361.668 315.869 362.471 315.3 362.714L312.38 363.954C311.737 364.227 311.226 364.736 310.952 365.375C310.603 366.19 310.104 367.353 309.706 368.282C309.463 368.849 308.656 368.849 308.413 368.282C308.015 367.353 307.515 366.19 307.166 365.375C306.893 364.736 306.38 364.227 305.739 363.954C304.921 363.607 303.752 363.11 302.819 362.714C302.249 362.471 302.249 361.668 302.819 361.426C303.752 361.03 304.921 360.533 305.739 360.185C306.381 359.913 306.893 359.403 307.166 358.765C307.515 357.95 308.015 356.786 308.413 355.858C308.656 355.291 309.463 355.291 309.706 355.858C310.104 356.786 310.603 357.95 310.952 358.765Z" fill="#3F0D4A"/>
<path d="M28.2448 522.486L249.548 227.933C250.215 227.064 251.59 227.691 251.347 228.762L185.091 523.315C184.99 523.779 184.566 524.103 184.101 524.103H29.0533C28.2246 524.103 27.7395 523.153 28.2448 522.466V522.486Z" fill="#3F0D4A"/>
<path d="M260.968 -86.6296V200.384C260.968 201.313 262.14 201.758 262.746 201.051L511.518 -86.6296H379.108L293.328 126.993C293.045 127.701 291.973 127.337 292.175 126.609L320.048 27.9937C320.25 27.3065 319.32 26.9023 318.936 27.5087L301.372 56.4525C301.028 57.0185 300.139 56.6951 300.26 56.0281L325.081 -86.6296H260.968Z" fill="#3F0D4A"/>
<path d="M-17.333 31.8743L245.183 209.681C246.153 210.348 245.405 211.864 244.294 211.48L123.182 169.984C122.535 169.762 122.071 170.631 122.616 171.035L136.118 181.303C136.623 181.687 136.259 182.516 135.633 182.374L-17.333 150.581V31.8743Z" fill="#3F0D4A"/>
<path d="M274.389 236.584L429.76 460.677H537.815V371.642L455.41 324.062C454.945 323.8 454.379 324.224 454.52 324.75L462.807 354.3C462.949 354.846 462.363 355.27 461.898 354.967L275.764 235.129C274.834 234.522 273.763 235.654 274.389 236.564V236.584Z" fill="#3F0D4A"/>
</g>
</g>
<g style="mix-blend-mode:screen" opacity="0.7" filter="url(#filter0_f_721_28580)">
<ellipse cx="244.702" cy="298.915" rx="222.028" ry="146.56" transform="rotate(21.0304 244.702 298.915)" fill="#9E26C8"/>
</g>
<g filter="url(#filter1_d_721_28580)">
<path d="M88.5585 89.8061C88.3745 91.8244 88.4667 93.2983 88.8353 94.2278C89.2063 95.1307 89.9252 95.5822 90.9918 95.5822C92.0585 95.5822 93.8585 95.29 96.3917 94.7058L97.0942 101.04C94.4058 101.863 91.8483 102.274 89.4216 102.274C85.7149 102.274 83.1039 101.225 81.5886 99.1275C80.1023 97.0029 79.5492 93.856 79.9294 89.6866C80.312 85.4907 81.4838 82.2906 83.4448 80.0865C85.4082 77.8557 88.3766 76.7403 92.3499 76.7403C94.6699 76.7403 96.9487 77.1918 99.1864 78.0947L97.2199 85.1853C94.6501 84.4152 92.8719 84.0301 91.8852 84.0301C90.9252 84.0301 90.1761 84.4948 89.6381 85.4243C89.1024 86.3272 88.7425 87.7878 88.5585 89.8061ZM98.5522 89.3679C98.9566 84.933 100.13 81.7197 102.071 79.7279C104.039 77.7362 107.05 76.7403 111.104 76.7403C115.184 76.7403 118.001 77.7229 119.555 79.6881C121.136 81.6533 121.724 84.8533 121.319 89.2883C120.918 93.6967 119.713 96.9631 117.706 99.0876C115.726 101.212 112.722 102.274 108.695 102.274C104.695 102.274 101.898 101.225 100.302 99.1275C98.7336 97.0295 98.1502 93.7763 98.5522 89.3679ZM112.624 84.6276C112.341 83.9371 111.626 83.5919 110.479 83.5919C109.332 83.5919 108.569 83.9239 108.188 84.5878C107.808 85.2517 107.518 86.6725 107.319 88.8501L107.16 90.6028C106.956 92.8336 106.998 94.2809 107.284 94.9448C107.57 95.6087 108.3 95.9407 109.473 95.9407C110.646 95.9407 111.409 95.622 111.76 94.9846C112.112 94.3473 112.388 92.9265 112.589 90.7223L112.756 88.8899C112.954 86.7123 112.911 85.2915 112.624 84.6276ZM143.667 101.876H135.507L131.357 92.1165H131.077L130.187 101.876H122.587L124.842 77.1387H133.282L137.083 87.2169H137.323L138.242 77.1387H145.922L143.667 101.876ZM164.38 83.7114H157.1L156.791 87.0974H162.311L161.788 92.8336H156.268L155.444 101.876H146.884L149.139 77.1387H165.539L164.38 83.7114ZM173.181 101.876H164.741L166.996 77.1387H175.436L173.181 101.876ZM197.779 85.1056C197.634 86.699 197.251 87.9737 196.631 88.9298C196.039 89.8592 195.164 90.6825 194.005 91.3995L196.77 101.876H187.93L186.227 93.3514H185.587L184.81 101.876H176.61L178.866 77.1387H189.466C192.559 77.1387 194.78 77.7893 196.128 79.0906C197.478 80.3653 198.029 82.3703 197.779 85.1056ZM186.871 88.4916C187.484 88.4916 187.926 88.319 188.198 87.9737C188.498 87.6019 188.69 86.9646 188.772 86.0617C188.854 85.1587 188.778 84.5347 188.543 84.1894C188.308 83.8442 187.91 83.6716 187.35 83.6716H186.31L185.871 88.4916H186.871ZM226.189 101.876H218.629L219.704 90.085H219.504L216.069 101.876H209.069L207.824 90.085H207.624L206.549 101.876H199.069L202.285 77.1387H212.925L213.784 88.3322H214.144L217.005 77.1387H227.525L226.189 101.876ZM250.225 101.876H241.825L241.374 98.0519H236.934L235.745 101.876H227.705L235.121 77.1387H247.321L250.225 101.876ZM241.243 92.9132L240.478 84.6276H240.318L238.003 92.9132H241.243ZM278.463 83.8708H273.183L271.542 101.876H263.022L264.663 83.8708H259.103L260.077 77.1387H279.557L278.463 83.8708ZM288.084 93.1124C287.953 94.5465 288.528 95.2635 289.808 95.2635C291.115 95.2635 291.835 94.5332 291.968 93.0726L293.421 77.1387H301.981L300.481 93.5904C300.214 96.5116 299.096 98.6893 297.125 100.123C295.154 101.557 292.449 102.274 289.009 102.274C282.022 102.274 278.79 99.4063 279.313 93.6701L280.821 77.1387H289.541L288.084 93.1124ZM319.574 89.8061C319.39 91.8244 319.482 93.2983 319.851 94.2278C320.222 95.1307 320.941 95.5822 322.007 95.5822C323.074 95.5822 324.874 95.29 327.407 94.7058L328.11 101.04C325.421 101.863 322.864 102.274 320.437 102.274C316.731 102.274 314.12 101.225 312.604 99.1275C311.118 97.0029 310.565 93.856 310.945 89.6866C311.328 85.4907 312.499 82.2906 314.46 80.0865C316.424 77.8557 319.392 76.7403 323.366 76.7403C325.686 76.7403 327.964 77.1918 330.202 78.0947L328.235 85.1853C325.666 84.4152 323.887 84.0301 322.901 84.0301C321.941 84.0301 321.192 84.4948 320.654 85.4243C320.118 86.3272 319.758 87.7878 319.574 89.8061ZM329.568 89.3679C329.972 84.933 331.145 81.7197 333.087 79.7279C335.055 77.7362 338.066 76.7403 342.119 76.7403C346.199 76.7403 349.016 77.7229 350.57 79.6881C352.151 81.6533 352.739 84.8533 352.335 89.2883C351.933 93.6967 350.729 96.9631 348.722 99.0876C346.741 101.212 343.738 102.274 339.711 102.274C335.711 102.274 332.913 101.225 331.318 99.1275C329.749 97.0295 329.166 93.7763 329.568 89.3679ZM343.64 84.6276C343.356 83.9371 342.641 83.5919 341.495 83.5919C340.348 83.5919 339.584 83.9239 339.204 84.5878C338.823 85.2517 338.534 86.6725 338.335 88.8501L338.175 90.6028C337.972 92.8336 338.013 94.2809 338.299 94.9448C338.585 95.6087 339.315 95.9407 340.489 95.9407C341.662 95.9407 342.424 95.622 342.776 94.9846C343.127 94.3473 343.403 92.9265 343.604 90.7223L343.771 88.8899C343.97 86.7123 343.926 85.2915 343.64 84.6276ZM374.771 85.1056C374.626 86.699 374.243 87.9737 373.623 88.9298C373.031 89.8592 372.156 90.6825 370.998 91.3995L373.762 101.876H364.922L363.22 93.3514H362.58L361.802 101.876H353.602L355.858 77.1387H366.458C369.551 77.1387 371.772 77.7893 373.12 79.0906C374.47 80.3653 375.021 82.3703 374.771 85.1056ZM363.863 88.4916C364.476 88.4916 364.918 88.319 365.19 87.9737C365.491 87.6019 365.682 86.9646 365.764 86.0617C365.847 85.1587 365.77 84.5347 365.535 84.1894C365.3 83.8442 364.902 83.6716 364.342 83.6716H363.302L362.863 88.4916H363.863ZM397.311 85.1056C397.165 86.699 396.782 87.9737 396.162 88.9298C395.57 89.8592 394.695 90.6825 393.537 91.3995L396.301 101.876H387.461L385.759 93.3514H385.119L384.341 101.876H376.141L378.397 77.1387H388.997C392.09 77.1387 394.311 77.7893 395.659 79.0906C397.009 80.3653 397.56 82.3703 397.311 85.1056ZM386.402 88.4916C387.015 88.4916 387.458 88.319 387.729 87.9737C388.03 87.6019 388.221 86.9646 388.303 86.0617C388.386 85.1587 388.309 84.5347 388.074 84.1894C387.839 83.8442 387.441 83.6716 386.881 83.6716H385.841L385.402 88.4916H386.402ZM414.52 101.876H398.68L400.936 77.1387H417.336L416.177 83.7114H408.897L408.624 86.699H414.984L414.461 92.4352H408.101L407.793 95.8212H415.633L414.52 101.876ZM417.458 89.3679C417.863 84.933 419.036 81.7197 420.977 79.7279C422.946 77.7362 425.957 76.7403 430.01 76.7403C434.09 76.7403 436.907 77.7229 438.461 79.6881C440.042 81.6533 440.63 84.8533 440.226 89.2883C439.824 93.6967 438.619 96.9631 436.612 99.0876C434.632 101.212 431.628 102.274 427.602 102.274C423.602 102.274 420.804 101.225 419.209 99.1275C417.64 97.0295 417.056 93.7763 417.458 89.3679ZM431.531 84.6276C431.247 83.9371 430.532 83.5919 429.385 83.5919C428.238 83.5919 427.475 83.9239 427.094 84.5878C426.714 85.2517 426.424 86.6725 426.226 88.8501L426.066 90.6028C425.862 92.8336 425.904 94.2809 426.19 94.9448C426.476 95.6087 427.206 95.9407 428.379 95.9407C429.552 95.9407 430.315 95.622 430.666 94.9846C431.018 94.3473 431.294 92.9265 431.495 90.7223L431.662 88.8899C431.861 86.7123 431.817 85.2915 431.531 84.6276Z" fill="#F4C12A"/>
</g>
<g filter="url(#filter2_d_721_28580)">
<path d="M122.143 113.986L114.043 130.876L113.328 138.723H104.808L105.527 130.836L100.703 113.986H109.703L110.635 123.068H110.875L113.383 113.986H122.143ZM138.051 126.653C137.867 128.672 137.959 130.145 138.328 131.075C138.699 131.978 139.417 132.429 140.484 132.429C141.551 132.429 143.351 132.137 145.884 131.553L146.586 137.887C143.898 138.71 141.34 139.122 138.914 139.122C135.207 139.122 132.596 138.073 131.081 135.975C129.594 133.85 129.041 130.703 129.422 126.534C129.804 122.338 130.976 119.138 132.937 116.934C134.9 114.703 137.869 113.588 141.842 113.588C144.162 113.588 146.441 114.039 148.679 114.942L146.712 122.032C144.142 121.262 142.364 120.877 141.377 120.877C140.417 120.877 139.668 121.342 139.13 122.271C138.595 123.174 138.235 124.635 138.051 126.653ZM148.044 126.215C148.449 121.78 149.622 118.567 151.563 116.575C153.532 114.583 156.542 113.588 160.596 113.588C164.676 113.588 167.493 114.57 169.047 116.535C170.628 118.5 171.216 121.701 170.812 126.135C170.41 130.544 169.205 133.81 167.198 135.935C165.218 138.059 162.214 139.122 158.188 139.122C154.188 139.122 151.39 138.073 149.794 135.975C148.226 133.877 147.642 130.623 148.044 126.215ZM162.117 121.475C161.833 120.784 161.118 120.439 159.971 120.439C158.824 120.439 158.061 120.771 157.68 121.435C157.3 122.099 157.01 123.52 156.812 125.697L156.652 127.45C156.448 129.681 156.49 131.128 156.776 131.792C157.062 132.456 157.792 132.788 158.965 132.788C160.138 132.788 160.901 132.469 161.252 131.832C161.604 131.194 161.88 129.774 162.081 127.569L162.248 125.737C162.447 123.559 162.403 122.139 162.117 121.475ZM193.159 138.723H184.999L180.849 128.964H180.569L179.679 138.723H172.079L174.335 113.986H182.775L186.576 124.064H186.816L187.735 113.986H195.415L193.159 138.723ZM215.378 120.718H210.098L208.456 138.723H199.936L201.578 120.718H196.018L196.991 113.986H216.471L215.378 120.718ZM224.079 138.723H215.639L217.895 113.986H226.335L224.079 138.723ZM248.589 138.723H240.429L236.278 128.964H235.998L235.109 138.723H227.509L229.764 113.986H238.204L242.005 124.064H242.245L243.164 113.986H250.844L248.589 138.723ZM261.165 129.96C261.034 131.394 261.608 132.111 262.888 132.111C264.195 132.111 264.915 131.38 265.048 129.92L266.501 113.986H275.061L273.561 130.438C273.295 133.359 272.176 135.536 270.205 136.97C268.234 138.405 265.529 139.122 262.089 139.122C255.102 139.122 251.871 136.253 252.394 130.517L253.901 113.986H262.621L261.165 129.96ZM273.02 107.851L267.29 112.791H262.01L264.9 107.851H273.02ZM296.749 138.723H288.349L287.898 134.899H283.458L282.269 138.723H274.229L281.645 113.986H293.845L296.749 138.723ZM287.766 129.76L287.002 121.475H286.842L284.526 129.76H287.766ZM314.926 126.653C314.742 128.672 314.834 130.145 315.203 131.075C315.574 131.978 316.292 132.429 317.359 132.429C318.426 132.429 320.226 132.137 322.759 131.553L323.461 137.887C320.773 138.71 318.215 139.122 315.789 139.122C312.082 139.122 309.471 138.073 307.956 135.975C306.469 133.85 305.916 130.703 306.297 126.534C306.679 122.338 307.851 119.138 309.812 116.934C311.775 114.703 314.744 113.588 318.717 113.588C321.037 113.588 323.316 114.039 325.554 114.942L323.587 122.032C321.017 121.262 319.239 120.877 318.252 120.877C317.292 120.877 316.543 121.342 316.005 122.271C315.47 123.174 315.11 124.635 314.926 126.653ZM324.919 126.215C325.324 121.78 326.497 118.567 328.438 116.575C330.407 114.583 333.417 113.588 337.471 113.588C341.551 113.588 344.368 114.57 345.922 116.535C347.503 118.5 348.091 121.701 347.687 126.135C347.285 130.544 346.08 133.81 344.073 135.935C342.093 138.059 339.089 139.122 335.063 139.122C331.063 139.122 328.265 138.073 326.669 135.975C325.101 133.877 324.517 130.623 324.919 126.215ZM338.992 121.475C338.708 120.784 337.993 120.439 336.846 120.439C335.699 120.439 334.936 120.771 334.555 121.435C334.175 122.099 333.885 123.52 333.687 125.697L333.527 127.45C333.323 129.681 333.365 131.128 333.651 131.792C333.937 132.456 334.667 132.788 335.84 132.788C337.013 132.788 337.776 132.469 338.127 131.832C338.479 131.194 338.755 129.774 338.956 127.569L339.123 125.737C339.322 123.559 339.278 122.139 338.992 121.475ZM370.034 138.723H361.874L357.724 128.964H357.444L356.554 138.723H348.954L351.21 113.986H359.65L363.451 124.064H363.691L364.61 113.986H372.29L370.034 138.723ZM399.87 120.718H394.59L392.948 138.723H384.428L386.07 120.718H380.51L381.484 113.986H400.964L399.87 120.718ZM409.49 129.96C409.36 131.394 409.934 132.111 411.214 132.111C412.521 132.111 413.241 131.38 413.374 129.92L414.827 113.986H423.387L421.887 130.438C421.621 133.359 420.502 135.536 418.531 136.97C416.56 138.405 413.855 139.122 410.415 139.122C403.428 139.122 400.197 136.253 400.72 130.517L402.227 113.986H410.947L409.49 129.96ZM199.029 158.8C198.884 160.393 198.501 161.668 197.88 162.624C197.289 163.554 196.414 164.377 195.255 165.094L198.02 175.57H189.18L187.477 167.046H186.837L186.06 175.57H177.86L180.115 150.833H190.715C193.809 150.833 196.029 151.484 197.377 152.785C198.728 154.06 199.278 156.065 199.029 158.8ZM188.12 162.186C188.733 162.186 189.176 162.013 189.447 161.668C189.748 161.296 189.939 160.659 190.022 159.756C190.104 158.853 190.028 158.229 189.792 157.884C189.557 157.539 189.16 157.366 188.6 157.366H187.56L187.12 162.186H188.12ZM216.239 175.57H200.399L202.654 150.833H219.054L217.895 157.406H210.615L210.343 160.393H216.703L216.18 166.13H209.82L209.511 169.515H217.351L216.239 175.57ZM230.352 169.476C230.832 169.476 231.479 169.396 232.294 169.237L232.512 166.847H230.512L231.013 161.349H240.453L239.156 175.57H233.116L232.632 174.296H232.472C230.984 175.411 229.293 175.969 227.4 175.969C221.16 175.969 218.422 171.773 219.188 163.381C219.57 159.185 220.702 155.985 222.583 153.781C224.493 151.55 227.462 150.435 231.488 150.435C234.475 150.435 237.264 150.846 239.856 151.67L237.853 159.158C234.941 158.335 232.832 157.924 231.525 157.924C230.245 157.924 229.353 158.348 228.849 159.198C228.372 160.048 228.04 161.495 227.853 163.54C227.667 165.585 227.717 167.086 228.003 168.042C228.316 168.998 229.099 169.476 230.352 169.476ZM251.188 175.57H242.748L245.004 150.833H253.444L251.188 175.57ZM254.95 158.76C255.19 156.131 256.176 154.086 257.91 152.626C259.643 151.165 261.923 150.435 264.749 150.435C267.603 150.435 270.512 150.7 273.477 151.231L271.918 158.242C268.645 157.578 266.488 157.246 265.448 157.246C264.408 157.246 263.859 157.565 263.801 158.202C263.779 158.441 263.844 158.614 263.994 158.72C264.147 158.8 264.261 158.866 264.336 158.919C264.411 158.973 264.552 159.039 264.758 159.119C264.99 159.198 265.17 159.278 265.296 159.358C265.451 159.411 265.913 159.61 266.681 159.955C267.479 160.274 268.068 160.539 268.449 160.752C268.858 160.938 269.403 161.256 270.081 161.708C272.038 163.062 272.896 165.054 272.657 167.683C272.417 170.312 271.444 172.357 269.737 173.818C268.033 175.252 265.701 175.969 262.741 175.969C259.808 175.969 256.961 175.61 254.199 174.893L255.373 168.161C258.864 169.064 261.236 169.515 262.49 169.515C263.316 169.515 263.756 169.223 263.809 168.639C263.834 168.374 263.746 168.161 263.548 168.002C263.375 167.842 263.098 167.67 262.715 167.484C262.358 167.298 261.82 167.059 261.1 166.767C260.383 166.448 259.78 166.183 259.293 165.97C258.808 165.731 258.241 165.373 257.591 164.895C255.591 163.434 254.711 161.389 254.95 158.76ZM292.955 157.565H287.675L286.033 175.57H277.513L279.155 157.565H273.595L274.569 150.833H294.049L292.955 157.565ZM314.146 158.8C314.001 160.393 313.618 161.668 312.997 162.624C312.406 163.554 311.531 164.377 310.372 165.094L313.137 175.57H304.297L302.594 167.046H301.954L301.177 175.57H292.977L295.232 150.833H305.832C308.926 150.833 311.146 151.484 312.494 152.785C313.845 154.06 314.395 156.065 314.146 158.8ZM303.237 162.186C303.851 162.186 304.293 162.013 304.565 161.668C304.865 161.296 305.057 160.659 305.139 159.756C305.221 158.853 305.145 158.229 304.91 157.884C304.674 157.539 304.277 157.366 303.717 157.366H302.677L302.237 162.186H303.237ZM315.856 163.062C316.261 158.627 317.434 155.414 319.375 153.422C321.344 151.431 324.355 150.435 328.408 150.435C332.488 150.435 335.305 151.417 336.859 153.382C338.44 155.348 339.028 158.548 338.624 162.983C338.222 167.391 337.017 170.657 335.01 172.782C333.03 174.906 330.026 175.969 326 175.969C322 175.969 319.202 174.92 317.607 172.822C316.038 170.724 315.454 167.471 315.856 163.062ZM329.929 158.322C329.645 157.631 328.93 157.286 327.783 157.286C326.636 157.286 325.873 157.618 325.492 158.282C325.112 158.946 324.822 160.367 324.624 162.544L324.464 164.297C324.26 166.528 324.302 167.975 324.588 168.639C324.874 169.303 325.604 169.635 326.777 169.635C327.95 169.635 328.713 169.316 329.064 168.679C329.416 168.042 329.692 166.621 329.893 164.417L330.06 162.584C330.259 160.407 330.215 158.986 329.929 158.322Z" fill="white"/>
</g>
<path d="M278.545 297.311L237.006 331.527L201.286 360.948C194.807 366.284 185.214 365.355 179.866 358.876L151.398 324.309C149.898 322.475 148.905 320.403 148.385 318.251L148.364 318.27C143.926 303.231 146.701 286.948 155.982 274.32C158.424 270.995 160.469 267.972 161.45 265.967L173.396 241.454C175.569 236.999 181.067 235.257 185.443 237.75C189.429 240.024 190.792 245.152 188.778 249.287L178.912 269.494C177.672 272.058 178.793 275.142 181.406 276.294C183.139 277.064 185.162 276.786 186.623 275.582L188.356 274.149L233.779 236.736C237.605 233.591 243.323 234.282 246.266 238.368C248.949 242.093 248.057 247.319 244.515 250.244L207.493 280.735C207.243 280.945 207.114 281.245 207.114 281.544C207.114 281.774 207.194 282.006 207.356 282.195C207.716 282.635 208.367 282.697 208.807 282.336L251.345 247.298C255.172 244.153 260.899 244.844 263.833 248.93C266.525 252.655 265.626 257.881 262.081 260.806L219.773 295.654C219.522 295.856 219.403 296.156 219.403 296.446C219.403 296.675 219.473 296.917 219.632 297.106C220.002 297.546 220.653 297.617 221.093 297.247L261.048 264.342C264.875 261.197 270.602 261.888 273.536 265.974C276.228 269.699 275.339 274.925 271.785 277.84L232.058 310.565C231.618 310.926 231.557 311.586 231.918 312.026C232.278 312.466 232.938 312.527 233.378 312.167L267.344 284.188C270.889 281.263 276.185 281.395 279.33 284.738C282.774 288.415 282.365 294.16 278.539 297.305L278.545 297.311Z" fill="#FBCCA1"/>
<path d="M275.955 290.129C273.437 287.253 268.99 287.097 266.038 289.527L233.161 316.604C232.161 317.426 230.688 317.505 229.689 316.68C228.347 315.568 228.402 313.584 229.677 312.533L269.403 279.811C272.355 277.382 273.055 272.984 270.714 269.961C268.291 266.835 263.783 266.346 260.751 268.843L220.967 301.61C219.821 302.555 218.085 302.542 217.082 301.448C216.013 300.281 216.15 298.469 217.361 297.475L257.992 264.011C260.944 261.581 261.644 257.187 259.303 254.164C256.879 251.038 252.371 250.549 249.34 253.046L208.492 286.69C207.437 287.558 205.854 287.592 204.886 286.629C203.773 285.523 203.88 283.729 205.06 282.757L242.042 252.297C244.994 249.867 245.694 245.473 243.353 242.45C240.929 239.324 236.422 238.835 233.39 241.332L184.807 275.799C180.877 277.33 178.01 273.601 179.492 270.566L188.783 249.29C190.357 246.06 189.241 242.032 186.063 240.36C182.772 238.63 178.728 239.972 177.109 243.291L156.602 285.447C151.883 294.086 150.056 304.009 151.379 313.765L152 318.327L152.012 318.318C152.116 322.643 153.595 326.964 156.556 330.558L179.877 358.873C185.22 365.361 194.81 366.287 201.298 360.945L230.337 337.028L275.142 300.122C278.174 297.625 278.559 293.105 275.955 290.129Z" fill="#FCDABA"/>
<path d="M172.73 340.316C172.714 340.298 172.702 340.282 172.687 340.264C172.189 339.601 172.323 338.66 172.983 338.162C175.523 336.251 183.909 329.079 185.131 316.922C186.048 307.802 182.494 300.782 180.293 297.411C179.841 296.718 180.037 295.786 180.73 295.333C181.427 294.881 182.35 295.076 182.809 295.77C185.226 299.474 189.129 307.188 188.12 317.224C186.775 330.595 177.577 338.467 174.789 340.564C174.145 341.05 173.237 340.936 172.73 340.319V340.316Z" fill="#DCAC82"/>
<path d="M200.586 283.106C200.078 282.491 200.14 281.581 200.736 281.04C201.35 280.483 202.3 280.529 202.856 281.144C208.269 287.112 213.654 293.347 218.864 299.676L219.039 299.887C224.173 306.127 229.188 312.524 233.949 318.893C234.444 319.556 234.31 320.497 233.644 320.995C232.981 321.49 232.061 321.377 231.541 320.69C226.81 314.357 221.823 308.001 216.719 301.794L216.548 301.586C211.365 295.293 206.013 289.099 200.635 283.164C200.619 283.145 200.601 283.127 200.586 283.109V283.106Z" fill="#DCAC82"/>
<path d="M278.551 297.311L237.012 331.527L188.365 274.149L233.788 236.736C237.614 233.591 243.332 234.282 246.275 238.368C248.959 242.093 248.066 247.319 244.524 250.244L207.503 280.735C207.252 280.945 207.124 281.245 207.124 281.544C207.124 281.774 207.203 282.006 207.365 282.195C207.726 282.635 208.377 282.697 208.817 282.336L251.355 247.298C255.181 244.153 260.908 244.844 263.842 248.93C266.534 252.655 265.636 257.881 262.091 260.806L219.782 295.654C219.531 295.856 219.412 296.156 219.412 296.446C219.412 296.675 219.483 296.917 219.641 297.106C220.011 297.546 220.662 297.617 221.102 297.247L261.058 264.342C264.884 261.197 270.611 261.888 273.545 265.974C276.238 269.699 275.348 274.925 271.794 277.84L232.068 310.565C231.627 310.926 231.566 311.586 231.927 312.026C232.288 312.466 232.948 312.527 233.388 312.167L267.353 284.188C270.898 281.263 276.195 281.395 279.339 284.738C282.784 288.415 282.374 294.16 278.548 297.305L278.551 297.311Z" fill="#DCAC82"/>
<path d="M191.471 214.028L180.35 330.812C180.003 334.448 182.67 337.676 186.306 338.022L237.576 342.905C241.212 343.251 244.44 340.584 244.786 336.948L255.908 220.165C256.254 216.529 253.587 213.301 249.951 212.954L198.682 208.072C195.046 207.726 191.817 210.392 191.471 214.028Z" fill="#2C2044"/>
<path d="M191.712 211.54L180.591 328.324C180.245 331.96 182.911 335.188 186.547 335.534L237.817 340.417C241.453 340.763 244.681 338.096 245.028 334.46L256.149 217.677C256.495 214.041 253.829 210.813 250.193 210.466L198.923 205.584C195.287 205.238 192.059 207.904 191.712 211.54Z" fill="#544A69"/>
<path d="M185.363 326.146L195.644 218.191C195.935 215.137 198.651 212.89 201.708 213.181L246.032 217.402C249.087 217.693 251.333 220.409 251.042 223.467L240.761 331.421C240.47 334.476 237.754 336.722 234.697 336.431L190.373 332.21C187.318 331.919 185.072 329.203 185.363 326.146Z" fill="#742384"/>
<path fill-rule="evenodd" clip-rule="evenodd" d="M228.271 211.073L220.334 210.318C219.803 210.266 219.332 210.657 219.28 211.189C219.228 211.721 219.619 212.192 220.151 212.243L228.088 212.998C228.619 213.05 229.09 212.659 229.142 212.127C229.194 211.596 228.803 211.125 228.271 211.073Z" fill="#2C2044"/>
<path fill-rule="evenodd" clip-rule="evenodd" d="M216.891 209.991C216.359 209.939 215.889 210.331 215.837 210.862C215.785 211.394 216.176 211.865 216.708 211.917C217.239 211.969 217.71 211.578 217.762 211.046C217.814 210.514 217.423 210.043 216.891 209.991Z" fill="#2C2044"/>
<g clip-path="url(#clip2_721_28580)">
<path fill-rule="evenodd" clip-rule="evenodd" d="M179.939 201.829C180.284 202.638 180.93 203.283 181.738 203.628C182.769 204.067 184.243 204.697 185.419 205.199C186.137 205.505 186.136 206.522 185.419 206.829L181.738 208.4C180.929 208.745 180.284 209.389 179.939 210.199C179.499 211.23 178.87 212.704 178.368 213.879C178.061 214.598 177.045 214.598 176.738 213.879C176.236 212.704 175.607 211.23 175.167 210.199C174.822 209.389 174.176 208.745 173.368 208.4C172.336 207.96 170.863 207.33 169.687 206.829C168.969 206.522 168.969 205.505 169.687 205.199C170.863 204.697 172.336 204.067 173.368 203.628C174.177 203.283 174.822 202.637 175.167 201.829C175.607 200.797 176.236 199.324 176.738 198.148C177.045 197.43 178.061 197.43 178.368 198.148C178.87 199.324 179.499 200.797 179.939 201.829Z" fill="#CE92D6"/>
</g>
<g clip-path="url(#clip3_721_28580)">
<path fill-rule="evenodd" clip-rule="evenodd" d="M372.218 261.568C372.349 261.877 372.596 262.123 372.905 262.255C373.298 262.423 373.861 262.663 374.31 262.855C374.584 262.972 374.584 263.36 374.31 263.477L372.905 264.077C372.596 264.209 372.349 264.455 372.218 264.764C372.05 265.158 371.809 265.72 371.618 266.169C371.501 266.443 371.113 266.443 370.995 266.169C370.804 265.72 370.564 265.158 370.396 264.764C370.264 264.455 370.017 264.209 369.709 264.077C369.315 263.909 368.752 263.669 368.303 263.477C368.029 263.36 368.029 262.972 368.303 262.855C368.752 262.663 369.315 262.423 369.709 262.255C370.018 262.123 370.264 261.877 370.396 261.568C370.564 261.174 370.804 260.612 370.995 260.163C371.113 259.888 371.501 259.888 371.618 260.163C371.809 260.612 372.05 261.174 372.218 261.568Z" fill="#E3B2EB"/>
</g>
<g clip-path="url(#clip4_721_28580)">
<path fill-rule="evenodd" clip-rule="evenodd" d="M306.641 374.038C306.924 374.7 307.452 375.228 308.113 375.51C308.957 375.87 310.163 376.385 311.125 376.795C311.712 377.046 311.711 377.878 311.125 378.129L308.113 379.414C307.451 379.697 306.924 380.224 306.641 380.886C306.281 381.73 305.766 382.936 305.356 383.898C305.105 384.485 304.273 384.485 304.022 383.898C303.612 382.936 303.097 381.73 302.737 380.886C302.454 380.224 301.926 379.697 301.265 379.414C300.421 379.055 299.215 378.539 298.253 378.129C297.666 377.878 297.666 377.046 298.253 376.795C299.215 376.385 300.421 375.87 301.265 375.51C301.927 375.228 302.454 374.699 302.737 374.038C303.097 373.194 303.612 371.989 304.022 371.027C304.273 370.439 305.105 370.439 305.356 371.027C305.766 371.989 306.281 373.194 306.641 374.038Z" fill="#CE92D6"/>
</g>
<g clip-path="url(#clip5_721_28580)">
<path fill-rule="evenodd" clip-rule="evenodd" d="M225.957 367.769C226.151 368.225 226.515 368.588 226.971 368.783C227.552 369.031 228.383 369.386 229.046 369.668C229.45 369.841 229.45 370.414 229.046 370.587L226.971 371.472C226.515 371.667 226.151 372.03 225.957 372.486C225.709 373.068 225.354 373.898 225.072 374.561C224.899 374.966 224.326 374.966 224.153 374.561C223.87 373.898 223.515 373.068 223.267 372.486C223.073 372.03 222.709 371.667 222.253 371.472C221.672 371.225 220.841 370.87 220.179 370.587C219.774 370.414 219.774 369.841 220.179 369.668C220.841 369.386 221.672 369.031 222.253 368.783C222.709 368.588 223.073 368.224 223.267 367.769C223.515 367.187 223.87 366.357 224.153 365.694C224.326 365.289 224.899 365.289 225.072 365.694C225.354 366.357 225.709 367.187 225.957 367.769Z" fill="#CE92D6"/>
</g>
<g clip-path="url(#clip6_721_28580)">
<path fill-rule="evenodd" clip-rule="evenodd" d="M147.05 275.092C147.213 275.475 147.519 275.78 147.901 275.943C148.388 276.151 149.085 276.448 149.641 276.685C149.98 276.83 149.98 277.311 149.641 277.456L147.901 278.199C147.518 278.362 147.213 278.666 147.05 279.049C146.842 279.537 146.545 280.233 146.308 280.789C146.163 281.128 145.682 281.128 145.537 280.789C145.3 280.233 145.002 279.537 144.794 279.049C144.631 278.666 144.326 278.362 143.944 278.199C143.456 277.991 142.76 277.693 142.204 277.456C141.864 277.311 141.864 276.83 142.204 276.685C142.76 276.448 143.456 276.151 143.944 275.943C144.327 275.78 144.631 275.474 144.794 275.092C145.002 274.605 145.3 273.908 145.537 273.352C145.682 273.013 146.163 273.013 146.308 273.352C146.545 273.908 146.842 274.605 147.05 275.092Z" fill="#CE92D6"/>
</g>
<g clip-path="url(#clip7_721_28580)">
<path fill-rule="evenodd" clip-rule="evenodd" d="M345.907 202.658C346.303 203.743 347.045 204.607 347.973 205.07C349.157 205.66 350.85 206.504 352.199 207.177C353.024 207.588 353.023 208.951 352.199 209.363L347.973 211.469C347.043 211.932 346.303 212.796 345.907 213.882C345.402 215.264 344.679 217.241 344.103 218.817C343.751 219.78 342.584 219.78 342.231 218.817C341.655 217.241 340.932 215.264 340.427 213.882C340.031 212.796 339.29 211.932 338.362 211.469C337.177 210.879 335.485 210.035 334.135 209.363C333.31 208.951 333.31 207.588 334.135 207.177C335.485 206.504 337.177 205.66 338.362 205.07C339.291 204.607 340.031 203.742 340.427 202.658C340.932 201.275 341.655 199.299 342.231 197.722C342.584 196.759 343.751 196.759 344.103 197.722C344.679 199.299 345.402 201.275 345.907 202.658Z" fill="#CE92D6"/>
<path fill-rule="evenodd" clip-rule="evenodd" d="M323.525 224.614C323.673 225.019 323.951 225.342 324.297 225.515C324.74 225.736 325.373 226.051 325.877 226.302C326.185 226.456 326.185 226.966 325.877 227.119L324.297 227.907C323.95 228.08 323.673 228.403 323.525 228.808C323.337 229.325 323.066 230.064 322.851 230.653C322.719 231.013 322.283 231.013 322.152 230.653C321.936 230.064 321.666 229.325 321.477 228.808C321.329 228.403 321.052 228.08 320.705 227.907C320.263 227.686 319.63 227.371 319.126 227.119C318.817 226.966 318.817 226.456 319.126 226.302C319.63 226.051 320.263 225.736 320.705 225.515C321.053 225.342 321.329 225.019 321.477 224.614C321.666 224.097 321.936 223.358 322.152 222.769C322.283 222.409 322.719 222.409 322.851 222.769C323.066 223.358 323.337 224.097 323.525 224.614Z" fill="#CE92D6"/>
</g>
<path d="M213.008 267.363L213.865 255.5C214.087 252.411 216.771 250.09 219.861 250.312C222.951 250.535 225.272 253.219 225.049 256.309L224.192 268.172L229.364 268.546L230.19 257.112C230.621 251.169 226.149 246.001 220.205 245.57C214.261 245.139 209.094 249.611 208.663 255.555L207.836 266.989L213.008 267.363Z" fill="#CACCDD"/>
<path d="M212.497 256.014L212.093 261.403C209.743 261.265 208.233 261.431 208.233 261.431L207.837 266.991L211.685 267.268L213.006 267.365L213.862 255.505C214.007 253.506 215.181 251.83 216.831 250.954C214.496 251.491 212.68 253.498 212.499 256.015L212.497 256.014Z" fill="#9DA1BA"/>
<path d="M220.205 245.572C218.347 245.438 216.566 245.782 214.98 246.499C216.197 246.136 217.499 245.983 218.839 246.081C224.783 246.512 229.252 251.677 228.824 257.621L228.387 263.123C226.441 262.644 224.566 262.737 224.566 262.737L224.189 268.17L228.038 268.448L229.358 268.545L230.184 257.111C230.621 251.17 226.148 246.003 220.205 245.572Z" fill="#9DA1BA"/>
<path d="M202.077 264.063L236.866 266.975C237.56 267.034 238.08 267.645 238.021 268.342L236.067 291.686C235.484 298.642 229.364 303.817 222.408 303.234L210.304 302.221C203.348 301.639 198.173 295.518 198.756 288.562L200.71 265.218C200.768 264.524 201.38 264.004 202.077 264.063Z" fill="#AA6E26"/>
<path d="M235.261 265.574L237.584 267.269L236.92 270.344L234.383 266.609L235.261 265.574Z" fill="#AA6E26"/>
<path d="M199.738 262.368L234.527 265.281C235.221 265.339 235.741 265.951 235.683 266.648L233.728 289.992C233.146 296.948 227.025 302.122 220.069 301.54L207.966 300.527C201.01 299.941 195.835 293.821 196.417 286.865L198.372 263.521C198.43 262.827 199.041 262.31 199.738 262.368Z" fill="#E5A342"/>
<path d="M202.086 267.672C202.135 267.086 202.65 266.65 203.237 266.699L232.524 269.151L232.526 269.124C232.575 268.537 232.139 268.022 231.553 267.973L202.23 265.517C201.643 265.468 201.128 265.904 201.079 266.491L199.431 286.167C199.161 289.397 200.363 292.408 202.473 294.546C201 292.543 200.217 290.02 200.441 287.349L202.088 267.673L202.086 267.672Z" fill="#AA6E26"/>
<path d="M219.364 298.533C225.23 299.024 230.386 294.666 230.877 288.799L232.522 269.151L203.235 266.699C202.648 266.65 202.133 267.085 202.084 267.672L200.436 287.348C200.213 290.02 200.998 292.542 202.468 294.545C204.194 296.291 206.522 297.458 209.161 297.679L219.364 298.533Z" fill="#F7B759"/>
<path d="M219.328 279.069C219.475 277.079 218.351 275.375 216.817 275.26C215.284 275.146 213.922 276.669 213.773 278.657C213.657 280.204 214.313 281.582 215.334 282.169C214.654 284.894 213.978 287.617 213.298 290.34L217.921 290.68C217.652 287.908 217.383 285.137 217.117 282.362C218.284 281.992 219.207 280.683 219.328 279.063L219.328 279.069Z" fill="#AA6E26"/>
<path d="M217.975 278.969C218.122 276.979 216.997 275.275 215.464 275.161C213.931 275.046 212.569 276.57 212.422 278.557C212.307 280.105 212.963 281.483 213.983 282.069C213.304 284.795 212.627 287.518 211.948 290.241L216.571 290.58C216.302 287.809 216.032 285.037 215.766 282.263C216.934 281.893 217.856 280.583 217.978 278.964L217.975 278.969Z" fill="#E5A342"/>
<path d="M218.683 279.02C218.83 277.03 217.705 275.326 216.172 275.211C214.638 275.097 213.277 276.62 213.127 278.608C213.011 280.155 213.668 281.533 214.688 282.12C214.011 284.845 213.332 287.568 212.653 290.291L217.276 290.633C217.006 287.862 216.737 285.09 216.471 282.316C217.638 281.946 218.561 280.636 218.683 279.017L218.683 279.02Z" fill="#994D1A"/>
<path d="M239.139 300.008L239.402 298.254C239.448 297.943 239.61 297.66 239.855 297.463L241.234 296.347C241.497 296.136 241.382 295.712 241.048 295.662L239.294 295.4C238.983 295.353 238.7 295.191 238.503 294.947L237.387 293.567C237.176 293.304 236.752 293.42 236.702 293.753L236.44 295.508C236.393 295.818 236.231 296.102 235.987 296.299L234.607 297.414C234.344 297.626 234.46 298.05 234.793 298.099L236.548 298.362C236.858 298.408 237.142 298.57 237.339 298.815L238.454 300.194C238.665 300.457 239.09 300.342 239.139 300.008Z" fill="#F4C12A"/>
<path d="M313.923 254.774L364.982 290.543C374.601 297.282 375.81 311.856 367.688 323.095L344.747 354.841C343.673 356.326 342.471 357.698 341.174 358.935C337.004 362.905 331.816 365.497 326.478 366.186L313.741 367.819C308.002 368.559 302.418 367.742 297.533 365.446L278.555 356.534C274.796 354.773 272.69 350.751 273.121 346.161L274.644 329.89L232.003 300.018C228.035 297.238 227.531 291.229 230.885 286.587L231.059 286.347C234.409 281.711 240.345 280.205 244.312 282.984L273.7 303.572C269.732 300.792 269.236 294.781 272.586 290.145L272.76 289.904C276.11 285.268 282.041 283.759 286.009 286.539L286.114 286.612C284.102 285.203 282.966 282.972 282.765 280.509C282.56 278.042 283.285 275.34 284.984 272.989C288.382 268.286 294.398 266.76 298.423 269.579L301.611 271.812C297.586 268.993 297.082 262.891 300.48 258.188C303.879 253.486 309.899 251.954 313.923 254.774Z" fill="#FBCCA1"/>
<path d="M287.836 338.799L276.186 329.282L275.109 340.802L287.836 338.799Z" fill="#DCAC82"/>
<path d="M26.9062 45.1103C26.6761 44.994 26.4132 44.932 26.1187 44.927C25.9127 44.9207 25.7029 44.946 25.488 44.9966C25.2731 45.0484 25.0747 45.1292 24.8927 45.2379C24.7094 45.3467 24.5603 45.4869 24.4414 45.6576C24.3226 45.8282 24.2581 46.0305 24.2443 46.2655L25.3465 46.258C25.3692 46.1493 25.4109 46.0545 25.4716 45.9748C25.5322 45.8952 25.6081 45.8333 25.7003 45.7916C25.7926 45.7486 25.8975 45.7284 26.0151 45.7309C26.1453 45.7372 26.2464 45.7688 26.3184 45.8269C26.3905 45.8851 26.4372 45.9634 26.4612 46.0633C26.484 46.1632 26.4904 46.2694 26.4764 46.3844L26.4334 46.6599L25.8988 46.6561C25.6649 46.6561 25.4286 46.6789 25.1897 46.7244C24.9521 46.7699 24.7322 46.8457 24.5299 46.9532C24.3277 47.0593 24.1633 47.2047 24.0357 47.3893C23.908 47.5725 23.8385 47.8025 23.8284 48.0781C23.8183 48.322 23.8689 48.5369 23.9826 48.7202C24.0951 48.9035 24.2493 49.0488 24.4427 49.1537C24.6361 49.2587 24.8497 49.3142 25.081 49.3194C25.2478 49.3218 25.4046 49.2991 25.55 49.2511C25.6953 49.203 25.8293 49.1348 25.9519 49.0438C26.0214 48.992 26.0858 48.9351 26.1465 48.8731C26.1554 48.997 26.1769 49.1171 26.2122 49.2347L27.2904 49.2308L27.298 49.1613C27.2386 49.0135 27.2146 48.8554 27.2285 48.6911C27.2424 48.5256 27.2601 48.3675 27.2841 48.2159L27.5774 46.4033C27.609 46.0936 27.5622 45.8295 27.4383 45.6121C27.3144 45.3947 27.1375 45.2266 26.9062 45.1103ZM26.0858 48.1805C25.9923 48.2803 25.8811 48.3562 25.7534 48.4092C25.6258 48.4623 25.4956 48.4876 25.3629 48.4851C25.2694 48.4826 25.1897 48.4598 25.1227 48.4181C25.057 48.3764 25.0077 48.3195 24.9761 48.2475C24.9445 48.1755 24.9357 48.0945 24.9483 48.0036C24.9647 47.8759 25.0026 47.7671 25.0633 47.6787C25.1253 47.5902 25.2024 47.5182 25.2959 47.4613C25.3894 47.4057 25.4918 47.364 25.6018 47.3362C25.7117 47.3083 25.8242 47.2932 25.9355 47.2906L26.3323 47.2932L26.2262 47.9732C26.1895 48.0478 26.144 48.1173 26.0846 48.1792L26.0858 48.1805Z" fill="white"/>
<path d="M27.9912 49.2333H29.0884L30.1312 43.2319H29.029L27.9912 49.2333Z" fill="white"/>
<path d="M34.612 48.3043C34.4363 48.3915 34.2442 48.432 34.0356 48.427C33.8725 48.4219 33.7347 48.3853 33.6274 48.3182C33.5199 48.2512 33.4339 48.1628 33.3733 48.0528C33.3126 47.9428 33.2709 47.8202 33.2507 47.6837C33.2393 47.6116 33.2343 47.5397 33.233 47.4663H35.833L35.8949 46.9974C35.9227 46.7282 35.9138 46.4716 35.8671 46.2251C35.8203 45.9786 35.7331 45.76 35.6054 45.5666C35.4778 45.3744 35.3097 45.2202 35.1011 45.1064C34.8926 44.9927 34.641 44.9321 34.3466 44.9269C34.0306 44.9181 33.7449 44.9725 33.4883 45.0887C33.2317 45.2051 33.0105 45.3643 32.8222 45.5691C32.6351 45.7738 32.4847 46.009 32.3735 46.2744C32.261 46.5411 32.1902 46.8204 32.1586 47.1149L32.1434 47.2755C32.1232 47.5561 32.1485 47.8202 32.2218 48.0654C32.2951 48.3094 32.4088 48.5255 32.5643 48.7101C32.7185 48.8959 32.912 49.04 33.1445 49.1462C33.3771 49.251 33.6375 49.3067 33.9256 49.3117H33.9269C34.1317 49.3142 34.339 49.289 34.5475 49.2359C34.7561 49.1828 34.9507 49.0994 35.1315 48.9856C35.3122 48.8719 35.4613 48.7265 35.5789 48.5495L35.0859 47.9555C34.9444 48.1021 34.7877 48.2184 34.6107 48.3056L34.612 48.3043ZM33.525 46.2364C33.6021 46.1038 33.7032 45.9976 33.8258 45.9154C33.9484 45.8345 34.1001 45.7966 34.2783 45.8017C34.435 45.8067 34.5602 45.8472 34.6537 45.923C34.7472 45.9976 34.8117 46.0987 34.8445 46.2213C34.8774 46.3451 34.885 46.4779 34.8635 46.622L34.8445 46.7193L33.3341 46.7168C33.3379 46.7004 33.3417 46.6839 33.3455 46.6675C33.3859 46.5133 33.4466 46.3692 33.525 46.2364Z" fill="white"/>
<path d="M39.0554 45.0052L38.1568 46.283L37.6878 45.0052V45.0039H36.5629L37.3832 47.0212L35.7969 49.2319H37.0229L37.9697 47.8807L38.4968 49.2319H39.6141L38.7584 47.1223L40.2776 45.0052H39.0554Z" fill="white"/>
<path d="M42.2916 43.9624H41.1932L41.0175 45.0052H40.4208L40.2793 45.8015H40.8835L40.5018 48.0716C40.479 48.3131 40.5018 48.5267 40.57 48.7099C40.6396 48.8932 40.7533 49.0373 40.9138 49.1409C41.0744 49.2459 41.2791 49.3002 41.5294 49.3053C41.6394 49.3053 41.7468 49.2977 41.8517 49.2837C41.9579 49.2699 42.0615 49.2471 42.1664 49.2155L42.2448 48.3762C42.1879 48.3851 42.1323 48.3914 42.0767 48.3977C42.021 48.404 41.9679 48.4066 41.9124 48.404C41.8125 48.399 41.7405 48.38 41.6937 48.3459C41.6469 48.3118 41.6178 48.2638 41.6065 48.1993C41.5951 48.1348 41.5951 48.0577 41.6052 47.9667L41.9768 45.8028H42.6758L42.8174 45.0065H42.1146L42.2941 43.9637L42.2916 43.9624Z" fill="white"/>
<path d="M46.3496 45.5666C46.222 45.3744 46.0538 45.2202 45.8453 45.1064C45.6367 44.9927 45.3852 44.9321 45.0907 44.9269C44.7747 44.9181 44.489 44.9725 44.2325 45.0887C43.9759 45.2051 43.7546 45.3643 43.5663 45.5691C43.3792 45.7738 43.2289 46.009 43.1176 46.2744C43.0051 46.5411 42.9343 46.8204 42.9027 47.1149L42.8876 47.2755C42.8673 47.5561 42.8926 47.8202 42.966 48.0654C43.0393 48.3094 43.153 48.5255 43.3085 48.7101C43.4627 48.8959 43.6561 49.04 43.8887 49.1462C44.1212 49.251 44.3816 49.3067 44.6698 49.3117H44.671C44.8758 49.3142 45.0831 49.289 45.2917 49.2359C45.5002 49.1828 45.6948 49.0994 45.8756 48.9856C46.0564 48.8719 46.2056 48.7265 46.3231 48.5495L45.8301 47.9555C45.6886 48.1021 45.5318 48.2184 45.3549 48.3056C45.1792 48.3928 44.987 48.4332 44.7785 48.4282C44.6155 48.4231 44.4777 48.3865 44.3702 48.3195C44.2628 48.2525 44.1768 48.1641 44.1162 48.054C44.0555 47.9441 44.0138 47.8215 43.9935 47.685C43.9822 47.6129 43.9771 47.5409 43.9759 47.4676H46.5758L46.6378 46.9986C46.6656 46.7294 46.6568 46.4728 46.61 46.2263C46.5633 45.9799 46.476 45.7612 46.3484 45.5678L46.3496 45.5666ZM45.6064 46.6233L45.5874 46.7206L44.077 46.7181C44.0808 46.7016 44.0846 46.6852 44.0883 46.6687C44.1288 46.5146 44.1895 46.3704 44.2678 46.2377C44.3449 46.105 44.4461 45.9988 44.5687 45.9167C44.6913 45.8358 44.8417 45.7978 45.0212 45.8029C45.1779 45.8079 45.303 45.8484 45.3966 45.9243C45.4901 45.9988 45.5546 46.0999 45.5874 46.2226C45.6203 46.3464 45.6279 46.4792 45.6064 46.6233Z" fill="white"/>
<path d="M49.9065 44.97C49.8408 44.9548 49.7776 44.9422 49.7169 44.9308C49.6562 44.9194 49.5931 44.9156 49.5273 44.9156C49.2771 44.9131 49.0647 44.9725 48.8928 45.0938C48.7803 45.1735 48.6817 45.2696 48.5945 45.3795L48.635 45.0066H47.6035L46.8691 49.2334H47.9663L48.4403 46.4969C48.4997 46.3882 48.5717 46.2946 48.6577 46.2188C48.7474 46.1392 48.8536 46.0785 48.9762 46.0368C49.0988 45.9951 49.2353 45.9761 49.387 45.9787C49.4527 45.9811 49.5172 45.9863 49.5804 45.9938C49.6436 46.0027 49.7068 46.0115 49.77 46.0216L49.9065 44.9712V44.97Z" fill="white"/>
<path d="M49.7598 49.2321H50.8568L51.5912 45.0054H50.4941L49.7598 49.2321Z" fill="white"/>
<path d="M51.2276 43.3343C51.0557 43.3368 50.9091 43.3925 50.7877 43.4986C50.6664 43.6061 50.6095 43.7476 50.6146 43.9246C50.6171 44.0965 50.679 44.2317 50.8004 44.3316C50.9217 44.4302 51.0646 44.4782 51.2289 44.4757C51.3982 44.4719 51.5436 44.4176 51.6662 44.3114C51.7888 44.2052 51.8469 44.0624 51.8419 43.8854C51.8419 43.7173 51.7812 43.582 51.6586 43.4809C51.536 43.3798 51.3932 43.3318 51.2289 43.3343H51.2276Z" fill="white"/>
<path d="M55.4879 45.5827C55.3463 45.3844 55.1644 45.2276 54.9432 45.1101C54.7207 44.9937 54.4577 44.9318 54.1532 44.9267C53.8321 44.9192 53.5439 44.9723 53.2873 45.086C53.0307 45.1998 52.8083 45.3565 52.6199 45.5587C52.4316 45.761 52.2799 45.9935 52.1662 46.2577C52.0524 46.5219 51.9804 46.805 51.9488 47.1046L51.9374 47.1868V47.1842C51.9134 47.4661 51.9298 47.7328 51.9879 47.9856C52.0461 48.2384 52.1434 48.4633 52.285 48.6592C52.4253 48.8564 52.6073 49.0119 52.8311 49.1282C53.0548 49.2445 53.3164 49.3052 53.616 49.3102C53.932 49.3191 54.2176 49.266 54.4754 49.1547C54.7333 49.0423 54.9558 48.8881 55.1454 48.6884C55.335 48.4886 55.4867 48.2573 55.6029 47.997C55.7193 47.7353 55.7938 47.456 55.8279 47.1589L55.8355 47.073C55.8621 46.7898 55.8456 46.5194 55.7875 46.2641C55.7294 46.0087 55.6282 45.7812 55.4867 45.584L55.4879 45.5827ZM54.7346 47.0717L54.727 47.1539C54.7119 47.3005 54.6802 47.4484 54.6335 47.6013C54.5867 47.7542 54.5235 47.8946 54.4426 48.0235C54.3617 48.1525 54.2594 48.2561 54.1342 48.3319C54.0104 48.409 53.8599 48.4444 53.6855 48.4393C53.5225 48.4343 53.3922 48.3901 53.2987 48.3079C53.2052 48.2257 53.1382 48.1208 53.0977 47.9931C53.0573 47.8655 53.0346 47.7302 53.0295 47.5887C53.0244 47.4471 53.0283 47.3132 53.0408 47.188L53.0484 47.1021C53.0648 46.9555 53.094 46.8063 53.1407 46.6521C53.1862 46.4978 53.2494 46.3563 53.3303 46.2261C53.4112 46.0959 53.5136 45.9911 53.6387 45.9114C53.7639 45.8317 53.913 45.7951 54.0875 45.8002C54.2505 45.8065 54.3806 45.8507 54.4742 45.9354C54.5678 46.0201 54.6348 46.1276 54.6765 46.2565C54.7182 46.3854 54.7422 46.5231 54.7447 46.6673C54.7485 46.8114 54.7447 46.9466 54.7346 47.0717Z" fill="white"/>
<path d="M59.1578 44.97C59.092 44.9548 59.0289 44.9422 58.9682 44.9308C58.9075 44.9194 58.8443 44.9156 58.7786 44.9156C58.5283 44.9131 58.3159 44.9725 58.1428 45.0938C58.0303 45.1735 57.9317 45.2696 57.8445 45.3795L57.885 45.0066H56.8535L56.1191 49.2334H57.2163L57.6903 46.4969C57.7497 46.3882 57.8217 46.2946 57.9077 46.2188C57.9974 46.1392 58.1036 46.0785 58.2263 46.0368C58.3488 45.9951 58.4853 45.9761 58.637 45.9787C58.7015 45.9811 58.7672 45.9863 58.8304 45.9938C58.8936 46.0014 58.9568 46.0115 59.02 46.0216L59.1565 44.9712L59.1578 44.97Z" fill="white"/>
<path d="M34.4487 39.0267C34.4057 39.1998 34.3766 39.3238 34.3614 39.3743C34.0858 40.6408 34.1516 41.14 35.1362 41.0238C36.2005 40.8936 36.3307 40.3437 36.677 39.0267C36.6985 38.9319 36.7276 38.8232 36.7643 38.693C40.3464 38.2076 43.864 37.9043 48.7051 37.5061C48.901 37.4897 49.0716 37.472 49.2194 37.4505C49.2839 37.4442 49.3471 37.4391 49.4142 37.4328C50.8437 37.3001 50.8298 37.0499 50.9613 36.1626C51.1129 35.1526 49.9905 35.1539 49.6531 35.164H49.4925C47.3197 35.2209 45.7891 35.2322 43.4393 35.4876C41.4334 35.6557 39.4009 35.8781 37.4518 36.1233C37.879 34.5965 38.2987 33.0986 38.2987 33.0986C38.2987 33.0986 38.7323 34.0327 39.9558 33.9379C41.6925 33.8001 43.8059 32.114 44.8335 29.016C45.9193 25.7233 45.8245 21.9895 43.6036 21.6698C41.8088 21.4157 40.9543 23.002 40.8317 23.3193C40.8317 23.3193 41.216 21.8783 40.0708 22.1324C38.9788 22.3713 38.7829 22.8554 38.5073 23.7313C38.4567 23.883 37.5378 27.3071 36.5759 30.9107C36.562 30.9322 36.5468 30.9612 36.5405 30.9903C36.3016 31.8081 35.8314 32.0761 35.4914 32.0975C34.3918 32.1696 36.7579 24.9118 36.9387 24.3532C37.1776 23.6302 37.3153 23.0791 36.5114 22.7757C35.9692 22.5735 35.2297 22.6455 35.0137 23.2245C34.9189 23.471 34.8543 23.6441 34.8543 23.6441C34.8543 23.6441 34.2388 22.7252 32.8712 22.8478C31.5035 22.9704 29.7745 24.6351 28.6369 27.5586C27.4943 30.4759 27.0013 34.666 29.7075 35.0844C31.0827 35.2941 32.2404 34.5131 32.8409 33.2174C32.8409 33.2174 32.7322 34.0858 33.6448 34.5131C33.9999 34.6786 34.8822 34.6142 35.7215 34.144C35.504 34.9693 35.2943 35.7429 35.1135 36.438C29.2663 37.2483 24.6554 38.1533 24.6554 38.1533C24.6554 38.1533 27.8621 27.3046 28.5851 24.9245C29.193 22.9274 28.0492 23.361 27.2099 23.6075C26.3124 23.8678 25.8852 24.6211 25.4364 25.9963C23.4748 31.9964 21.9264 33.8634 20.8052 33.4576C19.7777 33.0885 23.0122 26.7206 22.2386 25.8814C21.5662 25.1507 20.1834 25.1937 19.9154 25.6209C19.6551 26.0482 20.0456 26.4464 19.8724 27.0543C19.7069 27.6622 18.4101 30.9549 18.2735 31.6931C18.1358 32.4312 17.0146 36.5203 19.9888 36.3395C21.7469 36.2384 22.949 34.9062 23.0791 34.5371C22.5294 36.1221 21.7469 38.6918 21.7469 38.6918C21.7469 38.6918 18.1496 39.5892 15.2842 42.5924C13.004 44.9737 11.3975 50.1042 14.7988 50.922C20.081 52.1961 22.5862 44.1256 23.8666 41.087C28.1515 40.1314 31.4214 39.502 34.4474 39.0242L34.4487 39.0267ZM39.7245 28.2361V28.2285C40.4475 25.8624 41.1136 24.9207 41.7367 24.6528C43.227 24.0157 43.5101 25.8826 42.3586 28.7266C41.0264 32.0116 39.4704 31.9396 38.8776 31.2886C38.8776 31.2886 38.9572 30.7249 39.7245 28.2348V28.2361ZM33.0659 29.6543C32.4288 31.1951 31.8284 32.2809 31.003 32.2884C29.8237 32.296 29.8516 30.5227 30.6921 28.2867C31.4012 26.4122 32.6892 25.2253 33.3843 25.0952C34.0796 24.965 34.8897 25.2544 33.0659 29.6543ZM17.4469 47.6078C14.6383 50.1193 15.3474 46.6826 16.3902 45.1987C18.3734 42.3839 20.8268 41.6671 20.8268 41.6671C19.5817 45.3074 18.0258 47.0946 17.4469 47.6078Z" fill="white"/>
<path d="M48.4085 33.1934C50.1313 33.1213 51.6216 31.8763 52.1651 30.9498C52.4254 30.5011 52.5342 29.7996 52.4836 29.4874C52.3534 28.6115 51.8175 28.4813 50.9061 29.6315C50.6812 29.8843 48.8876 31.4845 48.0041 30.5365C47.367 29.8489 47.903 28.5027 47.932 28.5027C49.0822 28.4156 51.0944 27.953 52.6934 26.1076H52.6871C53.7513 24.8777 54.2355 22.2587 52.4558 21.2956C50.2994 20.1302 47.4909 21.9112 46.3267 25.746C45.2915 29.1537 44.9086 33.3527 48.411 33.1922L48.4085 33.1934ZM50.1086 23.1195V23.127C51.078 22.222 51.997 23.3078 50.8834 24.8575C49.7546 26.4286 48.43 26.3843 48.4237 26.4349C48.5615 25.8193 49.0531 24.1117 50.1098 23.1195H50.1086Z" fill="white"/>
</g>
<defs>
<filter id="filter0_f_721_28580" x="-142.491" y="-32.7547" width="774.385" height="663.339" filterUnits="userSpaceOnUse" color-interpolation-filters="sRGB">
<feFlood flood-opacity="0" result="BackgroundImageFix"/>
<feBlend mode="normal" in="SourceGraphic" in2="BackgroundImageFix" result="shape"/>
<feGaussianBlur stdDeviation="86.6667" result="effect1_foregroundBlur_721_28580"/>
</filter>
<filter id="filter1_d_721_28580" x="33.0935" y="72" width="453.813" height="45.1933" filterUnits="userSpaceOnUse" color-interpolation-filters="sRGB">
<feFlood flood-opacity="0" result="BackgroundImageFix"/>
<feColorMatrix in="SourceAlpha" type="matrix" values="0 0 0 0 0 0 0 0 0 0 0 0 0 0 0 0 0 0 127 0" result="hardAlpha"/>
<feOffset dy="4.17308"/>
<feGaussianBlur stdDeviation="2.08654"/>
<feComposite in2="hardAlpha" operator="out"/>
<feColorMatrix type="matrix" values="0 0 0 0 0 0 0 0 0 0 0 0 0 0 0 0 0 0 0.4 0"/>
<feBlend mode="normal" in2="BackgroundImageFix" result="effect1_dropShadow_721_28580"/>
<feBlend mode="normal" in="SourceGraphic" in2="effect1_dropShadow_721_28580" result="shape"/>
</filter>
<filter id="filter2_d_721_28580" x="33.1066" y="107.851" width="453.787" height="83.0102" filterUnits="userSpaceOnUse" color-interpolation-filters="sRGB">
<feFlood flood-opacity="0" result="BackgroundImageFix"/>
<feColorMatrix in="SourceAlpha" type="matrix" values="0 0 0 0 0 0 0 0 0 0 0 0 0 0 0 0 0 0 127 0" result="hardAlpha"/>
<feOffset dy="4.16"/>
<feGaussianBlur stdDeviation="2.08"/>
<feComposite in2="hardAlpha" operator="out"/>
<feColorMatrix type="matrix" values="0 0 0 0 0 0 0 0 0 0 0 0 0 0 0 0 0 0 0.4 0"/>
<feBlend mode="normal" in2="BackgroundImageFix" result="effect1_dropShadow_721_28580"/>
<feBlend mode="normal" in="SourceGraphic" in2="effect1_dropShadow_721_28580" result="shape"/>
</filter>
<clipPath id="clip0_721_28580">
<rect width="520" height="392" rx="12" fill="white"/>
</clipPath>
<clipPath id="clip1_721_28580">
<rect width="520" height="520" fill="white" transform="translate(0 -64)"/>
</clipPath>
<clipPath id="clip2_721_28580">
<rect width="16.8086" height="16.8086" fill="white" transform="translate(169.148 197.609)"/>
</clipPath>
<clipPath id="clip3_721_28580">
<rect width="6.41783" height="6.41783" fill="white" transform="translate(368.098 259.957)"/>
</clipPath>
<clipPath id="clip4_721_28580">
<rect width="13.7525" height="13.7525" fill="white" transform="translate(297.812 370.586)"/>
</clipPath>
<clipPath id="clip5_721_28580">
<rect width="9.47393" height="9.47393" fill="white" transform="translate(219.875 365.391)"/>
</clipPath>
<clipPath id="clip6_721_28580">
<rect width="7.94588" height="7.94588" fill="white" transform="translate(141.949 273.098)"/>
</clipPath>
<clipPath id="clip7_721_28580">
<rect width="33.9228" height="33.9228" fill="white" transform="translate(318.895 197)"/>
</clipPath>
</defs>
</svg>
