<svg width="520" height="392" viewBox="0 0 520 392" fill="none" xmlns="http://www.w3.org/2000/svg">
<g clip-path="url(#clip0_721_25439)">
<rect width="520" height="392" rx="12" fill="white"/>
<rect width="520" height="578.933" transform="translate(0 -69)" fill="url(#paint0_radial_721_25439)"/>
<g opacity="0.5">
<path fill-rule="evenodd" clip-rule="evenodd" d="M80.8882 60.9998H50.6947V59.0739H82.8141V84.5924H28.4067V82.6665H80.8882V60.9998Z" fill="#3F0D4A"/>
<path fill-rule="evenodd" clip-rule="evenodd" d="M305.741 155.37H275.547V153.444H307.667V178.962H253.259V177.037H305.741V155.37Z" fill="#3F0D4A"/>
<path fill-rule="evenodd" clip-rule="evenodd" d="M467.518 -9.77744H437.325V-11.7034H469.444V13.8151H415.037V11.8892H467.518V-9.77744Z" fill="#3F0D4A"/>
<path fill-rule="evenodd" clip-rule="evenodd" d="M103.037 84.5927H72.8439V82.6667H104.963V108.185H50.5559V106.259H103.037V84.5927Z" fill="#3F0D4A"/>
<path fill-rule="evenodd" clip-rule="evenodd" d="M327.888 131.778H297.695V129.852H329.814V155.37H275.407V153.445H327.888V131.778Z" fill="#3F0D4A"/>
<path fill-rule="evenodd" clip-rule="evenodd" d="M327.888 178.963H297.695V177.037H329.814V202.556H275.407V200.63H327.888V178.963Z" fill="#3F0D4A"/>
<path fill-rule="evenodd" clip-rule="evenodd" d="M104.962 106.259L135.156 106.259L135.156 108.185L103.036 108.185L103.036 82.6667L157.444 82.6667L157.444 84.5926L104.962 84.5926L104.962 106.259Z" fill="#3F0D4A"/>
<path fill-rule="evenodd" clip-rule="evenodd" d="M329.815 153.444L360.008 153.444L360.008 155.37L327.889 155.37L327.889 129.852L382.296 129.852L382.296 131.778L329.815 131.778L329.815 153.444Z" fill="#3F0D4A"/>
<path fill-rule="evenodd" clip-rule="evenodd" d="M329.815 200.629L360.008 200.629L360.008 202.555L327.889 202.555L327.889 177.037L382.296 177.037L382.296 178.963L329.815 178.963L329.815 200.629Z" fill="#3F0D4A"/>
<path fill-rule="evenodd" clip-rule="evenodd" d="M131.444 59.0739H80.888V84.5924H131.444V59.0739ZM129.518 60.9998V82.6665H82.814V60.9998H129.518Z" fill="#3F0D4A"/>
<path fill-rule="evenodd" clip-rule="evenodd" d="M356.296 153.444H305.741V178.962H356.296V153.444ZM354.37 155.37V177.037H307.667V155.37H354.37Z" fill="#3F0D4A"/>
</g>
<rect x="-40.5" y="308" width="600" height="115.354" fill="#3F0D4A"/>
<g style="mix-blend-mode:screen" opacity="0.9" filter="url(#filter0_f_721_25439)">
<ellipse cx="251.575" cy="261.851" rx="185.49" ry="122.442" transform="rotate(21.0304 251.575 261.851)" fill="#9E26C8"/>
</g>
<g clip-path="url(#clip1_721_25439)">
<path d="M323.419 279.378L188.129 276.072C177.141 275.803 168.016 284.493 167.747 295.481C167.479 306.469 176.168 315.594 187.156 315.863L322.446 319.169C333.434 319.438 342.56 310.748 342.828 299.76C343.097 288.772 334.407 279.647 323.419 279.378Z" fill="#918AA0"/>
<path d="M272.974 270.768L273.889 233.441L239.826 232.605L238.911 269.932C236.363 270.02 233.848 270.123 231.396 270.267C234.612 280.735 244.196 288.258 255.5 288.536C266.805 288.815 276.739 281.77 280.465 271.469C278.021 271.206 275.513 270.975 272.974 270.768Z" fill="#DCAC82"/>
<path d="M273.443 251.623L273.149 263.58C267.258 263.938 257.777 263.699 250.198 259.679C244.164 256.479 242.381 252.499 241.816 250.851L273.443 251.623Z" fill="#9F7554"/>
<path d="M260.193 178.35L256.214 178.253C243.028 177.93 232.078 188.358 231.755 201.544L230.977 233.377C230.655 246.562 241.083 257.513 254.269 257.835L258.248 257.932C271.433 258.254 282.384 247.827 282.706 234.641L283.484 202.808C283.806 189.622 273.378 178.672 260.193 178.35Z" fill="#DCAC82"/>
<path d="M246.864 220.939C246.898 219.532 246.067 218.371 245.008 218.345C243.949 218.32 243.062 219.439 243.028 220.845C242.994 222.252 243.825 223.413 244.884 223.439C245.943 223.465 246.83 222.345 246.864 220.939Z" fill="#2C2044"/>
<path d="M271.263 221.534C271.297 220.127 270.466 218.966 269.407 218.94C268.348 218.915 267.461 220.034 267.427 221.44C267.392 222.847 268.223 224.008 269.282 224.034C270.342 224.06 271.228 222.94 271.263 221.534Z" fill="#2C2044"/>
<path d="M226.667 214.564L231.442 214.681L231.014 232.189L226.239 232.072C222.721 231.986 219.942 229.068 220.028 225.55L220.145 220.775C220.231 217.258 223.149 214.478 226.667 214.564Z" fill="#DCAC82"/>
<path d="M287.499 233.588L282.724 233.471L283.152 215.963L287.927 216.079C291.444 216.165 294.224 219.084 294.138 222.602L294.021 227.377C293.935 230.894 291.016 233.674 287.499 233.588Z" fill="#DCAC82"/>
<path d="M225.21 226.133C225.083 226.133 224.955 226.061 224.876 225.942C224.764 225.751 224.82 225.512 225.011 225.392L228.323 223.37L225.115 221.189C224.932 221.062 224.884 220.815 225.011 220.64C225.139 220.457 225.385 220.409 225.56 220.536L229.278 223.068C229.389 223.147 229.453 223.275 229.453 223.41C229.453 223.545 229.382 223.673 229.262 223.737L225.425 226.077C225.353 226.117 225.282 226.141 225.21 226.133Z" fill="#9F7554"/>
<path d="M243.182 214.097C241.678 214.057 240.412 213.667 239.528 213.285C239.329 213.197 239.234 212.966 239.321 212.76C239.409 212.553 239.648 212.465 239.847 212.553C240.969 213.038 242.752 213.548 244.878 213.173C246.056 212.966 247.171 212.529 248.19 211.852C248.373 211.733 248.619 211.78 248.739 211.963C248.858 212.147 248.81 212.393 248.627 212.513C247.521 213.245 246.303 213.731 245.013 213.954C244.368 214.065 243.755 214.105 243.174 214.089L243.182 214.097Z" fill="#2C2044"/>
<path d="M271.454 214.79C270.873 214.774 270.268 214.71 269.623 214.567C268.349 214.28 267.155 213.739 266.08 212.951C265.905 212.823 265.865 212.569 265.993 212.393C266.12 212.218 266.375 212.178 266.55 212.306C267.529 213.022 268.62 213.524 269.79 213.787C271.892 214.256 273.699 213.842 274.845 213.412C275.052 213.333 275.283 213.436 275.355 213.643C275.434 213.85 275.331 214.081 275.124 214.153C274.224 214.495 272.942 214.821 271.438 214.79H271.454Z" fill="#2C2044"/>
<path d="M288.812 227.686C288.74 227.686 288.661 227.662 288.597 227.614L284.879 225.082C284.768 225.003 284.704 224.875 284.704 224.74C284.704 224.605 284.776 224.477 284.895 224.414L288.732 222.073C288.923 221.962 289.162 222.018 289.281 222.209C289.393 222.4 289.337 222.639 289.146 222.758L285.835 224.78L289.043 226.961C289.226 227.089 289.273 227.335 289.146 227.51C289.067 227.63 288.939 227.686 288.804 227.686H288.812Z" fill="#9F7554"/>
<path d="M242.196 226.849C242.216 225.997 240.99 225.275 239.456 225.238C237.922 225.2 236.662 225.861 236.641 226.714C236.62 227.566 237.847 228.288 239.38 228.325C240.914 228.363 242.175 227.702 242.196 226.849Z" fill="#BE906A"/>
<path d="M277.351 227.709C277.372 226.856 276.145 226.135 274.611 226.097C273.078 226.06 271.817 226.72 271.796 227.573C271.775 228.426 273.002 229.147 274.536 229.185C276.07 229.222 277.33 228.562 277.351 227.709Z" fill="#BE906A"/>
<path d="M256.45 245.288C259.172 245.275 261.364 242.523 261.347 239.142C261.33 235.761 259.109 233.031 256.388 233.045C253.666 233.059 251.473 235.811 251.491 239.192C251.508 242.573 253.728 245.302 256.45 245.288Z" fill="#6B222F"/>
<path d="M260.961 241.55C260.232 243.735 258.49 245.277 256.453 245.287C254.416 245.298 252.659 243.784 251.897 241.607C252.102 241.359 253.738 239.395 256.506 239.423C259.171 239.45 260.744 241.284 260.961 241.55Z" fill="#DE4A65"/>
<path d="M293.576 194.816C289.803 190.032 286.858 187.389 281.723 182.915C284.382 182.143 286.675 180.487 288.163 177.271C275.641 174.541 267.585 173.259 255.469 174.023C256.544 171.404 256.95 169.366 256.52 166.636C250.486 174.143 230.043 175.058 228.705 196.862C228.674 197.3 228.65 197.738 228.634 198.184L228.228 214.606L232.327 214.71C232.431 211.979 232.893 207.991 234.588 203.501C236.483 198.478 239.15 194.896 241.036 192.731C243.234 194.928 246.529 197.73 251.051 200.102C254.466 201.893 257.634 202.944 260.174 203.589C259.083 201.041 257.985 198.486 256.894 195.939C257.475 196.488 258.486 197.372 259.863 198.295C262.156 199.831 265.316 200.97 269.854 202.148C276.374 203.844 281.261 209.265 282.264 215.928L286.364 216.031L286.77 199.609C286.818 197.706 286.635 195.851 286.253 194.068C288.8 195.541 290.543 195.668 293.576 194.808V194.816Z" fill="#2C2044"/>
<path d="M190.414 445.217C191.577 420.411 192.213 399.324 192.596 383.14C193.4 348.782 193.081 332.916 192.619 323.005C192.508 320.617 192.397 318.746 192.341 317.871C191.282 299.999 189.578 285.758 188.209 276.086C194.506 274.876 201.129 273.761 208.063 272.806C216.215 271.683 224.016 270.879 231.419 270.322C234.643 280.758 244.22 288.257 255.5 288.536C266.78 288.815 276.715 281.793 280.441 271.524C287.804 272.44 295.566 273.626 303.654 275.146C310.532 276.444 317.099 277.877 323.325 279.389C321.486 288.982 319.082 303.128 317.155 320.92C317.06 321.787 316.853 323.658 316.622 326.03C315.666 335.91 314.584 351.735 313.7 386.093C313.286 402.269 312.888 423.365 312.84 448.202L190.414 445.201V445.217Z" fill="#61BDFF"/>
<path d="M333.761 304.497V359.593C329.183 359.8 323.094 359.617 316.12 358.128C309.752 356.767 304.529 354.721 300.613 352.85C301.457 347.835 302.189 342.541 302.754 336.985C303.924 325.458 304.179 314.759 303.885 305.11L333.753 304.497H333.761Z" fill="#1172C9"/>
<path d="M286.266 272.296C281.538 284.675 269.398 293.32 255.387 292.978C241.376 292.636 229.69 283.409 225.567 270.808C227.549 270.625 229.491 270.465 231.418 270.322C234.642 280.758 244.218 288.257 255.499 288.536C266.779 288.815 276.714 281.793 280.439 271.524C282.35 271.763 284.3 272.026 286.266 272.296Z" fill="#1E88E8"/>
<path d="M260.075 362.426L265.175 286.446C265.29 284.739 263.999 283.263 262.293 283.149L228.719 280.895C227.013 280.781 225.536 282.071 225.422 283.778L220.322 359.758C220.207 361.464 221.498 362.94 223.204 363.055L256.778 365.308C258.485 365.423 259.961 364.132 260.075 362.426Z" fill="#2C2044"/>
<path d="M264.631 368.349C275.622 368.349 284.533 359.438 284.533 348.447C284.533 337.456 275.622 328.546 264.631 328.546C253.64 328.546 244.729 337.456 244.729 348.447C244.729 359.438 253.64 368.349 264.631 368.349Z" fill="#DCAC82"/>
<path d="M279.367 335.074C276.294 331.786 273.54 329.462 271.685 327.997C261.718 320.14 256.074 319.049 252.206 309.282C249.785 303.168 240.694 306.241 242.446 312.498C243.25 315.364 247.047 321.446 251.195 328.284C251.059 329.366 250.566 334.405 254.028 339.03C254.442 339.58 258.343 344.611 264.879 344.889C270.913 345.144 276.74 341.244 279.375 335.082L279.367 335.074Z" fill="#DCAC82"/>
<path d="M217.783 334.748C213.858 328.117 218.013 321.032 222.941 320.785C222.758 323.492 224.804 325.832 227.51 326.015L262.434 328.355L259.767 368.071L224.684 365.715C220.449 365.348 219.255 358.574 222.336 356.074C217.751 356.958 215.044 350.367 217.01 346.283C212.576 343.759 214.431 336.213 217.783 334.748Z" fill="#DCAC82"/>
<path d="M229.788 295.872L237.938 296.419C238.758 296.474 239.467 295.854 239.523 295.033L240.07 286.884C240.125 286.064 239.504 285.354 238.684 285.299L230.535 284.752C229.714 284.697 229.005 285.317 228.95 286.138L228.403 294.287C228.348 295.107 228.968 295.817 229.788 295.872Z" fill="#544A69"/>
<path d="M232.023 289.906C233.114 289.906 233.998 289.022 233.998 287.932C233.998 286.841 233.114 285.957 232.023 285.957C230.933 285.957 230.049 286.841 230.049 287.932C230.049 289.022 230.933 289.906 232.023 289.906Z" fill="#2C2044"/>
<path d="M236.601 292.724C237.692 292.724 238.575 291.84 238.575 290.749C238.575 289.659 237.692 288.775 236.601 288.775C235.511 288.775 234.627 289.659 234.627 290.749C234.627 291.84 235.511 292.724 236.601 292.724Z" fill="#2C2044"/>
<path d="M231.69 294.913C232.781 294.913 233.665 294.029 233.665 292.938C233.665 291.848 232.781 290.964 231.69 290.964C230.6 290.964 229.716 291.848 229.716 292.938C229.716 294.029 230.6 294.913 231.69 294.913Z" fill="#2C2044"/>
<path d="M196.336 222.097C199.805 222.097 202.617 219.285 202.617 215.816C202.617 212.347 199.805 209.535 196.336 209.535C192.867 209.535 190.055 212.347 190.055 215.816C190.055 219.285 192.867 222.097 196.336 222.097Z" fill="#CE92D6"/>
<path d="M189.21 200.476C191.057 202.888 190.945 206.311 188.844 208.492C188.836 208.508 188.812 208.524 188.796 208.54C188.78 208.556 188.764 208.572 188.748 208.588C186.639 210.761 183.224 210.992 180.748 209.241L154.74 190.788C151.891 188.766 151.23 184.794 153.323 181.999C154.35 180.63 155.544 179.213 156.914 177.78C158.291 176.355 159.668 175.114 160.998 174.031C163.712 171.834 167.716 172.367 169.834 175.129L189.21 200.46V200.476Z" fill="#CE92D6"/>
<path d="M314.879 225.059C318.347 225.059 321.159 222.246 321.159 218.778C321.159 215.309 318.347 212.497 314.879 212.497C311.41 212.497 308.598 215.309 308.598 218.778C308.598 222.246 311.41 225.059 314.879 225.059Z" fill="#CE92D6"/>
<path d="M328.601 208.883C326.579 211.152 323.196 211.685 320.656 210.037C320.64 210.029 320.617 210.013 320.601 210.005C320.585 209.997 320.561 209.981 320.545 209.973C318.013 208.31 317.146 204.998 318.396 202.236L331.618 173.211C333.067 170.035 336.848 168.626 339.985 170.162C341.521 170.911 343.137 171.818 344.801 172.893C346.465 173.976 347.937 175.098 349.251 176.197C351.926 178.449 352.157 182.478 349.832 185.081L328.609 208.883H328.601Z" fill="#CE92D6"/>
<path d="M211.151 206.319C213.644 206.319 215.665 204.298 215.665 201.805C215.665 199.312 213.644 197.292 211.151 197.292C208.658 197.292 206.637 199.312 206.637 201.805C206.637 204.298 208.658 206.319 211.151 206.319Z" fill="#CE92D6"/>
<path d="M212.376 189.714C212.631 191.871 211.309 193.957 209.216 194.538C209.2 194.538 209.192 194.538 209.168 194.546C209.144 194.554 209.144 194.546 209.12 194.554C207.018 195.127 204.821 194.005 203.938 192.022L194.64 171.086C193.621 168.793 194.672 166.087 196.988 165.139C198.126 164.67 199.376 164.232 200.753 163.858C202.131 163.484 203.436 163.221 204.646 163.046C207.13 162.688 209.407 164.471 209.701 166.97L212.384 189.722L212.376 189.714Z" fill="#CE92D6"/>
<path d="M338.793 391.109C332.902 395.981 326.398 397.501 320.508 397.501C313.001 397.501 306.481 395.041 303.44 393.895C294.628 390.576 272.473 380.107 251.648 364.29C242.9 357.635 241.196 345.152 247.851 336.404C254.498 327.647 266.988 325.951 275.737 332.599C288.633 342.406 302.127 349.642 310.517 353.615C310.414 352.086 310.278 350.454 310.111 348.751C309.426 341.642 308.264 333.243 307.062 325.378C305.637 316.12 304.157 307.578 303.313 302.698C301.434 291.864 308.686 281.563 319.52 279.684C330.347 277.814 340.648 285.066 342.527 295.892C344.182 305.421 345.623 314.05 346.809 321.868C347.828 328.57 348.656 334.684 349.261 340.265C352.199 367.299 349.922 381.899 338.793 391.109Z" fill="#DCAC82"/>
<path d="M349.265 340.607C341.901 346.736 327.731 350.295 310.114 349.093C309.43 341.984 308.267 333.585 307.065 325.72L346.813 322.21C347.832 328.912 348.66 335.026 349.265 340.607Z" fill="#9F7554"/>
<path d="M307.378 341.904C313.396 342.429 322.288 342.509 332.605 340.017C341.728 337.82 348.861 334.357 353.757 331.5C352.196 323.762 349.975 315.26 346.783 306.256C345.366 302.26 343.87 298.471 342.341 294.913C329.397 297.818 316.445 300.724 303.501 303.621C304.799 316.382 306.089 329.143 307.386 341.904H307.378Z" fill="#61BDFF"/>
<path d="M322.911 319.161C333.903 319.161 342.813 310.251 342.813 299.259C342.813 288.268 333.903 279.358 322.911 279.358C311.92 279.358 303.01 288.268 303.01 299.259C303.01 310.251 311.92 319.161 322.911 319.161Z" fill="#61BDFF"/>
<path d="M161.741 477.219C151.535 477.219 142.85 469.417 141.935 459.061C136.832 400.924 139.674 351.967 169.582 287.589C174.215 277.622 186.052 273.3 196.019 277.925C205.986 282.558 210.316 294.395 205.683 304.362C179.389 360.946 176.937 402.652 181.586 455.566C182.55 466.512 174.454 476.168 163.5 477.131C162.911 477.187 162.322 477.211 161.733 477.211L161.741 477.219Z" fill="#DCAC82"/>
<path d="M193.772 340.941C187.777 340.177 179.076 338.37 169.516 333.753C161.069 329.669 154.828 324.773 150.649 320.944C153.817 313.708 157.79 305.875 162.821 297.755C165.05 294.149 167.318 290.766 169.571 287.605C181.608 293.186 193.644 298.774 205.681 304.354C201.708 316.55 197.736 328.746 193.772 340.941Z" fill="#61BDFF"/>
<path d="M187.636 315.881C198.627 315.881 207.537 306.97 207.537 295.979C207.537 284.988 198.627 276.078 187.636 276.078C176.644 276.078 167.734 284.988 167.734 295.979C167.734 306.97 176.644 315.881 187.636 315.881Z" fill="#61BDFF"/>
</g>
<g filter="url(#filter1_d_721_25439)">
<path d="M186.233 91.607L185.097 109.333H177.097L179.313 91.607H186.233ZM183.349 84.1977C184.789 84.1977 185.778 84.4633 186.316 84.9944C186.857 85.499 187.077 86.2957 186.978 87.3845C186.879 88.4733 186.512 89.2833 185.877 89.8144C185.271 90.319 184.234 90.5713 182.768 90.5713C181.301 90.5713 180.311 90.319 179.797 89.8144C179.285 89.2833 179.079 88.4733 179.178 87.3845C179.277 86.2957 179.63 85.499 180.236 84.9944C180.871 84.4633 181.909 84.1977 183.349 84.1977ZM209.479 85.8708H204.199L202.558 103.876H194.038L195.679 85.8708H190.119L191.093 79.1387H210.573L209.479 85.8708ZM219.1 95.1124C218.969 96.5465 219.544 97.2635 220.824 97.2635C222.131 97.2635 222.851 96.5332 222.984 95.0726L224.437 79.1387H232.997L231.496 95.5904C231.23 98.5116 230.112 100.689 228.141 102.123C226.17 103.557 223.465 104.274 220.025 104.274C213.038 104.274 209.806 101.406 210.329 95.6701L211.837 79.1387H220.557L219.1 95.1124ZM257.489 103.876H241.649L243.905 79.1387H260.305L259.146 85.7114H251.866L251.593 88.699H257.953L257.43 94.4352H251.07L250.762 97.8212H258.602L257.489 103.876ZM281.167 103.876H273.007L268.857 94.1165H268.577L267.687 103.876H260.087L262.343 79.1387H270.783L274.584 89.2169H274.824L275.743 79.1387H283.423L281.167 103.876ZM307.599 79.1387L300.544 103.876H288.264L285.439 79.1387H294.679L295.216 94.3157H295.696L298.799 79.1387H307.599ZM316.073 103.876H307.633L309.888 79.1387H318.328L316.073 103.876ZM321.644 72.6058L315.913 77.5453H310.633L313.524 72.6058H321.644ZM319.802 91.3679C320.207 86.933 321.38 83.7197 323.321 81.7279C325.29 79.7362 328.301 78.7403 332.354 78.7403C336.434 78.7403 339.251 79.7229 340.805 81.6881C342.386 83.6533 342.974 86.8533 342.57 91.2883C342.168 95.6967 340.963 98.9631 338.956 101.088C336.976 103.212 333.972 104.274 329.946 104.274C325.946 104.274 323.148 103.225 321.553 101.127C319.984 99.0295 319.4 95.7763 319.802 91.3679ZM333.875 86.6276C333.591 85.9371 332.876 85.5919 331.729 85.5919C330.582 85.5919 329.819 85.9239 329.438 86.5878C329.058 87.2517 328.768 88.6725 328.57 90.8501L328.41 92.6028C328.206 94.8336 328.248 96.2809 328.534 96.9448C328.82 97.6087 329.55 97.9407 330.723 97.9407C331.896 97.9407 332.659 97.622 333.01 96.9846C333.362 96.3473 333.638 94.9265 333.839 92.7223L334.006 90.8899C334.205 88.7123 334.161 87.2915 333.875 86.6276Z" fill="white"/>
</g>
<g filter="url(#filter2_d_721_25439)">
<path d="M138.052 122.559H130.772L130.463 125.945H135.983L135.46 131.681H129.94L129.116 140.723H120.556L122.811 115.986H139.211L138.052 122.559ZM147.772 131.96C147.641 133.394 148.216 134.111 149.496 134.111C150.803 134.111 151.522 133.38 151.656 131.92L153.109 115.986H161.669L160.168 132.438C159.902 135.359 158.784 137.536 156.813 138.97C154.842 140.405 152.137 141.122 148.697 141.122C141.71 141.122 138.478 138.253 139.001 132.517L140.509 115.986H149.229L147.772 131.96ZM178.544 140.723H162.704L164.96 115.986H181.36L180.2 122.559H172.92L172.648 125.546H179.008L178.485 131.282H172.125L171.816 134.668H179.656L178.544 140.723ZM209.928 123.953C209.783 125.546 209.4 126.821 208.779 127.777C208.188 128.706 207.313 129.53 206.154 130.247L208.919 140.723H200.079L198.376 132.199H197.736L196.959 140.723H188.759L191.014 115.986H201.614C204.708 115.986 206.929 116.636 208.277 117.938C209.627 119.212 210.177 121.217 209.928 123.953ZM199.019 127.339C199.633 127.339 200.075 127.166 200.347 126.821C200.647 126.449 200.839 125.812 200.921 124.909C201.003 124.006 200.927 123.382 200.692 123.037C200.456 122.691 200.059 122.519 199.499 122.519H198.459L198.019 127.339H199.019ZM227.138 140.723H211.298L213.554 115.986H229.954L228.794 122.559H221.514L221.242 125.546H227.602L227.079 131.282H220.719L220.41 134.668H228.25L227.138 140.723ZM238.676 128.653C238.492 130.672 238.584 132.145 238.953 133.075C239.324 133.978 240.043 134.429 241.109 134.429C242.176 134.429 243.976 134.137 246.509 133.553L247.212 139.887C244.523 140.71 241.966 141.122 239.539 141.122C235.832 141.122 233.221 140.073 231.706 137.975C230.22 135.85 229.667 132.703 230.047 128.534C230.429 124.338 231.601 121.138 233.562 118.934C235.526 116.703 238.494 115.588 242.467 115.588C244.787 115.588 247.066 116.039 249.304 116.942L247.337 124.032C244.768 123.262 242.989 122.877 242.003 122.877C241.043 122.877 240.294 123.342 239.756 124.271C239.22 125.174 238.86 126.635 238.676 128.653ZM269.649 140.723H261.209L262.005 131.999H257.685L256.889 140.723H248.329L250.585 115.986H259.145L258.302 125.228H262.622L263.465 115.986H271.905L269.649 140.723ZM293.78 140.723H285.38L284.929 136.899H280.489L279.3 140.723H271.26L278.676 115.986H290.876L293.78 140.723ZM284.798 131.76L284.033 123.475H283.873L281.558 131.76H284.798ZM314.399 140.723H295.599L295.708 136.461L304.634 122.798H296.354L296.535 115.986H316.015L315.914 120.168L307.417 134.39H314.977L314.399 140.723ZM337.413 140.723H329.013L328.562 136.899H324.122L322.933 140.723H314.893L322.309 115.986H334.509L337.413 140.723ZM328.43 131.76L327.666 123.475H327.506L325.19 131.76H328.43ZM361.689 127.817C360.905 136.421 356.566 140.723 348.672 140.723H339.032L341.288 115.986H351.128C355.368 115.986 358.275 117.008 359.848 119.053C361.424 121.071 362.038 123.993 361.689 127.817ZM349.119 134.509C350.479 134.509 351.401 134.044 351.886 133.115C352.371 132.185 352.711 130.645 352.907 128.494C353.106 126.316 353.02 124.776 352.649 123.873C352.307 122.944 351.443 122.479 350.056 122.479H349.216L348.119 134.509H349.119ZM363.318 128.215C363.723 123.78 364.896 120.567 366.837 118.575C368.805 116.583 371.816 115.588 375.87 115.588C379.95 115.588 382.767 116.57 384.321 118.535C385.902 120.5 386.49 123.701 386.085 128.135C385.683 132.544 384.479 135.81 382.472 137.935C380.491 140.059 377.488 141.122 373.461 141.122C369.461 141.122 366.664 140.073 365.068 137.975C363.5 135.877 362.916 132.623 363.318 128.215ZM377.39 123.475C377.107 122.784 376.391 122.439 375.245 122.439C374.098 122.439 373.335 122.771 372.954 123.435C372.573 124.099 372.284 125.52 372.085 127.697L371.926 129.45C371.722 131.681 371.763 133.128 372.05 133.792C372.336 134.456 373.065 134.788 374.239 134.788C375.412 134.788 376.175 134.469 376.526 133.832C376.877 133.194 377.154 131.774 377.355 129.569L377.522 127.737C377.72 125.559 377.677 124.139 377.39 123.475ZM390.152 133.712L391.288 115.986H399.288L397.072 133.712H390.152ZM393.036 141.122C391.596 141.122 390.606 140.869 390.065 140.365C389.527 139.834 389.308 139.024 389.407 137.935C389.506 136.846 389.859 136.049 390.465 135.545C391.1 135.014 392.151 134.748 393.617 134.748C395.084 134.748 396.073 135.014 396.585 135.545C397.099 136.049 397.306 136.846 397.207 137.935C397.108 139.024 396.74 139.834 396.105 140.365C395.499 140.869 394.476 141.122 393.036 141.122Z" fill="#F4C12A"/>
</g>
<path d="M26.9062 45.1103C26.6761 44.994 26.4132 44.932 26.1187 44.927C25.9127 44.9207 25.7029 44.946 25.488 44.9966C25.2731 45.0484 25.0747 45.1292 24.8927 45.2379C24.7094 45.3467 24.5603 45.4869 24.4414 45.6576C24.3226 45.8282 24.2581 46.0305 24.2443 46.2655L25.3465 46.258C25.3692 46.1493 25.4109 46.0545 25.4716 45.9748C25.5322 45.8952 25.6081 45.8333 25.7003 45.7916C25.7926 45.7486 25.8975 45.7284 26.0151 45.7309C26.1453 45.7372 26.2464 45.7688 26.3184 45.8269C26.3905 45.8851 26.4372 45.9634 26.4612 46.0633C26.484 46.1632 26.4904 46.2694 26.4764 46.3844L26.4334 46.6599L25.8988 46.6561C25.6649 46.6561 25.4286 46.6789 25.1897 46.7244C24.9521 46.7699 24.7322 46.8457 24.5299 46.9532C24.3277 47.0593 24.1633 47.2047 24.0357 47.3893C23.908 47.5725 23.8385 47.8025 23.8284 48.0781C23.8183 48.322 23.8689 48.5369 23.9826 48.7202C24.0951 48.9035 24.2493 49.0488 24.4427 49.1537C24.6361 49.2587 24.8497 49.3142 25.081 49.3194C25.2478 49.3218 25.4046 49.2991 25.55 49.2511C25.6953 49.203 25.8293 49.1348 25.9519 49.0438C26.0214 48.992 26.0858 48.9351 26.1465 48.8731C26.1554 48.997 26.1769 49.1171 26.2122 49.2347L27.2904 49.2308L27.298 49.1613C27.2386 49.0135 27.2146 48.8554 27.2285 48.6911C27.2424 48.5256 27.2601 48.3675 27.2841 48.2159L27.5774 46.4033C27.609 46.0936 27.5622 45.8295 27.4383 45.6121C27.3144 45.3947 27.1375 45.2266 26.9062 45.1103ZM26.0858 48.1805C25.9923 48.2803 25.8811 48.3562 25.7534 48.4092C25.6258 48.4623 25.4956 48.4876 25.3629 48.4851C25.2694 48.4826 25.1897 48.4598 25.1227 48.4181C25.057 48.3764 25.0077 48.3195 24.9761 48.2475C24.9445 48.1755 24.9357 48.0945 24.9483 48.0036C24.9647 47.8759 25.0026 47.7671 25.0633 47.6787C25.1253 47.5902 25.2024 47.5182 25.2959 47.4613C25.3894 47.4057 25.4918 47.364 25.6018 47.3362C25.7117 47.3083 25.8242 47.2932 25.9355 47.2906L26.3323 47.2932L26.2262 47.9732C26.1895 48.0478 26.144 48.1173 26.0846 48.1792L26.0858 48.1805Z" fill="white"/>
<path d="M27.9919 49.2333H29.0891L30.1319 43.2319H29.0297L27.9919 49.2333Z" fill="white"/>
<path d="M34.6129 48.3043C34.4373 48.3915 34.2451 48.432 34.0366 48.427C33.8735 48.4219 33.7357 48.3853 33.6284 48.3182C33.5209 48.2512 33.4349 48.1628 33.3742 48.0528C33.3136 47.9428 33.2718 47.8202 33.2517 47.6837C33.2403 47.6116 33.2353 47.5397 33.234 47.4663H35.834L35.8959 46.9974C35.9237 46.7282 35.9148 46.4716 35.8681 46.2251C35.8213 45.9786 35.7341 45.76 35.6064 45.5666C35.4788 45.3744 35.3107 45.2202 35.1021 45.1064C34.8936 44.9927 34.642 44.9321 34.3475 44.9269C34.0315 44.9181 33.7459 44.9725 33.4893 45.0887C33.2327 45.2051 33.0115 45.3643 32.8232 45.5691C32.6361 45.7738 32.4856 46.009 32.3744 46.2744C32.262 46.5411 32.1912 46.8204 32.1596 47.1149L32.1444 47.2755C32.1242 47.5561 32.1495 47.8202 32.2228 48.0654C32.2961 48.3094 32.4098 48.5255 32.5653 48.7101C32.7195 48.8959 32.9129 49.04 33.1455 49.1462C33.3781 49.251 33.6384 49.3067 33.9266 49.3117H33.9279C34.1327 49.3142 34.3399 49.289 34.5485 49.2359C34.7571 49.1828 34.9517 49.0994 35.1325 48.9856C35.3132 48.8719 35.4623 48.7265 35.5799 48.5495L35.0869 47.9555C34.9454 48.1021 34.7887 48.2184 34.6117 48.3056L34.6129 48.3043ZM33.526 46.2364C33.6031 46.1038 33.7042 45.9976 33.8267 45.9154C33.9494 45.8345 34.101 45.7966 34.2793 45.8017C34.436 45.8067 34.5611 45.8472 34.6547 45.923C34.7482 45.9976 34.8127 46.0987 34.8455 46.2213C34.8784 46.3451 34.886 46.4779 34.8645 46.622L34.8455 46.7193L33.3351 46.7168C33.3389 46.7004 33.3427 46.6839 33.3465 46.6675C33.3869 46.5133 33.4476 46.3692 33.526 46.2364Z" fill="white"/>
<path d="M39.0554 45.0053L38.1568 46.2832L37.6878 45.0053V45.004H36.5629L37.3832 47.0213L35.7969 49.2321H37.0229L37.9697 47.8809L38.4968 49.2321H39.6141L38.7584 47.1224L40.2776 45.0053H39.0554Z" fill="white"/>
<path d="M42.2923 43.9625H41.1939L41.0182 45.0053H40.4216L40.28 45.8016H40.8842L40.5025 48.0717C40.4798 48.3132 40.5025 48.5268 40.5707 48.7101C40.6403 48.8933 40.754 49.0374 40.9145 49.141C41.0751 49.246 41.2798 49.3003 41.5301 49.3054C41.6401 49.3054 41.7475 49.2978 41.8524 49.2839C41.9586 49.27 42.0623 49.2473 42.1671 49.2156L42.2455 48.3764C42.1886 48.3852 42.133 48.3915 42.0774 48.3978C42.0218 48.4041 41.9687 48.4067 41.9131 48.4041C41.8133 48.3991 41.7412 48.3801 41.6944 48.346C41.6476 48.3119 41.6186 48.2639 41.6072 48.1994C41.5958 48.1349 41.5958 48.0578 41.6059 47.9669L41.9776 45.8029H42.6765L42.8181 45.0066H42.1153L42.2948 43.9638L42.2923 43.9625Z" fill="white"/>
<path d="M46.3501 45.5666C46.2225 45.3744 46.0543 45.2202 45.8458 45.1064C45.6372 44.9927 45.3857 44.9321 45.0912 44.9269C44.7752 44.9181 44.4895 44.9725 44.2329 45.0887C43.9763 45.2051 43.7551 45.3643 43.5668 45.5691C43.3797 45.7738 43.2294 46.009 43.1181 46.2744C43.0056 46.5411 42.9348 46.8204 42.9032 47.1149L42.8881 47.2755C42.8678 47.5561 42.8931 47.8202 42.9665 48.0654C43.0398 48.3094 43.1535 48.5255 43.309 48.7101C43.4632 48.8959 43.6566 49.04 43.8892 49.1462C44.1217 49.251 44.3821 49.3067 44.6703 49.3117H44.6715C44.8763 49.3142 45.0836 49.289 45.2921 49.2359C45.5007 49.1828 45.6953 49.0994 45.8761 48.9856C46.0569 48.8719 46.206 48.7265 46.3236 48.5495L45.8306 47.9555C45.6891 48.1021 45.5323 48.2184 45.3554 48.3056C45.1797 48.3928 44.9875 48.4332 44.779 48.4282C44.616 48.4231 44.4782 48.3865 44.3707 48.3195C44.2633 48.2525 44.1773 48.1641 44.1167 48.054C44.056 47.9441 44.0143 47.8215 43.994 47.685C43.9827 47.6129 43.9776 47.5409 43.9763 47.4676H46.5763L46.6383 46.9986C46.6661 46.7294 46.6573 46.4728 46.6105 46.2263C46.5638 45.9799 46.4765 45.7612 46.3489 45.5678L46.3501 45.5666ZM45.6069 46.6233L45.5879 46.7206L44.0775 46.7181C44.0813 46.7016 44.0851 46.6852 44.0888 46.6687C44.1293 46.5146 44.1899 46.3704 44.2683 46.2377C44.3454 46.105 44.4465 45.9988 44.5692 45.9167C44.6918 45.8358 44.8422 45.7978 45.0217 45.8029C45.1784 45.8079 45.3035 45.8484 45.3971 45.9243C45.4906 45.9988 45.5551 46.0999 45.5879 46.2226C45.6208 46.3464 45.6284 46.4792 45.6069 46.6233Z" fill="white"/>
<path d="M49.907 44.97C49.8413 44.9548 49.7781 44.9422 49.7174 44.9308C49.6567 44.9194 49.5935 44.9156 49.5278 44.9156C49.2775 44.9131 49.0651 44.9725 48.8933 45.0938C48.7808 45.1735 48.6822 45.2696 48.5949 45.3795L48.6355 45.0066H47.604L46.8696 49.2334H47.9668L48.4407 46.4969C48.5002 46.3882 48.5722 46.2946 48.6582 46.2188C48.7479 46.1392 48.8541 46.0785 48.9767 46.0368C49.0993 45.9951 49.2358 45.9761 49.3875 45.9787C49.4532 45.9811 49.5176 45.9863 49.5809 45.9938C49.6441 46.0027 49.7073 46.0115 49.7705 46.0216L49.907 44.9712V44.97Z" fill="white"/>
<path d="M49.76 49.2321H50.8571L51.5915 45.0054H50.4943L49.76 49.2321Z" fill="white"/>
<path d="M51.2278 43.3343C51.0559 43.3368 50.9094 43.3925 50.788 43.4986C50.6666 43.6061 50.6098 43.7476 50.6148 43.9246C50.6174 44.0965 50.6793 44.2317 50.8006 44.3316C50.9219 44.4302 51.0648 44.4782 51.2291 44.4757C51.3984 44.4719 51.5438 44.4176 51.6664 44.3114C51.7891 44.2052 51.8472 44.0624 51.8421 43.8854C51.8421 43.7173 51.7815 43.582 51.6589 43.4809C51.5362 43.3798 51.3934 43.3318 51.2291 43.3343H51.2278Z" fill="white"/>
<path d="M55.4884 45.583C55.3468 45.3846 55.1648 45.2278 54.9436 45.1103C54.7212 44.994 54.4582 44.9321 54.1537 44.927C53.8326 44.9194 53.5444 44.9725 53.2878 45.0863C53.0312 45.2001 52.8088 45.3567 52.6204 45.559C52.4321 45.7612 52.2804 45.9938 52.1666 46.258C52.0529 46.5221 51.9809 46.8053 51.9493 47.1049L51.9379 47.187V47.1844C51.9139 47.4663 51.9303 47.733 51.9884 47.9859C52.0466 48.2386 52.1439 48.4636 52.2855 48.6595C52.4258 48.8567 52.6078 49.0122 52.8316 49.1285C53.0552 49.2447 53.3169 49.3054 53.6165 49.3105C53.9325 49.3194 54.2181 49.2663 54.4759 49.155C54.7338 49.0425 54.9563 48.8883 55.1459 48.6886C55.3355 48.4889 55.4872 48.2576 55.6034 47.9972C55.7198 47.7356 55.7943 47.4563 55.8284 47.1591L55.836 47.0732C55.8626 46.7901 55.8461 46.5196 55.788 46.2643C55.7298 46.009 55.6287 45.7815 55.4872 45.5843L55.4884 45.583ZM54.7351 47.072L54.7275 47.1541C54.7123 47.3008 54.6807 47.4487 54.634 47.6016C54.5872 47.7545 54.524 47.8948 54.4431 48.0237C54.3622 48.1527 54.2598 48.2563 54.1347 48.3321C54.0109 48.4092 53.8604 48.4447 53.686 48.4396C53.523 48.4345 53.3927 48.3903 53.2992 48.3081C53.2057 48.226 53.1387 48.1211 53.0982 47.9934C53.0578 47.8658 53.0351 47.7305 53.0299 47.5889C53.0249 47.4474 53.0287 47.3134 53.0413 47.1883L53.0489 47.1023C53.0653 46.9557 53.0945 46.8066 53.1412 46.6524C53.1867 46.4981 53.2499 46.3565 53.3308 46.2264C53.4117 46.0962 53.5141 45.9913 53.6392 45.9116C53.7643 45.832 53.9135 45.7954 54.0879 45.8004C54.251 45.8068 54.3811 45.851 54.4747 45.9357C54.5682 46.0204 54.6352 46.1278 54.677 46.2567C54.7187 46.3856 54.7427 46.5234 54.7452 46.6675C54.749 46.8116 54.7452 46.9468 54.7351 47.072Z" fill="white"/>
<path d="M59.1578 44.97C59.092 44.9548 59.0289 44.9422 58.9682 44.9308C58.9075 44.9194 58.8443 44.9156 58.7786 44.9156C58.5283 44.9131 58.3159 44.9725 58.1428 45.0938C58.0303 45.1735 57.9317 45.2696 57.8445 45.3795L57.885 45.0066H56.8535L56.1191 49.2334H57.2163L57.6903 46.4969C57.7497 46.3882 57.8217 46.2946 57.9077 46.2188C57.9974 46.1392 58.1036 46.0785 58.2263 46.0368C58.3488 45.9951 58.4853 45.9761 58.637 45.9787C58.7015 45.9811 58.7672 45.9863 58.8304 45.9938C58.8936 46.0014 58.9568 46.0115 59.02 46.0216L59.1565 44.9712L59.1578 44.97Z" fill="white"/>
<path d="M34.4492 39.0269C34.4062 39.2 34.3771 39.3239 34.3619 39.3744C34.0863 40.6409 34.1521 41.1402 35.1367 41.0239C36.201 40.8937 36.3312 40.3439 36.6775 39.0269C36.699 38.932 36.7281 38.8233 36.7648 38.6932C40.3469 38.2078 43.8645 37.9044 48.7055 37.5063C48.9015 37.4899 49.0721 37.4722 49.2199 37.4506C49.2844 37.4443 49.3476 37.4393 49.4146 37.4329C50.8442 37.3003 50.8303 37.05 50.9617 36.1627C51.1134 35.1527 49.991 35.154 49.6535 35.1641H49.4929C47.3202 35.221 45.7896 35.2324 43.4398 35.4877C41.4338 35.6558 39.4014 35.8782 37.4523 36.1235C37.8795 34.5966 38.2992 33.0987 38.2992 33.0987C38.2992 33.0987 38.7327 34.0328 39.9562 33.938C41.693 33.8002 43.8064 32.1142 44.834 29.0161C45.9197 25.7234 45.8249 21.9896 43.6041 21.6699C41.8092 21.4158 40.9548 23.0021 40.8322 23.3194C40.8322 23.3194 41.2165 21.8784 40.0713 22.1325C38.9792 22.3714 38.7833 22.8555 38.5078 23.7315C38.4572 23.8831 37.5383 27.3072 36.5764 30.9108C36.5625 30.9323 36.5473 30.9614 36.541 30.9904C36.3021 31.8082 35.8319 32.0762 35.4919 32.0977C34.3922 32.1697 36.7584 24.912 36.9391 24.3533C37.178 23.6303 37.3158 23.0792 36.5119 22.7758C35.9697 22.5736 35.2302 22.6457 35.0142 23.2246C34.9194 23.4711 34.8548 23.6442 34.8548 23.6442C34.8548 23.6442 34.2393 22.7253 32.8717 22.8479C31.504 22.9705 29.775 24.6352 28.6374 27.5588C27.4947 30.476 27.0018 34.6661 29.7079 35.0845C31.0832 35.2943 32.2409 34.5132 32.8414 33.2176C32.8414 33.2176 32.7327 34.0859 33.6453 34.5132C34.0004 34.6788 34.8827 34.6143 35.722 34.1441C35.5045 34.9695 35.2948 35.743 35.114 36.4382C29.2668 37.2484 24.6559 38.1534 24.6559 38.1534C24.6559 38.1534 27.8625 27.3047 28.5856 24.9246C29.1935 22.9276 28.0496 23.3611 27.2104 23.6076C26.3129 23.868 25.8857 24.6213 25.4369 25.9965C23.4753 31.9965 21.9269 33.8635 20.8057 33.4577C19.7781 33.0887 23.0127 26.7208 22.2391 25.8815C21.5667 25.1509 20.1839 25.1938 19.9159 25.6211C19.6556 26.0483 20.0461 26.4465 19.8729 27.0545C19.7074 27.6624 18.4105 30.955 18.274 31.6932C18.1363 32.4314 17.0151 36.5204 19.9893 36.3396C21.7474 36.2385 22.9494 34.9063 23.0796 34.5372C22.5298 36.1222 21.7474 38.6919 21.7474 38.6919C21.7474 38.6919 18.1501 39.5893 15.2847 42.5925C13.0045 44.9739 11.398 50.1043 14.7993 50.9221C20.0815 52.1962 22.5867 44.1257 23.8671 41.0871C28.152 40.1315 31.4219 39.5021 34.4479 39.0243L34.4492 39.0269ZM39.7249 28.2362V28.2286C40.448 25.8625 41.1141 24.9208 41.7372 24.6529C43.2274 24.0158 43.5105 25.8827 42.3591 28.7267C41.0269 32.0118 39.4709 31.9397 38.8781 31.2887C38.8781 31.2887 38.9577 30.725 39.7249 28.235V28.2362ZM33.0663 29.6544C32.4293 31.1952 31.8289 32.281 31.0035 32.2885C29.8242 32.2961 29.8521 30.5228 30.6926 28.2868C31.4016 26.4123 32.6897 25.2255 33.3848 25.0953C34.0801 24.9651 34.8902 25.2545 33.0663 29.6544ZM17.4474 47.608C14.6388 50.1195 15.3479 46.6827 16.3907 45.1988C18.3739 42.384 20.8273 41.6673 20.8273 41.6673C19.5822 45.3075 18.0263 47.0948 17.4474 47.608Z" fill="white"/>
<path d="M48.409 33.1935C50.1318 33.1214 51.622 31.8765 52.1656 30.9499C52.4259 30.5013 52.5347 29.7997 52.4841 29.4875C52.3539 28.6116 51.818 28.4814 50.9066 29.6316C50.6816 29.8844 48.888 31.4846 48.0046 30.5366C47.3675 29.849 47.9034 28.5029 47.9325 28.5029C49.0827 28.4157 51.0949 27.9531 52.6939 26.1077H52.6876C53.7518 24.8778 54.236 22.2588 52.4563 21.2957C50.2999 20.1303 47.4914 21.9113 46.3272 25.7461C45.292 29.1538 44.9091 33.3528 48.4115 33.1923L48.409 33.1935ZM50.109 23.1196V23.1272C51.0785 22.2222 51.9974 23.3079 50.8839 24.8576C49.7551 26.4287 48.4305 26.3844 48.4242 26.435C48.5619 25.8195 49.0536 24.1118 50.1103 23.1196H50.109Z" fill="white"/>
</g>
<defs>
<filter id="filter0_f_721_25439" x="-83.0642" y="-26.401" width="669.277" height="576.505" filterUnits="userSpaceOnUse" color-interpolation-filters="sRGB">
<feFlood flood-opacity="0" result="BackgroundImageFix"/>
<feBlend mode="normal" in="SourceGraphic" in2="BackgroundImageFix" result="shape"/>
<feGaussianBlur stdDeviation="77.9863" result="effect1_foregroundBlur_721_25439"/>
</filter>
<filter id="filter1_d_721_25439" x="62.8326" y="72.6058" width="394.335" height="48.6972" filterUnits="userSpaceOnUse" color-interpolation-filters="sRGB">
<feFlood flood-opacity="0" result="BackgroundImageFix"/>
<feColorMatrix in="SourceAlpha" type="matrix" values="0 0 0 0 0 0 0 0 0 0 0 0 0 0 0 0 0 0 127 0" result="hardAlpha"/>
<feOffset dy="5.22792"/>
<feGaussianBlur stdDeviation="2.61396"/>
<feComposite in2="hardAlpha" operator="out"/>
<feColorMatrix type="matrix" values="0 0 0 0 0 0 0 0 0 0 0 0 0 0 0 0 0 0 0.4 0"/>
<feBlend mode="normal" in2="BackgroundImageFix" result="effect1_dropShadow_721_25439"/>
<feBlend mode="normal" in="SourceGraphic" in2="effect1_dropShadow_721_25439" result="shape"/>
</filter>
<filter id="filter2_d_721_25439" x="-3.59613" y="110.847" width="527.192" height="50.4918" filterUnits="userSpaceOnUse" color-interpolation-filters="sRGB">
<feFlood flood-opacity="0" result="BackgroundImageFix"/>
<feColorMatrix in="SourceAlpha" type="matrix" values="0 0 0 0 0 0 0 0 0 0 0 0 0 0 0 0 0 0 127 0" result="hardAlpha"/>
<feOffset dy="3.59613"/>
<feGaussianBlur stdDeviation="1.79807"/>
<feComposite in2="hardAlpha" operator="out"/>
<feColorMatrix type="matrix" values="0 0 0 0 0 0 0 0 0 0 0 0 0 0 0 0 0 0 0.4 0"/>
<feBlend mode="normal" in2="BackgroundImageFix" result="effect1_dropShadow_721_25439"/>
<feBlend mode="normal" in="SourceGraphic" in2="effect1_dropShadow_721_25439" result="shape"/>
</filter>
<radialGradient id="paint0_radial_721_25439" cx="0" cy="0" r="1" gradientUnits="userSpaceOnUse" gradientTransform="translate(504.833 -327.526) rotate(82.1784) scale(640.372 577.736)">
<stop stop-color="#44DFD7"/>
<stop offset="1" stop-color="#6A029D"/>
</radialGradient>
<clipPath id="clip0_721_25439">
<rect width="520" height="392" rx="12" fill="white"/>
</clipPath>
<clipPath id="clip1_721_25439">
<rect width="213.863" height="572.477" fill="white" transform="translate(139.896 163)"/>
</clipPath>
</defs>
</svg>
