<svg width="520" height="392" viewBox="0 0 520 392" fill="none" xmlns="http://www.w3.org/2000/svg">
<g clip-path="url(#clip0_721_25698)">
<rect width="520" height="392" rx="12" fill="white"/>
<rect width="520" height="578.933" transform="translate(0 -69)" fill="url(#paint0_radial_721_25698)"/>
<g opacity="0.5">
<path fill-rule="evenodd" clip-rule="evenodd" d="M80.8882 60.9998H50.6947V59.0739H82.8141V84.5924H28.4067V82.6665H80.8882V60.9998Z" fill="#3F0D4A"/>
<path fill-rule="evenodd" clip-rule="evenodd" d="M305.741 155.37H275.547V153.444H307.667V178.963H253.259V177.037H305.741V155.37Z" fill="#3F0D4A"/>
<path fill-rule="evenodd" clip-rule="evenodd" d="M467.518 -9.77744H437.325V-11.7034H469.444V13.8151H415.037V11.8892H467.518V-9.77744Z" fill="#3F0D4A"/>
<path fill-rule="evenodd" clip-rule="evenodd" d="M103.037 84.5927H72.8439V82.6668H104.963V108.185H50.5559V106.259H103.037V84.5927Z" fill="#3F0D4A"/>
<path fill-rule="evenodd" clip-rule="evenodd" d="M327.888 131.778H297.695V129.852H329.814V155.37H275.407V153.445H327.888V131.778Z" fill="#3F0D4A"/>
<path fill-rule="evenodd" clip-rule="evenodd" d="M327.888 178.963H297.695V177.037H329.814V202.556H275.407V200.63H327.888V178.963Z" fill="#3F0D4A"/>
<path fill-rule="evenodd" clip-rule="evenodd" d="M104.962 106.259L135.156 106.259L135.156 108.185L103.036 108.185L103.036 82.6667L157.444 82.6667L157.444 84.5927L104.962 84.5927L104.962 106.259Z" fill="#3F0D4A"/>
<path fill-rule="evenodd" clip-rule="evenodd" d="M329.815 153.444L360.008 153.444L360.008 155.37L327.889 155.37L327.889 129.852L382.296 129.852L382.296 131.778L329.815 131.778L329.815 153.444Z" fill="#3F0D4A"/>
<path fill-rule="evenodd" clip-rule="evenodd" d="M329.815 200.629L360.008 200.629L360.008 202.555L327.889 202.555L327.889 177.037L382.296 177.037L382.296 178.963L329.815 178.963L329.815 200.629Z" fill="#3F0D4A"/>
<path fill-rule="evenodd" clip-rule="evenodd" d="M131.444 59.0739H80.888V84.5924H131.444V59.0739ZM129.518 60.9998V82.6665H82.814V60.9998H129.518Z" fill="#3F0D4A"/>
<path fill-rule="evenodd" clip-rule="evenodd" d="M356.296 153.444H305.741V178.963H356.296V153.444ZM354.37 155.37V177.037H307.667V155.37H354.37Z" fill="#3F0D4A"/>
</g>
<rect x="-40.5" y="308" width="600" height="115.354" fill="#3F0D4A"/>
<g style="mix-blend-mode:screen" opacity="0.9" filter="url(#filter0_f_721_25698)">
<ellipse cx="251.575" cy="261.851" rx="185.49" ry="122.442" transform="rotate(21.0304 251.575 261.851)" fill="#9E26C8"/>
</g>
<g clip-path="url(#clip1_721_25698)">
<path d="M323.419 279.378L188.129 276.072C177.141 275.803 168.016 284.493 167.747 295.481C167.479 306.469 176.168 315.594 187.156 315.863L322.446 319.169C333.434 319.438 342.56 310.748 342.828 299.76C343.097 288.772 334.407 279.647 323.419 279.378Z" fill="#918AA0"/>
<path d="M272.974 270.768L273.889 233.441L239.826 232.605L238.911 269.932C236.363 270.02 233.848 270.123 231.396 270.267C234.612 280.735 244.196 288.257 255.5 288.536C266.805 288.815 276.739 281.77 280.465 271.469C278.021 271.206 275.513 270.975 272.974 270.768Z" fill="#DCAC82"/>
<path d="M273.443 251.623L273.149 263.58C267.258 263.938 257.777 263.699 250.198 259.679C244.164 256.479 242.381 252.499 241.816 250.851L273.443 251.623Z" fill="#9F7554"/>
<path d="M260.193 178.35L256.214 178.253C243.028 177.93 232.078 188.358 231.755 201.544L230.977 233.377C230.655 246.562 241.083 257.513 254.269 257.835L258.248 257.932C271.433 258.254 282.384 247.827 282.706 234.641L283.484 202.808C283.806 189.622 273.378 178.672 260.193 178.35Z" fill="#DCAC82"/>
<path d="M246.864 220.939C246.898 219.532 246.067 218.371 245.008 218.345C243.949 218.32 243.062 219.439 243.028 220.845C242.994 222.252 243.825 223.413 244.884 223.439C245.943 223.465 246.83 222.345 246.864 220.939Z" fill="#2C2044"/>
<path d="M271.263 221.534C271.297 220.127 270.466 218.966 269.407 218.94C268.348 218.914 267.461 220.034 267.427 221.44C267.392 222.847 268.223 224.008 269.282 224.034C270.342 224.06 271.228 222.94 271.263 221.534Z" fill="#2C2044"/>
<path d="M226.667 214.564L231.442 214.681L231.014 232.189L226.239 232.072C222.721 231.986 219.942 229.068 220.028 225.55L220.145 220.775C220.231 217.258 223.149 214.478 226.667 214.564Z" fill="#DCAC82"/>
<path d="M287.499 233.588L282.724 233.471L283.152 215.963L287.927 216.079C291.444 216.165 294.224 219.084 294.138 222.602L294.021 227.377C293.935 230.894 291.016 233.674 287.499 233.588Z" fill="#DCAC82"/>
<path d="M225.21 226.133C225.083 226.133 224.955 226.061 224.876 225.942C224.764 225.751 224.82 225.512 225.011 225.392L228.323 223.37L225.115 221.189C224.932 221.062 224.884 220.815 225.011 220.64C225.139 220.457 225.385 220.409 225.56 220.536L229.278 223.068C229.389 223.147 229.453 223.275 229.453 223.41C229.453 223.546 229.382 223.673 229.262 223.737L225.425 226.077C225.353 226.117 225.282 226.141 225.21 226.133Z" fill="#9F7554"/>
<path d="M243.182 214.097C241.678 214.057 240.412 213.667 239.528 213.285C239.329 213.197 239.234 212.966 239.321 212.759C239.409 212.552 239.648 212.465 239.847 212.552C240.969 213.038 242.752 213.548 244.878 213.173C246.056 212.966 247.171 212.529 248.19 211.852C248.373 211.733 248.619 211.78 248.739 211.963C248.858 212.146 248.81 212.393 248.627 212.513C247.521 213.245 246.303 213.731 245.013 213.954C244.368 214.065 243.755 214.105 243.174 214.089L243.182 214.097Z" fill="#2C2044"/>
<path d="M271.454 214.79C270.873 214.774 270.268 214.71 269.623 214.567C268.349 214.28 267.155 213.739 266.08 212.951C265.905 212.823 265.865 212.569 265.993 212.393C266.12 212.218 266.375 212.178 266.55 212.306C267.529 213.022 268.62 213.524 269.79 213.787C271.892 214.256 273.699 213.842 274.845 213.412C275.052 213.333 275.283 213.436 275.355 213.643C275.434 213.85 275.331 214.081 275.124 214.153C274.224 214.495 272.942 214.821 271.438 214.79H271.454Z" fill="#2C2044"/>
<path d="M288.812 227.686C288.74 227.686 288.661 227.662 288.597 227.614L284.879 225.082C284.768 225.003 284.704 224.875 284.704 224.74C284.704 224.605 284.776 224.477 284.895 224.414L288.732 222.073C288.923 221.962 289.162 222.018 289.281 222.209C289.393 222.4 289.337 222.639 289.146 222.758L285.835 224.78L289.043 226.961C289.226 227.089 289.273 227.335 289.146 227.51C289.067 227.63 288.939 227.686 288.804 227.686H288.812Z" fill="#9F7554"/>
<path d="M242.196 226.849C242.216 225.997 240.99 225.275 239.456 225.238C237.922 225.2 236.662 225.861 236.641 226.714C236.62 227.566 237.847 228.288 239.38 228.325C240.914 228.363 242.175 227.702 242.196 226.849Z" fill="#BE906A"/>
<path d="M277.351 227.709C277.372 226.856 276.145 226.135 274.611 226.097C273.078 226.06 271.817 226.72 271.796 227.573C271.775 228.426 273.002 229.147 274.536 229.185C276.07 229.222 277.33 228.562 277.351 227.709Z" fill="#BE906A"/>
<path d="M256.45 245.288C259.172 245.275 261.364 242.523 261.347 239.142C261.33 235.761 259.109 233.031 256.388 233.045C253.666 233.059 251.473 235.811 251.491 239.192C251.508 242.573 253.728 245.302 256.45 245.288Z" fill="#6B222F"/>
<path d="M260.961 241.55C260.232 243.735 258.49 245.277 256.453 245.287C254.416 245.298 252.659 243.784 251.897 241.607C252.102 241.359 253.738 239.395 256.506 239.423C259.171 239.45 260.744 241.284 260.961 241.55Z" fill="#DE4A65"/>
<path d="M293.576 194.816C289.803 190.032 286.858 187.389 281.723 182.915C284.382 182.143 286.675 180.487 288.163 177.271C275.641 174.541 267.585 173.259 255.469 174.023C256.544 171.404 256.95 169.366 256.52 166.636C250.486 174.143 230.043 175.058 228.705 196.862C228.674 197.3 228.65 197.738 228.634 198.184L228.228 214.606L232.327 214.71C232.431 211.979 232.893 207.991 234.588 203.501C236.483 198.478 239.15 194.896 241.036 192.731C243.234 194.928 246.529 197.73 251.051 200.102C254.466 201.893 257.634 202.944 260.174 203.589C259.083 201.041 257.985 198.486 256.894 195.939C257.475 196.488 258.486 197.372 259.863 198.295C262.156 199.831 265.316 200.97 269.854 202.148C276.374 203.844 281.261 209.265 282.264 215.928L286.364 216.031L286.77 199.609C286.818 197.706 286.635 195.851 286.253 194.068C288.8 195.541 290.543 195.668 293.576 194.808V194.816Z" fill="#2C2044"/>
<path d="M190.414 445.217C191.577 420.411 192.213 399.324 192.596 383.14C193.4 348.782 193.081 332.916 192.619 323.005C192.508 320.617 192.397 318.746 192.341 317.871C191.282 299.999 189.578 285.758 188.209 276.086C194.506 274.876 201.129 273.761 208.063 272.806C216.215 271.683 224.016 270.879 231.419 270.322C234.643 280.758 244.22 288.257 255.5 288.536C266.78 288.815 276.715 281.793 280.441 271.524C287.804 272.44 295.566 273.626 303.654 275.146C310.532 276.444 317.099 277.877 323.325 279.389C321.486 288.982 319.082 303.128 317.155 320.92C317.06 321.787 316.853 323.658 316.622 326.03C315.666 335.91 314.584 351.735 313.7 386.093C313.286 402.269 312.888 423.365 312.84 448.202L190.414 445.201V445.217Z" fill="#61BDFF"/>
<path d="M333.761 304.497V359.593C329.183 359.8 323.094 359.617 316.12 358.128C309.752 356.767 304.529 354.721 300.613 352.85C301.457 347.835 302.189 342.541 302.754 336.985C303.924 325.458 304.179 314.759 303.885 305.11L333.753 304.497H333.761Z" fill="#1172C9"/>
<path d="M286.266 272.296C281.538 284.675 269.398 293.32 255.387 292.978C241.376 292.636 229.69 283.409 225.567 270.808C227.549 270.625 229.491 270.465 231.418 270.322C234.642 280.758 244.218 288.257 255.499 288.536C266.779 288.815 276.714 281.793 280.439 271.524C282.35 271.763 284.3 272.026 286.266 272.296Z" fill="#1E88E8"/>
<path d="M260.075 362.426L265.175 286.446C265.29 284.739 263.999 283.263 262.293 283.149L228.719 280.895C227.013 280.781 225.536 282.071 225.422 283.778L220.322 359.758C220.207 361.464 221.498 362.94 223.204 363.055L256.778 365.308C258.485 365.423 259.961 364.132 260.075 362.426Z" fill="#2C2044"/>
<path d="M264.631 368.349C275.622 368.349 284.533 359.438 284.533 348.447C284.533 337.456 275.622 328.546 264.631 328.546C253.64 328.546 244.729 337.456 244.729 348.447C244.729 359.438 253.64 368.349 264.631 368.349Z" fill="#DCAC82"/>
<path d="M279.367 335.074C276.294 331.786 273.54 329.462 271.685 327.997C261.718 320.14 256.074 319.049 252.206 309.282C249.785 303.168 240.694 306.241 242.446 312.498C243.25 315.364 247.047 321.446 251.195 328.284C251.059 329.366 250.566 334.405 254.028 339.03C254.442 339.58 258.343 344.611 264.879 344.889C270.913 345.144 276.74 341.244 279.375 335.082L279.367 335.074Z" fill="#DCAC82"/>
<path d="M217.783 334.748C213.858 328.117 218.013 321.032 222.941 320.785C222.758 323.491 224.804 325.832 227.51 326.015L262.434 328.355L259.767 368.071L224.684 365.714C220.449 365.348 219.255 358.574 222.336 356.074C217.751 356.958 215.044 350.366 217.01 346.283C212.576 343.759 214.431 336.212 217.783 334.748Z" fill="#DCAC82"/>
<path d="M229.788 295.872L237.938 296.419C238.758 296.474 239.467 295.854 239.523 295.033L240.07 286.884C240.125 286.064 239.504 285.354 238.684 285.299L230.535 284.752C229.714 284.697 229.005 285.317 228.95 286.138L228.403 294.287C228.348 295.107 228.968 295.817 229.788 295.872Z" fill="#544A69"/>
<path d="M232.023 289.906C233.114 289.906 233.998 289.022 233.998 287.932C233.998 286.841 233.114 285.957 232.023 285.957C230.933 285.957 230.049 286.841 230.049 287.932C230.049 289.022 230.933 289.906 232.023 289.906Z" fill="#2C2044"/>
<path d="M236.601 292.724C237.692 292.724 238.575 291.84 238.575 290.749C238.575 289.659 237.692 288.775 236.601 288.775C235.511 288.775 234.627 289.659 234.627 290.749C234.627 291.84 235.511 292.724 236.601 292.724Z" fill="#2C2044"/>
<path d="M231.69 294.913C232.781 294.913 233.665 294.029 233.665 292.938C233.665 291.848 232.781 290.964 231.69 290.964C230.6 290.964 229.716 291.848 229.716 292.938C229.716 294.029 230.6 294.913 231.69 294.913Z" fill="#2C2044"/>
<path d="M196.336 222.097C199.805 222.097 202.617 219.285 202.617 215.816C202.617 212.347 199.805 209.535 196.336 209.535C192.867 209.535 190.055 212.347 190.055 215.816C190.055 219.285 192.867 222.097 196.336 222.097Z" fill="#CE92D6"/>
<path d="M189.21 200.476C191.057 202.888 190.945 206.311 188.844 208.492C188.836 208.508 188.812 208.524 188.796 208.54C188.78 208.556 188.764 208.572 188.748 208.588C186.639 210.761 183.224 210.992 180.748 209.241L154.74 190.788C151.891 188.766 151.23 184.794 153.323 181.999C154.35 180.63 155.544 179.213 156.914 177.78C158.291 176.355 159.668 175.114 160.998 174.031C163.712 171.834 167.716 172.367 169.834 175.129L189.21 200.46V200.476Z" fill="#CE92D6"/>
<path d="M314.879 225.058C318.347 225.058 321.159 222.246 321.159 218.778C321.159 215.309 318.347 212.497 314.879 212.497C311.41 212.497 308.598 215.309 308.598 218.778C308.598 222.246 311.41 225.058 314.879 225.058Z" fill="#CE92D6"/>
<path d="M328.601 208.883C326.579 211.152 323.196 211.685 320.656 210.037C320.64 210.029 320.617 210.013 320.601 210.005C320.585 209.997 320.561 209.981 320.545 209.973C318.013 208.31 317.146 204.998 318.396 202.236L331.618 173.211C333.067 170.035 336.848 168.626 339.985 170.162C341.521 170.911 343.137 171.818 344.801 172.893C346.465 173.976 347.937 175.098 349.251 176.197C351.926 178.449 352.157 182.478 349.832 185.081L328.609 208.883H328.601Z" fill="#CE92D6"/>
<path d="M211.151 206.319C213.644 206.319 215.665 204.298 215.665 201.805C215.665 199.312 213.644 197.291 211.151 197.291C208.658 197.291 206.637 199.312 206.637 201.805C206.637 204.298 208.658 206.319 211.151 206.319Z" fill="#CE92D6"/>
<path d="M212.376 189.714C212.631 191.871 211.309 193.957 209.216 194.538C209.2 194.538 209.192 194.538 209.168 194.546C209.144 194.554 209.144 194.546 209.12 194.554C207.018 195.127 204.821 194.005 203.938 192.022L194.64 171.086C193.621 168.793 194.672 166.087 196.988 165.139C198.126 164.67 199.376 164.232 200.753 163.858C202.131 163.484 203.436 163.221 204.646 163.046C207.13 162.688 209.407 164.471 209.701 166.97L212.384 189.722L212.376 189.714Z" fill="#CE92D6"/>
<path d="M338.793 391.109C332.902 395.981 326.398 397.501 320.508 397.501C313.001 397.501 306.481 395.041 303.44 393.895C294.628 390.576 272.473 380.107 251.648 364.29C242.9 357.635 241.196 345.152 247.851 336.404C254.498 327.647 266.988 325.951 275.737 332.599C288.633 342.406 302.127 349.642 310.517 353.615C310.414 352.086 310.278 350.454 310.111 348.751C309.426 341.642 308.264 333.243 307.062 325.378C305.637 316.12 304.157 307.578 303.313 302.698C301.434 291.864 308.686 281.563 319.52 279.684C330.347 277.814 340.648 285.066 342.527 295.892C344.182 305.421 345.623 314.05 346.809 321.868C347.828 328.57 348.656 334.684 349.261 340.265C352.199 367.299 349.922 381.899 338.793 391.109Z" fill="#DCAC82"/>
<path d="M349.265 340.607C341.901 346.736 327.731 350.295 310.114 349.093C309.43 341.984 308.267 333.585 307.065 325.72L346.813 322.21C347.832 328.912 348.66 335.026 349.265 340.607Z" fill="#9F7554"/>
<path d="M307.378 341.904C313.396 342.43 322.288 342.509 332.605 340.017C341.728 337.82 348.861 334.357 353.757 331.5C352.196 323.762 349.975 315.26 346.783 306.257C345.366 302.26 343.87 298.471 342.341 294.913C329.397 297.818 316.445 300.724 303.501 303.622C304.799 316.382 306.089 329.143 307.386 341.904H307.378Z" fill="#61BDFF"/>
<path d="M322.911 319.161C333.903 319.161 342.813 310.251 342.813 299.259C342.813 288.268 333.903 279.358 322.911 279.358C311.92 279.358 303.01 288.268 303.01 299.259C303.01 310.251 311.92 319.161 322.911 319.161Z" fill="#61BDFF"/>
<path d="M161.741 477.219C151.535 477.219 142.85 469.417 141.935 459.061C136.832 400.924 139.674 351.967 169.582 287.589C174.215 277.622 186.052 273.3 196.019 277.925C205.986 282.558 210.316 294.395 205.683 304.362C179.389 360.946 176.937 402.652 181.586 455.566C182.55 466.512 174.454 476.168 163.5 477.131C162.911 477.187 162.322 477.211 161.733 477.211L161.741 477.219Z" fill="#DCAC82"/>
<path d="M193.772 340.941C187.777 340.177 179.076 338.37 169.516 333.753C161.069 329.669 154.828 324.773 150.649 320.944C153.817 313.708 157.79 305.875 162.821 297.755C165.05 294.149 167.318 290.766 169.571 287.605C181.608 293.186 193.644 298.774 205.681 304.354C201.708 316.55 197.736 328.746 193.772 340.941Z" fill="#61BDFF"/>
<path d="M187.636 315.88C198.627 315.88 207.537 306.97 207.537 295.979C207.537 284.988 198.627 276.077 187.636 276.077C176.644 276.077 167.734 284.988 167.734 295.979C167.734 306.97 176.644 315.88 187.636 315.88Z" fill="#61BDFF"/>
</g>
<g filter="url(#filter1_d_721_25698)">
<path d="M96.6238 91.607L95.4874 109.333H87.4874L89.7038 91.607H96.6238ZM93.7394 84.1977C95.1794 84.1977 96.1685 84.4633 96.7067 84.9944C97.2474 85.499 97.4681 86.2957 97.3688 87.3845C97.2695 88.4733 96.9023 89.2833 96.2672 89.8144C95.6612 90.319 94.6249 90.5713 93.1582 90.5713C91.6915 90.5713 90.7012 90.319 90.1872 89.8144C89.6756 89.2833 89.4695 88.4733 89.5688 87.3845C89.6681 86.2957 90.0207 85.499 90.6267 84.9944C91.2618 84.4633 92.2994 84.1977 93.7394 84.1977ZM121.788 103.876H113.388L112.937 100.052H108.497L107.308 103.876H99.2681L106.684 79.1387H118.884L121.788 103.876ZM112.805 94.9132L112.041 86.6276H111.881L109.565 94.9132H112.805ZM138.327 103.876H123.407L125.663 79.1387H134.223L132.552 97.4627H139.472L138.327 103.876ZM151.446 97.7813C151.926 97.7813 152.574 97.7017 153.388 97.5423L153.606 95.1522H151.606L152.107 89.6551H161.547L160.251 103.876H154.211L153.727 102.601H153.567C152.079 103.717 150.388 104.274 148.494 104.274C142.254 104.274 139.517 100.078 140.282 91.6866C140.665 87.4907 141.797 84.2906 143.677 82.0865C145.588 79.8557 148.556 78.7403 152.583 78.7403C155.569 78.7403 158.358 79.152 160.95 79.9752L158.947 87.4641C156.036 86.6409 153.926 86.2293 152.62 86.2293C151.34 86.2293 150.448 86.6542 149.944 87.504C149.466 88.3538 149.134 89.8011 148.948 91.846C148.761 93.8908 148.811 95.3913 149.097 96.3473C149.41 97.3033 150.193 97.7813 151.446 97.7813ZM163.943 91.3679C164.347 86.933 165.52 83.7197 167.462 81.7279C169.43 79.7362 172.441 78.7403 176.494 78.7403C180.574 78.7403 183.392 79.7229 184.946 81.6881C186.526 83.6533 187.115 86.8533 186.71 91.2883C186.308 95.6967 185.104 98.9631 183.097 101.088C181.116 103.212 178.113 104.274 174.086 104.274C170.086 104.274 167.289 103.225 165.693 101.127C164.124 99.0295 163.541 95.7763 163.943 91.3679ZM178.015 86.6276C177.732 85.9371 177.016 85.5919 175.87 85.5919C174.723 85.5919 173.959 85.9239 173.579 86.5878C173.198 87.2517 172.909 88.6725 172.71 90.8501L172.55 92.6028C172.347 94.8336 172.388 96.2809 172.675 96.9448C172.961 97.6087 173.69 97.9407 174.864 97.9407C176.037 97.9407 176.799 97.622 177.151 96.9846C177.502 96.3473 177.779 94.9265 177.98 92.7223L178.147 90.8899C178.345 88.7123 178.301 87.2915 178.015 86.6276ZM213.091 85.7114H205.811L205.502 89.0974H211.022L210.499 94.8336H204.979L204.155 103.876H195.595L197.85 79.1387H214.25L213.091 85.7114ZM234.132 103.876H225.732L225.281 100.052H220.841L219.652 103.876H211.612L219.028 79.1387H231.228L234.132 103.876ZM225.149 94.9132L224.385 86.6276H224.225L221.909 94.9132H225.149ZM250.671 103.876H235.751L238.007 79.1387H246.567L244.896 97.4627H251.816L250.671 103.876ZM271.276 85.8708H265.996L264.354 103.876H255.834L257.476 85.8708H251.916L252.89 79.1387H272.37L271.276 85.8708ZM271.638 91.3679C272.043 86.933 273.216 83.7197 275.157 81.7279C277.126 79.7362 280.136 78.7403 284.19 78.7403C288.27 78.7403 291.087 79.7229 292.641 81.6881C294.222 83.6533 294.81 86.8533 294.406 91.2883C294.004 95.6967 292.799 98.9631 290.792 101.088C288.812 103.212 285.808 104.274 281.782 104.274C277.782 104.274 274.984 103.225 273.388 101.127C271.82 99.0295 271.236 95.7763 271.638 91.3679ZM285.711 86.6276C285.427 85.9371 284.712 85.5919 283.565 85.5919C282.418 85.5919 281.655 85.9239 281.274 86.5878C280.894 87.2517 280.604 88.6725 280.406 90.8501L280.246 92.6028C280.042 94.8336 280.084 96.2809 280.37 96.9448C280.656 97.6087 281.386 97.9407 282.559 97.9407C283.732 97.9407 284.495 97.622 284.846 96.9846C285.198 96.3473 285.474 94.9265 285.675 92.7223L285.842 90.8899C286.041 88.7123 285.997 87.2915 285.711 86.6276ZM292.109 72.6058L286.379 77.5453H281.099L283.989 72.6058H292.109ZM296.534 101.008C296.631 99.9457 297.036 99.1623 297.749 98.6577C298.464 98.1266 299.528 97.861 300.941 97.861C302.381 97.861 303.38 98.1664 303.938 98.7772C304.498 99.3615 304.714 100.357 304.585 101.765C304.457 103.172 303.907 104.381 302.935 105.39C301.987 106.425 300.697 107.408 299.066 108.338L295.633 107.82L298.731 104.115C297.868 103.929 297.256 103.624 296.895 103.199C296.56 102.774 296.44 102.044 296.534 101.008ZM336.686 87.1056C336.54 88.699 336.158 89.9737 335.537 90.9298C334.946 91.8592 334.071 92.6825 332.912 93.3995L335.677 103.876H326.837L325.134 95.3514H324.494L323.717 103.876H315.517L317.772 79.1387H328.372C331.466 79.1387 333.686 79.7893 335.034 81.0906C336.385 82.3653 336.935 84.3703 336.686 87.1056ZM325.777 90.4916C326.39 90.4916 326.833 90.319 327.104 89.9737C327.405 89.6019 327.596 88.9646 327.679 88.0617C327.761 87.1587 327.684 86.5347 327.449 86.1894C327.214 85.8442 326.817 85.6716 326.257 85.6716H325.217L324.777 90.4916H325.777ZM353.896 103.876H338.056L340.311 79.1387H356.711L355.552 85.7114H348.272L348 88.699H354.36L353.836 94.4352H347.476L347.168 97.8212H355.008L353.896 103.876ZM379.709 79.1387L372.653 103.876H360.373L357.549 79.1387H366.789L367.325 94.3157H367.805L370.909 79.1387H379.709ZM388.142 103.876H379.702L381.958 79.1387H390.398L388.142 103.876ZM391.904 87.0658C392.144 84.4367 393.13 82.3919 394.863 80.9312C396.597 79.4706 398.877 78.7403 401.703 78.7403C404.557 78.7403 407.466 79.0059 410.431 79.537L408.871 86.5479C405.599 85.884 403.442 85.5521 402.402 85.5521C401.362 85.5521 400.813 85.8708 400.755 86.5081C400.733 86.7471 400.797 86.9197 400.948 87.026C401.1 87.1056 401.214 87.172 401.29 87.2251C401.365 87.2782 401.505 87.3446 401.711 87.4243C401.944 87.504 402.124 87.5836 402.25 87.6633C402.405 87.7164 402.867 87.9156 403.635 88.2608C404.433 88.5795 405.022 88.8451 405.402 89.0575C405.812 89.2434 406.356 89.5621 407.035 90.0136C408.992 91.3679 409.85 93.3597 409.61 95.9888C409.371 98.6179 408.398 100.663 406.691 102.123C404.987 103.557 402.655 104.274 399.695 104.274C396.762 104.274 393.914 103.916 391.153 103.199L392.327 96.4668C395.818 97.3697 398.19 97.8212 399.443 97.8212C400.27 97.8212 400.71 97.5291 400.763 96.9448C400.788 96.6792 400.7 96.4668 400.501 96.3075C400.329 96.1481 400.052 95.9755 399.669 95.7896C399.312 95.6037 398.774 95.3647 398.054 95.0726C397.336 94.7539 396.734 94.4883 396.247 94.2759C395.762 94.0369 395.194 93.6784 394.545 93.2003C392.545 91.7397 391.664 89.6949 391.904 87.0658ZM431.827 103.876H423.427L422.976 100.052H418.536L417.347 103.876H409.307L416.723 79.1387H428.923L431.827 103.876ZM422.844 94.9132L422.08 86.6276H421.92L419.604 94.9132H422.844Z" fill="white"/>
</g>
<g filter="url(#filter2_d_721_25698)">
<path d="M119.253 115.986L111.153 132.876L110.437 140.723H101.917L102.636 132.836L97.8129 115.986H106.813L107.745 125.068H107.985L110.493 115.986H119.253ZM149.435 115.986L142.38 140.723H130.1L127.275 115.986H136.515L137.052 131.163H137.532L140.635 115.986H149.435ZM158.788 131.96C158.657 133.394 159.232 134.111 160.512 134.111C161.818 134.111 162.538 133.38 162.671 131.92L164.124 115.986H172.684L171.184 132.438C170.918 135.359 169.799 137.536 167.828 138.97C165.858 140.405 163.152 141.122 159.712 141.122C152.726 141.122 149.494 138.253 150.017 132.517L151.524 115.986H160.244L158.788 131.96ZM189.56 140.723H173.72L175.975 115.986H192.375L191.216 122.559H183.936L183.664 125.546H190.024L189.501 131.282H183.141L182.832 134.668H190.672L189.56 140.723ZM207.077 140.723H192.157L194.413 115.986H202.973L201.302 134.31H208.222L207.077 140.723ZM231.896 115.986L224.841 140.723H212.561L209.736 115.986H218.976L219.512 131.163H219.992L223.096 115.986H231.896ZM247.489 140.723H231.649L233.905 115.986H250.305L249.146 122.559H241.866L241.593 125.546H247.953L247.43 131.282H241.07L240.762 134.668H248.602L247.489 140.723ZM278.624 140.723H270.224L269.773 136.899H265.333L264.144 140.723H256.104L263.52 115.986H275.72L278.624 140.723ZM269.641 131.76L268.877 123.475H268.717L266.401 131.76H269.641ZM303.7 140.723H287.86L290.116 115.986H306.516L305.357 122.559H298.077L297.804 125.546H304.164L303.641 131.282H297.281L296.973 134.668H304.813L303.7 140.723ZM327.378 140.723H319.218L315.068 130.964H314.788L313.898 140.723H306.298L308.554 115.986H316.994L320.795 126.064H321.035L321.954 115.986H329.634L327.378 140.723ZM353.81 115.986L346.755 140.723H334.475L331.65 115.986H340.89L341.427 131.163H341.907L345.01 115.986H353.81ZM362.244 140.723H353.804L356.059 115.986H364.499L362.244 140.723ZM386.593 140.723H378.193L377.742 136.899H373.302L372.113 140.723H364.073L371.489 115.986H383.689L386.593 140.723ZM377.61 131.76L376.846 123.475H376.686L374.37 131.76H377.61ZM409.381 123.953C409.236 125.546 408.853 126.821 408.232 127.777C407.641 128.706 406.766 129.53 405.607 130.247L408.372 140.723H399.532L397.829 132.199H397.189L396.412 140.723H388.212L390.468 115.986H401.068C404.161 115.986 406.382 116.636 407.73 117.938C409.08 119.212 409.631 121.217 409.381 123.953ZM398.472 127.339C399.086 127.339 399.528 127.166 399.8 126.821C400.1 126.449 400.292 125.812 400.374 124.909C400.456 124.006 400.38 123.382 400.145 123.037C399.91 122.691 399.512 122.519 398.952 122.519H397.912L397.472 127.339H398.472ZM413.55 133.712L414.687 115.986H422.687L420.47 133.712H413.55ZM416.435 141.122C414.995 141.122 414.004 140.869 413.464 140.365C412.926 139.834 412.706 139.024 412.805 137.935C412.905 136.846 413.257 136.049 413.863 135.545C414.498 135.014 415.549 134.748 417.016 134.748C418.483 134.748 419.472 135.014 419.983 135.545C420.497 136.049 420.705 136.846 420.605 137.935C420.506 139.024 420.139 139.834 419.504 140.365C418.898 140.869 417.875 141.122 416.435 141.122Z" fill="#F4C12A"/>
</g>
<path d="M26.9062 45.1105C26.6761 44.9942 26.4132 44.9322 26.1187 44.9272C25.9127 44.9208 25.7029 44.9461 25.488 44.9967C25.2731 45.0485 25.0747 45.1294 24.8927 45.2381C24.7094 45.3468 24.5603 45.4871 24.4414 45.6578C24.3226 45.8284 24.2581 46.0306 24.2443 46.2657L25.3465 46.2582C25.3692 46.1495 25.4109 46.0547 25.4716 45.975C25.5322 45.8954 25.6081 45.8335 25.7003 45.7917C25.7926 45.7487 25.8975 45.7286 26.0151 45.7311C26.1453 45.7374 26.2464 45.769 26.3184 45.8271C26.3905 45.8853 26.4372 45.9636 26.4612 46.0635C26.484 46.1634 26.4904 46.2695 26.4764 46.3846L26.4334 46.6601L25.8988 46.6563C25.6649 46.6563 25.4286 46.6791 25.1897 46.7245C24.9521 46.7701 24.7322 46.8459 24.5299 46.9533C24.3277 47.0595 24.1633 47.2049 24.0357 47.3894C23.908 47.5727 23.8385 47.8027 23.8284 48.0783C23.8183 48.3222 23.8689 48.5371 23.9826 48.7204C24.0951 48.9036 24.2493 49.049 24.4427 49.1539C24.6361 49.2589 24.8497 49.3144 25.081 49.3195C25.2478 49.322 25.4046 49.2993 25.55 49.2513C25.6953 49.2032 25.8293 49.135 25.9519 49.044C26.0214 48.9922 26.0858 48.9353 26.1465 48.8733C26.1554 48.9972 26.1769 49.1172 26.2122 49.2348L27.2904 49.231L27.298 49.1615C27.2386 49.0136 27.2146 48.8556 27.2285 48.6913C27.2424 48.5257 27.2601 48.3677 27.2841 48.2161L27.5774 46.4035C27.609 46.0938 27.5622 45.8297 27.4383 45.6122C27.3144 45.3949 27.1375 45.2268 26.9062 45.1105ZM26.0858 48.1807C25.9923 48.2805 25.8811 48.3563 25.7534 48.4094C25.6258 48.4625 25.4956 48.4878 25.3629 48.4853C25.2694 48.4828 25.1897 48.46 25.1227 48.4183C25.057 48.3766 25.0077 48.3197 24.9761 48.2477C24.9445 48.1756 24.9357 48.0947 24.9483 48.0037C24.9647 47.876 25.0026 47.7673 25.0633 47.6789C25.1253 47.5904 25.2024 47.5183 25.2959 47.4615C25.3894 47.4058 25.4918 47.3641 25.6018 47.3364C25.7117 47.3085 25.8242 47.2934 25.9355 47.2908L26.3323 47.2934L26.2262 47.9734C26.1895 48.0479 26.144 48.1174 26.0846 48.1794L26.0858 48.1807Z" fill="white"/>
<path d="M27.9919 49.2335H29.0891L30.1319 43.2322H29.0297L27.9919 49.2335Z" fill="white"/>
<path d="M34.6129 48.3045C34.4373 48.3917 34.2451 48.4322 34.0366 48.4272C33.8735 48.422 33.7357 48.3854 33.6284 48.3184C33.5209 48.2514 33.4349 48.163 33.3742 48.053C33.3136 47.943 33.2718 47.8204 33.2517 47.6839C33.2403 47.6118 33.2353 47.5398 33.234 47.4665H35.834L35.8959 46.9976C35.9237 46.7283 35.9148 46.4717 35.8681 46.2252C35.8213 45.9788 35.7341 45.7602 35.6064 45.5667C35.4788 45.3746 35.3107 45.2204 35.1021 45.1066C34.8936 44.9929 34.642 44.9323 34.3475 44.9271C34.0315 44.9183 33.7459 44.9727 33.4893 45.0889C33.2327 45.2053 33.0115 45.3645 32.8232 45.5693C32.6361 45.774 32.4856 46.0092 32.3744 46.2746C32.262 46.5412 32.1912 46.8206 32.1596 47.1151L32.1444 47.2756C32.1242 47.5563 32.1495 47.8204 32.2228 48.0656C32.2961 48.3095 32.4098 48.5257 32.5653 48.7102C32.7195 48.8961 32.9129 49.0402 33.1455 49.1463C33.3781 49.2512 33.6384 49.3069 33.9266 49.3119H33.9279C34.1327 49.3144 34.3399 49.2892 34.5485 49.2361C34.7571 49.183 34.9517 49.0996 35.1325 48.9858C35.3132 48.8721 35.4623 48.7267 35.5799 48.5497L35.0869 47.9557C34.9454 48.1023 34.7887 48.2186 34.6117 48.3058L34.6129 48.3045ZM33.526 46.2366C33.6031 46.1039 33.7042 45.9978 33.8267 45.9156C33.9494 45.8347 34.101 45.7968 34.2793 45.8019C34.436 45.8069 34.5611 45.8473 34.6547 45.9232C34.7482 45.9978 34.8127 46.0989 34.8455 46.2215C34.8784 46.3453 34.886 46.4781 34.8645 46.6222L34.8455 46.7195L33.3351 46.717C33.3389 46.7006 33.3427 46.6841 33.3465 46.6677C33.3869 46.5135 33.4476 46.3694 33.526 46.2366Z" fill="white"/>
<path d="M39.0554 45.0055L38.1568 46.2833L37.6878 45.0055V45.0042H36.5629L37.3832 47.0215L35.7969 49.2322H37.0229L37.9697 47.881L38.4968 49.2322H39.6141L38.7584 47.1226L40.2776 45.0055H39.0554Z" fill="white"/>
<path d="M42.2923 43.9627H41.1939L41.0182 45.0055H40.4216L40.28 45.8018H40.8842L40.5025 48.0719C40.4798 48.3134 40.5025 48.527 40.5707 48.7102C40.6403 48.8935 40.754 49.0376 40.9145 49.1412C41.0751 49.2462 41.2798 49.3005 41.5301 49.3056C41.6401 49.3056 41.7475 49.298 41.8524 49.284C41.9586 49.2702 42.0623 49.2474 42.1671 49.2158L42.2455 48.3765C42.1886 48.3854 42.133 48.3917 42.0774 48.398C42.0218 48.4043 41.9687 48.4069 41.9131 48.4043C41.8133 48.3993 41.7412 48.3803 41.6944 48.3462C41.6476 48.3121 41.6186 48.2641 41.6072 48.1996C41.5958 48.1351 41.5958 48.058 41.6059 47.967L41.9776 45.8031H42.6765L42.8181 45.0068H42.1153L42.2948 43.964L42.2923 43.9627Z" fill="white"/>
<path d="M46.3501 45.5667C46.2225 45.3746 46.0543 45.2204 45.8458 45.1066C45.6372 44.9929 45.3857 44.9323 45.0912 44.9271C44.7752 44.9183 44.4895 44.9727 44.2329 45.0889C43.9763 45.2053 43.7551 45.3645 43.5668 45.5693C43.3797 45.774 43.2294 46.0092 43.1181 46.2746C43.0056 46.5412 42.9348 46.8206 42.9032 47.1151L42.8881 47.2756C42.8678 47.5563 42.8931 47.8204 42.9665 48.0656C43.0398 48.3095 43.1535 48.5257 43.309 48.7102C43.4632 48.8961 43.6566 49.0402 43.8892 49.1463C44.1217 49.2512 44.3821 49.3069 44.6703 49.3119H44.6715C44.8763 49.3144 45.0836 49.2892 45.2921 49.2361C45.5007 49.183 45.6953 49.0996 45.8761 48.9858C46.0569 48.8721 46.206 48.7267 46.3236 48.5497L45.8306 47.9557C45.6891 48.1023 45.5323 48.2186 45.3554 48.3058C45.1797 48.393 44.9875 48.4334 44.779 48.4284C44.616 48.4233 44.4782 48.3866 44.3707 48.3197C44.2633 48.2527 44.1773 48.1642 44.1167 48.0542C44.056 47.9443 44.0143 47.8217 43.994 47.6851C43.9827 47.6131 43.9776 47.541 43.9763 47.4678H46.5763L46.6383 46.9988C46.6661 46.7296 46.6573 46.473 46.6105 46.2265C46.5638 45.9801 46.4765 45.7614 46.3489 45.568L46.3501 45.5667ZM45.6069 46.6235L45.5879 46.7207L44.0775 46.7183C44.0813 46.7018 44.0851 46.6853 44.0888 46.6689C44.1293 46.5147 44.1899 46.3706 44.2683 46.2379C44.3454 46.1052 44.4465 45.999 44.5692 45.9168C44.6918 45.836 44.8422 45.798 45.0217 45.8031C45.1784 45.8081 45.3035 45.8486 45.3971 45.9244C45.4906 45.999 45.5551 46.1001 45.5879 46.2228C45.6208 46.3466 45.6284 46.4794 45.6069 46.6235Z" fill="white"/>
<path d="M49.907 44.9702C49.8413 44.9551 49.7781 44.9424 49.7174 44.9311C49.6567 44.9197 49.5935 44.9158 49.5278 44.9158C49.2775 44.9134 49.0651 44.9728 48.8933 45.0941C48.7808 45.1737 48.6822 45.2698 48.5949 45.3797L48.6355 45.0069H47.604L46.8696 49.2336H47.9668L48.4407 46.4971C48.5002 46.3884 48.5722 46.2949 48.6582 46.219C48.7479 46.1394 48.8541 46.0787 48.9767 46.037C49.0993 45.9953 49.2358 45.9763 49.3875 45.9789C49.4532 45.9814 49.5176 45.9865 49.5809 45.994C49.6441 46.0029 49.7073 46.0117 49.7705 46.0219L49.907 44.9715V44.9702Z" fill="white"/>
<path d="M49.76 49.2323H50.8571L51.5915 45.0056H50.4943L49.76 49.2323Z" fill="white"/>
<path d="M51.2278 43.3346C51.0559 43.3371 50.9094 43.3927 50.788 43.4989C50.6666 43.6063 50.6098 43.7478 50.6148 43.9249C50.6174 44.0968 50.6793 44.232 50.8006 44.3318C50.9219 44.4304 51.0648 44.4785 51.2291 44.4759C51.3984 44.4722 51.5438 44.4178 51.6664 44.3116C51.7891 44.2055 51.8472 44.0626 51.8421 43.8856C51.8421 43.7175 51.7815 43.5823 51.6589 43.4812C51.5362 43.38 51.3934 43.332 51.2291 43.3346H51.2278Z" fill="white"/>
<path d="M55.4884 45.5831C55.3468 45.3847 55.1648 45.228 54.9436 45.1104C54.7212 44.9941 54.4582 44.9322 54.1537 44.9271C53.8326 44.9196 53.5444 44.9726 53.2878 45.0864C53.0312 45.2002 52.8088 45.3569 52.6204 45.5591C52.4321 45.7613 52.2804 45.9939 52.1666 46.2581C52.0529 46.5222 51.9809 46.8054 51.9493 47.105L51.9379 47.1871V47.1846C51.9139 47.4665 51.9303 47.7332 51.9884 47.986C52.0466 48.2387 52.1439 48.4637 52.2855 48.6596C52.4258 48.8568 52.6078 49.0123 52.8316 49.1286C53.0552 49.2449 53.3169 49.3055 53.6165 49.3106C53.9325 49.3195 54.2181 49.2664 54.4759 49.1551C54.7338 49.0426 54.9563 48.8884 55.1459 48.6888C55.3355 48.489 55.4872 48.2577 55.6034 47.9973C55.7198 47.7357 55.7943 47.4564 55.8284 47.1593L55.836 47.0734C55.8626 46.7902 55.8461 46.5197 55.788 46.2644C55.7298 46.0091 55.6287 45.7816 55.4872 45.5844L55.4884 45.5831ZM54.7351 47.0721L54.7275 47.1542C54.7123 47.3009 54.6807 47.4488 54.634 47.6017C54.5872 47.7546 54.524 47.895 54.4431 48.0239C54.3622 48.1528 54.2598 48.2564 54.1347 48.3322C54.0109 48.4093 53.8604 48.4448 53.686 48.4397C53.523 48.4346 53.3927 48.3904 53.2992 48.3082C53.2057 48.2261 53.1387 48.1212 53.0982 47.9935C53.0578 47.8659 53.0351 47.7306 53.0299 47.589C53.0249 47.4475 53.0287 47.3135 53.0413 47.1884L53.0489 47.1024C53.0653 46.9558 53.0945 46.8067 53.1412 46.6525C53.1867 46.4982 53.2499 46.3567 53.3308 46.2265C53.4117 46.0963 53.5141 45.9914 53.6392 45.9118C53.7643 45.8321 53.9135 45.7955 54.0879 45.8006C54.251 45.8069 54.3811 45.8511 54.4747 45.9358C54.5682 46.0205 54.6352 46.1279 54.677 46.2568C54.7187 46.3857 54.7427 46.5235 54.7452 46.6676C54.749 46.8117 54.7452 46.947 54.7351 47.0721Z" fill="white"/>
<path d="M59.1578 44.9702C59.092 44.9551 59.0289 44.9424 58.9682 44.9311C58.9075 44.9197 58.8443 44.9158 58.7786 44.9158C58.5283 44.9134 58.3159 44.9728 58.1428 45.0941C58.0303 45.1737 57.9317 45.2698 57.8445 45.3797L57.885 45.0069H56.8535L56.1191 49.2336H57.2163L57.6903 46.4971C57.7497 46.3884 57.8217 46.2949 57.9077 46.219C57.9974 46.1394 58.1036 46.0787 58.2263 46.037C58.3488 45.9953 58.4853 45.9763 58.637 45.9789C58.7015 45.9814 58.7672 45.9865 58.8304 45.994C58.8936 46.0016 58.9568 46.0117 59.02 46.0219L59.1565 44.9715L59.1578 44.9702Z" fill="white"/>
<path d="M34.4492 39.027C34.4062 39.2001 34.3771 39.324 34.3619 39.3745C34.0863 40.641 34.1521 41.1403 35.1367 41.024C36.201 40.8938 36.3312 40.344 36.6775 39.027C36.699 38.9321 36.7281 38.8235 36.7648 38.6933C40.3469 38.2079 43.8645 37.9045 48.7055 37.5064C48.9015 37.49 49.0721 37.4723 49.2199 37.4507C49.2844 37.4444 49.3476 37.4394 49.4146 37.4331C50.8442 37.3004 50.8303 37.0501 50.9617 36.1628C51.1134 35.1528 49.991 35.1541 49.6535 35.1642H49.4929C47.3202 35.2211 45.7896 35.2325 43.4398 35.4878C41.4338 35.6559 39.4014 35.8783 37.4523 36.1236C37.8795 34.5967 38.2992 33.0989 38.2992 33.0989C38.2992 33.0989 38.7327 34.0329 39.9562 33.9381C41.693 33.8004 43.8064 32.1143 44.834 29.0162C45.9197 25.7236 45.8249 21.9898 43.6041 21.67C41.8092 21.416 40.9548 23.0022 40.8322 23.3195C40.8322 23.3195 41.2165 21.8786 40.0713 22.1326C38.9792 22.3715 38.7833 22.8556 38.5078 23.7316C38.4572 23.8832 37.5383 27.3073 36.5764 30.911C36.5625 30.9324 36.5473 30.9615 36.541 30.9905C36.3021 31.8084 35.8319 32.0763 35.4919 32.0978C34.3922 32.1698 36.7584 24.9121 36.9391 24.3534C37.178 23.6305 37.3158 23.0793 36.5119 22.776C35.9697 22.5737 35.2302 22.6458 35.0142 23.2247C34.9194 23.4712 34.8548 23.6443 34.8548 23.6443C34.8548 23.6443 34.2393 22.7254 32.8717 22.848C31.504 22.9707 29.775 24.6353 28.6374 27.5589C27.4947 30.4762 27.0018 34.6662 29.7079 35.0846C31.0832 35.2944 32.2409 34.5133 32.8414 33.2177C32.8414 33.2177 32.7327 34.086 33.6453 34.5133C34.0004 34.6789 34.8827 34.6144 35.722 34.1442C35.5045 34.9696 35.2948 35.7431 35.114 36.4383C29.2668 37.2485 24.6559 38.1535 24.6559 38.1535C24.6559 38.1535 27.8625 27.3049 28.5856 24.9247C29.1935 22.9277 28.0496 23.3612 27.2104 23.6077C26.3129 23.8681 25.8857 24.6214 25.4369 25.9966C23.4753 31.9967 21.9269 33.8636 20.8057 33.4579C19.7781 33.0888 23.0127 26.7209 22.2391 25.8816C21.5667 25.151 20.1839 25.194 19.9159 25.6212C19.6556 26.0485 20.0461 26.4466 19.8729 27.0546C19.7074 27.6625 18.4105 30.9552 18.274 31.6933C18.1363 32.4315 17.0151 36.5205 19.9893 36.3397C21.7474 36.2386 22.9494 34.9064 23.0796 34.5373C22.5298 36.1223 21.7474 38.692 21.7474 38.692C21.7474 38.692 18.1501 39.5894 15.2847 42.5927C13.0045 44.974 11.398 50.1045 14.7993 50.9222C20.0815 52.1963 22.5867 44.1258 23.8671 41.0872C28.152 40.1317 31.4219 39.5022 34.4479 39.0244L34.4492 39.027ZM39.7249 28.2364V28.2288C40.448 25.8626 41.1141 24.921 41.7372 24.653C43.2274 24.0159 43.5105 25.8828 42.3591 28.7268C41.0269 32.0119 39.4709 31.9398 38.8781 31.2889C38.8781 31.2889 38.9577 30.7251 39.7249 28.2351V28.2364ZM33.0663 29.6546C32.4293 31.1953 31.8289 32.2811 31.0035 32.2887C29.8242 32.2963 29.8521 30.5229 30.6926 28.287C31.4016 26.4124 32.6897 25.2256 33.3848 25.0954C34.0801 24.9652 34.8902 25.2547 33.0663 29.6546ZM17.4474 47.6081C14.6388 50.1196 15.3479 46.6828 16.3907 45.199C18.3739 42.3841 20.8273 41.6674 20.8273 41.6674C19.5822 45.3076 18.0263 47.0949 17.4474 47.6081Z" fill="white"/>
<path d="M48.409 33.1937C50.1318 33.1216 51.622 31.8767 52.1656 30.9501C52.4259 30.5014 52.5347 29.7999 52.4841 29.4877C52.3539 28.6118 51.818 28.4816 50.9066 29.6318C50.6816 29.8846 48.888 31.4848 48.0046 30.5368C47.3675 29.8492 47.9034 28.503 47.9325 28.503C49.0827 28.4159 51.0949 27.9533 52.6939 26.1079H52.6876C53.7518 24.878 54.236 22.259 52.4563 21.2959C50.2999 20.1305 47.4914 21.9115 46.3272 25.7463C45.292 29.154 44.9091 33.353 48.4115 33.1925L48.409 33.1937ZM50.109 23.1198V23.1273C51.0785 22.2223 51.9974 23.3081 50.8839 24.8578C49.7551 26.4289 48.4305 26.3846 48.4242 26.4352C48.5619 25.8196 49.0536 24.112 50.1103 23.1198H50.109Z" fill="white"/>
</g>
<defs>
<filter id="filter0_f_721_25698" x="-83.0642" y="-26.401" width="669.277" height="576.505" filterUnits="userSpaceOnUse" color-interpolation-filters="sRGB">
<feFlood flood-opacity="0" result="BackgroundImageFix"/>
<feBlend mode="normal" in="SourceGraphic" in2="BackgroundImageFix" result="shape"/>
<feGaussianBlur stdDeviation="77.9863" result="effect1_foregroundBlur_721_25698"/>
</filter>
<filter id="filter1_d_721_25698" x="62.8326" y="72.6058" width="394.335" height="48.6972" filterUnits="userSpaceOnUse" color-interpolation-filters="sRGB">
<feFlood flood-opacity="0" result="BackgroundImageFix"/>
<feColorMatrix in="SourceAlpha" type="matrix" values="0 0 0 0 0 0 0 0 0 0 0 0 0 0 0 0 0 0 127 0" result="hardAlpha"/>
<feOffset dy="5.22792"/>
<feGaussianBlur stdDeviation="2.61396"/>
<feComposite in2="hardAlpha" operator="out"/>
<feColorMatrix type="matrix" values="0 0 0 0 0 0 0 0 0 0 0 0 0 0 0 0 0 0 0.4 0"/>
<feBlend mode="normal" in2="BackgroundImageFix" result="effect1_dropShadow_721_25698"/>
<feBlend mode="normal" in="SourceGraphic" in2="effect1_dropShadow_721_25698" result="shape"/>
</filter>
<filter id="filter2_d_721_25698" x="-3.59613" y="110.847" width="527.192" height="50.4919" filterUnits="userSpaceOnUse" color-interpolation-filters="sRGB">
<feFlood flood-opacity="0" result="BackgroundImageFix"/>
<feColorMatrix in="SourceAlpha" type="matrix" values="0 0 0 0 0 0 0 0 0 0 0 0 0 0 0 0 0 0 127 0" result="hardAlpha"/>
<feOffset dy="3.59613"/>
<feGaussianBlur stdDeviation="1.79807"/>
<feComposite in2="hardAlpha" operator="out"/>
<feColorMatrix type="matrix" values="0 0 0 0 0 0 0 0 0 0 0 0 0 0 0 0 0 0 0.4 0"/>
<feBlend mode="normal" in2="BackgroundImageFix" result="effect1_dropShadow_721_25698"/>
<feBlend mode="normal" in="SourceGraphic" in2="effect1_dropShadow_721_25698" result="shape"/>
</filter>
<radialGradient id="paint0_radial_721_25698" cx="0" cy="0" r="1" gradientUnits="userSpaceOnUse" gradientTransform="translate(504.833 -327.526) rotate(82.1784) scale(640.372 577.736)">
<stop stop-color="#44DFD7"/>
<stop offset="1" stop-color="#6A029D"/>
</radialGradient>
<clipPath id="clip0_721_25698">
<rect width="520" height="392" rx="12" fill="white"/>
</clipPath>
<clipPath id="clip1_721_25698">
<rect width="213.863" height="572.477" fill="white" transform="translate(139.896 163)"/>
</clipPath>
</defs>
</svg>
