<svg width="40" height="41" viewBox="0 0 40 41" fill="none" xmlns="http://www.w3.org/2000/svg">
<path fill-rule="evenodd" clip-rule="evenodd" d="M20.0039 3.64258C24.4625 3.64425 28.6448 5.379 31.7918 8.52738C34.9388 11.6774 36.6706 15.8643 36.6673 20.3174C36.6623 29.5023 29.1864 36.9759 19.9941 36.9759C17.4188 36.9744 14.8855 36.3802 12.5962 35.2442L12.0291 34.949L4.11434 36.8189C4.03354 36.838 3.94926 36.8367 3.86911 36.8151C3.64059 36.7534 3.49201 36.5429 3.49952 36.3162L3.51664 36.202L5.5599 28.6304C4.10153 26.1043 3.33232 23.2376 3.33399 20.3011C3.33733 11.1146 10.8165 3.64258 20.0039 3.64258ZM20.0027 6.97591C12.6559 6.97591 6.66999 12.9573 6.66732 20.303C6.66609 22.469 7.1884 24.5884 8.1871 26.4923L8.44667 26.9637L9.13874 28.1625L7.97232 32.4809L12.5049 31.4115L13.6254 32.0228C15.5697 33.0834 17.762 33.6412 19.9941 33.6426C27.3448 33.6426 33.33 27.6616 33.334 20.3149C33.3367 16.7466 31.956 13.408 29.4343 10.8839C27.0373 8.48587 23.9074 7.11834 20.5368 6.98644L20.0027 6.97591ZM14.1051 12.6105L14.6481 12.6133L14.9003 12.6203C15.1973 12.632 15.5268 12.6481 15.8389 13.3405L16.1047 13.9583C16.4717 14.8338 16.9519 16.0407 17.0932 16.3643L17.1229 16.4298C17.2264 16.6383 17.2973 16.8827 17.1588 17.1597L16.9759 17.5193C16.9147 17.6277 16.8451 17.732 16.7416 17.8538L16.2659 18.4251L15.9837 18.7267C15.8359 18.9013 15.7452 19.1112 15.9334 19.4343L16.1697 19.8206C16.5535 20.4227 17.2777 21.4485 18.2506 22.315C19.2455 23.2013 20.1425 23.706 20.7772 24.0111L21.6008 24.3843C22.018 24.5928 22.26 24.5554 22.5036 24.2767L23.0617 23.6206C23.3523 23.2708 23.6663 22.8791 23.8202 22.6474C24.0972 22.2303 24.3767 22.3003 24.7588 22.4388C24.9058 22.4921 25.2991 22.6736 25.7512 22.8886L28.1208 24.0471C28.2554 24.1207 28.3507 24.19 28.4024 24.2767C28.5059 24.4486 28.5051 25.2853 28.158 26.258C27.8109 27.2307 26.1097 28.1676 25.3455 28.2361L24.7893 28.2942C24.1022 28.344 23.0551 28.2598 20.3494 27.1933C17.072 25.9016 14.729 23.0102 13.742 21.6417L13.2349 20.9105C13.0263 20.6318 11.5337 18.6513 11.5337 16.6025C11.5337 14.5536 12.6116 13.5474 12.9937 13.1319C13.3759 12.7148 13.8264 12.6105 14.1051 12.6105Z" fill="#742384"/>
</svg>
