<svg width="32" height="32" viewBox="0 0 32 32" fill="none" xmlns="http://www.w3.org/2000/svg">
<path fill-rule="evenodd" clip-rule="evenodd" d="M6.75621 24.7112H25.2451C26.0306 24.7112 26.6673 25.3479 26.6673 26.1334C26.6673 26.9189 26.0306 27.5556 25.2451 27.5556H6.75621C5.97073 27.5556 5.33398 26.9189 5.33398 26.1334C5.33398 25.3479 5.97073 24.7112 6.75621 24.7112Z" fill="#BD77C7"/>
<path fill-rule="evenodd" clip-rule="evenodd" d="M16.0004 7.19995C21.3023 7.19995 25.6004 11.498 25.6004 16.8V24.8H6.40039V16.8C6.40039 11.498 10.6985 7.19995 16.0004 7.19995Z" fill="#F4C12A"/>
<path fill-rule="evenodd" clip-rule="evenodd" d="M16.0002 16C16.442 16 16.8002 16.3582 16.8002 16.8V21.6C16.8002 22.0418 16.442 22.4 16.0002 22.4C15.5584 22.4 15.2002 22.0418 15.2002 21.6L15.2002 16.8C15.2002 16.3582 15.5584 16 16.0002 16Z" fill="white"/>
<path fill-rule="evenodd" clip-rule="evenodd" d="M16.0002 1.6001C16.442 1.6001 16.8002 1.95827 16.8002 2.4001V4.0001C16.8002 4.44193 16.442 4.8001 16.0002 4.8001C15.5584 4.8001 15.2002 4.44193 15.2002 4.0001V2.4001C15.2002 1.95827 15.5584 1.6001 16.0002 1.6001Z" fill="#BD77C7"/>
<path fill-rule="evenodd" clip-rule="evenodd" d="M30.4002 14.4001C30.4002 14.8419 30.042 15.2001 29.6002 15.2001H28.0002C27.5584 15.2001 27.2002 14.8419 27.2002 14.4001C27.2002 13.9583 27.5584 13.6001 28.0002 13.6001H29.6002C30.042 13.6001 30.4002 13.9583 30.4002 14.4001Z" fill="#BD77C7"/>
<path fill-rule="evenodd" clip-rule="evenodd" d="M27.5312 4.46869C27.8437 4.78111 27.8437 5.28764 27.5312 5.60006L26.3999 6.73143C26.0874 7.04385 25.5809 7.04385 25.2685 6.73143C24.9561 6.41901 24.9561 5.91248 25.2685 5.60006L26.3999 4.46869C26.7123 4.15627 27.2188 4.15627 27.5312 4.46869Z" fill="#BD77C7"/>
<path fill-rule="evenodd" clip-rule="evenodd" d="M4.79961 14.4001C4.79961 14.8419 4.44144 15.2001 3.99961 15.2001H2.39961C1.95778 15.2001 1.59961 14.8419 1.59961 14.4001C1.59961 13.9583 1.95778 13.6001 2.39961 13.6001H3.99961C4.44144 13.6001 4.79961 13.9583 4.79961 14.4001Z" fill="#BD77C7"/>
<path fill-rule="evenodd" clip-rule="evenodd" d="M6.82811 6.8286C6.51569 7.14102 6.00916 7.14102 5.69674 6.8286L4.56537 5.69723C4.25295 5.38481 4.25295 4.87828 4.56537 4.56586C4.87779 4.25344 5.38432 4.25344 5.69674 4.56586L6.82811 5.69723C7.14053 6.00965 7.14053 6.51618 6.82811 6.8286Z" fill="#BD77C7"/>
<path d="M16.0002 14.4C16.442 14.4 16.8002 14.0419 16.8002 13.6C16.8002 13.1582 16.442 12.8 16.0002 12.8C15.5584 12.8 15.2002 13.1582 15.2002 13.6C15.2002 14.0419 15.5584 14.4 16.0002 14.4Z" fill="white"/>
</svg>
