<svg width="40" height="41" viewBox="0 0 40 41" fill="none" xmlns="http://www.w3.org/2000/svg">
<path d="M30.43 3.30957H23.57C21.0461 3.30957 19 5.35563 19 7.87957V14.7396C19 17.2635 21.0461 19.3096 23.57 19.3096H30.43C32.9539 19.3096 35 17.2635 35 14.7396V7.87957C35 5.35563 32.9539 3.30957 30.43 3.30957Z" fill="#742384"/>
<path d="M27 5.30957C29.93 5.30957 32.31 7.63957 32.4 10.5496V11.1696C32.77 11.4996 33 11.9796 33 12.5096V13.7096C33 14.4896 32.5 14.9596 31.8 15.2096V16.1096C31.8 16.7696 31.26 17.3096 30.6 17.3096H27C26.67 17.3096 26.4 17.0396 26.4 16.7096C26.4 16.3796 26.67 16.1096 27 16.1096H30.6V15.3096C29.94 15.3096 29.4 14.9696 29.4 14.3096V11.9096C29.4 11.2496 29.94 10.7096 30.6 10.7096H31.2C31.2 8.38957 29.32 6.50957 27 6.50957C24.68 6.50957 22.88 8.45957 22.8 10.7096H23.4C24.06 10.7096 24.6 11.2496 24.6 11.9096V14.1096C24.6 14.7696 24.06 15.3096 23.4 15.3096H22.8C21.81 15.3096 21 14.4996 21 13.5096V12.5096C21 11.9796 21.23 11.4996 21.6 11.1696V10.7096C21.6 7.72957 24.02 5.30957 27 5.30957Z" fill="white"/>
<path d="M30 28.888C32.4365 28.888 34.5 26.9128 34.5 24.4763V21.3096H31.4706V24.4763C31.4706 25.2885 30.8122 25.9469 30 25.9469H9.41176C8.59958 25.9469 7.94118 25.2885 7.94118 24.4763V12.7116C7.94118 11.8994 8.59958 11.241 9.41176 11.241H17V8.2998H9.41176C6.97521 8.2998 5 10.275 5 12.7116V24.4763C5 26.9128 6.97521 28.888 9.41176 28.888H16.7647V32.3684H13.8235C13.0113 32.3684 12.3529 33.0268 12.3529 33.839C12.3529 34.6512 13.0113 35.3096 13.8235 35.3096H25.5882C26.4004 35.3096 27.0588 34.6512 27.0588 33.839C27.0588 33.0268 26.4004 32.3684 25.5882 32.3684H22.6471V28.888H30Z" fill="#742384"/>
</svg>
