<svg width="32" height="32" viewBox="0 0 32 32" fill="none" xmlns="http://www.w3.org/2000/svg">
<path d="M14.6501 3.78607C15.3805 3.00458 16.6198 3.00458 17.3502 3.78607L19.347 5.92251C19.7113 6.31228 20.2263 6.52559 20.7595 6.50757L23.6821 6.4088C24.7511 6.37267 25.6275 7.249 25.5913 8.31806L25.4926 11.2407C25.4746 11.7739 25.6879 12.2888 26.0776 12.6531L28.2141 14.6499C28.9956 15.3803 28.9956 16.6196 28.2141 17.35L26.0776 19.3468C25.6879 19.711 25.4746 20.226 25.4926 20.7592L25.5913 23.6818C25.6275 24.7509 24.7511 25.6272 23.6821 25.5911L20.7595 25.4923C20.2263 25.4743 19.7113 25.6876 19.347 26.0774L17.3502 28.2138C16.6198 28.9953 15.3805 28.9953 14.6501 28.2138L12.6534 26.0774C12.2891 25.6876 11.7741 25.4743 11.2409 25.4923L8.3183 25.5911C7.24924 25.6272 6.37292 24.7509 6.40905 23.6818L6.50782 20.7592C6.52584 20.226 6.31253 19.7111 5.92275 19.3468L3.78631 17.35C3.00482 16.6196 3.00482 15.3803 3.78631 14.6499L5.92275 12.6531C6.31253 12.2888 6.52584 11.7739 6.50782 11.2407L6.40905 8.31806C6.37292 7.249 7.24924 6.37267 8.3183 6.4088L11.2409 6.50757C11.7741 6.52559 12.2891 6.31228 12.6534 5.92251L14.6501 3.78607Z" fill="url(#paint0_linear_721_29345)"/>
<path fill-rule="evenodd" clip-rule="evenodd" d="M10.0682 14.8687C10.6931 14.2438 11.7061 14.2438 12.331 14.8687L15.531 18.0687C16.1558 18.6935 16.1558 19.7066 15.531 20.3314C14.9061 20.9562 13.8931 20.9562 13.2682 20.3314L10.0682 17.1314C9.4434 16.5066 9.4434 15.4935 10.0682 14.8687Z" fill="white"/>
<path fill-rule="evenodd" clip-rule="evenodd" d="M21.9318 11.6686C21.3069 11.0437 20.2939 11.0437 19.669 11.6686L13.269 18.0686C12.6442 18.6934 12.6442 19.7065 13.269 20.3313C13.8939 20.9562 14.9069 20.9562 15.5318 20.3313L21.9318 13.9313C22.5566 13.3065 22.5566 12.2934 21.9318 11.6686Z" fill="white"/>
<defs>
<linearGradient id="paint0_linear_721_29345" x1="3.20019" y1="17.0568" x2="28.8002" y2="17.0568" gradientUnits="userSpaceOnUse">
<stop stop-color="#5C0BB8"/>
<stop offset="1" stop-color="#B123CE"/>
</linearGradient>
</defs>
</svg>
