<svg width="24" height="25" viewBox="0 0 24 25" fill="none" xmlns="http://www.w3.org/2000/svg">
<path d="M13.7577 2.3125L14.8504 2.32438L15.4818 2.34225C15.6823 2.34966 15.8844 2.35859 16.1228 2.36932C17.1878 2.41832 17.9138 2.58732 18.5508 2.83432C19.2078 3.08932 19.7658 3.43232 20.3208 3.98732C20.8778 4.54432 21.2198 5.10132 21.4758 5.75932C21.6981 6.33172 21.8572 6.97783 21.9218 7.87699L21.9613 8.68289C21.9845 9.26291 21.9948 9.76188 21.9983 10.9847L21.9953 14.2874L21.9875 15.0071L21.9737 15.5936C21.9651 15.8633 21.9541 16.1159 21.9398 16.4323C21.8918 17.4973 21.7228 18.2233 21.4758 18.8593C21.2198 19.5173 20.8778 20.0753 20.3208 20.6313C19.7658 21.1873 19.2078 21.5293 18.5508 21.7843C17.9775 22.0066 17.3321 22.1657 16.4324 22.2311L15.6266 22.2708L14.0006 22.3095L14 15.3095H16.5906L17 12.3095H14V10.3095C14 9.80288 14.3703 9.37576 14.88 9.31733L15 9.31052L17 9.30952V6.42767L16.6379 6.39144C16.19 6.35367 15.4483 6.30952 14.6227 6.30952C12.3434 6.30952 11.0796 7.63065 11.0029 10.0645L10.9992 10.3035V12.3095H8.00001V15.3095H11L11 22.3065L10.0217 22.3049L9.30203 22.297L8.71555 22.2832C8.4458 22.2746 8.19324 22.2636 7.87681 22.2493C6.81281 22.2003 6.08581 22.0313 5.44881 21.7843C4.79181 21.5293 4.23381 21.1873 3.67881 20.6313C3.12181 20.0753 2.77981 19.5173 2.52481 18.8593C2.27781 18.2233 2.10881 17.4973 2.06081 16.4323L2.01791 15.2917L2.00184 13.7976L2 12.8561L2.00301 10.5516L2.01176 9.63987L2.02586 9.0392C2.0346 8.76425 2.04602 8.50841 2.06081 8.18632C2.10881 7.12232 2.27781 6.39532 2.52481 5.75932C2.77981 5.10132 3.12181 4.54432 3.67881 3.98732C4.23381 3.43232 4.79181 3.08932 5.44881 2.83432C6.08581 2.58732 6.81281 2.41832 7.87681 2.36932L9.01741 2.32721L10.0939 2.31332L13.7577 2.3125Z" fill="#742384"/>
</svg>
